<?xml version="1.0" encoding="UTF-8" standalone="no"?>
<svg
   width="262.273047pt"
   height="144.639375pt"
   viewBox="0 0 262.273047 144.639375"
   version="1.1"
   id="svg77"
   sodipodi:docname="reaction_profile.svg"
   inkscape:version="1.4 (e7c3feb100, 2024-10-09)"
   xmlns:inkscape="http://www.inkscape.org/namespaces/inkscape"
   xmlns:sodipodi="http://sodipodi.sourceforge.net/DTD/sodipodi-0.dtd"
   xmlns:xlink="http://www.w3.org/1999/xlink"
   xmlns="http://www.w3.org/2000/svg"
   xmlns:svg="http://www.w3.org/2000/svg"
   xmlns:rdf="http://www.w3.org/1999/02/22-rdf-syntax-ns#"
   xmlns:cc="http://creativecommons.org/ns#"
   xmlns:dc="http://purl.org/dc/elements/1.1/">
  <sodipodi:namedview
     id="namedview77"
     pagecolor="#ffffff"
     bordercolor="#000000"
     borderopacity="0.25"
     inkscape:showpageshadow="2"
     inkscape:pageopacity="0.0"
     inkscape:pagecheckerboard="0"
     inkscape:deskcolor="#d1d1d1"
     inkscape:document-units="pt"
     showgrid="false"
     inkscape:zoom="3.0969634"
     inkscape:cx="105.42585"
     inkscape:cy="139.97582"
     inkscape:window-width="1880"
     inkscape:window-height="1130"
     inkscape:window-x="0"
     inkscape:window-y="0"
     inkscape:window-maximized="0"
     inkscape:current-layer="svg77" />
  <metadata
     id="metadata1">
    <rdf:RDF>
      <cc:Work>
        <dc:type
           rdf:resource="http://purl.org/dc/dcmitype/StillImage" />
        <dc:date>2025-01-19T20:12:28.124104</dc:date>
        <dc:format>image/svg+xml</dc:format>
        <dc:creator>
          <cc:Agent>
            <dc:title>Matplotlib v3.9.0, https://matplotlib.org/</dc:title>
          </cc:Agent>
        </dc:creator>
      </cc:Work>
    </rdf:RDF>
  </metadata>
  <defs
     id="defs1">
    <marker
       style="overflow:visible"
       id="ArrowTriangleStylized"
       refX="0"
       refY="0"
       orient="auto-start-reverse"
       inkscape:stockid="Stylized triangle arrow"
       markerWidth="1"
       markerHeight="1"
       viewBox="0 0 1 1"
       inkscape:isstock="true"
       inkscape:collect="always"
       preserveAspectRatio="xMidYMid">
      <path
         transform="scale(0.5)"
         style="fill:context-stroke;fill-rule:evenodd;stroke:context-stroke;stroke-width:1pt"
         d="m 6,0 c -3,1 -7,3 -9,5 0,0 0,-4 2,-5 -2,-1 -2,-5 -2,-5 2,2 6,4 9,5 z"
         id="path4" />
    </marker>
    <style
       type="text/css"
       id="style1">*{stroke-linejoin: round; stroke-linecap: butt}</style>
  </defs>
  <path
     d="M 0,144.63937 H 262.27305 V 0 H 0 Z"
     style="fill:none"
     id="path1" />
  <g
     id="patch_2">
    <path
       d="M 31.873047,117.31 H 255.07305 V 7.2 H 31.873047 Z"
       style="fill:none"
       id="path2" />
  </g>
  <g
     id="line2d_1">
    <path
       d="M 60.505117,117.31 V 7.2"
       clip-path="url(#pb9ad0e2ec0)"
       style="fill:none;stroke:#808080;stroke-width:0.25;stroke-linecap:square"
       id="path3" />
  </g>
  <g
     id="line2d_2">
    <defs
       id="defs3">
      <path
         id="mdc46a76704"
         d="M 0,0 V -6"
         style="stroke:#000000;stroke-width:0.4" />
    </defs>
    <g
       id="g3">
      <use
         xlink:href="#mdc46a76704"
         x="60.505116"
         y="117.31"
         style="stroke:#000000;stroke-width:0.4"
         id="use3" />
    </g>
  </g>
  <g
     id="line2d_3">
    <path
       d="M 109.30978,117.31 V 7.2"
       clip-path="url(#pb9ad0e2ec0)"
       style="fill:none;stroke:#808080;stroke-width:0.25;stroke-linecap:square"
       id="path6" />
  </g>
  <g
     id="line2d_4">
    <g
       id="g7">
      <use
         xlink:href="#mdc46a76704"
         x="109.30978"
         y="117.31"
         style="stroke:#000000;stroke-width:0.4"
         id="use7" />
    </g>
  </g>
  <g
     id="line2d_5">
    <path
       d="M 158.11445,117.31 V 7.2"
       clip-path="url(#pb9ad0e2ec0)"
       style="fill:none;stroke:#808080;stroke-width:0.25;stroke-linecap:square"
       id="path10" />
  </g>
  <g
     id="line2d_6">
    <g
       id="g11">
      <use
         xlink:href="#mdc46a76704"
         x="158.11444"
         y="117.31"
         style="stroke:#000000;stroke-width:0.4"
         id="use11" />
    </g>
  </g>
  <g
     id="line2d_7">
    <path
       d="M 206.91911,117.31 V 7.2"
       clip-path="url(#pb9ad0e2ec0)"
       style="fill:none;stroke:#808080;stroke-width:0.25;stroke-linecap:square"
       id="path14" />
  </g>
  <g
     id="line2d_8">
    <g
       id="g15">
      <use
         xlink:href="#mdc46a76704"
         x="206.91911"
         y="117.31"
         style="stroke:#000000;stroke-width:0.4"
         id="use15" />
    </g>
  </g>
  <g
     id="matplotlib.axis_2">
    <g
       id="ytick_1">
      <g
         id="line2d_9">
        <path
           d="M 31.873047,113.5131 H 255.07305"
           clip-path="url(#pb9ad0e2ec0)"
           style="fill:none;stroke:#808080;stroke-width:0.25;stroke-linecap:square"
           id="path31" />
      </g>
      <g
         id="line2d_10">
        <defs
           id="defs31">
          <path
             id="m71a622a62d"
             d="M 0,0 H 6"
             style="stroke:#000000;stroke-width:0.4" />
        </defs>
        <g
           id="g32">
          <use
             xlink:href="#m71a622a62d"
             x="31.873047"
             y="113.5131"
             style="stroke:#000000;stroke-width:0.4"
             id="use32" />
        </g>
      </g>
      <g
         id="text_6">
        <!-- 0 -->
        <g
           transform="matrix(0.095,0,0,-0.095,26.257031,116.82994)"
           id="g33">
          <path
             id="use33"
             d="M 23.296875,57.078125 Q 12.5,57.078125 12.5,28.71875 q 0,-3.078125 0.140625,-6.0625 0.15625,-2.984375 0.8125,-6.765625 0.65625,-3.78125 1.75,-6.5 Q 16.3125,6.6875 18.265625,4.78125 20.21875,2.875 22.90625,2.875 q 1.3125,0 2.65625,0.515625 1.34375,0.515625 3.296875,2.765625 1.953125,2.25 2.921875,6.046875 Q 33.5,18.40625 33.5,31.6875 q 0,9.53125 -1.671875,15.625 -1.65625,6.109375 -4.140625,8.203125 -1.8125,1.5625 -4.390625,1.5625 z m -0.5,-58.0625 q -8.875,0 -13.890625,8.546875 -5,8.546875 -5,21.34375 0,14.203125 5.78125,23.140625 5.796875,8.9375 13.609375,8.9375 5.703125,0 9.515625,-3.46875 9.28125,-8.484375 9.28125,-26.609375 0,-8.296875 -1.90625,-14.75 Q 38.28125,9.71875 35.296875,6.09375 32.328125,2.484375 29.09375,0.75 25.875,-0.984375 22.796875,-0.984375 Z"
             style="stroke-width:0.015625" />
        </g>
      </g>
    </g>
    <g
       id="ytick_2">
      <g
         id="line2d_11">
        <path
           d="M 31.873047,75.544138 H 255.07305"
           clip-path="url(#pb9ad0e2ec0)"
           style="fill:none;stroke:#808080;stroke-width:0.25;stroke-linecap:square"
           id="path33" />
      </g>
      <g
         id="line2d_12">
        <g
           id="g34">
          <use
             xlink:href="#m71a622a62d"
             x="31.873047"
             y="75.544136"
             style="stroke:#000000;stroke-width:0.4"
             id="use34" />
        </g>
      </g>
      <g
         id="text_7">
        <!-- 50 -->
        <g
           transform="matrix(0.095,0,0,-0.095,21.841016,78.860974)"
           id="g36">
          <path
             id="use35"
             d="m 20.21875,-0.984375 q -8.6875,0 -15.140625,5.578125 L 4.6875,4.890625 l 2.203125,8 1.40625,0.09375 Q 8.59375,12.5 9.4375,10.890625 10.296875,9.28125 10.546875,8.84375 q 0.25,-0.4375 1.046875,-1.59375 0.8125,-1.140625 1.203125,-1.484375 0.390625,-0.34375 1.28125,-1.109375 0.90625,-0.75 1.765625,-0.953125 0.859375,-0.1875 2,-0.453125 Q 19,2.984375 20.40625,2.984375 q 5.078125,0 8.21875,4.046875 3.15625,4.046875 3.15625,10.890625 0,7.90625 -3.203125,11.984375 -3.1875,4.078125 -8.265625,4.078125 -4.6875,0 -12.40625,-3.078125 l -0.734375,0.25 3.234375,29.4375 q 6.78125,-0.578125 11.375,-0.578125 8.296875,0 16.40625,0.96875 L 38.921875,60.6875 37.3125,53.90625 q -4.890625,-0.578125 -10.5,-0.578125 -6.015625,0 -12.703125,0.875 L 12.015625,36.53125 q 4.09375,1.5 10.890625,1.453125 8.09375,0 12.875,-5.390625 4.796875,-5.390625 4.796875,-13.015625 0,-8.890625 -5.734375,-14.734375 -5.734375,-5.828125 -14.625,-5.828125 z"
             style="stroke-width:0.015625" />
          <path
             id="use36"
             d="m 69.78125,57.078125 q -10.796875,0 -10.796875,-28.359375 0,-3.078125 0.140625,-6.0625 0.15625,-2.984375 0.8125,-6.765625 0.65625,-3.78125 1.75,-6.5 Q 62.796875,6.6875 64.75,4.78125 66.703125,2.875 69.390625,2.875 q 1.3125,0 2.65625,0.515625 1.34375,0.515625 3.296875,2.765625 1.953125,2.25 2.921875,6.046875 1.71875,6.203125 1.71875,19.484375 0,9.53125 -1.671875,15.625 -1.65625,6.109375 -4.140625,8.203125 -1.8125,1.5625 -4.390625,1.5625 z m -0.5,-58.0625 q -8.875,0 -13.890625,8.546875 -5,8.546875 -5,21.34375 0,14.203125 5.78125,23.140625 5.796875,8.9375 13.609375,8.9375 5.703125,0 9.515625,-3.46875 9.28125,-8.484375 9.28125,-26.609375 0,-8.296875 -1.90625,-14.75 Q 84.765625,9.71875 81.78125,6.09375 78.8125,2.484375 75.578125,0.75 72.359375,-0.984375 69.28125,-0.984375 Z"
             style="stroke-width:0.015625" />
        </g>
      </g>
    </g>
    <g
       id="ytick_3">
      <g
         id="line2d_13">
        <path
           d="M 31.873047,37.575172 H 255.07305"
           clip-path="url(#pb9ad0e2ec0)"
           style="fill:none;stroke:#808080;stroke-width:0.25;stroke-linecap:square"
           id="path36" />
      </g>
      <g
         id="line2d_14">
        <g
           id="g37">
          <use
             xlink:href="#m71a622a62d"
             x="31.873047"
             y="37.575172"
             style="stroke:#000000;stroke-width:0.4"
             id="use37" />
        </g>
      </g>
      <g
         id="text_8">
        <!-- 100 -->
        <g
           transform="matrix(0.095,0,0,-0.095,17.425,40.892008)"
           id="g40">
          <defs
             id="defs37">
            <path
               id="LinBiolinum-31"
               d="m 2088,1209 q 0,-715 56,-1209 l -13,-19 q -178,19 -306,19 0,0 -297,-19 l -6,19 q 50,416 53,1209 v 1588 q 0,487 -116,487 -71,0 -334,-45 -262,-45 -397,-58 l -37,185 q 268,84 741,282 474,199 662,255 44,0 44,-31 -50,-359 -50,-1038 z"
               transform="scale(0.015625)" />
          </defs>
          <use
             xlink:href="#LinBiolinum-31"
             id="use38" />
          <path
             id="use39"
             d="m 69.78125,57.078125 q -10.796875,0 -10.796875,-28.359375 0,-3.078125 0.140625,-6.0625 0.15625,-2.984375 0.8125,-6.765625 0.65625,-3.78125 1.75,-6.5 Q 62.796875,6.6875 64.75,4.78125 66.703125,2.875 69.390625,2.875 q 1.3125,0 2.65625,0.515625 1.34375,0.515625 3.296875,2.765625 1.953125,2.25 2.921875,6.046875 1.71875,6.203125 1.71875,19.484375 0,9.53125 -1.671875,15.625 -1.65625,6.109375 -4.140625,8.203125 -1.8125,1.5625 -4.390625,1.5625 z m -0.5,-58.0625 q -8.875,0 -13.890625,8.546875 -5,8.546875 -5,21.34375 0,14.203125 5.78125,23.140625 5.796875,8.9375 13.609375,8.9375 5.703125,0 9.515625,-3.46875 9.28125,-8.484375 9.28125,-26.609375 0,-8.296875 -1.90625,-14.75 Q 84.765625,9.71875 81.78125,6.09375 78.8125,2.484375 75.578125,0.75 72.359375,-0.984375 69.28125,-0.984375 Z"
             style="stroke-width:0.015625" />
          <path
             id="use40"
             d="m 116.26563,57.078125 q -10.79688,0 -10.79688,-28.359375 0,-3.078125 0.14063,-6.0625 0.15625,-2.984375 0.8125,-6.765625 0.65625,-3.78125 1.75,-6.5 Q 109.28125,6.6875 111.23438,4.78125 113.1875,2.875 115.875,2.875 q 1.3125,0 2.65625,0.515625 1.34375,0.515625 3.29688,2.765625 1.95312,2.25 2.92187,6.046875 1.71875,6.203125 1.71875,19.484375 0,9.53125 -1.67187,15.625 -1.65625,6.109375 -4.14063,8.203125 -1.8125,1.5625 -4.39062,1.5625 z m -0.5,-58.0625 q -8.875,0 -13.89063,8.546875 -5,8.546875 -5,21.34375 0,14.203125 5.78125,23.140625 5.79688,8.9375 13.60938,8.9375 5.70312,0 9.51562,-3.46875 9.28125,-8.484375 9.28125,-26.609375 0,-8.296875 -1.90625,-14.75 Q 131.25,9.71875 128.26562,6.09375 125.29688,2.484375 122.0625,0.75 q -3.21875,-1.734375 -6.29687,-1.734375 z"
             style="stroke-width:0.015625" />
        </g>
      </g>
    </g>
    <g
       id="text_9">
      <!-- $\mathbf{free\ energy}\mathdefault{\ \ [kJ/mol]}$ -->
      <g
         transform="matrix(0,-0.095,-0.095,0,13.945,105.575)"
         id="g58">
        <defs
           id="defs40">
          <path
             id="LinBiolinumB-66"
             d="m 1069,4025 q 422,441 1234,444 263,0 353,-60 l 7,-18 q -32,-50 -59,-172 -26,-122 -51,-266 -25,-144 -37,-209 l -194,-6 q -50,90 -82,137 -31,47 -106,98 -75,52 -156,52 -256,0 -413,-166 -156,-165 -156,-434 0,-72 16,-302 16,-229 16,-314 v -62 h 690 q 50,0 50,-41 v -197 q 0,-84 -147,-84 H 1441 V 1281 q 0,-856 50,-1281 l -13,-19 Q 1253,0 1038,0 L 556,-19 550,0 q 44,325 44,1281 V 2425 H 172 q -31,0 -31,38 v 156 q 0,128 147,128 h 306 v 191 q 0,593 475,1087 z"
             transform="scale(0.015625)" />
          <path
             id="LinBiolinumB-72"
             d="m 1441,2234 q 153,225 360,400 208,175 415,175 172,0 325,-43 l 25,-25 -128,-660 -116,-12 q -153,122 -369,119 -84,0 -191,-32 -106,-31 -226,-172 -120,-140 -120,-365 v -466 q 0,-697 62,-1153 l -12,-19 Q 1159,0 941,0 L 513,-19 506,0 q 63,434 63,1153 v 350 q 0,850 -69,1244 l 13,19 q 550,-25 831,18 44,0 56,-64 13,-64 13,-467 z"
             transform="scale(0.015625)" />
          <path
             id="LinBiolinumB-67"
             d="m 2938,1850 q 0,-434 -358,-691 -358,-256 -930,-256 -316,0 -481,69 -75,-113 -75,-288 0,-306 372,-306 12,0 42,3 30,3 80,10 243,31 403,31 256,0 473,-35 217,-34 440,-119 224,-84 355,-265 132,-181 132,-437 0,-250 -185,-477 -184,-227 -478,-373 -487,-241 -1287,-238 -313,0 -576,60 -262,59 -461,233 -198,173 -198,435 0,319 141,500 72,44 269,133 197,89 268,136 -506,78 -506,500 0,153 169,312 169,160 387,238 l 13,31 q -159,50 -253,116 -350,244 -347,653 0,447 361,715 361,269 898,269 288,0 463,-56 178,10 596,25 419,16 591,31 l 22,-18 q -19,-85 -22,-185 0,-87 22,-175 l -22,-18 q -81,6 -309,29 -228,24 -338,27 72,-50 134,-124 63,-73 105,-155 43,-81 66,-170 24,-89 24,-170 z m -850,-6 q 0,384 -91,546 -91,163 -366,163 -434,0 -434,-697 0,-378 89,-538 89,-159 364,-159 438,0 438,685 z M 1172,-103 q -206,-213 -206,-563 0,-287 218,-427 219,-141 435,-141 415,0 677,178 263,178 263,475 0,159 -67,258 -67,98 -198,144 -131,45 -247,58 -116,12 -281,12 -32,0 -185,-3 -153,-4 -262,-4 -44,0 -147,13 z"
             transform="scale(0.015625)" />
          <path
             id="LinBiolinumB-79"
             d="m 178,2766 q 91,-19 566,-19 319,0 403,19 244,-750 753,-1966 l 59,-6 q 372,831 735,1972 62,-19 403,-19 212,0 275,19 -384,-775 -1075,-2274 -691,-1498 -844,-2008 -109,32 -312,32 -300,0 -413,-32 103,169 201,366 99,197 152,317 53,120 158,372 105,252 142,339 l -15,44 Q 1194,375 789,1340 384,2306 178,2766 Z"
             transform="scale(0.015625)" />
          <path
             id="LinBiolinum-6b"
             d="m 575,1281 v 1803 q 0,916 -56,1235 l 12,22 q 288,18 557,128 56,0 59,-66 -56,-775 -59,-1203 V 1538 q 71,6 148,29 77,24 133,64 197,153 504,486 308,333 508,630 525,0 647,19 l 13,-19 Q 2413,2216 1747,1522 2022,1197 2256,944 2491,691 2759,425 3028,159 3175,0 l -12,-19 q -97,19 -385,19 -256,0 -422,-19 -281,403 -378,540 -97,138 -263,340 -165,202 -365,414 -72,63 -262,69 v -63 q 0,-856 59,-1281 l -16,-19 Q 1016,0 831,0 647,0 531,-19 L 519,0 q 56,409 56,1281 z"
             transform="scale(0.015625)" />
          <path
             id="LinBiolinum-4a"
             d="m 897,609 v 2238 q 0,825 -66,1281 l 13,19 q 115,-19 328,-19 219,0 331,19 l 6,-19 q -62,-422 -62,-1281 V 750 q 0,-544 -74,-787 -73,-244 -329,-579 -378,-487 -1013,-484 -197,0 -287,56 l -7,19 q 79,134 179,525 l 71,6 q 122,-225 372,-222 179,0 294,118 116,117 163,342 47,225 64,411 17,186 17,454 z"
             transform="scale(0.015625)" />
          <path
             id="LinBiolinum-2f"
             d="M 1875,4134 359,-378 H 97 l 1516,4512 z"
             transform="scale(0.015625)" />
          <path
             id="LinBiolinum-6d"
             d="m 1038,2253 18,-19 q 544,575 1075,575 269,0 452,-138 183,-137 226,-368 482,506 1082,506 475,0 634,-259 159,-259 159,-759 v -638 q 0,-744 60,-1153 l -16,-19 Q 4613,0 4428,0 4244,0 4128,-19 l -12,19 q 56,391 56,1153 v 703 q 0,313 -122,441 -122,128 -391,128 -468,0 -812,-384 6,-78 6,-244 v -644 q 0,-744 60,-1153 l -13,-19 Q 2784,0 2598,0 2413,0 2297,-19 l -13,19 q 57,391 60,1153 v 703 q 0,569 -425,569 -172,0 -416,-138 -244,-137 -465,-362 v -772 q 0,-744 56,-1153 l -13,-19 Q 966,0 780,0 594,0 481,-19 L 469,0 q 56,391 56,1153 v 350 q 0,885 -56,1244 l 12,19 q 282,-25 516,18 37,0 41,-65 z"
             transform="scale(0.015625)" />
          <path
             id="LinBiolinum-6f"
             d="m 244,1313 q 0,678 376,1087 377,409 1005,409 641,0 986,-388 345,-387 345,-1052 Q 2956,728 2592,332 2228,-63 1600,-63 978,-63 611,328 244,719 244,1313 Z m 1337,1240 q -281,0 -464,-172 -183,-172 -247,-413 -64,-240 -64,-546 0,-288 64,-544 64,-256 269,-472 205,-215 517,-215 319,0 528,301 210,302 210,761 0,647 -169,973 -169,327 -644,327 z"
             transform="scale(0.015625)" />
          <path
             id="LinBiolinum-6c"
             d="m 575,1281 v 1803 q 0,916 -56,1235 l 12,22 q 288,18 557,128 56,0 59,-66 -56,-775 -59,-1203 V 1281 q 0,-856 59,-1281 l -16,-19 Q 1016,0 831,0 647,0 531,-19 L 519,0 q 56,409 56,1281 z"
             transform="scale(0.015625)" />
        </defs>
        <use
           xlink:href="#LinBiolinumB-66"
           transform="translate(0,0.6875)"
           id="use41" />
        <use
           xlink:href="#LinBiolinumB-72"
           transform="translate(37.597656,0.6875)"
           id="use42" />
        <path
           id="use43"
           d="m 96.875,28.171875 h 15.23438 q 0.20312,0.203125 0.20312,2.109375 0,5.421875 -2.15625,7.609375 -2.14062,2.203125 -4.78125,2.203125 -3.51562,0 -5.375,-2.875 -3.03125,-4.453125 -3.125,-9.046875 z m 27,-14.59375 q 1.51563,0 1.51563,-3.078125 -7.42188,-10.796875 -18.70313,-10.796875 -10.78125,0 -16.3125,4.984375 -3.0625,2.78125 -4.875,7.25 -1.8125,4.46875 -1.8125,8.96875 0,10.984375 6.640625,17.578125 6.640625,6.59375 15.671875,6.59375 10.10938,0 14.54688,-5.203125 Q 125,34.671875 125,27.296875 125,23.6875 122.07813,23.6875 H 96.484375 v -1.609375 q 0,-8.5 3.703125,-11.65625 3.71875,-3.140625 10.40625,-3.140625 2.98438,0 6.6875,1.65625 3.71875,1.65625 6.59375,4.640625 z"
           style="stroke-width:0.015625" />
        <path
           id="use44"
           d="m 146.875,28.171875 h 15.23437 q 0.20313,0.203125 0.20313,2.109375 0,5.421875 -2.15625,7.609375 -2.14063,2.203125 -4.78125,2.203125 -3.51563,0 -5.375,-2.875 -3.03125,-4.453125 -3.125,-9.046875 z m 27,-14.59375 q 1.51562,0 1.51562,-3.078125 -7.42187,-10.796875 -18.70312,-10.796875 -10.78125,0 -16.3125,4.984375 -3.0625,2.78125 -4.875,7.25 -1.8125,4.46875 -1.8125,8.96875 0,10.984375 6.64062,17.578125 6.64063,6.59375 15.67188,6.59375 10.10937,0 14.54687,-5.203125 Q 175,34.671875 175,27.296875 175,23.6875 172.07812,23.6875 h -25.59375 v -1.609375 q 0,-8.5 3.70313,-11.65625 3.71875,-3.140625 10.40625,-3.140625 2.98437,0 6.6875,1.65625 3.71875,1.65625 6.59375,4.640625 z"
           style="stroke-width:0.015625" />
        <path
           id="use45"
           d="m 221.93985,28.171875 h 15.23437 q 0.20313,0.203125 0.20313,2.109375 0,5.421875 -2.15625,7.609375 -2.14063,2.203125 -4.78125,2.203125 -3.51563,0 -5.375,-2.875 -3.03125,-4.453125 -3.125,-9.046875 z m 27,-14.59375 q 1.51562,0 1.51562,-3.078125 -7.42187,-10.796875 -18.70312,-10.796875 -10.78125,0 -16.3125,4.984375 -3.0625,2.78125 -4.875,7.25 -1.8125,4.46875 -1.8125,8.96875 0,10.984375 6.64062,17.578125 6.64063,6.59375 15.67188,6.59375 10.10937,0 14.54687,-5.203125 4.45313,-5.203125 4.45313,-12.578125 0,-3.609375 -2.92188,-3.609375 h -25.59375 v -1.609375 q 0,-8.5 3.70313,-11.65625 3.71875,-3.140625 10.40625,-3.140625 2.98437,0 6.6875,1.65625 3.71875,1.65625 6.59375,4.640625 z"
           style="stroke-width:0.015625" />
        <path
           id="use46"
           d="m 305.9711,18.703125 q 0,-10.984375 1.07812,-18.015625 L 306.8461,0.390625 q -4.39063,0.296875 -7.8125,0.296875 0,0 -6.6875,-0.296875 L 292.1586,0.6875 q 0.57812,5.328125 0.57812,18.015625 v 8.890625 q 0,9.28125 -5.17187,9.28125 -5.51563,0 -11.625,-7.96875 V 18.703125 q 0,-11.171875 0.59375,-18.015625 L 276.23672,0.390625 Q 273.45547,0.6875 270.0336,0.6875 q 0,0 -8.20313,-0.296875 l -0.1875,0.296875 q 1.125,6.890625 1.125,18.015625 v 5.46875 q 0,13.28125 -1.125,19.4375 l 0.1875,0.296875 q 8.59375,-0.390625 13.04688,0.28125 0.67187,0 0.85937,-1 0.20313,-1 0.20313,-7.296875 l 0.39062,-0.296875 q 3.42188,4.296875 7.625,6.640625 4.20313,2.34375 8.10938,2.34375 6.875,0 10.39062,-3.546875 Q 305.9711,37.5 305.9711,29.796875 Z"
           style="stroke-width:0.015625" />
        <path
           id="use47"
           d="m 331.90079,28.171875 h 15.23437 q 0.20313,0.203125 0.20313,2.109375 0,5.421875 -2.15625,7.609375 -2.14063,2.203125 -4.78125,2.203125 -3.51563,0 -5.375,-2.875 -3.03125,-4.453125 -3.125,-9.046875 z m 27,-14.59375 q 1.51562,0 1.51562,-3.078125 -7.42187,-10.796875 -18.70312,-10.796875 -10.78125,0 -16.3125,4.984375 -3.0625,2.78125 -4.875,7.25 -1.8125,4.46875 -1.8125,8.96875 0,10.984375 6.64062,17.578125 6.64063,6.59375 15.67188,6.59375 10.10937,0 14.54687,-5.203125 4.45313,-5.203125 4.45313,-12.578125 0,-3.609375 -2.92188,-3.609375 h -25.59375 v -1.609375 q 0,-8.5 3.70313,-11.65625 3.71875,-3.140625 10.40625,-3.140625 2.98437,0 6.6875,1.65625 3.71875,1.65625 6.59375,4.640625 z"
           style="stroke-width:0.015625" />
        <use
           xlink:href="#LinBiolinumB-72"
           transform="translate(364.71329,0.6875)"
           id="use48" />
        <use
           xlink:href="#LinBiolinumB-67"
           transform="translate(406.80313,0.6875)"
           id="use49" />
        <use
           xlink:href="#LinBiolinumB-79"
           transform="translate(462.85782,0.6875)"
           id="use50" />
        <path
           id="use51"
           d="M 579.44065,-18.5 V 71 h 21.53125 v -3.03125 q -5.42187,-0.390625 -8.125,-0.875 -2.70312,-0.484375 -4.29687,-1.859375 -1.59375,-1.359375 -1.9375,-3.09375 -0.32813,-1.734375 -0.32813,-5.34375 v -61.09375 q 0,-3.609375 0.28125,-5.3125 0.29688,-1.71875 1.875,-3.109375 1.59375,-1.390625 4.34375,-1.953125 2.76563,-0.5625 8.1875,-0.953125 V -18.5 Z"
           style="stroke-width:0.015625" />
        <use
           xlink:href="#LinBiolinum-6b"
           transform="translate(604.54026,0.6875)"
           id="use52" />
        <use
           xlink:href="#LinBiolinum-4a"
           transform="translate(654.83323,0.6875)"
           id="use53" />
        <use
           xlink:href="#LinBiolinum-2f"
           transform="translate(686.81565,0.6875)"
           id="use54" />
        <use
           xlink:href="#LinBiolinum-6d"
           transform="translate(719.09104,0.6875)"
           id="use55" />
        <use
           xlink:href="#LinBiolinum-6f"
           transform="translate(799.75511,0.6875)"
           id="use56" />
        <use
           xlink:href="#LinBiolinum-6c"
           transform="translate(849.75511,0.6875)"
           id="use57" />
        <path
           id="use58"
           d="m 900.04417,71 v -89.5 h -21.48438 v 2.96875 q 5.42188,0.390625 8.10938,0.90625 2.6875,0.515625 4.26562,1.859375 1.59375,1.34375 1.95313,3.109375 0.375,1.75 0.375,5.359375 v 61.09375 q 0,3.609375 -0.32813,5.296875 -0.3125,1.6875 -1.90625,3.09375 -1.57812,1.421875 -4.34375,1.953125 -2.75,0.546875 -8.125,0.9375 V 71 Z"
           style="stroke-width:0.015625" />
      </g>
    </g>
  </g>
  <g
     id="line2d_15">
    <path
       d="m 42.018501,81.160362 2.070501,4.649473 2.070501,4.836272 2.070501,4.658131 2.070501,3.934962 2.070501,3.31106 2.070501,2.82437 2.070501,2.66809 2.070501,2.23398 2.070501,1.5304 2.070501,0.99456 2.070501,0.71144 2.070501,-0.0481 2.0705,-1.2648 2.070501,-1.7929 2.070501,-1.84884 2.070501,-2.36995 2.070501,-2.23415 2.070501,-2.22799 2.070501,-2.055394 2.070501,-1.788704 2.070501,-1.66597 2.070501,-1.751186 2.070501,-2.000458 2.070501,-1.956497 2.070501,-1.594866 2.070501,-1.362819 2.0705,-1.189585 2.070501,-0.99077 2.070503,-1.057808 2.0705,-0.637002 2.0705,-0.417709 2.0705,-0.0878 2.0705,0.140596 2.0705,0.552119 2.0705,0.820637 2.0705,1.170387 2.07051,1.547301 2.0705,1.759914 2.0705,1.928799 2.0705,2.168914 2.0705,2.022477 2.0705,1.76593 2.0705,1.493164 2.0705,1.131573 2.0705,0.677547 2.0705,0.61552 2.0705,0.0316 2.07051,-0.91221 2.0705,-1.23029 2.0705,-1.717027 2.0705,-2.875955 2.0705,-3.418844 2.0705,-4.156275 2.0705,-4.923328 2.0705,-5.5733 2.0705,-5.1685 2.0705,-4.410145 2.0705,-3.313909 2.07051,-2.647391 2.0705,-2.451054 2.0705,-1.743281 2.0705,-1.450202 2.0705,-1.129818 2.0705,-0.901688 2.0705,-0.732918 2.0705,-0.598436 2.0705,-0.380549 2.0705,-0.62371 2.0705,-0.241278 2.07051,-0.391134 2.0705,-0.118756 2.0705,0.0159 2.0705,-0.31161 2.0705,-0.225929 2.0705,-0.1583 2.0705,0.01358 2.0705,-0.112563 2.0705,-0.174823 2.0705,-0.07979 2.07051,-0.282374 2.0705,-0.784632 2.0705,-0.965699 2.0705,-1.312832 2.0705,-1.774465 2.0705,-2.223784 2.0705,-2.543956 2.0705,-2.859309 2.0705,-3.009255 2.0705,-4.130877 2.0705,-4.447185 2.07051,-5.008898 2.0705,-4.730077 2.0705,-4.990696 2.0705,-4.485295 2.0705,-3.073344 2.0705,-2.563802 L 241.54101,-1"
       clip-path="url(#pb9ad0e2ec0)"
       style="fill:none;stroke:#d7553b;stroke-width:1.5;stroke-linecap:square"
       id="path58" />
  </g>
  <g
     id="line2d_16">
    <path
       d="m 42.018501,73.989203 2.070501,5.503119 2.070501,5.132075 2.070501,5.259042 2.070501,4.672874 2.070501,4.360569 2.070501,3.672278 2.070501,3.26119 2.070501,2.82564 2.070501,2.31056 2.070501,1.68722 2.070501,0.73733 2.070501,0.102 2.0705,-0.55964 2.070501,-1.53099 2.070501,-2.06177 2.070501,-3.0003 2.070501,-3.76402 2.070501,-4.503916 2.070501,-4.55172 2.070501,-4.55423 2.070501,-4.717628 2.070501,-4.764262 2.070501,-4.833755 2.070501,-4.648102 2.070501,-4.380968 2.070501,-4.055153 2.0705,-3.848174 2.070501,-3.499397 2.070503,-2.914896 2.0705,-2.627764 2.0705,-2.137616 2.0705,-1.830525 2.0705,-1.465089 2.0705,-1.278089 2.0705,-0.685852 2.0705,0.02699 2.07051,0.556578 2.0705,1.061699 2.0705,1.870691 2.0705,2.076071 2.0705,2.467951 2.0705,2.204367 2.0705,1.72676 2.0705,1.606417 2.0705,1.78124 2.0705,1.064686 2.0705,0.221368 2.07051,-0.32135 2.0705,-1.455189 2.0705,-1.717691 2.0705,-2.120055 2.0705,-2.765792 2.0705,-3.289025 2.0705,-3.921837 2.0705,-4.265852 2.0705,-4.698919 2.0705,-4.078928 2.0705,-2.442842 2.07051,-1.356233 2.0705,-0.567063 2.0705,-0.331045 2.0705,-0.308701 2.0705,0.215801 2.0705,0.299612 2.0705,0.521908 2.0705,0.710827 2.0705,0.646099 2.0705,0.751918 2.0705,0.880979 2.07051,1.042557 2.0705,1.475052 2.0705,1.268306 2.0705,1.557978 2.0705,1.553856 2.0705,1.601572 2.0705,1.757649 2.0705,1.612936 2.0705,1.401456 2.0705,1.302886 2.07051,1.185114 2.0705,0.686244 2.0705,0.359142 2.0705,0.165382 2.0705,-0.05215 2.0705,-0.562441 2.0705,-0.967917 2.0705,-1.567326 2.0705,-2.173716 2.0705,-2.632197 2.0705,-3.374917 2.07051,-3.800365 2.0705,-4.259174 2.0705,-4.978929 2.0705,-5.79306 2.0705,-6.61211 2.0705,-7.489358 L 241.27968,-1"
       clip-path="url(#pb9ad0e2ec0)"
       style="fill:none;stroke:#3b94d7;stroke-width:1.5;stroke-linecap:square"
       id="path59" />
  </g>
  <g
     id="patch_3">
    <path
       d="M 31.873047,117.31 V 7.2"
       style="fill:none;stroke:#000000;stroke-width:0.6;stroke-linecap:square;stroke-linejoin:miter"
       id="path60" />
  </g>
  <g
     id="patch_4">
    <path
       d="M 255.07305,117.31 V 7.2"
       style="fill:none;stroke:#000000;stroke-width:0.6;stroke-linecap:square;stroke-linejoin:miter"
       id="path61" />
  </g>
  <g
     id="patch_5">
    <path
       d="M 31.873047,117.31 H 255.07305"
       style="fill:none;stroke:#000000;stroke-width:0.6;stroke-linecap:square;stroke-linejoin:miter"
       id="path62" />
  </g>
  <g
     id="patch_6">
    <path
       d="M 31.873047,7.2 H 255.07305"
       style="fill:none;stroke:#000000;stroke-width:0.6;stroke-linecap:square;stroke-linejoin:miter"
       id="path63" />
  </g>
  <g
     id="legend_1">
    <g
       id="patch_7">
      <path
         d="M 35.873047,38.1575 H 101.11055 V 11.2 H 35.873047 Z"
         style="fill:#ffffff;stroke:#ffffff;stroke-linejoin:miter"
         id="path64" />
    </g>
    <g
       id="line2d_17">
      <path
         d="m 39.873047,18 h 8 8"
         style="fill:none;stroke:#d7553b;stroke-width:1.5;stroke-linecap:square"
         id="path65" />
    </g>
    <g
       id="text_10">
      <!-- PBE-D3(BJ) -->
      <g
         transform="matrix(0.08,0,0,-0.08,59.073047,20.8)"
         id="g74">
        <defs
           id="defs65">
          <path
             id="LinBiolinum-50"
             d="M 1216,3616 V 2106 q 122,-62 506,-65 494,0 736,221 242,222 242,754 0,275 -77,456 -76,181 -217,271 -140,91 -284,122 -144,32 -331,32 -332,0 -454,-67 -121,-67 -121,-214 z M 666,2847 q 0,825 -63,1281 l 13,19 q 115,-19 325,-19 97,0 454,22 358,22 443,22 421,0 729,-105 308,-104 461,-281 153,-177 223,-360 71,-182 71,-379 0,-219 -86,-433 -86,-214 -260,-410 -173,-195 -490,-317 -317,-121 -733,-121 -340,0 -537,65 v -550 q 0,-825 65,-1281 l -12,-19 Q 1153,0 940,0 728,0 616,-19 L 603,0 q 63,434 63,1281 z"
             transform="scale(0.015625)" />
          <path
             id="LinBiolinum-42"
             d="M 1216,3578 V 2375 h 500 q 428,0 662,159 235,160 235,544 0,441 -241,617 -241,177 -575,177 -372,0 -477,-61 -104,-61 -104,-233 z m 0,-1478 V 563 q 0,-160 143,-234 144,-73 479,-73 634,0 854,208 221,208 221,592 0,453 -282,748 -281,296 -818,296 z M 941,4128 q 172,0 440,9 269,10 372,10 341,0 603,-64 263,-64 413,-160 150,-95 242,-233 92,-137 125,-265 33,-128 33,-269 0,-256 -171,-494 -170,-237 -426,-359 972,-281 975,-1125 0,-225 -75,-424 Q 3397,556 3231,373 3066,191 2739,86 2413,-19 1959,-19 1653,-19 1386,-9 1119,0 941,0 L 609,-19 603,0 q 63,434 63,1281 v 1566 q 0,825 -63,1281 l 13,19 q 106,-19 325,-19 z"
             transform="scale(0.015625)" />
          <path
             id="LinBiolinum-45"
             d="m 1216,1281 q 0,-750 53,-922 384,0 834,19 450,19 710,38 l 259,18 12,-25 q -12,-103 -12,-212 0,-19 12,-197 l -12,-19 Q 2919,0 2688,0 H 941 L 609,-19 603,0 q 63,434 63,1281 v 1566 q 0,825 -63,1281 l 13,19 q 109,-19 325,-19 h 1684 q 231,0 384,19 l 13,-19 q -13,-178 -13,-242 0,-64 13,-167 l -13,-25 q -884,78 -1740,75 -50,-172 -53,-922 v -497 q 672,0 1428,63 l 19,-19 q -19,-91 -19,-205 0,-114 19,-205 l -19,-18 q -635,62 -1428,62 z"
             transform="scale(0.015625)" />
          <path
             id="LinBiolinum-2d"
             d="M 1753,1509 H 306 q -97,0 -93,110 0,78 50,157 50,80 109,80 h 1466 q 90,0 87,-115 0,-57 -58,-145 -58,-87 -114,-87 z"
             transform="scale(0.015625)" />
          <path
             id="LinBiolinum-44"
             d="m 1216,525 q 0,-159 121,-208 122,-48 576,-48 371,0 643,64 272,64 509,223 238,160 363,477 125,317 125,786 0,397 -91,739 -90,342 -289,648 -198,307 -559,483 -361,177 -861,177 -269,0 -403,-52 -134,-51 -134,-205 z M 941,4128 q 206,0 528,9 322,10 528,10 922,0 1569,-639 647,-639 647,-1536 0,-453 -135,-810 Q 3944,806 3734,592 3525,378 3240,237 2956,97 2681,42 2406,-13 2113,-13 1753,-13 1447,-6 1141,0 941,0 L 609,-19 603,0 q 63,434 63,1281 v 1566 q 0,825 -63,1281 l 13,19 q 106,-19 325,-19 z"
             transform="scale(0.015625)" />
          <path
             id="LinBiolinum-28"
             d="m 281,1613 q 0,856 378,1624 379,769 979,1288 l 146,-116 Q 813,3316 813,1613 813,-78 1784,-1197 l -146,-109 q -379,325 -651,724 -271,398 -403,713 -131,316 -208,666 -76,350 -86,506 -9,156 -9,310 z"
             transform="scale(0.015625)" />
          <path
             id="LinBiolinum-29"
             d="M 1638,1613 Q 1638,756 1261,-12 884,-781 281,-1300 l -147,116 q 972,1093 972,2797 0,1690 -972,2809 l 147,109 q 378,-325 650,-722 272,-396 403,-714 132,-317 208,-666 77,-348 86,-506 10,-157 10,-310 z"
             transform="scale(0.015625)" />
        </defs>
        <use
           xlink:href="#LinBiolinum-50"
           id="use65" />
        <use
           xlink:href="#LinBiolinum-42"
           x="55.859375"
           id="use66" />
        <use
           xlink:href="#LinBiolinum-45"
           x="117.43164"
           id="use67" />
        <use
           xlink:href="#LinBiolinum-2d"
           x="171.19141"
           id="use68" />
        <use
           xlink:href="#LinBiolinum-44"
           x="204.44336"
           id="use69" />
        <path
           id="use70"
           d="m 296.3457,2.875 q 1.70313,0 3.65625,0.609375 1.95313,0.625 4.1875,2.015625 2.25,1.390625 3.73438,4.4375 1.5,3.046875 1.5,7.25 0,6.296875 -3.90625,9.625 -3.90625,3.21875 -9.76563,3.171875 -2.98437,0 -4.20312,-0.203125 v 4.40625 q 2.10937,-0.296875 3.71875,-0.296875 5.42187,0 8.25,2.828125 3.8125,3.609375 3.8125,9.765625 0,4.59375 -2.59375,7.59375 -2.59375,3 -5.71875,3 -4.39063,0 -7.03125,-2.046875 -2.625,-2.046875 -4.53125,-6.453125 l -1.51563,0.109375 -2.09375,6.390625 0.28125,0.34375 q 6.40625,5.609375 15.82813,5.5625 7.32812,0 11.6875,-3.734375 4.375,-3.734375 4.375,-9.25 0,-5.8125 -3.6875,-10.0625 -3.6875,-4.25 -8.07813,-5.21875 v -0.546875 q 5.90625,-0.484375 9.82813,-4.4375 3.9375,-3.953125 3.9375,-9.71875 0,-6.203125 -3.78125,-10.71875 -3.78125,-4.515625 -8.59375,-6.40625 -4.8125,-1.875 -9.5,-1.875 -9.17188,0 -14.89063,4.796875 l -0.29687,0.296875 2.20312,7.515625 1.46875,0.09375 Q 286.0332,8.84375 286.5957,7.765625 287.1582,6.6875 288.50195,5.25 289.8457,3.8125 291.64258,3.34375 293.45508,2.875 296.3457,2.875 Z"
           style="stroke-width:0.015625" />
        <use
           xlink:href="#LinBiolinum-28"
           x="321.92383"
           id="use71" />
        <use
           xlink:href="#LinBiolinum-42"
           x="351.9043"
           id="use72" />
        <use
           xlink:href="#LinBiolinum-4a"
           x="413.47656"
           id="use73" />
        <use
           xlink:href="#LinBiolinum-29"
           x="445.45898"
           id="use74" />
      </g>
    </g>
    <g
       id="line2d_18">
      <path
         d="m 39.873047,29.47875 h 8 8"
         style="fill:none;stroke:#3b94d7;stroke-width:1.5;stroke-linecap:square"
         id="path74" />
    </g>
    <g
       id="text_11">
      <!-- RPA -->
      <g
         transform="matrix(0.08,0,0,-0.08,59.073047,32.27875)"
         id="g77">
        <defs
           id="defs74">
          <path
             id="LinBiolinum-52"
             d="m 1216,1831 v -550 q 0,-825 65,-1281 l -12,-19 Q 1153,0 940,0 728,0 616,-19 L 603,0 q 63,434 63,1281 v 1566 q 0,825 -63,1281 l 13,19 q 115,-19 325,-19 103,0 445,22 342,22 420,22 872,0 1197,-306 341,-319 338,-800 0,-710 -641,-1032 -141,-71 -387,-121 150,-200 668,-955 519,-755 700,-958 l -12,-19 q -128,19 -385,19 -262,0 -384,-19 -116,347 -609,1144 -32,50 -115,187 -82,138 -123,202 -40,64 -111,162 -70,99 -133,174 -268,-19 -593,-19 z m 597,2066 q -422,0 -510,-44 -87,-44 -87,-237 V 2088 h 372 q 525,0 831,214 306,214 306,757 0,244 -86,419 -86,175 -230,262 -143,88 -287,122 -144,35 -309,35 z"
             transform="scale(0.015625)" />
          <path
             id="LinBiolinum-41"
             d="m 2606,1763 q -137,359 -298,752 -161,394 -349,826 h -12 L 1272,1766 q 75,0 318,-7 244,-6 351,-6 272,0 665,10 z M 1147,1463 Q 963,1009 825,634 688,259 616,-19 538,0 325,0 178,0 103,-19 1191,2369 1991,4213 h 178 q 219,-519 619,-1512 400,-992 696,-1715 297,-723 438,-1005 -109,19 -381,19 -213,0 -322,-19 -13,44 -30,102 -17,58 -47,156 -29,99 -70,222 -41,123 -91,271 -50,149 -117,340 -67,191 -142,391 -209,6 -397,7 -187,2 -353,2 -366,0 -825,-9 z"
             transform="scale(0.015625)" />
        </defs>
        <use
           xlink:href="#LinBiolinum-52"
           id="use75" />
        <use
           xlink:href="#LinBiolinum-50"
           x="59.960938"
           id="use76" />
        <use
           xlink:href="#LinBiolinum-41"
           x="115.82031"
           id="use77" />
      </g>
    </g>
  </g>
  <defs
     id="defs77">
    <clipPath
       id="pb9ad0e2ec0">
      <rect
         x="31.873047"
         y="7.2"
         width="223.2"
         height="110.11"
         id="rect77" />
    </clipPath>
  </defs>
  <rect
     style="fill:#000000;stroke-width:1.41731;stroke-linecap:butt;stroke-linejoin:round"
     id="rect66"
     width="45.295765"
     height="2.2737126"
     x="42.996094"
     y="117.01" />
  <path
     d="m 52.778512,126.89361 q 0,1.25366 0.12258,2.05601 l -0.02229,0.0334 q -0.501464,-0.0334 -0.891492,-0.0334 0,0 -0.76334,0.0334 l -0.02229,-0.0334 q 0.06686,-0.60733 0.06686,-2.05601 v -1.01407 q 0,-1.05865 -0.590613,-1.05865 -0.629617,0 -1.326095,0.90821 v 1.16451 q 0,1.27595 0.06686,2.05601 l -0.03343,0.0334 q -0.317594,-0.0334 -0.707622,-0.0334 0,0 -0.936067,0.0334 l -0.02229,-0.0334 q 0.128152,-0.78563 0.128152,-2.05601 v -0.62404 q 0,-1.51554 -0.128152,-2.21759 l 0.02229,-0.0334 q 0.980641,0.0446 1.487678,-0.0334 0.07801,0 0.100293,0.11701 0.02229,0.11143 0.02229,0.8302 l 0.04457,0.0334 q 0.390028,-0.49032 0.869205,-0.75777 0.479177,-0.26745 0.924924,-0.26745 0.785627,0 1.186799,0.40675 0.401171,0.40117 0.401171,1.28152 z m 2.95864,-1.08093 h 1.73841 q 0.02229,-0.0223 0.02229,-0.23959 0,-0.61847 -0.24516,-0.86921 -0.245161,-0.25073 -0.546039,-0.25073 -0.401172,0 -0.612901,0.32874 -0.345454,0.50704 -0.356597,1.03079 z m 3.08122,1.66597 q 0.172726,0 0.172726,0.35103 -0.846917,1.23137 -2.134009,1.23137 -1.231374,0 -1.86099,-0.56832 -0.351025,-0.3176 -0.557183,-0.82463 -0.206157,-0.51261 -0.206157,-1.02522 0,-1.25366 0.757768,-2.00586 0.757768,-0.75219 1.788556,-0.75219 1.153368,0 1.660405,0.59618 0.507036,0.59061 0.507036,1.43196 0,0.41232 -0.33431,0.41232 h -2.919637 v 0.18387 q 0,0.96949 0.423459,1.33166 0.423459,0.3566 1.186799,0.3566 0.339881,0 0.76334,-0.18944 0.423459,-0.18945 0.752197,-0.52933 z m 4.908778,0.74106 q -0.785627,0.84691 -1.916708,0.84134 -0.785627,0 -1.15894,-0.44017 -0.373312,-0.44575 -0.362169,-1.1088 l 0.02786,-1.4041 q 0.01114,-1.02521 -0.09472,-2.056 l 0.02229,-0.0334 q 0.412315,0.0334 0.802343,0.0334 l 0.852489,-0.0334 0.01114,0.0334 q -0.05572,0.60733 -0.08915,2.056 l -0.02229,1.02522 q -0.01114,0.64076 0.156012,0.84692 0.172726,0.20616 0.49032,0.20616 0.423459,0 0.85249,-0.34546 0.42903,-0.35102 0.42903,-0.81906 v -0.91378 q 0,-1.41524 -0.07801,-2.056 l 0.02229,-0.0334 q 0.390028,0.0334 0.774484,0.0334 l 0.880348,-0.0334 0.01114,0.0334 q -0.100293,0.60733 -0.105865,2.056 v 0.65191 q 0,1.15337 0.195014,2.18973 l -0.02229,0.0334 q -0.217301,-0.0334 -0.841346,-0.0334 -0.395599,0 -0.651903,0.0334 -0.100293,0 -0.105865,-0.0334 l -0.05572,-0.72991 z m 2.769199,-3.59383 q -0.150439,0 -0.144867,-0.18387 0,-0.12815 0.078,-0.25631 0.07801,-0.13372 0.161583,-0.13372 h 0.657476 q 0,-0.67419 -0.07801,-1.1478 l 0.02229,-0.039 q 0.45689,-0.10029 1.482106,-0.51261 0.100293,0 0.105865,0.11701 -0.05572,0.83578 -0.05572,1.5824 h 1.22023 q 0.08915,0 0.08915,0.0724 v 0.35103 q 0,0.15044 -0.27302,0.15044 H 68.72508 l -0.02786,1.22023 q -0.01114,0.62404 -0.01114,1.61026 0,0.0891 0.0056,0.17272 0.0056,0.078 0.01672,0.16159 0.01114,0.078 0.02786,0.15043 0.02229,0.0669 0.04458,0.12816 0.02786,0.0613 0.06129,0.11143 0.03343,0.0446 0.07243,0.0836 0.039,0.0334 0.08915,0.0501 0.05015,0.0167 0.105865,0.0167 0.390027,0 0.663047,-0.13372 0.195014,0.12258 0.195014,0.46803 -0.663047,0.40117 -1.67712,0.3956 -0.512608,0 -0.813487,-0.33431 -0.295306,-0.33988 -0.295306,-0.78005 0,-0.60733 0.03343,-1.978 l 0.03343,-1.34281 z m 6.329595,0.33988 q 0.273019,-0.40117 0.64076,-0.71319 0.373312,-0.31203 0.741053,-0.31203 0.30645,0 0.57947,0.078 l 0.04457,0.0446 -0.228445,1.17566 -0.206157,0.0223 q -0.27302,-0.2173 -0.657476,-0.21173 -0.150439,0 -0.339881,0.0557 -0.189442,0.0557 -0.406743,0.30645 -0.21173,0.25073 -0.21173,0.6519 v 0.8302 q 0,1.24252 0.111437,2.05601 l -0.02229,0.0334 q -0.546039,-0.0334 -0.936066,-0.0334 l -0.763341,0.0334 -0.01114,-0.0334 q 0.111436,-0.77449 0.111436,-2.05601 v -0.62404 q 0,-1.51554 -0.12258,-2.21759 l 0.02229,-0.0334 q 0.980642,0.0446 1.482106,-0.0334 0.07801,0 0.100293,0.11701 0.02229,0.11143 0.02229,0.8302 z m 5.783555,1.44867 -0.91378,0.23959 q -0.718765,0.19502 -0.718765,1.07537 0,0.23958 0.172726,0.44574 0.172727,0.20616 0.423459,0.20616 0.45689,0 0.841346,-0.39003 0.05572,-0.0557 0.111437,-0.22844 0.06129,-0.17273 0.06129,-0.28417 z m 1.437531,1.62141 q 0,0.26187 0.150439,0.33988 0.156012,0.0724 0.546039,0.0724 0.08915,0.078 0.111437,0.23959 -0.490321,0.37888 -1.353954,0.37331 -0.36774,0 -0.573898,-0.15044 -0.206158,-0.15601 -0.328738,-0.50703 h -0.02229 q -0.663047,0.66304 -1.565683,0.65747 -0.64076,0 -1.103222,-0.33431 -0.45689,-0.33431 -0.45689,-0.89706 0,-0.57947 0.462462,-1.00293 0.462462,-0.42346 1.292664,-0.61847 l 1.337238,-0.35103 q 0.06686,-0.0223 0.06686,-0.13929 0,-0.64076 -0.195014,-0.89707 -0.195014,-0.26187 -0.590614,-0.26187 -0.785627,0 -1.4041,0.89706 l -0.378884,-0.0111 -0.228445,-0.85249 0.03343,-0.0502 q 0.228445,-0.20616 0.869205,-0.40117 0.64076,-0.20059 1.209086,-0.20059 0.462462,-0.006 0.958354,0.11144 0.501465,0.11701 0.752197,0.34545 0.45689,0.41232 0.45689,1.39296 0,0.0334 -0.02229,1.04193 -0.02229,1.0085 -0.02229,1.20352 z m 1.877707,-1.37067 v -3.1258 q 0,-1.38181 -0.133724,-2.14515 l 0.02229,-0.0334 q 0.317594,-0.0223 0.852489,-0.15044 0.540467,-0.13373 0.780056,-0.22845 0.128152,0 0.12258,0.11701 -0.139296,1.09765 -0.139296,2.14516 v 3.4211 q 0,1.37067 0.139296,2.28445 l -0.02229,0.0334 q -0.479178,-0.0334 -0.869205,-0.0334 l -0.874777,0.0334 -0.01114,-0.0334 q 0.133724,-0.86921 0.133724,-2.28445 z"
     id="text66"
     style="font-weight:bold;font-size:11.4111px;line-height:1;font-family:'Linux Biolinum';-inkscape-font-specification:'Linux Biolinum, Bold';letter-spacing:0px;word-spacing:0px;stroke-width:1.41732"
     aria-label="neutral" />
  <text
     xml:space="preserve"
     style="font-style:normal;font-variant:normal;font-weight:bold;font-stretch:normal;font-size:11.4111px;line-height:1;font-family:'Linux Biolinum';-inkscape-font-specification:'Linux Biolinum, Bold';font-variant-ligatures:normal;font-variant-caps:normal;font-variant-numeric:normal;font-variant-east-asian:normal;text-align:start;text-decoration-color:#000000;letter-spacing:0px;word-spacing:0px;writing-mode:lr-tb;direction:ltr;text-anchor:start;fill:#000000;stroke-width:1.41732;stroke-linecap:butt;stroke-linejoin:round"
     x="77.964371"
     y="182.71771"
     id="text66-0"><tspan
       sodipodi:role="line"
       id="tspan66-8"
       style="font-style:normal;font-variant:normal;font-weight:bold;font-stretch:normal;font-size:11.4111px;font-family:'Linux Biolinum';-inkscape-font-specification:'Linux Biolinum, Bold';font-variant-ligatures:normal;font-variant-caps:normal;font-variant-numeric:normal;font-variant-east-asian:normal;stroke-width:1.41732"
       x="77.964371"
       y="182.71771">neutral</tspan></text>
  <rect
     style="fill:#000000;stroke-width:1.41732;stroke-linecap:butt;stroke-linejoin:round"
     id="rect66-0"
     width="48.486286"
     height="2.2737126"
     x="115.84593"
     y="117.01" />
  <path
     d="m 119.8407,124.50887 q -0.30645,0 -0.57947,0.14487 -0.26745,0.14486 -0.42903,0.40674 -0.14487,0.22845 -0.21173,0.55161 -0.0669,0.32317 -0.0669,0.73548 0,0.98064 0.33988,1.52668 0.16158,0.25074 0.45131,0.43461 0.28974,0.18387 0.54047,0.18387 0.88035,0 1.33724,-0.54604 l 0.18387,0.0557 q 0,0.19502 0.0557,0.44575 -0.39003,0.32874 -0.81906,0.47361 -0.42346,0.13929 -1.06422,0.13929 -1.32609,0 -1.99471,-0.72991 -0.61848,-0.67419 -0.61848,-1.68826 0,-1.28709 0.78006,-1.99471 0.78563,-0.70763 1.99471,-0.70763 0.41232,0 0.91936,0.11701 0.50703,0.11144 0.78005,0.26188 l 0.0223,0.0334 -0.27302,1.10322 -0.32317,0.0111 q -0.38445,-0.95835 -1.02521,-0.95835 z m 2.97535,-0.9695 q 0,-1.38181 -0.13372,-2.14515 l 0.0223,-0.0334 q 0.31759,-0.0223 0.85249,-0.15044 0.54046,-0.13373 0.78005,-0.22845 0.10029,0 0.10029,0.11701 -0.11143,0.91378 -0.117,2.14516 v 0.70762 l -0.0446,0.99178 0.0446,0.0223 q 0.37888,-0.47918 0.93049,-0.7522 0.55718,-0.27302 1.02522,-0.27302 1.47096,0 1.47096,1.68827 v 1.2648 q 0,1.33724 0.11144,2.05601 l -0.0223,0.0334 q -0.30645,-0.0334 -0.69648,-0.0334 l -0.95835,0.0334 -0.0112,-0.0334 q 0.0669,-0.60733 0.0724,-2.05601 v -1.01407 q 0,-1.05865 -0.59619,-1.05865 -0.62962,0 -1.32609,0.90821 v 1.16451 q 0,1.27595 0.0724,2.05601 l -0.0223,0.0334 q -0.37888,-0.0334 -0.76891,-0.0334 l -0.90821,0.0334 -0.0111,-0.0334 q 0.13929,-0.86921 0.13372,-2.05601 z m 9.48325,2.87506 -0.91378,0.23959 q -0.71876,0.19502 -0.71876,1.07537 0,0.23958 0.17272,0.44574 0.17273,0.20616 0.42346,0.20616 0.45689,0 0.84135,-0.39003 0.0557,-0.0557 0.11143,-0.22844 0.0613,-0.17273 0.0613,-0.28417 z m 1.43753,1.62141 q 0,0.26187 0.15044,0.33988 0.15601,0.0724 0.54604,0.0724 0.0891,0.078 0.11144,0.23959 -0.49032,0.37888 -1.35396,0.37331 -0.36774,0 -0.57389,-0.15044 -0.20616,-0.15601 -0.32874,-0.50703 h -0.0223 q -0.66305,0.66304 -1.56568,0.65747 -0.64076,0 -1.10322,-0.33431 -0.45689,-0.33431 -0.45689,-0.89706 0,-0.57947 0.46246,-1.00293 0.46246,-0.42346 1.29266,-0.61847 l 1.33724,-0.35103 q 0.0669,-0.0223 0.0669,-0.13929 0,-0.64076 -0.19501,-0.89707 -0.19502,-0.26187 -0.59062,-0.26187 -0.78562,0 -1.4041,0.89706 l -0.37888,-0.0111 -0.22845,-0.85249 0.0334,-0.0502 q 0.22844,-0.20616 0.8692,-0.40117 0.64076,-0.20059 1.20909,-0.20059 0.46246,-0.006 0.95835,0.11144 0.50146,0.11701 0.7522,0.34545 0.45689,0.41232 0.45689,1.39296 0,0.0334 -0.0223,1.04193 -0.0223,1.0085 -0.0223,1.20352 z m 3.46568,-3.07008 q 0.27302,-0.40117 0.64076,-0.71319 0.37331,-0.31203 0.74105,-0.31203 0.30645,0 0.57947,0.078 l 0.0446,0.0446 -0.22845,1.17566 -0.20616,0.0223 q -0.27302,-0.2173 -0.65747,-0.21173 -0.15044,0 -0.33988,0.0557 -0.18945,0.0557 -0.40675,0.30645 -0.21173,0.25073 -0.21173,0.6519 v 0.8302 q 0,1.24252 0.11144,2.05601 l -0.0223,0.0334 q -0.54604,-0.0334 -0.93606,-0.0334 l -0.76334,0.0334 -0.0112,-0.0334 q 0.11144,-0.77449 0.11144,-2.05601 v -0.62404 q 0,-1.51554 -0.12258,-2.21759 l 0.0223,-0.0334 q 0.98064,0.0446 1.4821,-0.0334 0.078,0 0.10029,0.11701 0.0223,0.11143 0.0223,0.8302 z m 7.49411,0.68533 q 0,0.77449 -0.64076,1.23138 -0.63519,0.45689 -1.65484,0.45689 -0.56275,0 -0.85806,-0.12258 -0.13372,0.20058 -0.13372,0.51261 0,0.54603 0.66305,0.54603 0.0223,0 0.0724,-0.006 0.0557,-0.006 0.14487,-0.0167 0.4346,-0.0557 0.71876,-0.0557 0.45689,0 0.84135,0.0613 0.39003,0.0613 0.78563,0.21173 0.40117,0.15044 0.63518,0.4736 0.23402,0.32317 0.23402,0.78006 0,0.44575 -0.32874,0.84692 -0.32874,0.40674 -0.85249,0.66862 -0.8692,0.42903 -2.29559,0.42345 -0.55718,0 -1.02522,-0.10586 -0.46803,-0.10586 -0.82463,-0.41789 -0.35102,-0.30645 -0.35102,-0.77448 0,-0.56833 0.25073,-0.89149 0.12815,-0.078 0.47918,-0.23959 0.35102,-0.15601 0.47918,-0.23959 -0.90264,-0.1393 -0.90264,-0.89149 0,-0.27302 0.30088,-0.55718 0.30088,-0.28417 0.6909,-0.42346 l 0.0223,-0.0557 q -0.28416,-0.0892 -0.45132,-0.20616 -0.62404,-0.4346 -0.61847,-1.16451 0,-0.79677 0.64076,-1.27595 0.64633,-0.47918 1.60469,-0.47918 0.51261,0 0.82463,0.1003 0.31759,-0.0167 1.06422,-0.0446 0.74662,-0.0279 1.05307,-0.0557 l 0.039,0.0334 q -0.0334,0.15044 -0.039,0.32874 0,0.15601 0.039,0.31202 l -0.039,0.0334 q -0.14487,-0.0111 -0.55161,-0.0501 -0.40674,-0.0446 -0.60176,-0.0502 0.12816,0.0892 0.23959,0.22288 0.11144,0.12815 0.18387,0.27302 0.078,0.14486 0.11701,0.30645 0.0446,0.15601 0.0446,0.30087 z m -1.51554,0.0112 q 0,-0.68534 -0.16158,-0.97507 -0.16159,-0.28974 -0.65191,-0.28974 -0.77448,0 -0.77448,1.24252 0,0.67419 0.15601,0.95835 0.16158,0.28417 0.6519,0.28417 0.78006,0 0.78006,-1.22023 z m -1.63255,3.47125 q -0.36774,0.37888 -0.36774,1.00292 0,0.51261 0.39003,0.76334 0.39003,0.25074 0.77448,0.25074 0.74106,0 1.20909,-0.3176 0.46803,-0.31759 0.46803,-0.84691 0,-0.28417 -0.12258,-0.46247 -0.117,-0.17272 -0.35102,-0.2563 -0.23402,-0.078 -0.44017,-0.10029 -0.20616,-0.0223 -0.50147,-0.0223 -0.0557,0 -0.32874,0.006 -0.27302,0.006 -0.46803,0.006 -0.078,0 -0.26188,-0.0223 z m 6.05101,-3.32081 h 1.7384 q 0.0223,-0.0223 0.0223,-0.23959 0,-0.61847 -0.24516,-0.86921 -0.24516,-0.25073 -0.54604,-0.25073 -0.40117,0 -0.6129,0.32874 -0.34545,0.50704 -0.35659,1.03079 z m 3.08122,1.66597 q 0.17272,0 0.17272,0.35103 -0.84692,1.23137 -2.13401,1.23137 -1.23137,0 -1.86099,-0.56832 -0.35102,-0.3176 -0.55718,-0.82463 -0.20616,-0.51261 -0.20616,-1.02522 0,-1.25366 0.75777,-2.00586 0.75777,-0.75219 1.78856,-0.75219 1.15336,0 1.6604,0.59618 0.50704,0.59061 0.50704,1.43196 0,0.41232 -0.33431,0.41232 h -2.91964 v 0.18387 q 0,0.96949 0.42346,1.33166 0.42346,0.3566 1.1868,0.3566 0.33988,0 0.76334,-0.18944 0.42346,-0.18945 0.7522,-0.52933 z m 4.99793,-0.0446 v -1.94457 q -0.0891,-0.44574 -0.39003,-0.71319 -0.29531,-0.26745 -0.69648,-0.26745 -1.0475,0 -1.0475,1.91671 0,1.97242 1.02521,1.978 0.72991,0 1.1088,-0.9695 z m 0,0.89706 q -0.42346,0.72991 -1.63255,0.72991 -0.94721,0 -1.53782,-0.67976 -0.58505,-0.68534 -0.58505,-1.74955 0,-1.44868 0.98065,-2.16187 0.40117,-0.29531 0.76891,-0.41232 0.37331,-0.11701 0.93049,-0.11701 0.26188,0 0.58504,0.15044 0.32874,0.14487 0.49033,0.36217 v -0.91378 q 0,-1.38181 -0.1393,-2.14515 l 0.0223,-0.0334 q 0.31759,-0.0223 0.85249,-0.15044 0.54046,-0.13373 0.78005,-0.22845 0.12815,0 0.12815,0.11701 -0.13929,1.09765 -0.13929,2.14516 v 3.51582 q 0,1.02521 0.2173,2.18973 l -0.0223,0.0334 q -0.22844,-0.0334 -0.7912,-0.0334 -0.46246,0 -0.72433,0.0334 -0.1003,0 -0.10587,-0.0334 l -0.0557,-0.61848 z"
     id="text66-2"
     style="font-weight:bold;font-size:11.4111px;line-height:1;font-family:'Linux Biolinum';-inkscape-font-specification:'Linux Biolinum, Bold';letter-spacing:0px;word-spacing:0px;stroke-width:1.41732"
     aria-label="charged" />
  <text
     xml:space="preserve"
     style="font-style:normal;font-variant:normal;font-weight:bold;font-stretch:normal;font-size:11.4111px;line-height:1;font-family:'Linux Biolinum';-inkscape-font-specification:'Linux Biolinum, Bold';font-variant-ligatures:normal;font-variant-caps:normal;font-variant-numeric:normal;font-variant-east-asian:normal;text-align:start;text-decoration-color:#000000;letter-spacing:0px;word-spacing:0px;writing-mode:lr-tb;direction:ltr;text-anchor:start;fill:#000000;stroke-width:1.41732;stroke-linecap:butt;stroke-linejoin:round"
     x="136.02081"
     y="187.96771"
     id="text66-2-0"><tspan
       sodipodi:role="line"
       id="tspan67-6"
       x="136.02081"
       y="187.96771">charged</tspan></text>
  <path
     style="fill:#000000;stroke-width:0.56692913;stroke:#000000;stroke-opacity:1;stroke-dasharray:none;marker-end:url(#ArrowTriangleStylized)"
     d="M 138.53475,95.638635 V 64.472599"
     id="path77" />
</svg>
