<?xml version="1.0" encoding="UTF-8" standalone="no"?>
<!-- Generated by Pixelmator Pro 3.5.6 -->

<svg
   width="412.81686"
   height="412.40799"
   viewBox="0 0 412.81686 412.40799"
   version="1.1"
   id="svg1"
   sodipodi:docname="covid.svg"
   xml:space="preserve"
   inkscape:version="1.4 (e7c3feb100, 2024-10-09)"
   xmlns:inkscape="http://www.inkscape.org/namespaces/inkscape"
   xmlns:sodipodi="http://sodipodi.sourceforge.net/DTD/sodipodi-0.dtd"
   xmlns="http://www.w3.org/2000/svg"
   xmlns:svg="http://www.w3.org/2000/svg"><defs
     id="defs1" /><sodipodi:namedview
     id="namedview1"
     pagecolor="#ffffff"
     bordercolor="#000000"
     borderopacity="0.25"
     inkscape:showpageshadow="2"
     inkscape:pageopacity="0.0"
     inkscape:pagecheckerboard="0"
     inkscape:deskcolor="#d1d1d1"
     inkscape:zoom="0.67437036"
     inkscape:cx="352.18037"
     inkscape:cy="450.04944"
     inkscape:window-width="3800"
     inkscape:window-height="2090"
     inkscape:window-x="0"
     inkscape:window-y="0"
     inkscape:window-maximized="0"
     inkscape:current-layer="svg1" /><path
     style="fill:#ffffff;fill-opacity:1"
     d="m 195.44134,410.40889 c -2.78224,-1.0706 -6.54478,-3.3994 -8.3612,-5.1753 -1.81641,-1.7759 -3.70253,-4.2809 -4.19137,-5.5666 -0.48884,-1.2858 -0.8888,-4.1308 -0.8888,-6.3223 0,-2.1915 0.66801,-5.2764 1.48448,-6.8552 0.81647,-1.5789 3.46781,-4.4959 5.89188,-6.4822 2.42407,-1.9864 4.95005,-4.9217 5.61329,-6.5229 0.9376,-2.2635 0.94549,-7.2755 0.0355,-22.5268 -0.64374,-10.7885 -1.70243,-21.1521 -2.35265,-23.0302 -0.65022,-1.8781 -2.67485,-4.9972 -4.49918,-6.9314 -1.82432,-1.9341 -4.74713,-3.8928 -6.49513,-4.3526 -1.74799,-0.4598 -4.67356,-0.5043 -6.50128,-0.099 -1.82771,0.4055 -4.25399,1.5647 -5.39173,2.576 -1.13774,1.0114 -3.12545,4.0889 -4.41712,6.8389 -1.29167,2.75 -2.33695,6.8 -2.32283,9 0.0141,2.2 0.66878,5.125 1.4548,6.5 0.78602,1.375 1.44507,4.3123 1.46456,6.5274 0.0195,2.2152 -0.66688,5.0302 -1.52527,6.2558 -0.85839,1.2255 -2.86104,2.9006 -4.45034,3.7225 -1.5893,0.8218 -5.27448,1.4844 -8.18929,1.4723 -2.9463,-0.012 -7.07971,-0.8306 -9.30824,-1.843 -2.20472,-1.0016 -5.44502,-3.4571 -7.20068,-5.4567 -1.75565,-1.9996 -3.49876,-5.2703 -3.87358,-7.2682 -0.46964,-2.5034 -0.17014,-4.7049 0.96343,-7.0821 1.21739,-2.5529 3.0061,-4.0553 6.88216,-5.7808 2.88048,-1.2824 6.23454,-3.4054 7.45345,-4.7178 1.21891,-1.3125 2.90641,-4.3427 3.75,-6.7336 0.84359,-2.391 1.5338,-5.8881 1.5338,-7.7712 0,-1.8832 -0.68262,-4.744 -1.51693,-6.3574 -0.83431,-1.6134 -2.88721,-3.642 -4.562,-4.5081 -1.67479,-0.866 -5.26892,-1.5919 -7.98696,-1.6129 -2.95468,-0.023 -6.33344,0.704 -8.40246,1.8077 -1.90332,1.0153 -9.66407,7.4133 -17.24611,14.2178 -7.58205,6.8044 -14.58376,13.7794 -15.55935,15.5 -1.40915,2.4851 -1.65253,4.4645 -1.18388,9.6283 0.50395,5.5526 0.25237,7.1558 -1.72619,11 -1.49602,2.9066 -3.55542,5.1191 -5.81612,6.2484 -1.95889,0.9786 -5.70159,1.7395 -8.5,1.728 -2.75,-0.011 -6.88564,-0.8765 -9.19031,-1.9228 -2.30467,-1.0463 -6.31036,-3.8489 -8.90153,-6.228 -2.59116,-2.3791 -5.76363,-6.5756 -7.04992,-9.3256 -1.52092,-3.2517 -2.34212,-6.8532 -2.34847,-10.2997 -0.005,-2.9148 0.65844,-6.5918 1.47514,-8.1712 0.8167,-1.5793 2.9542,-3.9189 4.75,-5.1992 2.84387,-2.0274 4.455,-2.3306 12.4887,-2.3501 9.22362,-0.022 9.22362,-0.022 13.33391,-4.0011 2.26065,-2.1883 8.68503,-9.0824 14.27638,-15.3201 5.59135,-6.2377 10.93473,-12.7627 11.87418,-14.5 0.97424,-1.8016 1.72609,-5.4356 1.75,-8.4583 0.0231,-2.9148 -0.6407,-6.6197 -1.47501,-8.2331 -0.83431,-1.6134 -2.92398,-3.661 -4.64372,-4.5503 -1.71973,-0.8893 -4.52462,-1.6107 -6.23307,-1.6031 -1.70846,0.01 -4.44953,0.5317 -6.09127,1.1646 -1.64174,0.6329 -4.50738,1.8732 -6.36809,2.7561 -2.61578,1.2413 -4.02677,3.04 -6.22104,7.9306 -2.20616,4.9172 -3.60213,6.6897 -6.27066,7.9622 -2.26032,1.0779 -4.58967,1.4199 -6.82017,1.0015 -1.86309,-0.3495 -5.02274,-1.9835 -7.02145,-3.631 -1.99871,-1.6475 -4.57443,-4.938 -5.72381,-7.3124 C 53.78612,267.45169 53,263.85899 53,260.59389 c 0,-2.8787 0.67243,-6.5343 1.49429,-8.1236 0.82185,-1.5893 2.49698,-3.592 3.7225,-4.4503 1.22552,-0.8584 3.95044,-1.5607 6.05537,-1.5607 2.10494,0 5.21948,0.72 6.92121,1.6 1.70174,0.88 4.58306,1.6 6.40294,1.6 1.81988,0 5.87182,-1.2825 9.00432,-2.85 3.29104,-1.6469 6.47569,-4.1165 7.54366,-5.85 1.0385,-1.6857 1.84987,-4.8718 1.85197,-7.2724 0.003,-3.6182 -0.62745,-4.9571 -4.11841,-8.7443 -2.54434,-2.7603 -5.51076,-4.8391 -7.75,-5.4309 -1.99532,-0.5274 -12.28609,-1.4863 -22.86837,-2.1309 -15.15533,-0.9232 -19.87273,-0.9102 -22.21813,0.061 -1.6377,0.6783 -4.60281,3.2167 -6.58915,5.6407 -1.98634,2.4241 -4.90333,5.0754 -6.48221,5.8919 -1.57887,0.8165 -5.14451,1.4845 -7.92365,1.4845 -4.67388,0 -5.42052,-0.3564 -9.95193,-4.75 C 4.42642,222.15239 2.794,219.59409 1.59773,215.52739 0.71898,212.54009 0,208.23419 0,205.95889 c 0,-2.2754 0.69431,-6.47503 1.54292,-9.3326 0.84861,-2.85758 2.94041,-6.78724 4.64845,-8.73259 1.70803,-1.94534 4.36637,-4.189 5.90741,-4.9859 1.54104,-0.79691 4.78173,-1.44892 7.20152,-1.44892 3.25125,0 5.42775,0.74477 8.33856,2.85336 2.16642,1.56934 4.71318,4.03498 5.65946,5.47919 0.94628,1.4442 3.15132,3.36573 4.9001,4.27006 2.88025,1.48944 5.11519,1.52937 23.74058,0.42418 11.30855,-0.67103 21.911,-1.78277 23.561,-2.47055 1.65,-0.68777 4.6875,-3.12059 6.75,-5.40625 3.03094,-3.35889 3.75,-4.93172 3.75,-8.20253 0,-2.22573 -0.65986,-5.3228 -1.46635,-6.88237 -0.80648,-1.55958 -3.39398,-3.96236 -5.75,-5.3395 -2.35601,-1.37715 -6.05095,-2.98955 -8.21098,-3.58311 -3.30059,-0.90697 -4.63744,-0.76507 -8.37712,0.88917 -2.44738,1.08259 -6.09246,1.96835 -8.10017,1.96835 -2.0077,0 -4.65307,-0.70232 -5.87859,-1.5607 -1.22552,-0.85839 -2.90065,-2.86104 -3.7225,-4.45034 -0.82186,-1.5893 -1.48441,-5.27449 -1.47233,-8.1893 0.0123,-2.97555 0.83277,-7.08484 1.87085,-9.3704 1.01689,-2.23891 3.58272,-5.49991 5.70185,-7.24667 2.11912,-1.74677 5.3773,-3.46191 7.24039,-3.81143 2.2305,-0.41844 4.55985,-0.0764 6.82017,1.00147 2.66853,1.27253 4.0645,3.04507 6.27066,7.96218 2.19427,4.89061 3.60526,6.68935 6.22104,7.93062 1.86071,0.88297 4.72635,2.12322 6.36809,2.75613 1.64174,0.63291 4.38281,1.15697 6.09127,1.16459 1.70845,0.008 4.51334,-0.71377 6.23307,-1.60308 1.71974,-0.88931 3.80941,-2.93696 4.64372,-4.55034 0.83431,-1.61337 1.51693,-5.2281 1.51693,-8.03273 0,-2.80463 -0.73938,-6.53947 -1.64307,-8.29966 -0.90371,-1.76023 -7.24089,-9.50038 -14.08263,-17.20038 -6.84175,-7.7 -13.63987,-14.804879 -15.10694,-15.788619 -2.18415,-1.46457 -3.87202,-1.67448 -9.31662,-1.15863 -5.44192,0.5156 -7.47975,0.26261 -11.22333,-1.39335 -2.81431,-1.2449 -5.35238,-3.29988 -6.59703,-5.34137 -1.38628,-2.27378 -2.02104,-5.04898 -2.01691,-8.81803 0.004,-3.66324 0.78706,-7.16978 2.34474,-10.5 1.28629,-2.75 4.45876,-6.94653 7.04992,-9.32562 2.59117,-2.37909 6.59686,-5.1817 8.90153,-6.22803 2.30467,-1.04634 6.44733,-1.91231 9.20591,-1.92439 2.95332,-0.0129 6.44829,0.72801 8.5,1.80203 2.15549,1.12834 4.3618,3.51202 5.78496,6.25 1.98975,3.82805 2.21397,5.3229 1.65969,11.06461 -0.45403,4.7032 -0.25011,7.37007 0.69944,9.1476 0.73717,1.37995 7.86531,8.39077 15.84031,15.5796 7.975,7.188829 16.00828,13.802749 17.85175,14.697599 1.84346,0.89485 5.52806,1.61015 8.188,1.58954 2.65994,-0.0206 6.20653,-0.74606 7.88132,-1.61213 1.67479,-0.86606 3.77778,-2.99157 4.67332,-4.72334 1.08013,-2.08876 1.47789,-4.6919 1.18159,-7.733069 -0.24566,-2.52142 -1.39957,-6.73122 -2.56425,-9.3551 -1.89912,-4.27851 -2.79256,-5.07354 -8.65987,-7.70603 -5.12882,-2.30115 -6.89595,-3.67696 -8.17923,-6.36805 -1.1262,-2.36166 -1.42432,-4.56615 -0.95547,-7.06535 0.37482,-1.99795 2.02906,-5.16744 3.67611,-7.04332 1.64704,-1.87588 4.91692,-4.34126 7.2664,-5.47862 2.65045,-1.28306 6.25828,-2.06793 9.50571,-2.06793 2.87867,0 6.53427,0.67243 8.12357,1.49429 1.5893,0.82186 3.59195,2.49699 4.45034,3.7225 0.85839,1.22552 1.54476,4.04059 1.52527,6.25572 -0.0195,2.21512 -0.67854,5.15249 -1.46456,6.52749 -0.78602,1.375 -1.44068,4.3 -1.4548,6.5 -0.0141,2.2 1.03856,6.28549 2.33927,9.07886 1.30072,2.79338 3.65882,6.10011 5.24023,7.3483 2.40935,1.90166 3.75874,2.19694 8.32687,1.82214 4.97269,-0.40799 5.81726,-0.85118 9.6144,-5.04525 2.28954,-2.52889 4.42398,-5.90382 4.74319,-7.49985 0.3192,-1.59604 1.1006,-11.54217 1.73643,-22.10252 0.89868,-14.92584 0.8869,-19.85043 -0.0529,-22.11929 -0.66492,-1.60526 -3.19227,-4.54385 -5.61634,-6.53019 -2.42407,-1.98634 -5.07541,-4.90333 -5.89188,-6.4822 -0.81647,-1.57888 -1.48448,-5.03857 -1.48448,-7.68821 0,-3.48012 0.68823,-5.83035 2.47913,-8.4658999 1.5705,-2.31119 4.58313,-4.67776 8.21967,-6.45696 4.73555,-2.31688001 7.05886,-2.81018001 13.27087,-2.817740011993 4.14168,-0.004999998 9.25642,0.593770001993 11.3661,1.330680011993 2.10967,0.73692 5.39516,2.70901 7.30108,4.38243 1.90592,1.67342 4.11733,4.3034399 4.91423,5.8444799 0.7969,1.54105 1.44892,4.64659 1.44892,6.90122 0,2.25463 -0.66802,5.39112 -1.48449,6.97 -0.81646,1.57887 -3.46781,4.49586 -5.89188,6.4822 -2.42406,1.98634 -4.95142,4.92493 -5.61634,6.53019 -0.93881,2.26648 -0.9528,7.23116 -0.0626,22.21814 0.63048,10.61471 1.56602,20.88604 2.07897,22.82519 0.51295,1.93914 2.72473,5.27565 4.91507,7.41446 3.39432,3.31446 4.76356,3.95281 9.27185,4.32257 4.39141,0.36018 5.77757,0.0486 8.16471,-1.83559 1.58141,-1.24819 3.93951,-4.55492 5.24023,-7.3483 1.30072,-2.79337 2.35339,-6.87886 2.33927,-9.07886 -0.0141,-2.2 -0.66877,-5.125 -1.45479,-6.5 -0.78602,-1.375 -1.44508,-4.31237 -1.46457,-6.52749 -0.0195,-2.21513 0.66688,-5.0302 1.52527,-6.25572 0.85839,-1.22551 2.86104,-2.90064 4.45034,-3.7225 1.5893,-0.82186 5.24491,-1.49429 8.12357,-1.49429 3.24743,0 6.85526,0.78487 9.50571,2.06793 2.34948,1.13736 5.61936,3.60274 7.2664,5.47862 1.64705,1.87588 3.27826,4.92256 3.62492,6.77041 0.39448,2.10278 0.0543,4.73835 -0.90939,7.04468 -1.28441,3.07402 -2.63196,4.17503 -8.12803,6.64095 -5.91711,2.65483 -6.80412,3.44206 -8.70596,7.72671 -1.16468,2.62388 -2.31859,6.83368 -2.56425,9.3551 -0.29629,3.041169 0.10146,5.644309 1.1816,7.733069 0.89553,1.73177 2.99852,3.85728 4.67331,4.72334 1.67479,0.86607 5.26892,1.5919 7.98696,1.61295 2.95468,0.0229 6.33344,-0.70403 8.40247,-1.80774 1.90331,-1.01531 9.66406,-7.41329 17.24611,-14.217729 7.58204,-6.80444 14.58375,-13.77944 15.55935,-15.5 1.40914,-2.48517 1.65253,-4.46457 1.18388,-9.62829 -0.5049,-5.56314 -0.25611,-7.13793 1.72619,-10.92601 1.42643,-2.72586 3.65457,-5.12665 5.80051,-6.25 2.05172,-1.07402 5.54668,-1.81496 8.5,-1.80203 2.75859,0.0121 6.90125,0.87805 9.20592,1.92439 2.30467,1.04633 6.31035,3.84894 8.90152,6.22803 2.59117,2.37909 5.76363,6.57562 7.04992,9.32562 1.46799,3.13846 2.34235,6.86735 2.34848,10.0156 0.006,2.93161 -0.74811,6.46338 -1.81423,8.5 -1.1252,2.1495 -3.51962,4.3695 -6.25,5.79473 -3.81639,1.99213 -5.39014,2.23329 -11.426,1.75092 -4.71786,-0.37703 -7.69916,-0.15218 -9.1445,0.68967 -1.17948,0.68699 -8.02767,7.774079 -15.2182,15.749079 -7.19054,7.975 -13.78886,15.97247 -14.66294,17.77216 -0.87407,1.79968 -1.60611,5.4519 -1.62675,8.11604 -0.0206,2.66414 0.68783,6.24655 1.57436,7.96092 0.88653,1.71436 3.01894,3.84464 4.73867,4.73395 1.71974,0.88931 4.52462,1.6107 6.23308,1.60308 1.70845,-0.008 4.44952,-0.53168 6.09126,-1.16459 1.64174,-0.63291 4.50738,-1.87316 6.36809,-2.75613 2.61578,-1.24127 4.02677,-3.04001 6.22104,-7.93062 2.20616,-4.91711 3.60213,-6.68965 6.27066,-7.96218 2.26032,-1.07787 4.58967,-1.41991 6.82017,-1.00147 1.86309,0.34952 5.02275,1.98345 7.02146,3.63096 1.9987,1.6475 4.57442,4.93808 5.7238,7.31239 1.30368,2.69303 2.0898,6.28579 2.0898,9.55087 0,2.87867 -0.67243,6.53428 -1.49429,8.12358 -0.82186,1.5893 -2.49699,3.59195 -3.72251,4.45034 -1.22552,0.85838 -3.87089,1.5607 -5.87859,1.5607 -2.00771,0 -5.65278,-0.88576 -8.10017,-1.96835 -3.73967,-1.65424 -5.07653,-1.79614 -8.37712,-0.88917 -2.16003,0.59356 -5.80129,2.1745 -8.09169,3.5132 -2.29041,1.3387 -4.87791,3.52299 -5.75,4.85398 -0.8721,1.33098 -1.58563,4.47086 -1.58563,6.9775 0,3.94215 0.55094,5.15523 4.0803,8.98413 2.24417,2.43464 5.50667,4.87797 7.25,5.42964 1.74333,0.55167 12.05634,1.52959 22.91779,2.17316 15.53196,0.92032 20.38218,0.90748 22.71813,-0.0601 1.63353,-0.67663 4.59523,-3.21356 6.58157,-5.63763 1.98635,-2.42406 4.90334,-5.07541 6.48221,-5.89188 1.57887,-0.81646 4.71537,-1.48448 6.97,-1.48448 2.25462,0 5.31447,0.63483 6.79966,1.41072 1.48518,0.7759 3.91396,2.6884 5.39729,4.25 1.48332,1.56161 3.40301,4.52953 4.26597,6.59538 0.86296,2.06586 1.84243,6.37195 2.17659,9.56915 0.42088,4.0266 0.10049,7.5573 -1.04261,11.4894 -0.9076,3.122 -3.05499,7.2764 -4.77199,9.232 -1.71699,1.9555 -4.38265,4.2075 -5.9237,5.0044 -1.54104,0.7969 -4.64659,1.449 -6.90121,1.449 -2.25463,0 -5.39113,-0.6681 -6.97,-1.4845 -1.57887,-0.8165 -4.49586,-3.4678 -6.48221,-5.8919 -1.98634,-2.4241 -4.95145,-4.9624 -6.58914,-5.6408 -2.34541,-0.9715 -7.06281,-0.9845 -22.21814,-0.061 -10.58228,0.6446 -20.87305,1.6035 -22.86836,2.1309 -2.23925,0.5919 -5.20566,2.6706 -7.75,5.4309 -3.49097,3.7873 -4.12158,5.1262 -4.11842,8.7444 0.002,2.4006 0.81347,5.5866 1.85197,7.2723 1.06797,1.7335 4.25262,4.2032 7.54367,5.85 3.13249,1.5675 7.18443,2.85 9.00431,2.85 1.81989,0 4.70121,-0.72 6.40294,-1.6 1.70173,-0.88 4.81628,-1.6 6.92121,-1.6 2.10493,0 4.82985,0.7023 6.05537,1.5607 1.22552,0.8584 2.90065,2.8611 3.72251,4.4504 0.82186,1.5893 1.49429,5.2449 1.49429,8.1235 0,3.2651 -0.78612,6.8579 -2.0898,9.5509 -1.14938,2.3743 -3.7251,5.6649 -5.7238,7.3124 -1.99871,1.6475 -5.15837,3.2814 -7.02146,3.631 -2.21808,0.4161 -4.55441,0.079 -6.76795,-0.9766 -2.57072,-1.2259 -4.10685,-3.1494 -6.41264,-8.0296 -2.26039,-4.7841 -3.85704,-6.8089 -6.27325,-7.9555 -1.78263,-0.8459 -4.58438,-2.0558 -6.22612,-2.6887 -1.64174,-0.633 -4.38281,-1.157 -6.09126,-1.1646 -1.70846,-0.01 -4.51334,0.7137 -6.23308,1.603 -1.71973,0.8894 -3.80941,2.937 -4.64372,4.5504 -0.83431,1.6134 -1.51692,5.3253 -1.51692,8.2487 0,3.1808 0.70273,6.5956 1.75,8.5036 0.9625,1.7536 7.15,9.2021 13.75,16.5522 6.6,7.3501 13.12138,14.224 14.49195,15.2752 2.02232,1.5512 4.18959,1.9155 11.5,1.9333 7.69369,0.019 9.46426,0.3472 12.13476,2.2511 1.71969,1.2261 3.85719,3.7686 4.75,5.6501 0.89281,1.8814 1.61889,5.6028 1.61352,8.2696 -0.006,2.9732 -0.91446,6.7831 -2.34848,9.8489 -1.28629,2.75 -4.45875,6.9465 -7.04992,9.3256 -2.59117,2.3791 -6.59685,5.1817 -8.90152,6.2281 -2.30467,1.0463 -6.44031,1.9116 -9.19031,1.9228 -2.79842,0.011 -6.54111,-0.7495 -8.5,-1.728 -2.26071,-1.1294 -4.3201,-3.3419 -5.81612,-6.2485 -1.97857,-3.8442 -2.23015,-5.4473 -1.72619,-11 0.46865,-5.1637 0.22526,-7.1431 -1.18388,-9.6283 -0.9756,-1.7205 -7.97731,-8.6955 -15.55935,-15.5 -7.58205,-6.8044 -15.3428,-13.2024 -17.24611,-14.2177 -2.06903,-1.1037 -5.44779,-1.8306 -8.40247,-1.8077 -2.71804,0.021 -6.31217,0.7468 -7.98696,1.6129 -1.67479,0.8661 -3.77778,2.9916 -4.67331,4.7233 -1.0897,2.1073 -1.47932,4.6986 -1.17798,7.8347 0.24764,2.5773 1.45434,6.7601 2.68155,9.2952 1.91515,3.9562 3.14516,5.041 8.68117,7.6567 4.91122,2.3204 6.83442,3.8538 8.06192,6.4279 1.10315,2.3133 1.39692,4.5273 0.93056,7.0131 -0.37481,1.998 -2.02906,5.1675 -3.67611,7.0434 -1.64704,1.8758 -4.91692,4.3412 -7.2664,5.4786 -2.89034,1.3992 -6.24865,2.0679 -10.38485,2.0679 -5.56722,0 -6.43195,-0.3007 -9.68427,-3.3681 -3.05758,-2.8836 -3.56611,-3.9983 -3.53577,-7.75 0.0195,-2.41 0.67855,-5.5069 1.46457,-6.8819 0.78602,-1.375 1.44507,-4.3241 1.46456,-6.5536 0.0209,-2.3912 -0.99899,-6.1295 -2.48681,-9.1152 -1.38724,-2.7838 -3.37934,-5.8371 -4.42689,-6.7852 -1.04755,-0.948 -3.40004,-2.0554 -5.22775,-2.4608 -1.82771,-0.4055 -4.75626,-0.3603 -6.50788,0.1005 -1.75162,0.4607 -4.6284,2.2813 -6.39285,4.0458 -1.76446,1.7644 -3.77583,4.5717 -4.46974,6.2383 -0.70122,1.6842 -1.79285,12.1831 -2.45754,23.6357 -1.05445,18.1681 -1.01357,20.9581 0.34555,23.5864 0.8478,1.6394 3.18129,4.2316 5.18554,5.7603 2.00425,1.5287 4.50409,4.1899 5.55521,5.9136 1.09657,1.7984 1.91271,4.9668 1.91486,7.4339 0.002,2.3648 -0.64828,5.5605 -1.44518,7.1015 -0.7969,1.5411 -3.04056,4.1994 -4.98591,5.9074 -1.94534,1.7081 -5.875,3.7999 -8.73258,4.6485 -2.85758,0.8486 -7.47642,1.5195 -10.26409,1.4908 -2.78768,-0.029 -7.34489,-0.928 -10.12713,-1.9985 z m 6.54758,-131.4437 c 1.5893,-0.8219 3.59195,-2.497 4.45034,-3.7225 0.89627,-1.2796 1.56071,-4.3042 1.56071,-7.1045 0,-4.154 -0.45502,-5.3014 -3.07164,-7.7457 -1.6894,-1.5781 -4.57065,-3.1505 -6.40278,-3.4942 -2.2086,-0.4144 -4.55819,-0.043 -6.97241,1.1029 -2.0027,0.9504 -4.29645,2.9949 -5.09722,4.5434 -0.80078,1.5486 -1.45595,4.4425 -1.45595,6.4309 0,1.9885 0.47872,4.5099 1.06382,5.6032 0.5851,1.0933 2.4976,2.862 4.25,3.9305 1.7524,1.0685 4.44602,1.9445 5.98584,1.9465 1.53981,0 4.09999,-0.6687 5.68929,-1.4905 z m 60.65397,-29.1406 c 1.89485,-0.8992 4.10036,-2.9018 4.90113,-4.4503 0.80077,-1.5486 1.45595,-4.4195 1.45595,-6.3799 0,-2.6641 -0.86452,-4.5077 -3.42316,-7.2996 -2.98213,-3.2541 -4.00339,-3.7353 -7.92667,-3.7353 -3.00157,0 -5.44511,0.6972 -7.32684,2.0905 -1.55284,1.1499 -3.47805,3.9438 -4.27826,6.2087 -1.30793,3.702 -1.28398,4.4766 0.23709,7.6663 0.9306,1.9515 3.16032,4.4434 4.95492,5.5376 1.7946,1.0941 4.31991,1.9911 5.61179,1.9931 1.29188,0 3.8992,-0.7319 5.79405,-1.6311 z m -103.31911,-1.2982 c 1.3497,-0.5131 4.14964,-2.4218 6.22208,-4.2414 2.07243,-1.8196 4.58754,-5.1122 5.58912,-7.317 1.00159,-2.2047 1.82926,-5.8085 1.83929,-8.0085 0.0102,-2.2342 -0.84199,-5.4108 -1.9303,-7.1957 -1.07169,-1.7576 -3.0821,-3.9384 -4.46757,-4.8462 -1.5148,-0.9926 -4.4945,-1.6353 -7.47423,-1.6122 -2.93684,0.023 -6.57498,0.8648 -8.93196,2.0672 -2.18723,1.1158 -5.33057,3.6712 -6.98519,5.6785 -1.65462,2.0074 -3.50988,5.6413 -4.1228,8.0754 -0.77467,3.0765 -0.80645,5.5692 -0.10427,8.1769 0.55557,2.0632 2.2548,4.9112 3.77607,6.3289 1.52127,1.4177 3.44095,2.8233 4.26595,3.1234 0.825,0.3002 3.3832,0.5814 5.6849,0.6248 2.30169,0.043 5.2892,-0.3409 6.63891,-0.8541 z m 56.79314,-30.7951 c 1.60904,-0.9505 3.81917,-3.5742 4.91139,-5.8304 1.61565,-3.3375 1.78919,-4.6664 0.93092,-7.1285 -0.58023,-1.6644 -2.12251,-3.59754 -3.42729,-4.29584 -1.45497,-0.77867 -3.72711,-1.01548 -5.87577,-0.61239 -2.22458,0.41733 -4.62639,1.93624 -6.57981,4.16103 -2.23357,2.5439 -3.07639,4.504 -3.07639,7.1546 0,2.372 0.76159,4.4614 2.17431,5.9652 1.31046,1.3949 3.33498,2.3145 5.09571,2.3145 1.60676,0 4.23788,-0.7777 5.84693,-1.7282 z m 50.13305,-33.26878 c 2.15876,-2.3822 2.75,-4.02021 2.75,-7.61885 0,-3.88009 -0.52224,-5.10645 -3.4,-7.98422 -2.90213,-2.90213 -4.08824,-3.4 -8.1,-3.4 -4.01177,0 -5.19788,0.49787 -8.1,3.4 -2.86445,2.86444 -3.4,4.11249 -3.4,7.92327 0,3.4046 0.63879,5.28245 2.58291,7.5929 1.4206,1.68829 4.0081,3.44896 5.75,3.9126 1.7419,0.46364 4.51709,0.47531 6.16709,0.0259 1.65,-0.44937 4.2375,-2.18261 5.75,-3.85165 z m -100.2495,-14.25307 c 1.81295,-1.2375 4.1295,-3.81798 5.14789,-5.7344 1.01838,-1.91642 1.85161,-5.29844 1.85161,-7.5156 0,-2.21716 -0.8208,-5.59918 -1.824,-7.5156 -1.12384,-2.1469 -3.52292,-4.37285 -6.25,-5.79897 -3.30709,-1.72943 -5.52931,-2.19964 -8.79024,-1.85996 -2.40033,0.25004 -5.55033,1.33297 -7,2.40652 -1.44967,1.07355 -3.64826,3.43958 -4.88576,5.25784 -1.39586,2.05094 -2.25,4.80581 -2.25,7.25692 0,2.17305 0.73931,5.50898 1.64291,7.41319 0.90361,1.9042 3.25807,4.55971 5.23214,5.90112 2.64942,1.80033 4.92982,2.43894 8.7092,2.43894 3.66627,0 6.05589,-0.63884 8.41625,-2.25 z m 43.29724,-1.10104 c 1.77843,-0.74308 4.66678,-2.98346 6.41856,-4.97862 1.75177,-1.99517 3.47779,-5.18805 3.83559,-7.09529 0.35781,-1.90724 0.23913,-4.70198 -0.26372,-6.21054 -0.50285,-1.50855 -2.07762,-3.61138 -3.49948,-4.67295 -1.59958,-1.19426 -4.12099,-1.90894 -6.61344,-1.87454 -2.21553,0.0306 -5.29987,0.71318 -6.8541,1.51691 -1.55423,0.80372 -3.59515,2.31135 -4.53538,3.35029 -0.94022,1.03894 -2.43809,3.63275 -3.3286,5.76403 -0.98972,2.36874 -1.38732,5.11058 -1.02283,7.05347 0.32795,1.74813 1.60189,4.09311 2.83097,5.21107 1.22908,1.11796 2.90969,2.2794 3.73469,2.58098 0.825,0.30159 2.52695,0.58386 3.78211,0.62728 1.25517,0.0434 3.7372,-0.52902 5.51563,-1.27209 z"
     id="path1" /></svg>
