<?xml version="1.0" encoding="UTF-8" standalone="no"?>
<!-- Uploaded to: SVG Repo, www.svgrepo.com, Generator: SVG Repo Mixer Tools -->

<svg
   fill="#000000"
   version="1.1"
   id="Capa_1"
   width="800px"
   height="800px"
   viewBox="0 0 471.461 471.461"
   xml:space="preserve"
   sodipodi:docname="globe.svg"
   inkscape:version="1.4 (e7c3feb100, 2024-10-09)"
   xmlns:inkscape="http://www.inkscape.org/namespaces/inkscape"
   xmlns:sodipodi="http://sodipodi.sourceforge.net/DTD/sodipodi-0.dtd"
   xmlns="http://www.w3.org/2000/svg"
   xmlns:svg="http://www.w3.org/2000/svg"><defs
   id="defs1">
	
</defs><sodipodi:namedview
   id="namedview1"
   pagecolor="#ffffff"
   bordercolor="#000000"
   borderopacity="0.25"
   inkscape:showpageshadow="2"
   inkscape:pageopacity="0.0"
   inkscape:pagecheckerboard="0"
   inkscape:deskcolor="#d1d1d1"
   inkscape:zoom="0.91039998"
   inkscape:cx="427.83393"
   inkscape:cy="483.85326"
   inkscape:window-width="1890"
   inkscape:window-height="2090"
   inkscape:window-x="0"
   inkscape:window-y="0"
   inkscape:window-maximized="0"
   inkscape:current-layer="Capa_1" />
<path
   d="m 235.735,471.456 c 129.984,0 235.726,-105.752 235.726,-235.726 C 471.461,105.757 365.709,0.005 235.735,0.005 105.761,0.005 0,105.747 0,235.73 0,365.714 105.751,471.456 235.735,471.456 Z M 421.152,193.942 c -19.662,-11.465 -14.746,1.635 -14.746,1.635 0,0 0,0 13.109,11.465 13.111,11.466 22.941,16.39 18.025,32.445 -4.914,16.057 -13.109,1.961 -29.49,15.072 -16.391,13.109 19.66,16.389 21.295,36.049 1.637,19.662 -19.66,9.832 -29.49,29.492 -9.83,19.66 -1.635,40.965 -6.551,58.99 -4.914,18.025 -45.881,42.602 -60.76,50.797 -14.879,8.195 -4.781,-18.025 0,-36.051 4.781,-18.026 -11.34,-37.686 -11.34,-70.457 0,-32.771 -9.83,-22.939 -39.322,-22.939 -29.49,0 -42.6,-16.391 -45.88,-47.518 -3.28,-31.135 24.576,-62.261 37.685,-72.091 13.111,-9.831 31.137,-19.661 49.152,-9.831 18.025,9.831 24.576,19.661 44.236,19.661 19.66,0 19.66,-6.55 31.135,-14.746 11.465,-8.195 -16.391,-18.025 -32.77,-16.313 -16.381,1.712 -13.111,-9.897 -34.406,-18.092 -21.297,-8.195 -29.492,8.195 -36.051,11.465 -6.551,3.28 -29.49,13.11 -31.787,0 -2.285,-13.11 12.117,-14.745 26.871,-14.745 14.746,0 1.635,-11.465 -3.279,-19.661 -4.916,-8.195 -14.746,-8.195 -21.85,-14.592 -7.096,-6.397 8.74,-18.178 25.119,-14.267 16.381,3.911 9.83,15.75 27.855,14.114 18.025,-1.636 0,-18.025 0,-33.899 0,-15.874 19.662,-15.262 32.771,-21.592 13.109,-6.331 29.49,27.635 40.965,41.377 3.797,4.552 9.219,2.534 14.766,-2.113 28.984,33.354 48.367,75.228 53.836,121.338 -23.426,8.76 -21.904,-4.962 -39.098,-14.993 z M 235.735,9.567 c 9.046,0 17.949,0.593 26.718,1.635 -3.213,8.941 -8.436,15.616 -8.436,15.616 0,0 -6.549,21.295 -21.304,22.94 -14.755,1.645 -32.771,0 -40.966,13.11 -8.195,13.11 -6.55,36.051 -19.66,22.94 -13.11,-13.11 -1.635,-14.114 -14.746,-27.54 -13.11,-13.425 -16.39,-13.425 -22.94,-13.425 -1.932,0 -4.122,-3.337 -5.862,-8.214 C 160.468,19.378 196.968,9.567 235.735,9.567 Z M 98.991,55.735 c -0.364,2.362 1.711,5.795 11.781,9.993 19.661,8.195 24.193,24.423 15.138,23.782 -9.056,-0.641 -45.853,4.379 -12.011,14.209 33.851,9.831 31.059,21.353 16.008,26.268 -15.052,4.916 -11.829,-16.361 -15.109,4.944 -3.28,21.305 -6.579,19.67 -17.231,22.95 -10.653,3.28 -30.323,19.67 -30.323,31.136 0,11.465 -6.56,17.882 6.55,27.712 13.11,9.83 -4.103,27.809 -10.299,14.708 -7.44,-15.721 -12.642,-24.395 -20.837,-26.039 -8.195,-1.635 -18.752,11.465 0,24.575 18.752,13.11 19.661,21.305 19.661,31.135 0,9.83 13.569,9.83 23.992,8.195 10.414,-1.635 31.805,26.221 39.14,37.686 7.325,11.467 20.435,22.941 38.46,27.855 18.025,4.916 24.576,16.391 14.746,24.576 -9.83,8.195 -11.465,27.855 -22.94,32.771 -11.475,4.914 -13.11,19.66 -19.661,26.221 -3.844,3.844 -7.573,8.834 -10.691,14.602 -9.782,-5.498 -19.115,-11.705 -27.941,-18.543 -0.268,-1.453 -0.564,-2.926 -0.698,-4.254 -1.635,-16.391 -3.28,-36.051 -13.11,-44.236 C 73.785,357.786 67.226,346.321 63.955,333.21 60.684,320.101 68.87,300.44 62.32,287.329 55.77,274.22 55.77,286.507 42.659,268.081 29.549,249.653 29.549,249.643 21.354,234.898 16.975,227.009 14.02,214.435 12.203,201.19 21.296,142.084 53.387,90.466 98.991,55.735 Z"
   id="path1"
   style="fill:#ffffff;fill-opacity:1" />
</svg>
