<?xml version="1.0" encoding="UTF-8" standalone="no"?>
<!-- Creator: CorelDRAW -->

<svg
   xml:space="preserve"
   width="3.73333in"
   height="3.7333901in"
   style="clip-rule:evenodd;fill-rule:evenodd;image-rendering:optimizeQuality;shape-rendering:geometricPrecision;text-rendering:geometricPrecision"
   viewBox="0 0 3.7333299 3.73339"
   version="1.1"
   id="svg39"
   sodipodi:docname="globe_color.svg"
   inkscape:version="1.4 (e7c3feb100, 2024-10-09)"
   xmlns:inkscape="http://www.inkscape.org/namespaces/inkscape"
   xmlns:sodipodi="http://sodipodi.sourceforge.net/DTD/sodipodi-0.dtd"
   xmlns="http://www.w3.org/2000/svg"
   xmlns:svg="http://www.w3.org/2000/svg"><sodipodi:namedview
   id="namedview39"
   pagecolor="#ffffff"
   bordercolor="#000000"
   borderopacity="0.25"
   inkscape:showpageshadow="2"
   inkscape:pageopacity="0.0"
   inkscape:pagecheckerboard="0"
   inkscape:deskcolor="#d1d1d1"
   inkscape:document-units="in"
   inkscape:zoom="1"
   inkscape:cx="623"
   inkscape:cy="602.5"
   inkscape:window-width="3800"
   inkscape:window-height="2090"
   inkscape:window-x="0"
   inkscape:window-y="0"
   inkscape:window-maximized="0"
   inkscape:current-layer="Layer_x0020_1" />
 <defs
   id="defs1">
  <style
   type="text/css"
   id="style1">
   <![CDATA[
    .fil2 {fill:none}
    .fil8 {fill:#0097A7}
    .fil4 {fill:#00BCD4}
    .fil7 {fill:#8BC34A}
    .fil5 {fill:#95CC56}
    .fil6 {fill:#9DD45D}
    .fil1 {fill:#BDBDBD}
    .fil0 {fill:#E0E0E0}
    .fil3 {fill:#8BC34A;fill-rule:nonzero}
   ]]>
  </style>
   <clipPath
   id="id0">
    <path
   d="m 3.41333,-3.93701e-6 c 1.88513,0 3.41333,1.52820003701 3.41333,3.41333003701 0,1.88513 -1.5282,3.41333 -3.41333,3.41333 C 1.5282,6.8266561 0,5.2984561 0,3.4133261 0,1.5281961 1.5282,-3.93701e-6 3.41333,-3.93701e-6 Z"
   id="path1" />
   </clipPath>
 </defs>
 <g
   id="Layer_x0020_1"
   inkscape:label="Layer 1"
   inkscape:groupmode="layer"
   transform="translate(-1.5785531,-1.7922195)">
  <metadata
   id="CorelCorpID_0Corel-Layer" />
  
  
  
  <path
   class="fil3"
   d="m 3.7678231,4.6472995 c 4.6e-4,3.54e-5 9.96e-4,3.54e-5 0.0016,7.9e-6 -0.0089,-0.0033 -0.01267,-0.00463 -0.0016,-7.9e-6 z"
   id="path4" />
  <path
   class="fil4"
   d="m 5.3118831,3.6588695 c 0,1.03102 -0.835677,1.86674 -1.86676,1.86674 -1.03073,-1.18e-5 -1.86657,-0.835709 -1.86657,-1.86672 1.5e-5,-1.03099 0.835839,-1.86667 1.86657,-1.86667 1.03108,0 1.86676,0.835681 1.86676,1.86666 z"
   id="path5"
   style="fill:#35dbf0;fill-opacity:1" />
  <path
   class="fil5"
   d="m 3.5988931,3.3088795 0.0083,4.882e-4 0.0053,2.716e-4 z m 1.36195,0.378874 c 0,0 -0.01161,0.00758 -0.01812,0.012653 -0.0065,0.00498 -0.01675,0.00379 -0.03487,0.00386 -0.0181,1.142e-4 -0.01427,0.00389 -0.0285,0.00396 -0.01437,5.51e-5 -0.0092,0.00885 -0.02226,0.010197 -0.01305,0.00135 -0.02229,0.00265 -0.03016,0.00272 -0.0079,4.33e-5 -0.0078,-0.010051 -0.01302,-0.01 l -0.0076,-0.00788 -1.88e-4,-0.0022 c 0,-0.00382 8.6e-5,-0.010158 1.45e-4,-0.017709 0,-0.00759 -0.0052,-0.012614 -0.01186,-0.017618 -0.0066,-0.00504 -0.0065,-0.010126 -0.01579,-0.02022 -0.0092,-0.010114 -0.02245,-0.022768 -0.03588,-0.025272 -0.01332,-0.00259 -0.0013,-0.00759 -0.01876,-0.030476 -0.0175,-0.022941 -0.0068,-0.00893 -0.01084,-0.0255 -0.0017,-0.0065 -0.0035,-0.00921 -0.0059,-0.011071 -0.0037,-0.0028 -0.009,-0.00341 -0.01715,-0.011909 -0.01373,-0.014158 -0.01096,-0.00902 -0.01373,-0.014158 -0.0027,-0.00518 -0.0016,-0.020453 -0.0017,-0.024299 0,-0.0038 -0.01533,-0.033409 -0.02114,-0.047594 -0.0057,-0.014272 -0.01509,-0.00665 -0.0111,-0.010512 0.0022,-0.00203 3.03e-4,-0.00459 -0.0026,-0.00977 -0.0025,-0.00436 -0.0055,-0.010539 -0.0077,-0.019992 -0.0046,-0.020697 -0.01463,-0.036441 -0.02754,-0.051028 -0.01286,-0.014571 -0.0087,-0.011929 -0.009,-0.022366 -2.44e-4,-0.010425 -0.02315,-0.027961 -0.0234,-0.034508 -2e-4,-0.00657 -0.0076,-0.018583 -0.0047,-0.014563 0.0029,0.00402 0.01184,0.01998 0.01629,0.02663 0.0043,0.00664 0.0016,0.0053 0.02002,0.020008 0.01842,0.014776 0.0053,-0.0037 0.0062,-0.018091 3.58e-4,-0.00439 -7.56e-4,-0.011386 -0.0023,-0.018921 -0.0038,-0.017276 -0.01086,-0.037783 -0.01373,-0.037886 -0.0041,-8.66e-5 -0.007,-0.0015 -0.01816,-0.0018 -0.011,-2.992e-4 -0.0084,-0.00287 -0.01952,-0.0032 -0.01125,-3.268e-4 -0.0087,-0.00819 -0.02694,-0.00874 -0.01826,-5.591e-4 -0.01918,0.011323 -0.03309,0.01626 -0.01387,0.00486 -0.03905,-0.017106 -0.04626,-0.01872 -0.0072,-0.00156 -0.0287,-9.449e-4 -0.03447,-0.00114 -0.0041,-1.3e-4 -0.0077,-0.00352 -0.0124,-0.00568 l -0.0067,-0.00164 c -0.0087,-2.441e-4 -0.02811,-0.010315 -0.02811,-0.010315 1.2e-5,0 -0.0074,-0.0043 -0.01675,-0.014071 -0.0092,-0.00976 -0.02204,-0.00211 -0.03092,-0.00249 -0.0088,-3.149e-4 -0.01267,0.011713 -0.01983,0.016862 -0.0071,0.00507 0.0011,0.021551 0.0014,0.031004 4.57e-4,0.00938 -0.0057,0.00252 -0.01302,0.00764 -0.0072,0.00509 -0.02528,5.315e-4 -0.03457,-0.00658 -0.0093,-0.00709 -0.0032,-0.00549 -0.01114,-0.012512 -0.0078,-0.00704 -0.02876,-0.00376 -0.03482,-0.00396 -0.0061,-2.559e-4 -0.0092,-3.425e-4 -0.0113,-0.014012 -0.0022,-0.013705 -0.01296,-0.016823 -0.01296,-0.016823 4.3e-5,-1.18e-5 -0.02457,-0.0037 -0.03543,-0.00412 -0.01074,-4.291e-4 -0.02018,-0.0036 -0.0279,-0.00389 l -0.01164,-0.00826 -0.0108,-0.00641 c -0.0093,-3.7e-4 -0.01287,-0.00877 -0.01287,-0.00877 0,0 -0.0066,-0.00719 -0.0053,-0.015386 0.0011,-0.00828 0.0087,-0.012043 0.01301,-0.018776 0.0044,-0.00668 -0.0041,-0.018106 -0.0074,-0.022441 l 0.01,-0.017591 c 0,0 -0.01359,0.00768 -0.01398,7.874e-4 -4.02e-4,-0.00701 -0.01926,-0.01074 -0.01926,-0.01074 -0.0067,0.00109 -0.01347,0.00211 -0.02024,0.00323 0,0 -0.01569,5.591e-4 -0.02044,3.701e-4 -0.0047,-2.717e-4 -0.02054,3.74e-4 -0.02054,3.74e-4 -0.0091,-4.882e-4 -0.01811,-9.173e-4 -0.02724,-0.00143 1.2e-5,-1.57e-5 -0.01417,0.00213 -0.04475,0.00472 -0.03072,0.00269 -0.0325,0.00116 -0.03738,9.134e-4 -0.0049,-1.969e-4 -0.01629,0.00202 -0.01629,0.00202 0,0 -0.01964,0.00176 -0.02609,0.00569 -0.0064,0.00388 -0.008,0.00804 -0.01459,0.0077 -0.0066,-3.425e-4 -0.01331,7.283e-4 -0.02648,0.0057 -0.01322,0.00496 0,0 -0.0047,0.00539 l -0.0094,0.00565 -0.0056,-7.126e-4 c -0.0085,-0.00182 -0.0085,-0.00325 -0.01363,-0.00494 -0.0051,-0.0017 -0.01018,-4.843e-4 -0.01699,-8.543e-4 -0.0068,-3.426e-4 -0.01529,-7.874e-4 -0.02211,-0.0011 -0.0069,-3.74e-4 -0.01735,-0.00661 -0.01735,-0.00661 0,0 -0.0073,-0.010272 -0.01928,-0.01237 -0.01211,-0.00205 -0.01018,0.00516 -0.01018,0.00516 0,-1.18e-5 -0.0015,0.00709 -0.0031,0.012669 -0.0015,0.00562 -0.0083,0.012441 -0.008,0.019535 1.58e-4,0.00714 -0.01373,0.00648 -0.01715,0.012 -0.0033,0.00558 -0.01201,0.0052 -0.02251,0.00895 -0.01044,0.00376 -0.01932,0.00192 -0.02618,0.011571 -0.0069,0.0097 -0.01569,0.016488 -0.01735,0.023626 -0.0016,0.00706 -0.0087,0.00961 -0.0086,0.018177 2.12e-4,0.00861 0.0039,0.018807 0.0039,0.018807 l -0.0016,0.011425 c 0,0 -0.01427,0.00944 -0.01413,0.019508 1.61e-4,0.00996 -0.02698,0.00759 -0.02704,0.00759 5.9e-5,0 -0.01986,0.00788 -0.02531,0.0135 -0.0054,0.00552 -0.02014,0.00788 -0.02565,0.00911 l -2.4e-4,8.66e-5 c -0.005,0.00173 0.0037,0.01898 -0.02549,0.030878 -0.0296,0.012071 -0.02961,0.035382 -0.03339,0.041114 -0.0037,0.00569 -0.0056,0.00856 -0.01312,0.015646 -0.0075,0.00706 -0.01126,0.021512 -0.01126,0.021512 0,-1.58e-5 -0.01896,0.017087 -0.02665,0.02863 -0.0076,0.011484 -0.0057,0.00573 -0.0076,0.015929 -0.0019,0.010213 0.0038,0.010327 0.0076,0.017665 0.0038,0.00741 0.0019,0.00592 0.01145,0.00896 0.0095,0.00305 0,0.019024 0,0.03215 0,0.01313 0.0019,0.00731 0.0019,0.020453 0,0.013071 -0.0038,0.017405 -0.0038,0.033492 0,0.00508 0,0.00845 -9.9e-5,0.011012 -2.44e-4,0.00548 -0.0011,0.00641 -0.0037,0.00944 l -0.01726,0.024823 c 0,0 -0.0039,0.00872 -0.0039,0.016091 0,0.00732 0,0.00885 0,0.017563 0,0.00877 0,0 -0.0038,0.013216 -0.0039,0.01324 0,0 -0.0019,0.010236 -0.002,0.010295 0.01347,0.017492 0.01347,0.017492 l 9.56e-4,0.00116 0.0067,0.00751 c 0.0077,0.00874 0.02477,0.00415 0.02477,0.00415 -0.0042,0.00877 0.0063,0.014087 0.01196,0.01626 l 0.0033,0.0011 c 0,0 0.0075,0.011555 0.01507,0.015799 0.0075,0.00425 0.0056,0.00714 0.01685,0.014232 0.0069,0.00441 0.01165,0.012055 0.01433,0.017276 l 0.0025,0.00563 -4.3e-5,0.017335 c 0,0.00436 0.01301,0.011295 0.0185,0.015559 0.0056,0.00418 0.0092,0.00552 0.02215,0.011055 l 0.0073,0.00398 c 0.0059,0.00424 0.0073,0.00859 0.01281,0.012795 0.0073,0.00567 0.03996,0.026216 0.03986,0.026216 0,-1.57e-5 0.01982,0.00948 0.03395,0.019067 0.01433,0.00955 0.01963,0.00367 0.01963,0.00367 l 0.0045,-7.441e-4 c 0.0051,-9.016e-4 0.01018,-0.00178 0.01513,-0.00263 5.9e-5,-4.33e-5 0.01786,-0.00909 0.02311,-0.00919 0.0053,-1.732e-4 0.01251,-0.00751 0.03168,-0.00802 0.01932,-4.724e-4 0.02443,-6.024e-4 0.04002,-0.00106 0.01559,-4.015e-4 0.0069,0.00402 0.01709,0.00798 0.0061,0.00231 0.01201,0.00167 0.01604,7.874e-4 l 0.0046,-0.00136 c 0.0057,-0.00204 0.01156,-0.00406 0.01721,-0.00605 0,0 0.01361,-0.00319 0.01876,-0.00612 0.0051,-0.00293 0.01544,-0.00881 0.02391,-0.00898 0.0084,-2.559e-4 0.0102,-0.00719 0.02024,-0.00739 0.01009,-3.032e-4 0.01014,-0.00863 0.0102,-0.00863 l 0.0057,-9.291e-4 c 0.0068,-0.0011 0.01774,-0.00286 0.02437,-0.00391 l 0.0013,-1.575e-4 c 0.0097,-0.00137 0.02074,-3.583e-4 0.03339,-6.299e-4 0.01307,-3.268e-4 0.0114,0.00525 0.02906,0.015791 0.01766,0.010567 0.0031,0.010898 0.0011,0.023354 -0.0019,0.012382 0.0047,0.010839 0.01595,0.010524 0.01141,-3.268e-4 0.02285,-0.00609 0.03243,-0.00636 0.0096,-2.717e-4 0.03225,-0.00906 0.03215,-0.00906 l 3.58e-4,3.898e-4 0.01048,0.012953 c 0,0 0.0078,0.00525 0.01832,0.021311 0.0075,0.011453 0.0039,0.018303 0,0.024342 l -0.0041,0.00715 c -0.0023,0.00552 -0.0055,0.014158 -0.0073,0.021681 l -0.0017,0.00998 c -4.17e-4,0.00834 -0.01167,0.015488 -0.01565,0.036256 -0.0033,0.017488 0.0228,0.047295 0.04621,0.067984 l 0.01287,0.01074 c 0.0061,0.00448 0.01,0.0099 0.01292,0.015661 0.0035,0.00694 0.0053,0.014575 0.0065,0.022224 0.0019,0.013087 0.0021,0.026386 0.0058,0.036913 0.008,0.021823 0.02305,0.023866 0.01387,0.024284 -0.0092,4.567e-4 -0.0051,0.033709 0.0037,0.038827 0.0087,0.00513 0.0096,0.038598 -0.01054,0.065126 -0.01736,0.022784 -0.03709,0.075354 -0.04582,0.108291 -0.0014,0.00532 -0.0025,0.010181 -0.0033,0.014142 -0.005,0.028846 0.04722,0.122193 0.0469,0.122437 1.6e-5,-8.66e-5 0.0092,0.061492 0.0063,0.088878 -0.0022,0.022697 0.01792,0.048583 0.02574,0.061839 l 0.0029,0.00618 c 0.002,0.00909 -4.96e-4,0.033677 0.01701,0.060779 0.0176,0.02713 -0.0115,0.050382 0.0051,0.084563 0.0165,0.034323 0.03274,0.021024 0.05807,0.00392 0.02544,-0.017008 0.0382,-0.00153 0.05,-0.00195 0.01161,-4.41e-4 0.03971,-0.017535 0.05722,-0.018232 0.01741,-6.733e-4 0.01499,-0.02939 0.05116,-0.043449 0.03608,-0.014157 0.04279,-0.024024 0.05191,-0.055831 0.0091,-0.031677 0.03012,-0.041776 0.05171,-0.058165 0.01872,-0.014272 0.01938,-0.020677 0.01352,-0.040213 l -0.003,-0.00932 c -0.0086,-0.027075 0.04944,-0.044508 0.04938,-0.044508 0.0098,-3.858e-4 0.01826,-0.014386 0.02367,-0.044421 0.0054,-0.03 0.0043,-0.048965 -0.011,-0.06587 -0.01535,-0.016874 0.0075,-0.022193 0.0178,-0.028402 0.01014,-0.00624 0.01916,-0.013846 0.02814,-0.022866 0.009,-0.009 0.01257,-0.019197 0.01858,-0.025114 0.0061,-0.00595 0.02997,-0.014 0.03729,-0.01998 0.0073,-0.00606 0.02163,-0.015059 0.03218,-0.029547 0.01055,-0.014543 0.01201,-0.015988 0.0089,-0.031291 -0.0031,-0.015244 0.0011,-0.015457 0.003,-0.046004 0.0019,-0.030476 0.0049,-0.035941 0.0049,-0.035941 0,-1.18e-5 -0.0024,-0.00659 -0.0051,-0.015433 -0.0035,-0.010968 -0.0078,-0.025484 -0.0094,-0.035807 -0.003,-0.018937 0.0015,-0.027158 -0.0035,-0.035039 -0.005,-0.00792 -0.0072,-0.01589 -0.0076,-0.03461 -4.45e-4,-0.018161 0.01182,-0.00763 0.01307,-0.020693 l 1.03e-4,-9.724e-4 c 7.12e-4,-0.014602 0.0023,-0.019937 0.01065,-0.025484 0.0083,-0.00548 -0.0016,-0.023752 0.0093,-0.026571 0.009,-0.00241 0.01937,-0.016606 0.0226,-0.021339 l 0.001,-0.00157 0.01806,-0.017374 c 0.0028,-0.00402 0.02074,-0.025153 0.02497,-0.032965 0.0042,-0.00787 0.02451,-0.02115 0.0285,-0.025126 0.004,-0.00389 0.01726,-0.00539 0.02003,-0.010571 0.0028,-0.00525 0.02164,-0.028543 0.0283,-0.032492 0.0066,-0.00392 0.01992,-0.021953 0.02543,-0.033421 0.0054,-0.011528 0.0083,-0.02424 0.02417,-0.05087 0.01589,-0.026728 0.01891,-0.080661 0.02795,-0.091913 0.009,-0.011315 -0.0051,-0.00624 -0.0051,-0.00625 z"
   id="path6"
   style="fill:#b7f274;fill-opacity:1" />
  <path
   class="fil6"
   d="m 2.1264631,2.6457695 c 0,0 0.01004,-0.00396 0.01599,-0.00805 0.006,-0.00398 0.02029,-0.028618 0.02381,-0.031791 l -0.04046,0.00233 c -0.0054,0.00734 -0.02008,0.028602 -0.02441,0.033681 -0.0043,0.00515 -0.0025,0.0265 -0.0076,0.028429 -0.0049,0.00193 -0.01489,0.02424 -0.02159,0.030047 -0.0067,0.00594 -0.01509,0.022295 -0.01509,0.022252 l 0.0083,0.013374 c 0.0052,-0.00198 0.01054,-0.00396 0.01583,-0.00604 0.0039,-0.00636 0.0078,-0.012724 0.01171,-0.019205 0.0066,-0.00253 0.01311,-0.00504 0.01972,-0.00756 -0.0011,-0.00514 -0.0021,-0.010327 -0.0031,-0.015476 4.13e-4,-0.00629 9.17e-4,-0.012642 0.0014,-0.018992 0.0052,-0.00762 0.01036,-0.015272 0.01554,-0.022996 z"
   id="path7"
   style="fill:#b7f274;fill-opacity:1" />
  <path
   class="fil6"
   d="m 2.4079431,2.6673395 c 0.0066,-0.00282 0.02497,0.00393 0.0292,0.011689 0.0042,0.00781 0.006,0.010154 0.01519,-0.00332 0.0093,-0.013587 0.0013,-0.018165 0.02407,-0.029575 0.02291,-0.011429 0.03132,-0.023126 0.0047,-0.024598 -0.02659,-0.0017 -0.0227,-0.00501 -0.04177,-0.00668 -0.01907,-0.00167 -0.0338,0.012886 -0.03667,0.00415 -0.0029,-0.00863 0.02956,-0.020882 0.02961,-0.020882 1.6e-5,0 0.02261,-0.02135 0.0048,-0.015374 -0.01796,0.00601 -0.05183,0.00878 -0.03568,0.00193 0.01605,-0.00687 -0.01281,-0.00801 -0.01276,-0.00804 l -0.0063,-0.012587 c 0,0 -0.02534,0.00229 -0.02049,-0.00324 0.0047,-0.00545 -0.02154,-0.00113 -0.01655,-0.00498 0.0052,-0.00389 0.0089,-0.015787 0.0049,-0.014146 -0.004,0.00172 -0.03028,-0.00276 -0.04716,0.00606 -0.0168,0.00884 -0.0041,0.025957 0.0024,0.023228 0.0066,-0.0028 0.01716,0.00131 0.01716,0.00131 l -0.01812,0.00932 -0.03078,0.01626 c 0.0029,-0.00457 0.0058,-0.00924 0.0087,-0.01387 0.0029,-0.00525 0.0058,-0.01037 0.0086,-0.015587 l -0.0019,-0.011342 c -0.0082,0.00406 -0.01645,0.00804 -0.02457,0.012028 -0.0069,0.00339 -0.01367,0.00682 -0.02048,0.010224 l -0.01307,0.012299 c 0.0028,-0.00745 0.0056,-0.014988 0.0085,-0.022524 -0.0049,0.00662 -0.0097,0.013228 -0.01449,0.019807 -0.0046,0.00554 0.0038,0.051441 -0.0013,0.053354 -0.005,0.00211 -0.01776,-0.014756 -0.01776,-0.014756 0,0 0.0085,-0.013571 0.01014,-0.019437 0.0017,-0.00582 -0.0163,-0.013957 -0.0163,-0.013984 -0.009,0.011126 -0.0179,0.022197 -0.02673,0.033138 -0.0052,0.00605 -0.01035,0.012138 -0.01545,0.018118 7.56e-4,0.00641 0.0016,0.012886 0.0024,0.019248 0.0076,-0.00247 0.01523,-0.00493 0.02295,-0.00744 -0.0075,0.00575 -0.01499,0.011571 -0.02239,0.01726 l 0.0034,0.010315 c 0.0062,-0.00248 0.01246,-0.00492 0.01876,-0.00748 0,-1.57e-5 0.02876,-0.00492 0.05035,-0.013744 0.02164,-0.00882 0.04222,-0.017417 0.04222,-0.017417 0.0032,-0.00521 0.0065,-0.010425 0.0097,-0.015689 -5.5e-5,4.33e-5 0.02911,-4.291e-4 0.03395,0.010839 0.0047,0.01124 0.02407,0.00968 0.02588,0.02035 0.0019,0.010697 -0.0047,0.02148 -0.01605,0.027961 -0.0114,0.00635 -0.01635,0.032465 -0.01635,0.032421 0,-1.57e-5 3.58e-4,0.00943 -0.0086,0.013126 -0.009,0.00373 -0.02685,0.00315 -0.03259,0.00861 -0.0058,0.00558 -0.01756,0.015059 -0.0175,0.015059 -5.5e-5,1.3e-4 -0.01928,0.032937 -0.0055,0.027417 0.01373,-0.00563 0.0091,-0.00845 0.0179,-0.012 0.0087,-0.0035 0.04359,-0.028787 0.05082,-0.00522 0.0071,0.023571 0.02523,0.017461 0.03325,0.015748 0.008,-0.00179 0.03233,0.00194 0.03152,-0.00237 -8e-4,-0.00431 0.01934,-0.00952 -0.001,-0.021122 -0.02038,-0.011728 -0.01126,-0.023386 2e-4,-0.014146 0.01151,0.00918 0.02483,0.012854 0.03018,-0.00488 0.0053,-0.017862 0.02285,-0.023768 0.0035,-0.036126 -0.01912,-0.012425 -0.02044,-0.019992 -0.02044,-0.019894 -4.3e-5,0 0.0072,-0.015972 0.01383,-0.018835 z"
   id="path8"
   style="fill:#b7f274;fill-opacity:1" />
  <path
   class="fil6"
   d="m 2.4931531,2.9721395 c -0.02236,0.010409 -0.0223,0.010366 -0.0223,0.010366 l 0.0019,0.00206 c 0,0 -0.01649,0.016488 -0.02183,0.031079 -0.0053,0.014528 -0.01136,0.025157 -0.01988,0.031205 -0.0084,0.00617 -0.01343,0.039299 -0.01343,0.039228 5.9e-5,-1.19e-5 -1.42e-4,7.08e-5 0.03094,-0.012 0.03113,-0.012169 0.04419,-0.025539 0.04415,-0.025539 l 0.0053,0.010181 c 0.005,7.716e-4 0.0101,0.00152 0.01513,0.00223 1.6e-5,-1.57e-5 0.0094,-0.00368 0.01393,-0.00958 0.0045,-0.00592 0.0041,-0.014 0.0041,-0.014 l -0.0041,-0.0052 c -0.0011,-0.00468 -0.0021,-0.00925 -0.0032,-0.013905 -6.03e-4,-0.00481 -0.0012,-0.00968 -0.0018,-0.014543 0,0 -0.01655,-0.00161 -0.02503,0.00589 -0.0085,0.00759 -0.01357,0.00406 -0.01357,0.00406 0.0023,-0.00457 0.0046,-0.00921 0.007,-0.01387 1.6e-5,0 -0.01497,0.00152 -0.02032,0.00481 0.0076,-0.00689 0.04233,-0.041531 0.02306,-0.032464 z"
   id="path9"
   style="fill:#b7f274;fill-opacity:1" />
  <path
   class="fil6"
   d="m 2.0959531,2.5334095 c 0.0058,-0.00292 0.01165,-0.00594 0.01755,-0.0088 l 0.0055,0.00679 0.01315,-0.00352 c -7.56e-4,-0.00631 -0.0015,-0.012657 -0.0023,-0.018992 -0.0048,-0.00109 -0.0096,-0.00216 -0.01448,-0.00328 -0.0047,0.00191 -0.0094,0.00378 -0.01413,0.00569 -0.0078,0.00494 -0.01553,0.00981 -0.02331,0.014701 0.005,-2.165e-4 0.01,-3.582e-4 0.01499,-4.842e-4 z"
   id="path10"
   style="fill:#b7f274;fill-opacity:1" />
  <path
   class="fil6"
   d="m 2.0876731,2.6076095 c 0.0075,-0.00292 0.0173,-0.00155 0.01852,-0.00901 0.0013,-0.00744 0.0022,-0.016606 0.0022,-0.016606 8.04e-4,-0.005 0.0016,-0.010024 0.0024,-0.015126 -0.0071,0.00104 -0.01413,0.0021 -0.02124,0.00309 l 0.0011,0.011972 c 0,1.57e-5 -0.0027,0.02039 -0.0052,0.014386 -0.0026,-0.00605 -0.0063,-0.024012 -0.0093,-0.019236 -0.0032,0.00479 -0.01302,0.022681 -0.01296,0.022626 0.0024,0.00499 0.0047,0.00985 0.0071,0.01476 0,0 0.01008,-0.00391 0.01755,-0.00685 z"
   id="path11"
   style="fill:#b7f274;fill-opacity:1" />
  <path
   class="fil6"
   d="m 2.0150731,2.6933995 c 0.0056,0.00129 0.01114,0.00257 0.01679,0.00389 1.6e-5,-1.58e-5 -0.0039,0.018118 0.01065,0.012626 0.01463,-0.00544 0.01262,-0.014728 0.01262,-0.014728 0,5.9e-5 0.01781,-0.010024 0.02366,-0.013984 0.0059,-0.00386 -0.0027,-0.025902 -0.0028,-0.025972 l 0.01115,-0.00432 c -4.3e-5,0 0.0117,-0.021634 0.0076,-0.028685 -0.0042,-0.00705 -0.01741,0.013744 -0.02365,0.016091 -0.0062,0.00241 -0.01862,0.00709 -0.01862,0.00709 l -0.0094,0.01213 c -4.01e-4,0.00645 -7.59e-4,0.012827 -0.0012,0.019106 0,0 0,0 -0.01241,-0.00205 -0.0124,-0.0022 -0.01437,0.018807 -0.01437,0.018807 z"
   id="path12"
   style="fill:#b7f274;fill-opacity:1" />
  <path
   class="fil6"
   d="m 3.2585131,2.0051295 c -0.02912,0.00862 -0.05183,0.019165 -0.05874,0.022496 -0.0069,0.00322 -0.03542,0.013571 -0.0386,0.014657 -0.003,0.00103 0.01514,-0.011827 2.01e-4,-0.015032 l -0.0039,-8.858e-4 2.95e-4,-4.292e-4 -0.0089,-0.00878 -0.01099,-5.866e-4 -0.01084,-0.00594 -0.01712,0.0073 -0.01507,8.031e-4 -0.01641,-6.614e-4 -0.01301,0.0098 -0.003,-0.00505 -0.01026,0.00403 c -0.0052,0.00102 -0.0106,0.00193 -0.01585,0.00293 l -0.0095,0.00565 -2.01e-4,-0.00114 -0.0089,0.00246 -0.01261,0.00682 c -0.0049,0.00217 -0.01,0.00432 -0.01489,0.00646 l -0.0038,-0.00304 c -0.0045,7.992e-4 -0.0092,0.00157 -0.01377,0.00241 -0.0046,0.00346 -0.0093,0.00702 -0.01383,0.010539 l -0.0085,0.00612 -0.0058,-0.00232 c -0.0061,0.00222 -0.01216,0.00449 -0.01826,0.00667 l -0.0054,0.00896 -0.0041,-0.00232 c -0.0049,0.0016 -0.0098,0.0032 -0.01469,0.00478 l -0.0076,0.00915 -0.01114,0.011142 -0.0077,-2.598e-4 c -0.0053,0.00243 -0.0107,0.00488 -0.01604,0.00734 l -0.006,3.583e-4 c -0.0039,0.00535 -0.0078,0.010685 -0.01166,0.015972 l -0.0064,0.00183 -0.0084,0.00708 -0.0106,0.00344 -0.003,-0.0026 -0.0113,0.01074 c -0.0054,0.00342 -0.01079,0.00685 -0.01615,0.010327 -0.0033,0.00578 -0.0066,0.011697 -0.0099,0.017559 -0.0054,0.00301 -0.0109,0.00604 -0.01639,0.00907 0,0 0.01282,-0.011528 -0.01736,5.118e-4 -0.03002,0.012142 -0.0496,0.020122 -0.05786,0.023425 -0.0082,0.00341 -0.03184,0.022256 -0.03345,0.02676 -0.0016,0.00462 -0.02291,0.014756 -0.02285,0.014756 -2.44e-4,0 -0.08381,0.055791 -0.06604,0.052244 0.01761,-0.00352 0.02645,0.00691 0.0033,0.016661 -0.0232,0.00984 -0.04313,0.034925 -0.0728,0.047539 -0.02966,0.012626 -0.04566,0.038626 -0.01922,0.027299 0.02654,-0.011284 0.05866,-0.022468 0.05872,-0.022468 -2.44e-4,4.33e-5 -0.07074,0.049142 -0.04012,0.043504 0.03054,-0.00552 0.02519,4.449e-4 0.04798,-0.00928 0.02291,-0.0098 0.02644,-0.03002 0.05343,-0.027819 0.0269,0.00218 0.03174,-0.00234 0.03503,0.013472 0.0033,0.01576 0.01689,0.028059 0.0084,0.043677 -0.0085,0.015618 -0.02734,0.026185 -0.02734,0.026185 5.9e-5,1.57e-5 -0.0027,0.017894 0.01609,0.00734 0.01894,-0.010528 0.03002,-0.030764 0.03219,-0.023398 0.0022,0.00741 0.01761,0.023197 0.01761,0.023197 1.6e-5,0 -0.02088,-0.00159 -0.03204,0.00323 -0.0112,0.00478 -0.02451,0.016461 -0.01135,0.017835 0.01313,0.0014 0.03502,-0.00461 0.0381,-0.00591 0.0031,-0.00133 -0.0027,0.01752 -0.0107,0.022126 -0.008,0.00462 -0.03467,0.027787 -0.03467,0.027787 0,-2.76e-5 -0.02371,0.026602 -0.0173,0.052299 0.0063,0.025539 0.01045,0.030417 0.01389,0.044563 0.0035,0.014157 0.0012,0.043776 0.0117,0.047937 0.01055,0.00419 0.01221,0.013201 0.02826,0.010626 0.01599,-0.0026 0.02618,-0.00811 0.0292,-0.00947 0.0031,-0.00131 0.0065,0.00485 0.01287,0.00863 0.0064,0.00366 0.01252,0.00102 0.03032,-0.00671 0.0048,-0.00641 0.0096,-0.012799 0.01448,-0.019264 0.0058,-0.01111 0.01474,-0.035768 0.01474,-0.035768 0,0 0.0095,-0.016102 0.0058,-0.023398 -0.0036,-0.00721 -1.42e-4,0.00559 0.01856,-0.016902 0.01873,-0.022496 0.02265,-0.026461 0.02074,-0.036685 -0.002,-0.010295 -0.0074,-0.014728 -0.0031,-0.016543 0.0042,-0.00186 0.0095,-0.016532 0.02668,-0.02387 0.01722,-0.00748 0.0107,0.00768 0.04385,-0.021224 0.03325,-0.028815 0.0331,-0.029874 0.04874,-0.046693 0.01559,-0.016835 3.58e-4,-0.015988 0.02256,-0.029917 0.02225,-0.013957 0.02038,-0.010941 0.04359,-0.026283 0.02321,-0.015421 0.03163,-0.026776 0.04167,-0.030937 0.0099,-0.00415 0.04469,-0.033193 0.07633,-0.053787 0.03173,-0.02065 0.02552,-0.015858 0.01994,-0.013587 -0.0056,0.0022 -0.05197,0.01187 -0.06539,0.01626 -0.01347,0.00429 0.0092,-0.018488 0.0091,-0.018433 1.2e-5,0 0.01574,-0.015402 0.01852,-0.00857 0.0027,0.00681 0.0089,0.012185 0.02886,0.0042 0.01998,-0.00808 0.03253,-0.016331 0.01856,-0.02311 -0.01377,-0.00689 -0.01265,-0.00737 -0.02205,-0.011539 -0.0094,-0.00422 -0.01134,-0.00235 -0.02457,-0.00279 -0.01312,-5e-4 -0.02669,-0.00317 -0.02124,-0.00525 0.0055,-0.00224 0.01781,-0.010528 0.03527,-0.017248 0.01736,-0.00678 0.02285,-0.00889 0.03158,-0.012185 0.0087,-0.00336 0.02221,-0.00183 0.02176,-0.00841 -3.03e-4,-0.00426 -0.0073,-0.00505 -0.01332,-0.0046 0.008,-0.00228 0.01998,-0.00681 0.02653,-0.013842 0.01126,-0.012087 0.0215,-0.022512 0.0064,-0.01698 -0.01508,0.00562 0.01039,-0.015028 0.01035,-0.014996 0,-1.57e-5 0.0081,-0.01861 -0.01428,-0.010543 -0.0224,0.0082 -0.04122,0.0014 -0.01575,-0.00788 0.02559,-0.00919 0.04253,-0.019563 0.03674,-0.019791 -0.0059,-1.575e-4 -0.0381,-0.00127 -0.0381,-0.0013 -3.9e-5,3.94e-5 -0.0023,-0.00621 0.03395,-0.029965 0.03602,-0.023409 0.04011,-0.041087 0.0493,-0.044032 0.0092,-0.00291 0.01629,-0.0095 0.02916,-0.014445 0.01281,-0.00496 0.01876,-0.014287 0.01876,-0.014287 1.2e-5,4.33e-5 -0.0013,-0.00835 -0.0302,1.731e-4 z"
   id="path13"
   style="fill:#b7f274;fill-opacity:1" />
  <path
   class="fil6"
   d="m 3.2191931,2.3285595 c -0.01357,0.010941 -0.01361,0.00662 -0.02629,0.011768 -0.01266,0.00519 -0.01836,0.00751 -0.02533,0.014776 -0.0068,0.00722 -0.017,0.012496 -0.02613,0.016315 -0.0092,0.00376 -0.0053,-0.00556 -0.01493,-0.00816 -0.0096,-0.00276 -0.0452,0.02976 -0.03916,0.033933 0.0061,0.00405 0.01912,-0.00915 0.03517,-0.015799 0.01605,-0.00664 -7.01e-4,0.00691 -0.0041,0.00833 l -0.02341,0.021996 c 0.0096,-0.00186 0.01937,-0.00378 0.02916,-0.00568 -0.004,0.00569 -0.008,0.011386 -0.01206,0.017161 0,-1.58e-5 0.0228,-0.010642 0.0286,-0.00871 0.0057,0.00198 0.02351,5.9e-5 0.03411,-0.00437 0.01054,-0.00444 0.0223,-0.0093 0.02224,-0.01363 -4.3e-5,-0.00439 0.02478,-0.022236 0.04421,-0.032335 0.01937,-0.010197 0.03193,-0.035827 0.03193,-0.035752 -0.0074,-0.01326 -0.04061,-0.01074 -0.05399,1.574e-4 z"
   id="path14"
   style="fill:#b7f274;fill-opacity:1" />
  <path
   class="fil6"
   d="m 2.1213731,2.5995995 c 0,0 0.01483,-0.0077 0.02022,-0.00807 0.0054,-4.843e-4 0.0162,-0.00828 0.0162,-0.00828 0,-1.18e-5 4.01e-4,-0.019461 -0.0059,-0.016906 -0.0064,0.00256 -0.01978,0.011445 -0.01978,0.011445 -0.0035,0.00731 -0.0072,0.014571 -0.0107,0.021807 z"
   id="path15"
   style="fill:#b7f274;fill-opacity:1" />
  <path
   class="fil6"
   d="m 2.1946831,3.6986195 c 0,0 -0.02736,-0.012087 -0.06231,-0.020508 -0.03501,-0.00846 -0.03513,-0.00149 -0.04445,-0.00574 -0.0093,-0.00417 -0.0085,-0.00555 -0.022,-5e-4 -0.01337,0.00502 -0.02467,0.017394 -0.02846,0.024201 -0.0037,0.00676 -0.0015,0.01065 -0.0015,0.01065 0.0031,-9.095e-4 0.02406,-0.019406 0.03078,-0.020221 0.0067,-7.717e-4 0.0059,0.00858 0.01437,0.00613 0.0085,-0.00242 0.02083,-0.00359 0.02658,4.764e-4 0.0059,0.00406 0.01575,-0.00564 0.01575,-0.00564 l 0.0072,0.012941 0.012,0.0012 -4.02e-4,0.0105 c -0.003,0.00193 0.03698,-0.00113 0.05237,-0.013504 z"
   id="path16"
   style="fill:#b7f274;fill-opacity:1" />
  <path
   class="fil6"
   d="m 3.1472631,4.0744695 c -0.01247,-0.01337 0.0034,-0.0265 -0.01696,-0.024382 -0.02012,0.00213 -0.01256,0.010638 -0.04293,4.291e-4 -0.03011,-0.010209 -0.04424,-0.018807 -0.05221,-0.022008 -0.008,-0.00323 -0.03527,-0.018177 -0.04677,-0.017807 -0.01161,4.567e-4 -0.01656,0.00103 -0.02876,0.00262 -0.01221,0.00148 -0.02159,0.00666 -0.03153,0.00386 -0.0098,-0.00277 -0.03052,-0.013941 -0.04682,0.00689 l -0.0056,0.00774 c -0.0012,-0.00589 -0.0033,-0.015043 -0.0056,-0.021063 -0.0036,-0.0093 -0.0049,-0.00917 -0.02709,-0.013917 -0.02225,-0.00478 -0.03537,-0.00865 -0.04642,-0.01 -0.01098,-0.00131 -0.01936,0.00376 -0.0227,0.010055 l -0.0044,0.00738 c 0.0023,-0.00479 0.0037,-0.010673 1.57e-4,-0.015421 -0.0071,-0.00958 -0.01535,-0.00729 -0.02281,-0.00619 -0.0075,0.00112 -0.02507,0.00193 -0.02503,0.00193 -4.4e-5,-4.33e-5 -0.01387,-0.00737 -0.003,-0.013744 0.011,-0.00646 0.01246,-0.00859 0.008,-0.017319 -0.0044,-0.0088 0.0025,-0.00235 -0.0156,-0.00887 -0.01785,-0.00644 -0.01256,-0.01011 -0.01932,-0.019264 -0.0066,-0.00918 -0.01968,-0.023583 -0.01968,-0.023583 l -0.0088,-0.00311 -0.0036,-0.00115 c -1.58e-4,-1.023e-4 -0.04229,-0.016209 -0.05091,-0.014488 l -0.0034,3.701e-4 c -0.0089,4.567e-4 -0.0218,-0.00202 -0.03355,2.717e-4 -0.01337,0.00259 -0.02275,0.00443 -0.02275,0.00443 l -0.0022,-0.00122 c -0.0058,-0.00349 -0.02215,-0.012571 -0.0279,-0.010681 -0.0072,0.00229 -0.02351,-0.027988 -0.03672,-0.024213 l -0.0013,2.874e-4 c -0.01291,0.00313 -0.02739,-2.874e-4 -0.02739,-2.874e-4 0,0 0.01291,-0.012413 0.0059,-0.016091 -0.007,-0.00372 -0.0065,5.039e-4 -0.01984,-0.00259 -0.01331,-0.00312 -0.03353,-0.00541 -0.01881,-0.00874 0.01467,-0.00336 0.01048,-0.00498 0.01048,-0.00498 -0.01331,0.00125 -0.02649,0.00262 -0.03954,0.00386 0,0 -0.005,0.012398 -0.01126,0.015532 -0.0063,0.00315 -0.01499,-0.00681 -0.02669,-0.00405 -0.01155,0.00276 -0.0106,0.00843 -0.02139,0.011043 -0.0106,0.00252 -0.01277,-0.00711 -0.01277,-0.00711 1.2e-5,0 -0.005,-0.00728 -0.01064,-0.00588 -0.0057,0.00139 -0.01942,0.00475 -0.02503,0.00617 -0.0056,0.00139 -0.02269,0.01822 -0.01256,0.025882 0.01014,0.00762 0.01896,0.016579 0.01094,0.018508 -0.008,0.00196 -0.01751,0.00172 -0.01987,-0.00875 -0.0024,-0.010339 0.0073,-0.020378 3.47e-4,-0.026217 l -0.0059,-0.00633 0.0024,-0.0045 0.0086,-0.00808 c 0,0 0.0048,-0.00959 -0.0057,-0.00443 -0.01034,0.00515 -0.01034,0.00515 -0.01361,0.010996 -0.0033,0.00585 -0.005,0.011327 -0.01287,0.013299 -0.0078,0.00203 -0.0092,0.00571 -0.0088,0.00983 l -0.0028,0.00742 c 0,0 -0.0067,-0.013358 -0.0099,-0.00752 -0.0032,0.00585 -0.01619,0.010067 -0.01356,0.018634 0.0026,0.00854 0.0064,0.021079 0.0064,0.021079 0,0 -0.02119,0.00714 -0.01742,0.019736 0.0038,0.012587 -0.0062,0.023697 -0.0062,0.023697 4.3e-5,-1.58e-5 0.01004,-0.027315 -0.0064,-0.032276 -0.01645,-0.00494 -0.01503,-0.0087 -0.02704,-0.00458 -0.01196,0.00406 -0.0095,0.015173 -0.01786,0.017461 l -0.0063,0.00328 c -0.0032,0.00192 -0.0067,0.00286 -0.01907,-0.00307 -0.01695,-0.00807 -0.01746,-0.00661 -0.01942,-0.013284 l -0.01332,-0.00468 c -0.0035,0.00103 -0.0045,-0.00147 -0.01126,4.41e-4 -0.0064,0.00185 -0.0168,0.00167 -0.01796,0.00387 0.0036,0.00876 0.0094,0.02476 0.0226,0.024728 0.01796,-2.76e-5 0.01665,0.00116 0.02321,0.00695 0.0066,0.00575 0.0099,0.00569 0.01826,0.00337 0.0083,-0.00234 0.0221,-1.299e-4 0.02417,0.00699 0.0021,0.00704 0.02058,0.00804 0.01428,-0.00219 -0.0033,-0.00535 -0.0064,-0.00585 -0.0077,-0.00624 l -7.01e-4,-9.094e-4 0.002,-0.00306 c 0.0053,-0.00734 0.0051,-0.010642 0.0085,-0.013299 0.0034,-0.00257 0.01293,-0.00943 0.01812,-0.00312 0.0052,0.00624 0.0076,0.01413 0.0088,0.018106 0.0012,0.00393 0.01008,0.00588 0.01326,0.011028 0.0032,0.00501 0.0161,0.052902 0.01711,0.056276 9.73e-4,0.00322 0.006,0.019508 -0.0032,0.025441 -0.0092,0.00588 -0.01337,0.00606 -0.0098,0.014988 0.0035,0.00887 0.0066,0.00533 0.0035,0.00888 l -10e-4,0.0013 -0.0075,0.0125 c -0.0039,10e-4 -0.01383,0.00172 -0.0067,0.014287 0.0072,0.012583 0.0016,0.016772 5.6e-5,0.019906 -0.0016,0.00312 -0.0043,0.00563 2.99e-4,0.018177 0.0046,0.012528 0.0081,0.027386 0.01816,0.021035 0.01004,-0.00629 0.0052,0.00884 0.0052,0.014504 l -0.0046,0.00633 c -0.0023,0.00426 -0.0034,0.012957 0.0036,0.036295 0.0016,0.0053 -0.0044,0.020291 0.01065,0.021138 0.01499,0.00104 0.02411,0.00546 0.03769,0.021496 0.01367,0.016087 0.02724,0.031559 0.03577,0.05048 0.0085,0.018906 0.02966,0.032295 0.03804,0.041559 0.0083,0.00934 0.01509,0.019035 0.01509,0.019035 0,-1.18e-5 0.0076,0.015846 0.02824,0.025842 0.02069,0.010083 0.03396,0.01678 0.04556,0.020626 0.01146,0.00399 0.02932,-0.0017 0.0391,0.00798 0.0098,0.0096 0.02296,0.023114 0.02906,0.024098 l 0.0038,0.00162 c 0.0049,0.00306 0.0096,0.00879 0.01,0.00535 3e-4,-0.00478 0.03884,0.085539 0.04958,0.116657 0.0102,0.029976 0.0487,0.124665 0.04884,0.125063 -4.4e-5,-1.457e-4 0.02694,0.049224 0.01716,0.044063 -0.0099,-0.00517 0.0095,0.016043 0.01497,0.02587 0.0054,0.00977 0.0068,0.00825 0.01393,0.028673 0.0071,0.020496 0.01962,0.051169 0.02325,0.061626 0.0035,0.010295 0.01892,0.061236 0.01898,0.061335 0,-1.18e-5 -0.01417,7.322e-4 9.56e-4,0.017709 0.01503,0.016945 0.03511,0.023823 0.0391,0.038354 0.0039,0.014543 -0.004,0.030917 0.0096,0.043221 0.01367,0.012256 0.01549,0.032949 0.02229,0.031248 0.0068,-0.00179 0.0028,0.01111 0.01196,0.028728 0.0092,0.01748 0.01559,0.023772 0.0178,0.017835 0.0022,-0.00595 -0.0067,-0.019535 -0.01235,-0.032661 -0.0055,-0.013059 -0.01014,-0.026358 -0.004,-0.024 0.0061,0.00243 0.01629,0.019606 0.01796,0.024441 0.0017,0.0048 0.0087,0.018819 0.01563,0.032937 0.007,0.014055 0.01196,0.031433 0.01196,0.031449 -7.44e-4,0.00509 -0.0015,0.010252 -0.0022,0.015358 0,0 -0.01186,-0.0034 -0.0088,0.00532 0.003,0.00859 0.0054,0.028299 0.0054,0.028299 0,-1.18e-5 0.0169,-0.00368 0.02316,-0.00416 0.0062,-4.725e-4 0.01417,-0.00545 0.01539,-0.00176 0.0013,0.00362 8.58e-4,0.024098 -0.004,0.025583 -0.0048,0.00142 -0.0044,0.024673 -0.0044,0.024673 1.2e-5,0 0.01963,0.022827 0.02654,0.027429 0.0069,0.00468 0.02688,0.018748 0.02902,0.024957 l 1.02e-4,4.134e-4 c 9.53e-4,6.575e-4 0.0034,0.00317 0.0089,0.010268 0.01535,0.019634 0.02559,0.024299 0.02559,0.024299 0,0 0.0039,-0.00407 0.0108,0.00317 0.0068,0.00717 0.01887,0.011142 0.01887,0.011142 l 0.0072,0.00833 0.01403,0.00318 0.02946,0.013732 c 0.0039,-0.00137 0.01831,-0.00644 0.0277,-0.00446 0.0092,0.00205 0.02431,0.002 0.03016,3.15e-5 0.0048,-0.00169 0.02245,-0.00668 0.02846,-0.0084 l 0.0021,-5e-4 0.01061,-0.00718 c 0.0029,-8.701e-4 0.01034,-0.00456 0.01558,-0.00493 0.0053,-3.858e-4 0.0162,-0.00367 0.0162,-0.00367 0.0053,-0.00448 0.0108,-0.0089 0.01625,-0.013331 -0.0055,1.57e-5 -0.05399,0.020307 -0.09263,-0.010709 -0.0389,-0.031567 -0.0209,-0.023043 -0.04395,-0.036713 -0.0232,-0.013815 -0.03819,-0.02261 -0.02619,-0.028618 0.01211,-0.00591 0.01317,2.165e-4 0.0082,-0.020209 -0.0048,-0.02035 -0.0088,-0.025598 -0.0017,-0.029945 0.0072,-0.00435 0.01321,0.00672 0.004,-0.019906 -0.0092,-0.026602 -0.01699,-0.023626 -0.02805,-0.021012 -0.011,0.00257 -0.02229,0.00149 -0.03305,-0.013787 -0.01069,-0.01524 -0.01312,-0.031276 1.53e-4,-0.036622 0.01328,-0.00545 0.01146,-0.019909 0.0094,-0.025713 -0.0021,-0.00572 -0.01604,-0.00545 -0.0074,-0.020783 0.0088,-0.015315 0.01926,-0.019591 0.0056,-0.024382 -0.01377,-0.00485 -0.03169,-1.693e-4 -0.03592,-0.00918 -0.0043,-0.00902 -0.03804,-0.024815 -0.01333,-0.02826 0.02483,-0.00332 0.03911,0.00882 0.04263,-0.00269 0.0035,-0.011484 0.0083,-0.013441 -0.0034,-0.024728 -0.01176,-0.011279 -0.03513,-0.027913 -0.02483,-0.029587 0.01014,-0.00173 0.06427,-0.00144 0.07305,-0.021083 0.0085,-0.019721 0.0075,-0.028772 0.0027,-0.042031 -0.0048,-0.013287 -0.01014,-0.00921 -0.02357,-0.021406 -0.01336,-0.01226 0.01271,-0.017563 -0.0074,-0.023327 -0.01998,-0.00574 -0.03481,-0.00394 -0.03904,-0.012642 l 6.57e-4,-0.00491 c 0.0036,-0.00113 0.01316,9.448e-4 0.02815,0.00163 0.02271,8.583e-4 0.03012,0.014902 0.04738,0.00631 0.0174,-0.00857 0.029,-0.00845 0.03289,-0.01998 l 2.56e-4,-9.41e-4 c 0.0033,-0.012347 -0.002,-0.045095 -0.0053,-0.059984 -0.0033,-0.01524 2.6e-4,-0.03422 2.6e-4,-0.03422 0,0 0.01115,0.00469 0.0102,0.017961 -9.17e-4,0.013358 0.0053,0.00183 0.007,-0.019205 0.0017,-0.020953 -0.003,-0.027232 0.0089,-0.039886 0.01211,-0.012756 0.01337,-0.016091 -0.0021,-0.031476 -0.01533,-0.015346 -0.03838,-0.029004 -0.02992,-0.041472 0.0085,-0.012358 0.02145,-0.035713 0.0283,-0.043622 0.0067,-0.00787 0.03033,-0.033779 0.04732,-0.032449 0.0168,0.00126 0.05399,6.457e-4 0.05414,-0.00259 1.03e-4,-0.00323 -0.0162,-0.015291 4.45e-4,-0.016063 0.01666,-7.165e-4 0.01529,-0.00809 0.01529,-0.00809 -0.0015,-0.00957 -0.0029,-0.01915 -0.0043,-0.02863 -4.3e-5,-1.57e-5 0.0075,-0.018547 0.0043,-0.02687 -0.0032,-0.00835 -0.0051,-0.016807 -0.0096,-0.028303 -0.0044,-0.011445 0.0069,-0.00991 0.0022,-0.025602 -0.0047,-0.015756 -0.02765,-0.07787 -0.03648,-0.100264 -0.0089,-0.022512 0.0095,-0.010126 0.01555,-0.00528 0.006,0.00485 -0.0026,-0.00297 0.002,-0.019091 0.0045,-0.016146 -0.0011,-0.019949 0.0014,-0.027413 0.0026,-0.00758 0.01024,-0.012347 0.0225,-0.02387 0.01222,-0.011457 0.02251,-0.025 0.01267,-0.049539 -0.0098,-0.024453 -0.01752,-0.03637 -0.03002,-0.049799 z"
   id="path17"
   style="fill:#b7f274;fill-opacity:1" />
  <path
   class="fil7"
   d="m 4.9122631,4.2338995 c -0.0161,-0.020193 -0.01409,-0.00922 -0.01409,-0.00922 0,-1.57e-5 -0.005,0.020764 -0.0054,0.029146 -4.6e-4,0.00833 -0.0044,0.00846 -0.01313,0.019748 -0.0086,0.011441 -0.01421,0.015791 -0.02148,0.027232 -0.0073,0.011437 -0.02746,0.00931 -0.03331,0.017945 -0.0059,0.00867 -0.02527,0.016319 -0.03274,0.026516 -0.0074,0.010283 -0.0049,0.013 -0.0063,0.033106 -0.0014,0.020224 0.0026,0.02148 0.0095,0.038673 0.007,0.017287 -0.0075,0.010394 -0.01842,0.029831 -0.01104,0.019437 -0.01347,0.015102 -0.02164,0.033138 -0.0083,0.018075 0.0026,0.019236 0.0077,0.025012 0.0051,0.00578 -0.0013,0.016476 -0.0051,0.030177 -0.0038,0.013713 -8.59e-4,0.010583 0.01429,0.028303 0.01513,0.017803 0.0289,-9.449e-4 0.03859,-0.00126 0.0096,-2.992e-4 0.02295,-0.01439 0.02295,-0.01439 0.02267,-0.060264 0.0446,-0.118858 0.06574,-0.175933 l 0.0017,-0.00424 c -0.0018,-0.017221 -0.0025,-0.027091 0.0108,-0.027516 0.01337,-3.622e-4 0.0047,-0.011402 0.0047,-0.011402 0,-1.57e-5 -0.0051,-0.00412 -0.0056,-0.019594 -4.57e-4,-0.0155 0.01306,0.00525 0.0172,0.00237 0.0042,-0.00294 0.0037,-0.019862 0.0022,-0.04213 -0.0016,-0.022122 -0.0018,-0.015217 -0.01805,-0.035512 z"
   id="path18" />
  <path
   class="fil6"
   d="m 1.8875831,2.6741695 c 0.0094,-0.00485 0.04636,-0.010866 0.03329,-0.00462 -0.01302,0.00625 -0.02285,0.014701 -0.01882,0.015004 0.004,3.543e-4 0.02277,-0.00951 0.03622,-0.01426 0.01343,-0.00476 0.02004,-0.010598 0.027,-0.014858 0.007,-0.00422 0.03445,-0.012555 0.03445,-0.012555 0.0088,-0.01076 0.0175,-0.021583 0.02639,-0.03248 -0.0089,0.00216 -0.01786,0.00441 -0.02679,0.00655 0,0 -3.98e-4,-0.013886 -0.0067,-0.011555 -0.0062,0.00229 -0.01408,0.020992 -0.01463,0.029913 -7e-4,0.00894 -0.0287,0.0087 -0.0287,0.00864 0.0049,-0.00348 0.0099,-0.00696 0.01488,-0.010571 -0.01064,3.583e-4 -0.02124,7.441e-4 -0.03183,0.00105 l 0.01311,-0.011602 -0.0176,0.00967 0.0024,-0.018307 c 0,0 -0.01369,0.010213 -0.02397,0.011957 -0.0075,0.00137 -0.01327,0.00396 -0.02069,0.00692 -0.0056,0.00867 -0.01134,0.017291 -0.01689,0.026016 l 0.0027,-0.00182 c 0.007,-0.00402 0.02042,-0.0034 0.01266,0.00266 -0.0078,0.00608 -0.01191,0.010913 -0.01629,0.014118 -0.0045,0.00316 0.01048,0.00505 0.01982,1.261e-4 z"
   id="path19"
   style="fill:#b7f274;fill-opacity:1" />
  <path
   class="fil6"
   d="m 1.8716331,2.7149995 -0.01613,-0.016504 c -0.003,-0.00133 -0.01005,0.00474 -0.01686,0.00971 -0.01008,0.016937 -0.01988,0.034039 -0.02942,0.051331 0.02195,-0.01626 0.0501,-0.030374 0.05267,-0.031307 z"
   id="path20"
   style="fill:#b7f274;fill-opacity:1" />
  <polygon
   class="fil6"
   points="2.20365,3.02873 2.20546,3.02802 "
   id="polygon20"
   style="fill:#b7f274;fill-opacity:1"
   transform="translate(0.03189258,0.24557948)" />
  <path
   class="fil7"
   d="m 5.3012431,3.4595095 c -0.0039,0.0023 -0.0095,0.00424 -0.01762,0.00463 0.0069,0.00874 0.01373,0.017492 0.02054,0.026232 -9.57e-4,-0.010343 -0.0018,-0.020594 -0.0029,-0.030866 z"
   id="path21" />
  <path
   class="fil6"
   d="m 2.0458531,3.9020895 -0.005,-0.011843 c 0.004,-3.543e-4 0.0042,-4.252e-4 0.01004,0.00376 0.0058,0.00415 0.008,0.00607 0.01433,0.00841 0.0064,0.00239 0.01312,0.00321 0.01114,-0.00265 -0.002,-0.00581 -0.0038,-0.00951 -0.0015,-0.020094 0.0024,-0.010626 -0.0029,-0.02128 -0.0022,-0.026417 7.01e-4,-0.00515 3.98e-4,-0.013496 3.98e-4,-0.013496 -0.0013,-0.00459 -0.0046,-0.00948 -0.0077,-0.013504 -0.0038,-0.00485 -0.0075,-0.00842 -0.0075,-0.00842 0,4.33e-5 -0.0072,-0.00535 -0.02791,0.00149 -0.02062,0.0067 -0.02265,0.013913 -0.03042,0.01211 l -0.0032,-1.299e-4 c -0.0059,8.464e-4 -0.01176,0.00637 -0.0108,0.00252 l 0.0015,-0.00365 c 0.0056,-0.011457 0.0048,-0.00307 0.0073,-0.01685 0.0025,-0.01374 -0.0011,-0.00944 0.0029,-0.02365 0.002,-0.00688 0.0032,-0.00953 0.0036,-0.01187 3.97e-4,-0.00248 -2.6e-4,-0.00474 -0.0021,-0.011217 -0.0036,-0.012713 -0.0023,-0.016299 5e-4,-0.023567 0.0027,-0.00728 0.0105,-0.02235 -0.0088,-0.016803 -0.01932,0.00563 -0.04864,0.013272 -0.04461,0.027484 0.0041,0.014189 0.004,0.022299 -0.002,0.029721 -0.006,0.00745 -0.0079,0.012098 -0.0055,0.014657 0.0023,0.00257 0.002,0.00997 -0.0077,0.00468 -0.0096,-0.00528 -0.01428,0.00995 -0.02937,0.014488 -0.01513,0.00452 -0.0092,-0.00948 -0.01987,-0.00631 -0.01065,0.00317 -0.008,0.004 -0.0155,-0.00518 -0.0075,-0.00917 -0.01876,-0.010713 -0.0235,-0.027244 -0.0047,-0.016618 -0.0059,-0.043906 -0.0087,-0.059323 -0.0029,-0.015488 0.0032,-0.017221 0.0023,-0.023398 l -5.55e-4,-0.00558 c -3.58e-4,-0.00572 -4.6e-4,-0.012752 -0.0017,-0.019016 -0.0017,-0.00845 -0.0036,-0.01526 0.01089,-0.024941 0.01443,-0.0098 0.01064,-0.00304 0.01614,-0.015102 0.0055,-0.01213 -0.01119,-0.00991 0.01312,-0.016661 0.02417,-0.00681 0.02114,-0.00591 0.03012,-0.00847 0.009,-0.00253 0.01201,-0.00902 0.01872,-0.00528 0.0068,0.00369 0.01226,0.00865 0.01872,3.7e-4 0.0065,-0.00833 0.0026,-0.016114 0.0026,-0.016114 0,0 -0.01074,-0.00911 0.01786,-0.010783 0.0285,-0.0017 0.02355,-0.018921 0.0327,-0.00937 0.0092,0.00946 0.01393,0.014583 0.01906,0.00739 0.0053,-0.00717 0.0022,-0.017559 0.01096,-0.00961 0.0087,0.00798 0.0215,0.00752 0.02098,0.014087 -5.44e-4,0.00656 4.56e-4,0.00712 0.0041,0.017347 0.0038,0.01024 0.007,0.021366 0.01615,0.030823 0.0092,0.00944 0.01746,0.023937 0.02271,0.00552 0.0051,-0.01848 0.0069,-0.0093 1.96e-4,-0.03311 -0.0069,-0.023882 -0.01519,-0.041689 -0.0159,-0.043976 -6.03e-4,-0.00226 -0.01675,-0.02172 0.0031,-0.046433 0.01993,-0.024815 0.02079,-0.030894 0.03213,-0.040087 0.01145,-0.00928 0.01195,-0.00448 0.01726,-0.015161 0.0054,-0.010795 0.0033,-0.015189 0.0079,-0.016602 0.0046,-0.00144 0.0018,-0.00555 0.0056,-0.00678 l 0.0089,-0.00695 -0.0026,-0.010012 -0.0101,0.00315 0.01146,-0.010295 -0.0041,-0.00878 -0.0096,0.00131 c 0.0028,-0.00174 0.01226,-0.00725 0.01074,-0.01274 -0.0014,-0.00538 -0.0054,-0.02028 -0.0054,-0.02028 1.6e-5,0 -0.0047,-0.033453 0.003,-0.00771 0.0076,0.025598 0.0055,0.03637 0.01312,0.017831 0.0077,-0.018602 0.0034,-0.02574 0.0033,-0.02574 l 0.0086,6.181e-4 c -3.9e-5,0 0.01403,-0.024315 0.01231,-0.034197 -0.0017,-0.00981 -0.0036,-0.00739 0.0123,-0.015374 0.01605,-0.008 0.02245,-0.017161 0.02886,-0.019378 0.0049,-0.00163 0.01247,-0.00426 0.01595,-0.00542 -0.0025,3.11e-4 -0.0064,-0.00146 -0.0019,-0.018823 0.0062,-0.024339 0.01069,-0.031405 0.02158,-0.037941 0.01085,-0.00655 0.01197,-0.016874 0.02195,-0.020465 l 0.0091,-0.00305 c 0.0062,-0.00209 0.01094,-0.00411 0.01014,-0.00758 l 0.0034,-0.00877 0.0085,-0.00658 c 0.0081,-0.00476 0.01367,-0.012315 0.01947,-0.015417 0.0057,-0.00303 -0.01846,0.012441 -0.02467,0.028362 -0.0062,0.015929 0.0043,0.032847 0.01333,0.016961 0.009,-0.016047 0.0074,-0.015417 0.01836,-0.01948 0.01116,-0.00407 0.01902,-0.014342 0.02683,-0.017232 0.0078,-0.00287 0.02337,-0.017917 0.02684,-0.019248 0.0035,-0.00132 0.01115,-0.00974 0.01912,-0.021224 0.008,-0.011472 0.0023,-0.014945 -0.0064,-0.010685 -0.0087,0.00431 0.0011,-0.016402 -0.0025,-0.015055 -0.0036,0.0014 -0.01352,0.012768 -0.01296,0.019075 5.55e-4,0.00635 -0.0083,0.00971 -0.0107,0.011571 -0.0025,0.00184 -0.0099,0.00654 -0.01812,0.00771 -0.0082,0.00123 -0.02168,0.00355 -0.02229,-0.00276 -4.41e-4,-0.00632 -0.0029,-0.01665 0.0023,-0.022354 0.0053,-0.00578 0.0055,-0.00491 0.0093,-0.012972 0.0038,-0.00804 0.01785,-0.029602 4.45e-4,-0.022925 -0.01735,0.00668 -0.023,0.00225 -0.03729,0.013299 -0.01411,0.011087 -0.02371,0.025059 -0.03046,0.027516 -0.0038,0.00141 -0.01176,0.014047 -0.01898,0.02526 -0.0043,0.00667 -0.0083,0.012827 -0.01105,0.016031 l -0.0024,0.00216 c -0.0056,0.00293 -0.01024,-0.00181 -0.01024,-0.00181 0,0 0.0046,-0.00709 0.0126,-0.014689 0.0081,-0.00763 0.0097,-0.016575 0.01868,-0.024555 0.0091,-0.00813 0.0087,-0.00988 0.01402,-0.014673 0.0053,-0.00478 0.01357,-0.012697 0.01363,-0.012697 l 0.0107,-0.00975 c 0.0029,-0.00389 -8.15e-4,-0.012043 0.006,-0.014634 0.0068,-0.00265 0.03148,-0.014043 0.04217,-0.017346 0.01072,-0.00311 0.02856,-0.014016 0.03411,-0.015217 0.0055,-0.00116 0.02048,-0.00811 0.02507,-0.00991 0.0045,-0.0018 0.007,-0.00369 0.01711,-0.01652 0.01009,-0.01287 0.0074,-0.015701 0.03285,-0.027917 0.02553,-0.01237 0.03229,-0.01513 0.0326,-0.028114 2.99e-4,-0.013087 0.002,-0.019819 -0.0018,-0.023295 -0.0038,-0.00349 -0.01393,0.00672 -0.01625,-0.00439 -0.0023,-0.011185 -0.0099,-0.00396 -0.01922,0.00493 -0.0092,0.00874 -0.01615,0.018594 -0.02443,0.021953 -0.0082,0.00333 -0.02179,-1.299e-4 -0.0068,-0.00924 0.01499,-0.00912 0.01831,-0.012528 0.0279,-0.019492 0.0097,-0.00695 0.0067,-0.00675 0.01563,-0.012484 0.0089,-0.00572 0.0086,-0.00757 -0.0061,-0.00558 -0.01473,0.00198 -0.01014,0.00515 -0.02362,0.00265 -0.01351,-0.0026 -0.02634,-0.00242 -0.02528,-0.012028 10e-4,-0.00971 0.0049,2.76e-5 0.0072,-0.018421 0.0024,-0.018216 -0.022,-0.073492 -0.022,-0.073807 0,8.66e-5 -0.0108,0.026972 -0.02539,0.04239 -0.01463,0.015532 -0.02547,0.024067 -0.0279,0.031319 -0.0024,0.00718 -0.0069,0.013201 -0.0109,0.00337 -0.0039,-0.00982 -0.0074,-0.00845 -0.01109,-0.00794 -0.0038,4.134e-4 -0.02785,0.0092 -0.0033,-0.016504 0.02472,-0.025969 0.01235,-0.015646 0.01064,-0.024453 -0.0017,-0.00885 -0.0092,-0.00797 -0.01725,-0.00469 -0.008,0.00331 -0.01181,-0.00154 -0.01443,-0.010197 -0.0026,-0.00861 -0.01241,-0.00998 -0.02614,-0.00222 -0.01371,0.00764 -0.0221,0.017461 -0.029,0.01589 -0.0069,-0.00152 -0.02906,-0.00451 -0.0282,0.017646 8.15e-4,0.022098 -0.0089,0.024697 -0.007,0.033551 0.0018,0.00874 0.0043,0.016059 -0.0043,0.019405 -0.0085,0.00329 -0.03008,0.026118 -0.01519,0.035839 0.01479,0.00969 0.01585,0.010299 0.01473,0.021827 -10e-4,0.011539 -0.0059,0.041803 -0.05872,0.074752 0,-1.58e-5 -0.0017,0.026945 0.0016,0.037197 0.0033,0.010366 0.0019,0.011843 -0.0058,0.020323 -0.0076,0.00839 -0.0043,0.014831 -0.01317,0.017933 -0.0088,0.00302 -0.0107,0.00938 -0.01509,-0.00139 -0.0043,-0.010783 -0.007,-3.426e-4 -0.0076,-0.013543 -5.59e-4,-0.01313 -0.0077,-0.00672 0.0026,-0.021953 0.01028,-0.015173 -6.58e-4,-0.00648 0.0057,-0.02035 0.0063,-0.013972 0.0064,-0.020937 0.0024,-0.019476 l -0.0402,0.011193 c 0,0 -0.0071,-0.011268 -0.02,-0.00686 -0.0128,0.00443 -0.02643,-0.015689 -0.04253,-0.01037 -0.01593,0.00537 -0.0288,0.012457 -0.0288,0.012457 0,0 0.0088,-0.019646 0.006,-0.030803 -0.0028,-0.011197 -0.02083,-0.00329 -0.0208,-0.00333 -1.42e-4,6.299e-4 0.02998,-0.091409 0.0765,-0.108559 0.0074,-0.00257 0.0228,-0.025284 0.006,-0.02028 -0.01679,0.00495 0.0102,-0.010098 0.01922,-0.014488 0.0089,-0.00435 0.0051,-0.00509 0.01766,-0.00972 0.01261,-0.00473 -0.0053,0.00853 0.01595,-0.010252 0.02139,-0.018949 0.02558,-0.021653 0.02447,-0.026701 -0.0011,-0.00508 -0.01534,0.0058 -0.02417,0.00259 -0.009,-0.00323 -0.01307,-0.00505 -0.01307,-0.00505 1.6e-5,-1.18e-5 0.011,-0.00412 0.01806,-0.00569 0.007,-0.00152 0.01399,-0.0031 0.01888,-0.00606 0.0049,-0.00296 0.0047,3.7e-4 0.0062,-0.010154 0.0015,-0.010571 2e-4,-0.012339 0.0097,-0.016031 0.0094,-0.00365 0.01034,-0.00845 0.02068,-0.00805 0.01035,4.291e-4 -6.58e-4,-0.00306 0.01474,-0.00578 0.01533,-0.00274 -9.18e-4,3.858e-4 0.01876,-0.014201 0.01978,-0.014713 0.03017,-0.0155 0.02639,-0.025284 -0.0038,-0.00991 -0.02367,4.448e-4 -0.0087,-0.015961 0.01503,-0.016461 0.0232,-0.014071 0.02002,-0.020839 -0.0032,-0.00678 -0.01906,-0.00961 -0.02351,-0.00781 -0.0044,0.00178 -0.01014,-0.00293 -0.01952,0.00785 -0.0094,0.010744 -0.0077,0.024 -0.01215,0.030347 -0.0045,0.00637 -0.0105,0.00418 -0.0167,0.015776 -0.0061,0.011472 -0.01176,0.011429 -0.01776,0.018405 -0.0061,0.00682 -5e-4,0.00692 -0.0061,0.00682 -0.0056,-8.66e-5 -0.01447,-0.00681 -0.0034,-0.012299 0.01101,-0.00536 0.02321,-0.010169 0.01277,-0.01985 -0.0104,-0.00968 -0.01978,-0.014114 -0.02645,-0.00111 -0.0067,0.012913 -0.0116,0.020492 -0.01331,0.01663 -0.0018,-0.00385 -0.0052,-0.029071 -0.0088,-0.019677 -0.0036,0.00948 -0.01736,0.014744 -0.02457,0.024382 -0.0072,0.00953 -0.01912,0.014016 -0.02397,0.021453 -0.0047,0.00746 -0.01004,0.016189 -0.01423,0.022185 -0.0041,0.00599 -0.0012,0.014945 -0.0045,0.016201 -0.0034,0.0012 -0.0069,0.013646 -0.0097,0.00126 -0.0029,-0.01237 -0.006,-0.014614 -0.01448,-0.011524 -0.0084,0.00296 -0.02018,0.00715 -0.02437,0.00854 -0.0042,0.00146 -0.0067,0.00241 -0.01625,0.00787 -0.0095,0.00556 -0.02295,0.013429 -0.02295,0.013429 0,0 -0.0082,-0.015059 -0.02407,-0.00978 -0.01583,0.00527 -0.02557,0.00617 -0.03087,0.013374 -0.0053,0.00737 -0.0117,0.013744 -0.01155,0.021366 2.13e-4,0.00761 0.001,0.017216 -0.0039,0.015516 -0.0049,-0.00178 -0.0035,-0.00654 -0.0098,-0.013402 -0.0064,-0.00678 -0.0033,-0.00885 -0.01665,-0.0048 -0.01327,0.00423 -0.05207,0.023154 -0.05207,0.023083 0,-8.66e-5 -0.0073,-0.00338 0.0085,-0.011284 0.01579,-0.00783 0.01856,-0.027374 -0.0065,-0.020079 -0.02517,0.0073 -0.02896,0.015945 -0.03693,0.010468 l -8.15e-4,-4.606e-4 c -0.1175,0.242539 -0.184043,0.514433 -0.185713,0.801661 l 5.1e-5,0.01237 c 0.0073,0.00444 0.0071,0.012583 0.01094,0.022339 0.0049,0.012283 0.0067,0.027098 0.01357,0.031161 0.0069,0.00402 0.0156,-8.859e-4 0.01782,0.00611 0.0022,0.00702 0.01443,0.013713 0.02068,0.01613 0.0063,0.00243 -4.02e-4,0.0018 0.0052,0.011114 0.0056,0.00937 0.01049,0.0013 0.02108,0.012468 0.01064,0.011201 0.03834,0.017291 0.04319,0.03411 0.0049,0.016862 0.0061,0.018134 0.0035,0.027287 -0.0026,0.00915 -0.0095,0.016303 -2.01e-4,0.020949 0.0094,0.00468 0.03668,0.02048 0.04481,0.018752 0.0082,-0.00168 0.02335,-0.00303 0.02335,-0.00303 0,0 0.03108,0.010323 0.04359,0.013083 0.01257,0.0027 0.0079,0.00419 0.02114,0.00335 0.01323,-7.008e-4 0.03164,0.00604 0.03355,-0.00198 0.0019,-0.00804 0.0084,-0.017449 0.0166,-0.017492 0.0082,-4.33e-5 0.02876,0.017591 0.03339,0.019579 l 0.0056,0.002 c 0.0055,0.00196 0.01397,0.00445 0.02235,0.00576 0.0067,0.00103 0.01322,0.0013 0.01826,-1.692e-4 0.01423,-0.00428 0.0093,0.00133 0.02351,-0.00285 l 0.0072,-7.09e-5 0.0021,0.00224 c 0.0019,0.00366 0.0015,0.00981 0.007,0.012142 0.0092,0.00392 0.02159,0.010323 0.02507,0.011012 l 0.0011,0.00113 z"
   id="path22"
   style="fill:#b7f274;fill-opacity:1" />
  <path
   class="fil7"
   d="m 5.1994331,3.1334095 0.0071,-5.551e-4 7.56e-4,-5.91e-5 z m -0.226728,0.401626 -0.0019,0.00124 z m -0.59528,-0.878327 -5.6e-4,-9.291e-4 7.05e-4,0.00106 z m -0.06237,0.115484 0.0022,0.00316 4.57e-4,8.15e-4 z m 0.985224,0.678622 c -0.04708,-0.423878 -0.235969,-0.804819 -0.518189,-1.09444 -0.0066,0.00366 -0.01231,0.013382 -0.01231,0.013382 -0.01044,-0.00197 -0.02109,-0.00383 -0.03169,-0.00572 l -0.0076,0.00988 c -0.008,3.898e-4 -0.016,8.189e-4 -0.02397,0.00118 0,0 0.0079,-0.00652 0.0084,-0.016677 5.12e-4,-0.010098 -0.01619,-0.00533 -0.02034,-0.00375 l -0.01477,0.00807 c 0,0 -0.01413,0.00137 -0.02225,0.00622 -0.008,0.00483 -0.02064,0.021193 -0.02064,0.021193 -0.0014,0.00489 -0.0027,0.00981 -0.0042,0.014764 0,2.76e-5 -0.0281,0.00256 -0.03597,-0.00433 -0.0078,-0.00678 -0.01756,-0.018665 0.0025,-0.018106 0.01999,5.433e-4 -0.0049,-0.020138 -0.02224,-0.020583 -0.01721,-4.685e-4 -0.0215,-4.843e-4 -0.01645,0.019512 0.005,0.02002 0.02306,0.028673 0.02401,0.038583 0.0011,0.00993 -0.0068,0.00306 -0.0068,0.00306 0,-1.58e-5 -0.0082,-0.010012 -0.01826,-0.010382 -0.0099,-2.874e-4 -0.03567,0.013673 -0.039,0.021681 -0.0035,0.00798 0.01792,0.021622 0.01115,0.024669 -0.0068,0.00295 -0.03149,-0.00109 -0.04405,-0.011213 -0.01261,-0.010165 -0.03118,0.00376 -0.0069,0.01589 0.02415,0.012028 0.0171,0.026158 0.006,0.016102 -0.01104,-0.00995 -0.02048,-0.016677 -0.02618,-0.016917 -0.0057,-2.008e-4 -0.0175,-0.00219 -0.0175,-0.00219 0,-1.58e-5 0.0036,-0.0063 -0.0062,-0.01789 -0.01,-0.011642 -0.0053,-0.021209 -0.0053,-0.021209 0,-1.58e-5 -0.01625,-0.00379 -0.02902,-0.013972 -0.01271,-0.010154 0.0038,-0.00475 0.0096,-0.0045 0.0057,1.575e-4 0.0333,0.014142 0.05802,0.016602 0.02463,0.00239 0.05842,-0.00303 0.05681,-0.017823 -0.0018,-0.014827 -0.01483,-0.030102 -0.03233,-0.032315 -0.01741,-0.00218 -0.02755,-0.00246 -0.04072,-0.016063 -0.01296,-0.013598 -0.03517,-0.017661 -0.05545,-0.018209 -0.02038,-5.826e-4 -0.02507,-0.00406 -0.03144,-0.00921 -0.0064,-0.00515 -0.03299,0.00402 -0.03299,0.00402 0,0 -0.01341,-0.015272 -0.0076,-0.01513 0.0058,1.693e-4 0.0058,1.693e-4 0.0058,1.693e-4 0,0 -0.0075,-0.00182 -0.01391,-0.00706 -0.0064,-0.00512 -0.02295,-0.00889 -0.02295,-0.00889 l -0.0019,0.00819 c -0.0013,-0.00616 -0.0025,-0.012213 -0.0037,-0.01835 -0.0044,0.0032 -0.0088,0.00639 -0.01343,0.00961 -0.0037,0.00482 -0.0075,0.00964 -0.01135,0.01452 -1.46e-4,-0.00549 -4.02e-4,-0.011083 -5.43e-4,-0.016563 -0.0047,0.00485 -0.0095,0.00964 -0.01429,0.014413 0.0011,-0.00708 0.0022,-0.014153 0.0033,-0.021362 0,0 -0.0078,-0.00352 -0.0205,0.00109 -0.01256,0.0046 -0.01735,0.012697 -0.01679,0.017591 6.58e-4,0.00495 -0.0087,-2.441e-4 -0.01317,-4.173e-4 l -0.01736,0.00268 c 0,0 -0.001,0.00332 -0.01281,0.00289 -0.0118,-3.701e-4 -0.02018,-0.00883 -0.01922,-6.142e-4 0.0011,0.00814 -0.01337,0.010842 -0.01761,0.012315 l -0.0051,0.019193 c 0,0 -0.02174,0.00402 -0.02659,6.418e-4 -0.0048,-0.00346 -0.0098,0.00443 -0.01,0.015602 -1.42e-4,0.011098 -0.0088,0.012315 -0.01315,0.013744 l -0.01615,0.015157 c -0.0013,0.00572 -0.0026,0.011472 -0.004,0.017106 0,4.33e-5 -0.0026,0.017146 -0.0084,0.018437 -0.0058,0.00127 -0.01594,0.017961 -0.02357,0.017575 -0.0075,-3.74e-4 -0.01008,0.018091 -0.01604,0.017819 -0.006,-3.307e-4 -0.0091,-5.158e-4 -0.01362,-7.559e-4 l -0.0273,-0.00142 -0.0052,0.022756 c -0.0044,0.00286 -0.0074,0.0027 -0.01762,0.00667 -0.01028,0.00406 -0.01791,0.0036 -0.01745,0.00821 3.98e-4,0.00458 0.0075,0.014114 0.0075,0.014114 0.0097,0.00104 0.01948,0.00215 0.02922,0.00323 -0.01211,2.874e-4 -0.02433,6.299e-4 -0.03653,9.291e-4 0.0019,0.00865 0.0038,0.017421 0.0055,0.026016 0.0079,-0.003 0.01579,-0.00609 0.02367,-0.0092 -0.0058,0.0083 -0.01165,0.016532 -0.0175,0.024713 0.0047,0.00737 0.0095,0.01463 0.01427,0.021894 0,0 -3.98e-4,0.012 0.0284,0.00924 0.02881,-0.00276 0.03203,-0.014657 0.0381,-0.015787 0.0059,-0.00116 0.01392,-0.0265 0.01659,-0.014228 0.0025,0.010925 0.0027,0.012138 0.01337,0.01287 l 0.0046,2.559e-4 c 0.01515,8.307e-4 -0.01882,0.00808 -0.0013,0.016634 0.01746,0.00848 0.01287,0.00832 0.02261,0.029886 0.0096,0.021583 0.0053,0.024256 0.0059,0.030236 5.63e-4,0.00595 0.0075,0.015331 0.01661,0.01589 0.0091,5.433e-4 0.01337,-0.00215 0.01423,-0.00813 9.6e-4,-0.00594 0.01296,-0.0052 0.02355,-0.00463 0.0105,5.866e-4 0.02068,-0.00174 0.01726,-0.02148 -0.0035,-0.019752 -9.61e-4,-0.037772 -9.61e-4,-0.037772 4.3e-5,0 0.03884,-0.011567 0.03258,-0.028701 -0.0063,-0.017173 -0.03092,-0.012256 -0.03889,-0.045047 -0.0081,-0.032768 0.02128,-0.034535 0.03768,-0.046264 0.01629,-0.011756 0.02684,-0.022327 0.02684,-0.022327 0,0 -0.0168,-0.00552 -0.0087,-0.011453 0.0081,-0.006 0.0087,-0.01387 0.01599,-0.013587 0.0075,2.874e-4 0.02159,-0.00388 0.02598,-0.00368 l 0.0072,6.575e-4 c 0.01034,0.00118 0.02709,0.00419 0.02335,0.010126 -0.0049,0.00775 -0.0013,0.014244 -0.0057,0.014102 l -0.03622,0.02839 c 0,0 -0.02245,0.00841 -0.01595,0.027398 0.0065,0.018965 0.01337,0.040917 0.01337,0.040874 0,-1.18e-5 6.58e-4,0.00624 0.0096,0.00822 0.009,0.00202 0.01589,0.011512 0.02325,0.011925 0.0074,3.583e-4 0.02209,0.00106 0.02644,0.00127 l 0.02311,-0.00198 0.01457,7.008e-4 0.01046,-0.01037 0.0057,2.992e-4 0.01039,4.725e-4 c 0.0054,0.00174 0.011,0.00358 0.01639,0.00539 -0.0054,0.00335 -0.0108,0.00672 -0.01625,0.010083 l -0.008,0.00576 c -0.01797,-2.992e-4 -0.03589,-6.417e-4 -0.05385,-9.843e-4 0,-1.57e-5 -0.03768,0.016532 -0.01276,0.031433 l 0.01125,0.00833 c 0.01351,0.012653 0.012,0.02498 0.0026,0.025724 -0.01165,9.016e-4 -0.01554,-0.00831 -0.01554,-0.00831 1.6e-5,0 -0.01553,-0.023551 -0.034,-0.016945 -0.01836,0.00662 -0.01686,0.00822 -0.0049,0.023941 0.01197,0.015646 0.0011,0.010528 0.0062,0.016831 0.0051,0.0063 -0.0047,0.011831 0.0033,0.018181 0.0036,0.00282 -0.0014,0.00522 -0.0068,0.00742 -0.0066,0.00279 -0.01403,0.00539 -0.0064,0.00823 0.01377,0.00523 -0.03058,0.0043 -0.03058,0.0043 l -0.01311,-0.012614 c 0,0 -0.02179,0.00469 -0.03341,0.00845 -0.01154,0.00379 -0.03501,0.00981 -0.03501,0.00981 l -0.0055,-0.00176 -0.01155,-0.00366 -0.02038,-0.00859 c -0.0041,0.0042 -0.01609,0.00639 -0.02219,0.00607 -0.0061,-4.251e-4 -0.01549,-0.00392 -0.02049,-0.00869 -0.005,-0.00475 -0.01669,4.725e-4 -0.01507,-0.014244 0.0017,-0.014732 0.0034,-0.011669 0.01497,-0.018449 0.01151,-0.00675 0.01459,-0.00649 0.0094,-0.012799 -0.0051,-0.0063 -0.01817,4.134e-4 -0.01458,-0.00984 0.0035,-0.010299 0.0116,-0.020323 0.004,-0.020795 -0.0076,-4.449e-4 -0.01503,6.732e-4 -0.02058,0.00629 -0.0055,0.00568 -0.01125,0.0098 -0.01125,0.0098 0,0 -0.01831,4.252e-4 -0.01776,0.00645 6.69e-4,0.00601 -1.03e-4,0.014858 0.002,0.020894 0.0021,0.00617 0.01918,0.024984 0.01918,0.024984 0,-1.57e-5 -0.0029,0.019094 -0.0091,0.018693 -0.0058,-4.015e-4 0.0023,0.00143 -0.02552,0.00875 l -0.0043,0.00111 c -0.03341,0.00819 -0.03613,-0.00526 -0.04551,0.013216 -0.0094,0.01852 1.41e-4,0.022024 -0.02311,0.024882 l -0.0029,4.173e-4 c -0.01978,0.00292 -0.01247,0.00756 -0.01675,0.011484 -0.0026,0.00244 -0.01101,0.00347 -0.0172,0.00545 0.0014,-0.00152 7.44e-4,-0.00344 -0.0038,-0.00614 -0.01493,-0.00868 -0.02361,0.00392 -0.01493,-0.00867 0.0086,-0.012555 0.01372,-0.00781 0.01765,-0.018606 0.0039,-0.010697 0.0085,-0.011457 -0.0012,-0.015417 -0.0098,-0.00393 -0.02074,0.00854 -0.02966,0.00135 -0.0089,-0.00719 0.0034,-0.00312 -0.0025,-0.017835 -0.0058,-0.014689 0.0011,-0.016406 -0.01146,-0.026114 -0.01259,-0.00972 -0.0182,-0.00461 -0.0182,-0.00461 9.8e-5,5.51e-5 0.0092,-0.02148 -0.01287,-0.029634 -0.02204,-0.00811 -0.03138,-0.0032 -0.03138,-0.0032 0,0 0.0012,-0.00215 0.02088,-0.00971 0.01969,-0.00757 0.01964,-0.023224 0.01964,-0.023224 0,0 -0.02305,-0.00704 -0.03265,-0.00767 -0.0095,-6.417e-4 -0.01721,0.00882 -0.01866,0.00541 -0.0014,-0.00339 0.0016,-0.012169 0.0096,-0.016043 0.008,-0.00395 0.01585,-0.010169 0.01585,-0.010169 -0.01317,-0.00198 -0.02639,-0.00392 -0.03966,-0.00589 0,0 -0.0074,0.012886 -0.01766,0.02111 -0.01034,0.00818 -0.01236,0.013571 -0.0118,0.021378 4.45e-4,0.00778 0.02002,0.011386 0.02002,0.011386 0,0 -0.01503,0.011169 -0.009,0.011583 0.0061,3.701e-4 0.0289,-2.441e-4 0.02185,0.00147 -0.0071,0.00175 -0.01766,0.00651 -0.01766,0.00651 0.0049,3.583e-4 0.0096,7.165e-4 0.01453,0.00102 0,-1.58e-5 -0.01978,0.013075 -0.01489,0.013413 0.0049,3.149e-4 0.0277,-0.00256 0.0277,-0.00256 0,0 0.0104,-0.00479 0.0113,0.00742 8.15e-4,0.012256 0.0099,0.022756 0.0099,0.022756 0,0 0.01837,0.0046 -0.0028,0.013083 -0.02118,0.00841 -0.01998,0.0085 -0.02609,0.00808 -0.0061,-4.291e-4 0.01554,0.015374 0.0084,0.018134 -0.0071,0.00283 -0.02573,-0.00286 -0.02683,0.00147 -9.13e-4,0.00429 0.0093,0.011658 0.01665,0.012142 0.0074,4.724e-4 0.02411,0.014815 0.03521,-0.00196 0,-1.58e-5 -0.0061,0.017075 -0.02225,0.01487 -0.01593,-0.00217 -0.03152,0.00331 -0.03299,0.022886 0,0 0.0109,-0.00472 0.03179,-0.00328 0.02078,0.00143 0.0182,-0.00209 0.03036,-0.0012 0.01221,8.307e-4 0.01333,-1.536e-4 0.0267,7.441e-4 0.01337,9.173e-4 0.02659,7.126e-4 0.03612,2.716e-4 0.0048,-2.716e-4 0.01372,-7.716e-4 0.01962,-0.00237 l -0.0024,0.00386 c 4.6e-4,0.0073 -2.99e-4,0.018906 -0.0083,0.018362 -0.0081,-5.433e-4 -0.01046,0.010886 -0.01046,0.010886 0,0 -0.01896,0.00599 -0.03092,-0.00495 -0.01196,-0.011028 -0.01343,-0.00815 -0.0095,0.00369 0.0039,0.011925 0.009,0.015157 -0.0024,0.014386 -0.01136,-7.441e-4 -0.02276,-7.09e-5 -0.02276,-7.09e-5 0,-1.58e-5 -0.02478,-0.00606 -0.03295,-0.00515 -0.0082,8.425e-4 -0.0074,0.016902 -0.0071,0.022736 3.62e-4,0.00575 0.0111,-0.00794 0.03008,0.00781 0.01892,0.015744 0.03263,0.028185 0.03461,0.032618 0.0018,0.00448 0.0058,0.014858 0.0064,0.026327 6.58e-4,0.011575 0.0072,0.042106 -0.0026,0.041465 l -0.0117,0.0013 c -0.0075,0.00157 -0.01438,0.00424 -0.01438,0.00424 -0.0401,-0.00688 -0.08057,-0.013768 -0.121693,-0.020835 1.45e-4,-1.57e-5 -0.05283,0.00522 -0.03315,0.029634 0,-1.57e-5 7.13e-4,0.00269 0.0016,0.00748 0.0012,0.00655 0.0027,0.017031 0.0031,0.03026 7.16e-4,0.023028 -0.01463,0.029335 -0.01972,0.036256 -0.005,0.00679 -0.01166,0.02089 -0.003,0.02139 0.0088,5.472e-4 0.0115,0.03663 0.0115,0.036571 0,0 -0.0033,0.00415 0.01756,0.00533 0.01836,0.00103 0.01533,0.00407 0.01896,0.00223 l 0.002,-0.00109 c 0.0067,-0.00392 0.02391,-0.0058 0.0296,0.010197 0.0057,0.016004 0.0075,0.018905 0.0177,0.018063 0.0103,-9.133e-4 0.003,-0.015543 0.02004,-0.01463 0.017,9.016e-4 0.02038,-0.00317 0.039,-0.00216 0.01846,9.724e-4 0.03032,0.00161 0.03032,0.00161 0,0 0.01096,-0.016374 0.01932,-0.0145 0.0084,0.00185 0.0089,-0.025043 0.02049,-0.02437 0.01156,6.457e-4 -0.0094,-0.027445 0.0081,-0.039268 0.01746,-0.011787 0.01988,-0.025791 0.03305,-0.025004 0.01301,7.323e-4 0.02563,-0.00419 0.02563,-0.00419 0.0027,-0.00978 0.0053,-0.019579 0.0079,-0.02939 0,-1.58e-5 -0.006,-0.02028 0.01493,-0.01902 0.02078,0.0012 0.04248,0.016732 0.0565,0.01476 0.01408,-0.002 0.01826,-0.010327 0.02401,-0.017047 l 0.002,-0.00378 c 0.0019,-0.00649 -1.61e-4,-0.013673 0.02229,-0.00761 0.0269,0.00727 0.03617,0.00784 0.03744,0.024886 0.0012,0.017091 -8.58e-4,0.011256 0.01711,0.024996 0.0179,0.013705 0.03098,0.025602 0.04505,0.030606 0.01413,0.00489 0.02739,-0.00136 0.04429,0.024701 0.01685,0.025898 0.03547,0.033677 0.02195,0.035795 -0.01341,0.00209 0.0039,0.012669 -0.02043,0.011512 -0.02437,-0.00124 -0.02422,0.00153 -0.03956,7.835e-4 -0.01543,-7.717e-4 -0.02118,0.00594 -0.01625,0.011701 0.005,0.00588 0.05514,0.026158 0.05504,0.026142 0.0031,-0.00812 0.0061,-0.01626 0.0092,-0.024409 0,-1.58e-5 0.01654,-5.433e-4 0.02204,-0.010039 0.0055,-0.00938 0.0095,-0.017508 0.01848,-0.017063 0.0089,4.567e-4 -0.01025,-0.019866 -0.01656,-0.024413 -0.0064,-0.00446 0.0061,-0.02052 0.02231,-0.00167 0.01619,0.018878 0.03319,0.00584 0.0035,-0.015102 -0.02992,-0.021051 -0.04037,-0.018819 -0.04506,-0.021807 -0.0047,-0.00307 -0.007,-0.013 -0.007,-0.013 -0.0078,-0.00275 -0.01554,-0.00555 -0.02326,-0.00825 -0.0029,-0.00539 -0.0058,-0.010626 -0.0088,-0.015988 1.6e-5,-1.58e-5 -0.002,-0.00715 -0.018,-0.017992 -0.01609,-0.010728 -0.02431,-0.018276 -0.02431,-0.018276 0,0 -0.0095,-0.026185 0.0042,-0.025358 0.0097,5.157e-4 0.0107,-0.00499 0.01499,-0.00316 l 0.0082,0.00731 c 0.01332,0.015043 0.02134,0.021106 0.02609,0.024165 0.0048,0.00312 0.0119,0.017693 0.02431,0.022567 0.01235,0.00495 0.01589,0.012146 0.02205,0.013874 0.0061,0.00172 0.01821,0.00233 0.01821,0.00233 l 0.0021,0.00166 c 0.0099,0.00745 0.01958,0.015004 0.02932,0.022382 l 0.0037,0.032291 c 0.0033,0.00435 0.01084,0.028244 0.01968,0.027256 l 0.004,5.91e-5 c 0.0049,7.716e-4 0.0057,0.00475 0.0086,0.011598 0.0035,0.00841 0.0059,0.02374 0.0059,0.02374 0.0037,0.00518 0.0075,0.01037 0.01126,0.015543 0,-1.18e-5 0.01084,0.00735 0.01669,0.00894 0.006,0.00167 0.02367,0.00378 0.02367,0.00378 -8e-4,-0.00461 -0.0016,-0.00917 -0.0023,-0.013776 l 0.0072,-0.0011 c -0.0041,-0.00475 -0.0084,-0.00947 -0.01251,-0.014228 0.0065,0.00303 0.01297,0.00606 0.01948,0.00912 l 0.0082,-0.00791 c -0.0078,-0.00809 -0.01555,-0.016201 -0.02341,-0.024342 -0.0044,-0.00662 -0.0087,-0.013268 -0.01297,-0.019933 1.6e-5,0 -0.0041,-0.016748 0.0039,-0.00669 0.008,0.010039 0.0091,0.00594 0.01589,-0.00204 0.0067,-0.008 -0.0076,-0.00594 0.0067,-0.00798 0.01306,-0.00198 0.01745,-0.00754 0.0228,-0.0033 l 0.0018,0.00164 c 0.0054,0.00614 0.01896,0.010657 0.0228,0.011827 l 0.0011,3.15e-4 -0.0011,-3.15e-4 c -7.6e-4,5.473e-4 -0.0017,0.00343 -8e-4,0.014043 0.0011,0.017878 0.0046,0.026287 0.0079,0.03324 0.0033,0.00696 0.0099,0.019504 0.01701,0.019807 0.0072,2.835e-4 0.01301,0.00197 0.01624,0.00886 0.0034,0.0069 0.0097,0.019441 0.0097,0.019398 0.009,0.00119 0.01816,0.00248 0.02724,0.00372 l 0.01281,0.00183 0.0092,-0.01048 c 0,0 0.01084,-0.00767 0.02416,0.00362 0.01322,0.011315 0.01186,0.012587 0.02855,0.011799 0.0167,-7.598e-4 0.0088,-0.017161 0.01868,-0.014114 0.0098,0.00303 0.02381,0.0035 0.03072,0.00374 l 0.0072,0.00252 0.0015,0.00724 c 5.04e-4,0.00805 0.0034,0.037567 0.0024,0.04415 -9.57e-4,0.00607 -8e-4,0.012197 -0.006,0.017118 l -0.0013,0.00124 c -0.0067,0.00511 -0.01485,0.00756 -0.01428,0.01815 4.13e-4,0.01061 0.0021,0.017264 0.0025,0.0265 3e-4,0.00594 0.0019,0.028831 0.0064,0.049669 0.0025,0.011469 0.0059,0.022323 0.01054,0.02939 0.01303,0.019791 0.0072,0.00804 0.02852,0.034394 0.02129,0.026272 0.01337,0.037685 0.02724,0.050811 0.01381,0.013075 0.02446,0.00562 0.03323,0.036441 1.5e-5,-1.57e-5 -0.0047,0.039555 0.01293,0.052472 0.01761,0.012827 0.02411,0.00783 0.03511,0.032004 0.01085,0.024169 0.02411,0.026744 0.03345,0.036898 l 0.0069,0.0099 c 0.0015,0.00385 0.0011,0.00746 0.0011,0.01413 0,0.01137 -0.0025,0.020193 0,0.036583 0.0027,0.016417 0.0027,0.02278 0.0092,0.030335 0.0066,0.00752 0.0052,0.01387 0.02493,0.00749 0.01973,-0.00641 0.004,-0.013886 0.02623,-0.013961 0.02221,-5.51e-5 0.0494,-0.010154 0.0494,-0.010154 0,-1.18e-5 0.0014,-0.01752 0.01812,-0.01752 0.01684,-5.51e-5 0.018,-0.00886 0.03087,-0.015043 0.01276,-0.00632 0.0218,-0.00623 0.02305,-0.015 0.0012,-0.00877 0.0076,-0.018677 0.01145,-0.018677 h 0.0011 c 0.0031,0 0.0051,0 0.01417,2.75e-5 0.01024,-1.18e-5 0.01912,0 0.02543,-0.00126 0.0064,-0.00121 -0.01277,-0.01872 0.0038,-0.018677 0.01654,4.33e-5 0.02154,0.00255 0.02279,-0.00865 0.0011,-0.011197 0.01756,-0.016158 0.01756,-0.016158 l -9.8e-5,-0.013701 c 0,-0.00376 -0.0077,-0.018764 0.0036,-0.018709 0.01141,1.57e-5 0.0051,0 0.02014,-0.012398 0.01503,-0.01237 0.01367,-0.027413 0.0098,-0.033665 -0.0039,-0.00628 -0.0039,-0.00506 -0.009,-0.010083 -0.0051,-0.00505 -0.01156,-0.016386 -0.01533,-0.016429 -0.0037,-3.15e-5 -0.01519,0.00118 -0.02155,-0.00392 -0.0064,-0.00509 -0.01533,-0.010224 -0.01932,-0.017831 l -0.0022,-0.00674 c -0.0024,-0.00932 -0.0033,-0.022335 -0.0033,-0.022335 0,0 -0.02624,0.033906 -0.03639,0.038827 -0.01008,0.00498 -0.03581,9.567e-4 -0.04228,0.00469 l -0.004,-2.165e-4 c -0.009,-0.00324 -0.02604,-0.021791 -0.03397,-0.035752 -0.0095,-0.016716 0.0023,-0.015232 -0.0123,-0.029488 -0.0103,-0.010012 -0.02265,-0.024496 -0.02926,-0.035409 -0.0028,-0.00459 -0.0045,-0.00862 -0.0046,-0.011299 -3e-4,-0.00902 0.02219,-0.040898 0.03324,-0.021362 0.01101,0.019646 0.02327,0.042886 0.04935,0.052126 0,4.33e-5 0.012,0.020579 0.03138,0.024685 0.01928,0.004 0.04178,-0.018594 0.04964,-0.010886 0.0078,0.00765 0.0069,0.030547 0.03108,0.03448 0.02413,0.004 0.04319,0.013016 0.05581,0.013087 0.0045,4.33e-5 0.0088,-3.858e-4 0.01403,-9.567e-4 0.0093,-9.725e-4 0.02174,-0.00212 0.04495,-0.00112 0.03637,0.00146 0.03864,-0.011122 0.04636,0.00276 0.0075,0.013756 0.0039,0.025024 0.02633,0.025126 l 0.0075,0.00152 c 0.01044,0.00515 0.0065,0.021122 0.0342,0.017705 z"
   id="path23"
   style="fill:#b7f274;fill-opacity:1" />
  <path
   class="fil7"
   d="m 4.0386831,2.9963295 c 0.01176,7.008e-4 0.01347,-0.00769 0.01292,-0.017232 -6.58e-4,-0.00958 -0.01978,-0.015976 -0.0216,-0.00864 0,0 -0.0031,0.025228 0.0087,0.025874 z"
   id="path24" />
  <path
   class="fil6"
   d="m 1.6295231,3.7805595 c -0.01106,-0.0027 -0.01277,-0.020807 -0.01908,-0.035126 -0.0063,-0.014342 -0.01832,-0.013559 -0.02407,-0.025642 -0.0022,-0.00473 -0.0042,-0.0088 -0.0062,-0.01224 5.43e-4,0.01313 0.0013,0.026213 0.002,0.03924 l 0.0055,0.00411 c 0.0055,0.00871 0.0055,0.00868 0.0069,0.013413 0.0015,0.00467 0.0033,0.016933 0.0033,0.016933 0.01018,0.00442 0.02028,0.00881 0.03032,0.013244 0,4.33e-5 0.0172,0.023594 0.01837,0.00894 0.0011,-0.014685 -0.0059,-0.020091 -0.01705,-0.022866 z"
   id="path25"
   style="fill:#b7f274;fill-opacity:1" />
  <path
   class="fil6"
   d="m 2.1751631,2.5586895 c -0.0073,0.00475 0.0021,0.0255 0.0059,0.023925 0.0038,-0.00159 0.01534,-0.00631 0.02694,-0.011039 0.01161,-0.00476 0.02321,-0.00951 0.03623,-0.014945 0.01297,-0.00541 0.02371,-0.00806 0.03293,-0.011902 0.0091,-0.00385 0.01614,-0.012098 0.03558,-0.023756 0.01937,-0.011697 0.01805,-0.028842 0.018,-0.028842 l -0.03753,0.014087 c -0.0039,0.00163 -0.03759,0.021122 -0.07644,0.03711 -0.03884,0.01602 0.009,-0.019591 0.0091,-0.019634 l 0.04667,-0.023039 0.02997,-0.016161 c 0.01609,-0.0062 0.03218,-0.012457 0.04852,-0.018764 -4.4e-5,-1.18e-5 0.0175,-0.00745 0.01271,-0.010839 -0.0048,-0.00326 -0.01069,-0.013402 0.0028,-0.019221 0.01361,-0.00576 0.02683,-0.015032 0.02683,-0.015032 l 0.0042,-0.010842 0.04595,-0.026882 c 0.0039,-0.00352 -0.01665,0.00709 -0.02355,0.010039 -0.0069,0.00291 0.0024,-0.024787 0.01018,-0.031823 0.0078,-0.00707 0.05445,-0.023181 0.06726,-0.028575 0.01271,-0.00546 0.0226,-0.00967 0.03239,-0.015571 0.0097,-0.006 0.01856,-0.030035 0.03001,-0.034941 0.01156,-0.0048 0.03218,-0.020866 0.04354,-0.027445 0.01131,-0.00657 0.04091,-0.026256 0.04091,-0.026256 0.0091,-0.00559 0.01812,-0.01111 0.02715,-0.016732 0,5.51e-5 -0.01661,-0.0099 -0.03713,-0.00335 -0.02054,0.00658 -0.02467,0.010185 -0.04067,0.016776 -0.01589,0.00658 -0.02018,0.00835 -0.0403,0.01676 -0.02013,0.00843 -0.03013,0.012587 -0.05288,0.022142 -0.0228,0.00958 -0.01857,0.00783 -0.05383,0.022665 -0.03505,0.014874 -0.03213,0.015476 -0.06694,0.03976 -0.03461,0.024138 -0.0504,0.025154 -0.06549,0.031504 -0.01498,0.00638 -0.01978,0.021665 -0.01978,0.02161 7.56e-4,0.0053 0.0016,0.010665 0.0025,0.015847 l 0.0046,0.011083 c 0,0 -0.01085,0.0046 -0.01565,0.00109 -0.0049,-0.00359 -0.01724,-2.007e-4 -0.01724,-2.007e-4 0,-1.18e-5 -0.01014,0.00802 -0.01555,0.010224 -0.0053,0.00223 -0.02401,0.010098 -0.03193,0.013402 -0.008,0.0033 -0.0166,0.027284 -0.0166,0.027244 0.0016,0.00611 0.0031,0.01224 0.0046,0.018248 0,4.33e-5 0.01417,0.00875 0.01942,0.00651 0.0052,-0.00215 0.01846,-0.00767 0.02614,-0.012689 0.0077,-0.00503 0.02467,-0.013941 0.0287,-0.015716 l 0.01737,0.00179 -0.004,0.010736 -0.0115,-5.394e-4 c 0,0 -0.01327,0.00553 -0.01858,0.00776 -0.0053,0.00219 -0.01155,0.015744 -0.01942,0.018976 -0.0079,0.00326 -0.01579,0.00656 -0.02104,0.00874 -0.0052,0.00215 -0.0093,0.011012 -0.01836,0.01476 -0.0092,0.00376 -0.02856,0.00457 -0.0385,0.00328 -0.0099,-0.00136 -0.01493,0.024039 -0.01493,0.023937 0.0086,-0.00342 0.01715,-0.00693 0.02578,-0.010441 0,5.91e-5 0.0024,0.020394 -0.0051,0.025174 z"
   id="path26"
   style="fill:#b7f274;fill-opacity:1" />
  <path
   class="fil7"
   d="m 4.0286431,3.0242795 c 7e-4,0.011224 0.0014,0.022524 0.0021,0.03378 l 0.01177,6.299e-4 0.0042,-0.00822 0.0105,-0.00152 0.0025,-0.035579 -0.0088,-0.00997 -0.01054,4.173e-4 -0.0091,0.00369 -0.0091,0.00481 z"
   id="path27" />
  <path
   class="fil6"
   d="m 1.8264431,2.8236295 0.0048,0.012756 c 0,0 0.0091,-0.00423 0.03273,-0.011543 0.02371,-0.00735 0.04324,-0.026484 0.04808,-0.032988 0.0048,-0.00641 0.0059,0.00291 0.02674,0.00392 0.02088,9.134e-4 0.01543,-0.00522 0.03577,-0.012287 0.02028,-0.00708 -0.0016,-0.012299 0.0019,-0.0135 0.0036,-0.00127 0.02275,-0.00808 0.03102,-0.017559 0.0082,-0.00946 -0.03299,0.00373 -0.03289,-0.017819 1.57e-4,-0.021354 0.02083,-0.057595 0.02093,-0.057638 0.0049,-0.00186 0.0059,-0.00899 0.0059,-0.00899 -0.009,0.00329 -0.01796,0.00662 -0.0269,0.00982 0.0012,0.00744 0.0026,0.014831 0.0038,0.022252 0,-1.18e-5 -0.0057,-0.00799 -0.01625,-0.00767 -0.0105,3.858e-4 -0.02533,0.020795 -0.02124,0.037543 l 4.01e-4,0.00143 c -0.0018,-0.00465 -0.0056,-0.011528 -0.0107,-0.00611 -0.0056,0.0058 5.63e-4,-0.013602 -0.0027,-0.00576 -0.0033,0.00779 -0.01611,0.00888 -0.0273,0.00598 -0.01124,-0.00293 -0.0109,0.00368 -0.02694,0.00725 -0.01609,0.00356 -0.01892,0.00782 -0.03455,0.012756 -0.01565,0.00493 -0.01888,0.00751 -0.02327,0.020323 -0.0043,0.012744 0.01776,0.012468 0.0058,0.016157 -0.01197,0.00359 -0.02039,0.010957 -0.01515,0.010957 0.0052,2.598e-4 0.05903,-0.00672 0.05903,-0.00683 0,0 -0.01555,0.00492 -0.03341,0.010413 -0.01794,0.00549 -0.03828,0.011437 -0.03657,0.026783 0.0017,0.01539 0.03102,4.134e-4 0.03104,3.583e-4 z"
   id="path28"
   style="fill:#b7f274;fill-opacity:1" />
  <path
   class="fil7"
   d="m 3.6382531,2.7243695 c 0.01529,0.00549 0.01503,0 0.02962,-0.00442 0.01467,-0.00454 0.01341,-0.00454 0.03425,-0.00641 0.02079,-0.00184 0.0056,-0.031429 0.0102,-0.035606 0,-1.58e-5 0.01008,0.00632 -0.0027,-0.0045 -0.01287,-0.010929 -0.02029,-0.013559 0.009,-0.011488 0.02928,0.00199 4.57e-4,-0.012154 -0.0071,-0.017047 -0.0076,-0.00496 -0.01105,-0.00193 -0.03063,-0.00333 -0.01967,-0.00139 -0.0112,0.019063 -0.0112,0.019063 0,0 -0.0071,0.00398 -0.02114,-0.00472 -0.01402,-0.00874 -0.0174,-0.00234 -0.01906,0.01515 -0.0017,0.0175 0.0043,0.011252 0.01549,0.012094 0.01126,7.874e-4 -8.15e-4,0.00761 -0.01079,0.00911 -0.0098,0.00152 -0.01559,0.010969 -0.01525,0.018705 2.17e-4,0.00768 0.0041,0.00798 0.01928,0.013402 z"
   id="path29" />
  <path
   class="fil7"
   d="m 4.0201631,2.1302495 c 0.01327,1.417e-4 0.01806,-0.013717 0.03028,-0.013673 0.01216,1.693e-4 6.58e-4,0.014043 6.58e-4,0.013988 -0.03329,0.00719 -0.03476,0.00459 -0.0093,0.022567 0.02543,0.017933 0.01987,3.425e-4 0.03627,0.00814 0.01645,0.0078 0.0078,2.402e-4 0.01822,-0.021295 0.01044,-0.021512 0.0056,-0.016445 0.02395,-0.018835 0.01842,-0.0024 0.01635,0.015516 0.02453,0.019476 0,0 0.01872,0.00794 0.03627,0.00818 0.01766,1.85e-4 0.02104,-0.00749 0.01327,-0.00757 -0.0077,-9.85e-5 -0.02195,-2.835e-4 -0.03718,-0.01589 -0.01523,-0.015646 -0.05696,-0.023693 -0.05696,-0.023693 0,-1.58e-5 0.01211,1.299e-4 0.01792,0.00272 0.0058,0.00262 0.03042,0.00539 0.0458,0.00556 0.01545,4.33e-5 0.01852,-0.00122 0.03839,-0.00892 0.01994,-0.0077 0.0086,-0.018252 0.0086,-0.018252 0,0 -0.03411,-1.299e-4 -0.05061,-1.732e-4 -0.01649,-8.27e-5 -0.03072,-1.693e-4 -0.05166,-2.283e-4 -0.02093,-7.09e-5 -0.02669,0.00637 -0.05746,0.00621 -0.03078,-1.693e-4 -0.03522,-1.693e-4 -0.05065,-2.716e-4 -0.01539,-4.33e-5 -0.01509,0.011354 -0.01322,0.026484 0.0019,0.015102 0.01956,0.015331 0.03283,0.015476 z"
   id="path30" />
  
  
  <path
   class="fil7"
   d="m 4.9122631,4.2339095 c -0.01609,-0.020193 -0.01408,-0.00923 -0.01408,-0.00923 0,-1.18e-5 -0.005,0.020772 -0.0054,0.02915 -4.57e-4,0.00833 -0.0044,0.00846 -0.01313,0.019752 -0.0086,0.011437 -0.01421,0.015787 -0.02148,0.02722 -0.0073,0.011453 -0.02747,0.00932 -0.03332,0.017949 -0.0059,0.00867 -0.02527,0.016327 -0.03273,0.026512 -0.0074,0.010291 -0.0049,0.013012 -0.0063,0.033118 -0.0014,0.020224 0.0026,0.021472 0.0095,0.038669 0.007,0.017283 -0.0075,0.01039 -0.01842,0.029823 -0.01102,0.019445 -0.01348,0.01511 -0.02162,0.033142 -0.0083,0.018083 0.0026,0.01924 0.0076,0.02502 0.0051,0.00578 -0.0013,0.016476 -0.0051,0.030173 -0.0038,0.013717 -8.54e-4,0.010583 0.01428,0.028295 0.01514,0.017811 0.02891,-9.409e-4 0.03858,-0.00125 0.0096,-3.11e-4 0.02296,-0.014394 0.02296,-0.014394 0.02267,-0.06026 0.04461,-0.118862 0.06574,-0.175933 l 0.0017,-0.00425 c -0.0018,-0.017224 -0.0025,-0.027091 0.01079,-0.027516 0.01338,-3.504e-4 0.0047,-0.011406 0.0047,-0.011406 0,-1.19e-5 -0.0051,-0.00411 -0.0056,-0.019591 -4.57e-4,-0.015496 0.01305,0.00526 0.0172,0.00238 0.0042,-0.00295 0.0037,-0.01987 0.0022,-0.042138 -0.0016,-0.022118 -0.0018,-0.015213 -0.01805,-0.035496 z"
   id="path33"
   style="fill:#b7f274;fill-opacity:1" />
  <path
   class="fil7"
   d="m 5.3012431,3.4594995 c -0.0039,0.00231 -0.0095,0.00423 -0.01762,0.00465 0.0069,0.00873 0.01373,0.017492 0.02055,0.02622 -9.73e-4,-0.010331 -0.0018,-0.020591 -0.0029,-0.030866 z"
   id="path34" />
  
  <path
   class="fil7"
   d="m 4.0386931,2.9963395 c 0.01174,7.047e-4 0.01346,-0.0077 0.0129,-0.01724 -6.61e-4,-0.00958 -0.01977,-0.015961 -0.02159,-0.00863 0,0 -0.0031,0.025216 0.0087,0.025866 z"
   id="path36"
   style="fill:#b7f274;fill-opacity:1" />
  <path
   class="fil7"
   d="m 4.0286531,3.0242795 c 6.92e-4,0.011228 0.0014,0.022532 0.0021,0.033776 l 0.01176,6.339e-4 0.0042,-0.00822 0.01049,-0.00152 0.0025,-0.035583 -0.0088,-0.00998 -0.01054,4.252e-4 -0.0091,0.00369 -0.0091,0.00481 z"
   id="path37"
   style="fill:#b7f274;fill-opacity:1" />
  <path
   class="fil7"
   d="m 3.6382631,2.7243595 c 0.01528,0.0055 0.01502,0 0.02961,-0.00441 0.01467,-0.00454 0.01341,-0.00454 0.03425,-0.00641 0.0208,-0.00185 0.0056,-0.031437 0.0102,-0.035614 0,-1.18e-5 0.01008,0.00632 -0.0027,-0.00451 -0.01287,-0.010921 -0.0203,-0.013551 0.009,-0.01148 0.02928,0.00198 4.57e-4,-0.012154 -0.0071,-0.017047 -0.0076,-0.00495 -0.01105,-0.00193 -0.03063,-0.00332 -0.01967,-0.00139 -0.01121,0.019063 -0.01121,0.019063 0,0 -0.0071,0.00397 -0.02113,-0.00473 -0.014,-0.00873 -0.0174,-0.00234 -0.01906,0.015153 -0.0017,0.017504 0.0043,0.011256 0.01549,0.012094 0.01126,7.953e-4 -8.22e-4,0.00761 -0.0108,0.00911 -0.0098,0.00152 -0.01558,0.010965 -0.01524,0.018709 2.21e-4,0.00767 0.0041,0.00797 0.01928,0.013394 z"
   id="path38"
   style="fill:#b7f274;fill-opacity:1" />
  <path
   class="fil7"
   d="m 4.0201731,2.1302495 c 0.01327,1.457e-4 0.01805,-0.013713 0.03026,-0.013665 0.01215,1.614e-4 6.62e-4,0.014035 6.62e-4,0.013976 -0.03329,0.0072 -0.03476,0.0046 -0.0093,0.022575 0.02543,0.017933 0.01985,3.386e-4 0.03626,0.00813 0.01645,0.00781 0.0078,2.519e-4 0.01822,-0.021295 0.01044,-0.021504 0.0056,-0.016433 0.02396,-0.018827 0.01842,-0.0024 0.01634,0.01552 0.02452,0.019476 0,0 0.01873,0.00794 0.03627,0.00818 0.01767,1.772e-4 0.02104,-0.0075 0.01328,-0.00757 -0.0077,-1.023e-4 -0.02196,-2.755e-4 -0.03719,-0.01589 -0.01523,-0.015634 -0.05696,-0.023689 -0.05696,-0.023689 0,-1.57e-5 0.0121,1.3e-4 0.01792,0.00272 0.0059,0.00261 0.03041,0.00539 0.0458,0.00556 0.01545,4.73e-5 0.01852,-0.00122 0.03839,-0.00892 0.01993,-0.00769 0.0086,-0.018244 0.0086,-0.018244 0,0 -0.0341,-1.299e-4 -0.05061,-1.772e-4 -0.01649,-8.66e-5 -0.03072,-1.732e-4 -0.05165,-2.362e-4 -0.02094,-7.09e-5 -0.02669,0.00637 -0.05747,0.00622 -0.03078,-1.772e-4 -0.03522,-1.772e-4 -0.05066,-2.796e-4 -0.01538,-4.72e-5 -0.01508,0.011358 -0.0132,0.026484 0.0019,0.01511 0.01958,0.015331 0.03284,0.015477 z"
   id="path39"
   style="fill:#b7f274;fill-opacity:1" />
 </g>
</svg>
