<?xml version="1.0" encoding="UTF-8" standalone="no"?>
<!-- Created with Inkscape (http://www.inkscape.org/) -->

<svg
   width="112.13505mm"
   height="91.633057mm"
   viewBox="0 0 112.13505 91.633057"
   version="1.1"
   id="svg1"
   xml:space="preserve"
   inkscape:version="1.4 (e7c3feb100, 2024-10-09)"
   sodipodi:docname="ice_cubes.svg"
   xmlns:inkscape="http://www.inkscape.org/namespaces/inkscape"
   xmlns:sodipodi="http://sodipodi.sourceforge.net/DTD/sodipodi-0.dtd"
   xmlns="http://www.w3.org/2000/svg"
   xmlns:svg="http://www.w3.org/2000/svg"><sodipodi:namedview
     id="namedview1"
     pagecolor="#ffffff"
     bordercolor="#000000"
     borderopacity="0.25"
     inkscape:showpageshadow="2"
     inkscape:pageopacity="0.0"
     inkscape:pagecheckerboard="0"
     inkscape:deskcolor="#d1d1d1"
     inkscape:document-units="mm"
     inkscape:zoom="2.5953041"
     inkscape:cx="181.28897"
     inkscape:cy="136.59286"
     inkscape:window-width="3800"
     inkscape:window-height="2090"
     inkscape:window-x="0"
     inkscape:window-y="0"
     inkscape:window-maximized="0"
     inkscape:current-layer="layer1" /><defs
     id="defs1" /><g
     inkscape:label="Layer 1"
     inkscape:groupmode="layer"
     id="layer1"
     transform="translate(-49.395509,-165.43803)"><path
       style="fill:#ffffff;stroke:#ffffff;stroke-opacity:1;fill-opacity:1;stroke-width:0.5;stroke-dasharray:none"
       d="m 96.462174,257.02361 c -1.282752,-0.0793 -1.525361,-0.18163 -1.785938,-0.75354 -0.165846,-0.36399 -0.301539,-0.92737 -0.301539,-1.25194 0,-0.32458 0.174771,-0.83966 0.388379,-1.14463 0.213609,-0.30497 0.917601,-0.68775 1.564428,-0.85062 0.646827,-0.16287 1.573384,-0.22031 2.059017,-0.12765 0.485632,0.0927 1.327547,0.39087 1.870919,0.66268 0.61798,0.30912 1.05083,0.74469 1.15584,1.16309 0.11183,0.44555 0.0195,0.83292 -0.27664,1.1601 -0.24449,0.27016 -0.94322,0.6293 -1.552717,0.79809 -0.609501,0.16879 -1.227247,0.33598 -1.372768,0.37152 -0.14552,0.0356 -0.932562,0.0233 -1.748981,-0.0271 z m 3.683666,-1.23079 c 0.53467,-0.27751 0.84414,-0.61941 0.79375,-0.87693 -0.0454,-0.23215 -0.55071,-0.66488 -1.122851,-0.96162 -0.614902,-0.31892 -1.548762,-0.53953 -2.283891,-0.53953 -0.729261,0 -1.530136,0.18771 -1.936313,0.45385 -0.471924,0.30922 -0.692671,0.68801 -0.692671,1.18859 0,0.4041 0.148828,0.88875 0.330729,1.077 0.231613,0.23968 0.885779,0.30797 2.182812,0.22787 1.018646,-0.0629 2.246441,-0.31907 2.728435,-0.56923 z m 52.91675,-0.0758 c 0.191,-0.0764 0.4192,-0.067 0.50712,0.0209 0.0879,0.0879 -0.0684,0.15045 -0.34727,0.13896 -0.30822,-0.0127 -0.37091,-0.0754 -0.15985,-0.15985 z m -1.17234,-0.73803 c -0.20105,-0.28704 -0.36555,-0.84394 -0.36555,-1.23757 0,-0.45801 0.25099,-0.91309 0.69714,-1.26404 0.38343,-0.3016 1.02051,-0.54837 1.41573,-0.54837 0.39522,0 1.07713,0.12499 1.51535,0.27775 0.43822,0.15277 0.91611,0.53972 1.06199,0.8599 0.15932,0.34968 0.1736,0.82983 0.0358,1.20241 -0.1262,0.34114 -0.46727,0.68245 -0.75792,0.75846 -0.29066,0.076 -0.52846,0.21361 -0.52846,0.30577 0,0.0922 -0.60941,0.16758 -1.35425,0.16758 -1.04801,0 -1.4369,-0.11801 -1.71979,-0.52189 z m 3.19388,-0.44662 c 0.42202,-0.19229 0.67391,-0.52253 0.67391,-0.88357 0,-0.36104 -0.25189,-0.69128 -0.67391,-0.88357 -0.37065,-0.16888 -0.93947,-0.30705 -1.26405,-0.30705 -0.32457,0 -0.85475,0.18534 -1.17817,0.41187 -0.32342,0.22654 -0.58804,0.61944 -0.58804,0.87313 0,0.25368 0.14287,0.60412 0.3175,0.77875 0.17462,0.17462 0.7048,0.3175 1.17817,0.3175 0.47338,0 1.16394,-0.13818 1.53459,-0.30706 z m -8.5298,-1.31432 c -0.56414,-0.1627 -0.80544,-0.36332 -0.68736,-0.57145 0.10009,-0.17639 0.36091,-0.52908 0.57961,-0.78374 0.2187,-0.25466 0.7442,-0.46302 1.16777,-0.46302 0.42358,0 1.00044,0.12325 1.28191,0.27389 0.28148,0.15065 0.51177,0.51078 0.51177,0.8003 0,0.32161 -0.26403,0.6268 -0.67868,0.78444 -0.37327,0.14192 -0.81976,0.2473 -0.99219,0.23418 -0.17242,-0.0131 -0.7047,-0.13669 -1.18283,-0.2746 z m 2.25839,-0.82602 c -0.0606,-0.1819 -0.50712,-0.33073 -0.99219,-0.33073 -0.48506,0 -0.93155,0.14883 -0.99218,0.33073 -0.0764,0.2293 0.22783,0.33073 0.99218,0.33073 0.76436,0 1.06863,-0.10143 0.99219,-0.33073 z m -22.55573,-1.9539 c -0.58208,-0.0623 -2.07036,-0.2931 -3.30729,-0.51287 -1.23693,-0.21977 -2.99028,-0.64151 -3.89634,-0.9372 -0.90606,-0.29568 -1.78766,-0.45091 -1.95911,-0.34495 -0.20873,0.129 -0.24084,0.078 -0.0972,-0.15448 0.15983,-0.25862 0.069,-0.30907 -0.35636,-0.19785 -0.35018,0.0916 -0.50681,0.0456 -0.40512,-0.11896 0.10515,-0.17012 -0.052,-0.19912 -0.42964,-0.0793 -0.33255,0.10555 -0.53098,0.0847 -0.44943,-0.0473 0.0803,-0.12993 -0.0536,-0.24581 -0.2976,-0.25752 -0.24398,-0.0117 -1.57332,-0.33389 -2.95409,-0.71596 -1.38077,-0.38207 -2.73514,-0.62337 -3.0097,-0.53623 -0.34318,0.10892 -0.43867,0.0605 -0.30552,-0.15493 0.14466,-0.23407 -0.12435,-0.26569 -1.06288,-0.12495 -0.98917,0.14834 -1.21192,0.11623 -1.04684,-0.15088 0.16839,-0.27246 -0.4888,-0.30841 -3.33576,-0.18247 -2.21356,0.0979 -4.29094,0.35352 -5.52985,0.6804 -1.091406,0.28795 -2.683784,0.8353 -3.538618,1.21632 -0.854833,0.38102 -1.618818,0.62819 -1.697743,0.54926 -0.07892,-0.0789 0.01525,-0.1435 0.209278,-0.1435 0.194028,0 0.293594,-0.0592 0.221257,-0.13152 -0.07234,-0.0723 -0.687583,0.0579 -1.367215,0.28953 -0.679632,0.23157 -1.166097,0.53365 -1.081033,0.67129 0.09168,0.14834 -0.15066,0.18334 -0.595111,0.0859 -0.598639,-0.13118 -0.669774,-0.10316 -0.352898,0.13902 0.32597,0.24912 0.293797,0.27444 -0.180076,0.14169 -0.317323,-0.0889 -1.329354,0.0451 -2.248958,0.29785 -1.306733,0.35909 -2.741349,0.4598 -6.5668,0.46098 -4.392798,0.001 -5.084735,-0.0608 -6.746875,-0.60579 -1.018646,-0.33401 -2.108605,-0.62535 -2.42213,-0.64742 -0.313526,-0.0221 -0.521661,-0.11841 -0.462522,-0.2141 0.05914,-0.0957 -0.636841,-0.43095 -1.54662,-0.74502 -1.008861,-0.34829 -2.642,-0.62985 -4.186447,-0.72178 -2.262694,-0.13469 -2.812001,-0.0702 -5.159375,0.60601 -1.44489,0.41621 -3.222386,0.75571 -3.94999,0.75445 -0.727604,-0.001 -1.792484,-0.0698 -2.366399,-0.15227 -0.729491,-0.10485 -1.121075,-0.32388 -1.301347,-0.72788 -0.18915,-0.4239 -0.137223,-0.83088 0.19487,-1.52729 0.432427,-0.9068 0.431459,-0.94098 -0.02157,-0.76195 -0.260867,0.10309 -0.844927,0.24977 -1.297912,0.32595 -0.452984,0.0762 -1.078062,0.002 -1.389062,-0.16411 -0.347397,-0.18592 -0.565455,-0.55918 -0.565455,-0.96791 0,-0.36591 0.176215,-1.00605 0.391589,-1.42254 0.215374,-0.41649 0.708047,-1.00617 1.09483,-1.31042 0.386784,-0.30424 1.490491,-0.79709 2.452683,-1.09522 0.962192,-0.29813 2.94611,-0.67648 4.408707,-0.84079 2.659268,-0.29874 2.659268,-0.29874 2.58494,-1.77241 -0.04088,-0.81052 -0.123717,-3.6168 -0.184081,-6.23617 -0.100894,-4.37811 -0.180046,-5.01876 -0.980663,-7.9375 -0.773655,-2.82044 -0.871803,-3.5591 -0.878894,-6.61458 -0.0062,-2.67989 0.09835,-3.73177 0.473446,-4.7625 0.264786,-0.7276 0.76017,-1.69317 1.100854,-2.14571 0.340684,-0.45254 1.191646,-1.18873 1.891028,-1.63597 0.699382,-0.44724 2.058228,-1.0704 3.019659,-1.3848 0.970139,-0.31725 2.3242,-1.02769 3.042709,-1.59643 0.712058,-0.56363 1.770902,-1.28817 2.352985,-1.6101 0.789501,-0.43664 1.638462,-0.61472 3.342164,-0.70108 1.575124,-0.0798 3.413701,0.065 5.924874,0.4666 2.191508,0.35052 4.020154,0.51125 4.593321,0.40372 0.523753,-0.0983 1.039927,-0.23281 1.147053,-0.29902 0.107126,-0.0662 -0.02385,-0.69576 -0.291068,-1.39901 -0.267213,-0.70325 -1.157627,-2.30924 -1.978697,-3.56887 -1.279024,-1.9622 -1.492886,-2.46896 -1.493076,-3.53791 -1.22e-4,-0.68622 -0.1153,-2.49782 -0.255952,-4.02579 -0.153913,-1.67202 -0.175296,-6.09645 -0.05371,-11.1125 0.15622,-6.44478 0.289571,-8.51335 0.588165,-9.12378 0.212377,-0.43418 0.877801,-1.06063 1.47872,-1.39211 0.600919,-0.33149 1.989133,-0.832 3.084921,-1.11226 1.095787,-0.28025 3.341896,-0.68867 4.991353,-0.90759 1.649457,-0.21892 4.308701,-0.524 5.90943,-0.67796 1.600729,-0.15395 4.783221,-0.66594 7.072201,-1.13776 4.15707,-0.85686 4.16329,-0.8573 5.48811,-0.38677 0.72948,0.25909 2.61103,0.58381 4.18123,0.7216 1.5702,0.13779 3.7546,0.48063 4.85422,0.76187 1.09962,0.28123 2.69925,0.8065 3.55473,1.16726 1.17581,0.49584 1.83333,1.00159 2.69411,2.07223 0.62627,0.77897 1.43385,2.03419 1.79461,2.78937 0.36077,0.75518 0.89633,2.36253 1.19014,3.57188 0.48304,1.98819 0.51869,2.7437 0.3722,7.88735 -0.14561,5.11257 -0.10603,5.96983 0.39085,8.46667 0.30408,1.52796 0.55323,3.46747 0.55367,4.31002 5.4e-4,1.02761 -0.17923,1.88479 -0.54611,2.60392 -0.54691,1.07203 -0.54691,1.07203 1.49823,0.88038 1.12483,-0.1054 3.13311,-0.20317 4.46286,-0.21726 2.10251,-0.0223 2.51279,0.0492 3.14695,0.54799 0.40107,0.31549 1.28804,0.75481 1.97103,0.97626 0.68299,0.22146 2.34126,0.58932 3.68503,0.81746 1.34378,0.22815 3.07019,0.65573 3.83646,0.95018 0.76628,0.29446 1.94326,0.93586 2.61553,1.42535 0.75125,0.547 1.44867,1.35759 1.80968,2.10333 0.55462,1.14568 0.57875,1.44574 0.43274,5.38025 -0.0851,2.2918 -0.22632,8.2273 -0.31394,13.18999 -0.1593,9.02308 -0.1593,9.02308 2.04912,9.16142 1.21464,0.0761 2.95858,0.34909 3.87543,0.60667 0.96148,0.27013 1.99728,0.77687 2.4474,1.19734 0.58954,0.55071 0.78039,0.96611 0.78039,1.69857 0,0.53327 -0.12304,1.19948 -0.27343,1.48048 -0.15038,0.281 -0.76343,0.76089 -1.36233,1.06643 -0.59889,0.30553 -2.19431,0.72157 -3.54538,0.92454 -1.35107,0.20296 -2.76209,0.50826 -3.13559,0.67844 -0.37351,0.17018 -0.6791,0.45026 -0.6791,0.62241 0,0.17214 0.60199,0.82059 1.33776,1.441 1.0591,0.89305 1.32089,1.26906 1.25677,1.80509 -0.0637,0.53247 -0.29799,0.73834 -1.09699,0.96392 -0.58694,0.16571 -0.92215,0.38857 -0.79375,0.52771 0.1295,0.14034 0.084,0.16131 -0.10894,0.0502 -0.18215,-0.10483 -1.84903,0.11533 -3.70417,0.48924 -1.85513,0.37392 -4.74219,0.86671 -6.41568,1.0951 -1.7818,0.24317 -5.56453,0.45009 -9.12813,0.49933 -3.34698,0.0463 -6.56166,0.0331 -7.14375,-0.0292 z m 16.40417,-1.11527 c 2.03729,-0.29577 5.24382,-0.84978 7.12561,-1.23114 1.88179,-0.38137 3.63796,-0.80927 3.9026,-0.9509 0.26464,-0.14163 0.48117,-0.29585 0.48117,-0.3427 0,-0.0468 -0.59532,-0.6805 -1.32292,-1.4081 -0.7554,-0.7554 -1.32292,-1.56352 -1.32292,-1.88378 0,-0.30848 0.29143,-0.75182 0.64763,-0.98521 0.35619,-0.23338 1.45752,-0.5474 2.44739,-0.69781 0.98988,-0.15041 2.44233,-0.39099 3.22769,-0.53462 0.88651,-0.16214 1.66397,-0.49722 2.05052,-0.88376 0.41472,-0.41472 0.62261,-0.92942 0.62261,-1.54148 0,-0.67951 -0.18316,-1.06293 -0.70316,-1.47196 -0.38673,-0.30421 -1.34544,-0.73982 -2.13046,-0.96803 -0.78503,-0.22821 -2.38229,-0.43444 -3.54948,-0.45829 -2.12217,-0.0434 -2.12217,-0.0434 -2.20493,1.20335 -0.0455,0.68568 -0.30935,1.63818 -0.58628,2.11666 -0.27694,0.47848 -1.07625,1.2558 -1.77624,1.72739 -0.69999,0.47159 -1.85922,1.0316 -2.57607,1.24449 -0.71686,0.21288 -4.36624,0.63395 -8.10973,0.93571 -3.7435,0.30175 -8.17558,0.73933 -9.84907,0.97239 -1.96809,0.27408 -3.79028,0.3662 -5.15938,0.26082 -1.59166,-0.12251 -2.51042,-0.35879 -3.70416,-0.95261 -0.87313,-0.43433 -2.53797,-1.51191 -3.69964,-2.39463 -1.16168,-0.88271 -2.70949,-1.88275 -3.43959,-2.22231 -0.73009,-0.33957 -2.31212,-0.94099 -3.51562,-1.3365 -1.77916,-0.58469 -2.26136,-0.86063 -2.57969,-1.47621 -0.21533,-0.4164 -0.38893,-1.38808 -0.38578,-2.15929 0.003,-0.77121 0.24127,-2.46774 0.52916,-3.77005 0.2879,-1.30232 0.52344,-2.38843 0.52344,-2.41358 0,-0.0252 -0.45912,-0.11915 -1.02027,-0.20888 -0.60711,-0.0971 -1.55093,-0.006 -2.33067,0.22599 -1.3104,0.38915 -1.3104,0.38915 -1.19782,2.74382 0.0711,1.48761 -0.011,2.73157 -0.22301,3.37821 -0.18457,0.56294 -0.63863,1.4227 -1.00902,1.91058 -0.37038,0.48787 -1.33458,1.25801 -2.142669,1.71142 -0.808085,0.4534 -2.033908,1.40072 -2.724051,2.10513 -0.690144,0.70442 -1.629591,1.83928 -2.087661,2.52192 -0.45807,0.68263 -1.381689,1.81604 -2.052486,2.51868 -0.670797,0.70264 -1.54114,1.44678 -1.934096,1.65365 -0.419811,0.221 -1.476572,0.37611 -2.56239,0.37611 -1.016359,0 -2.718912,-0.18738 -3.783452,-0.4164 -1.215606,-0.26152 -4.395826,-0.50351 -8.55011,-0.65059 -4.247843,-0.1504 -7.135267,-0.37261 -8.069792,-0.62104 -0.800365,-0.21276 -2.146983,-0.52524 -2.992486,-0.69439 -1.042582,-0.20857 -1.835169,-0.56909 -2.462983,-1.12032 -0.509139,-0.44703 -1.159237,-1.27054 -1.444663,-1.83002 -0.429983,-0.84284 -0.656772,-1.01724 -1.322793,-1.01724 -0.44211,0 -1.660081,0.12633 -2.706602,0.28074 -1.046521,0.1544 -2.649711,0.52223 -3.562644,0.8174 -0.980586,0.31703 -2.036304,0.89167 -2.579688,1.40415 -0.505894,0.47712 -0.919808,1.11429 -0.919808,1.41594 0,0.30165 0.117792,0.62126 0.26176,0.71024 0.143968,0.089 0.981043,0.0203 1.860166,-0.1527 0.879124,-0.17295 1.676757,-0.23611 1.772517,-0.14035 0.09576,0.0958 -0.09657,0.73125 -0.427405,1.41221 -0.571463,1.17624 -0.578039,1.25527 -0.131624,1.5817 0.25844,0.18897 0.89362,0.36443 1.41151,0.3899 0.517889,0.0255 1.417867,0.0175 1.999951,-0.0177 0.582083,-0.0352 2.188233,-0.36825 3.569221,-0.74008 2.142869,-0.57696 2.879683,-0.65593 5.027083,-0.53878 2.085886,0.11379 3.10442,0.34275 5.95578,1.33882 1.89177,0.66085 4.213489,1.32709 5.159375,1.48054 0.945885,0.15345 2.805524,0.2799 4.13253,0.281 1.327005,0.001 3.470131,-0.18005 4.7625,-0.40255 1.292369,-0.2225 3.957106,-0.89479 5.921637,-1.49396 1.964531,-0.59918 4.524375,-1.39228 5.688542,-1.76246 1.950854,-0.62032 2.500107,-0.6731 7.011461,-0.67376 4.17664,-6.1e-4 5.24416,0.0859 7.27604,0.58937 1.30969,0.32455 4.16719,1.17075 6.35,1.88046 2.18281,0.7097 4.86172,1.41926 5.95313,1.5768 1.0914,0.15754 2.28203,0.33789 2.64583,0.40078 0.3638,0.0629 3.3999,0.0741 6.74688,0.025 4.31247,-0.0633 7.16459,-0.24605 9.78958,-0.62713 z m -52.282622,-4.14993 c 0.454271,-0.51739 0.821159,-1.23343 0.821159,-1.60263 0,-0.36706 -0.135365,-1.20497 -0.300811,-1.86201 -0.229469,-0.9113 -0.220456,-1.86467 0.038,-4.01977 0.186346,-1.55382 0.302305,-3.95623 0.257686,-5.33868 -0.04462,-1.38244 -0.05939,-3.34698 -0.03281,-4.36562 0.02657,-1.01865 0.333001,-3.04271 0.680953,-4.49792 0.347952,-1.4552 0.713175,-3.19038 0.811607,-3.85594 0.123462,-0.8348 0.0552,-1.50634 -0.220109,-2.16524 -0.221025,-0.52899 -0.733003,-1.12568 -1.147524,-1.3374 -0.411646,-0.21025 -1.379386,-0.51581 -2.150533,-0.67903 -0.771147,-0.16322 -3.092866,-0.29647 -5.159375,-0.29612 -2.06651,3.6e-4 -5.339199,0.12132 -7.272643,0.26882 -2.296971,0.17522 -4.067025,0.17932 -5.107073,0.0118 -0.875447,-0.14099 -1.912913,-0.42141 -2.305481,-0.62315 -0.392568,-0.20174 -1.531758,-0.82147 -2.531533,-1.37717 -1.509104,-0.83879 -2.141149,-1.03111 -3.722145,-1.13258 -1.430448,-0.0918 -2.111939,-0.0149 -2.738445,0.30911 -0.458742,0.23722 -0.984075,0.69797 -1.167407,1.02389 -0.216658,0.38516 -0.329156,1.65759 -0.3214,3.63528 0.0099,2.53101 0.16025,3.64339 0.893874,6.61458 0.833338,3.37503 0.890716,3.91494 1.04116,9.79708 0.153288,5.99332 0.18429,6.27391 0.832218,7.53254 0.398625,0.77434 1.030728,1.51625 1.550458,1.81978 0.482603,0.28186 2.203816,0.79043 3.824918,1.13016 2.277349,0.47726 4.451296,0.67925 9.562042,0.88847 3.639809,0.14899 7.32853,0.43536 8.202084,0.63676 0.873125,0.20129 2.319307,0.37818 3.213737,0.39309 1.544589,0.0258 1.667465,-0.0198 2.447396,-0.90813 z m -22.197592,-1.89366 c -0.363802,-0.061 -1.078177,-0.24064 -1.5875,-0.39909 -0.509323,-0.15845 -1.445496,-0.64303 -2.080384,-1.07684 -0.824475,-0.56336 -1.346009,-1.20742 -1.82506,-2.2538 -0.512505,-1.11946 -0.701187,-2.04756 -0.799889,-3.93455 -0.09316,-1.78102 -0.0061,-2.97603 0.312401,-4.2863 0.421201,-1.73298 0.417892,-1.92527 -0.07172,-4.16813 -0.282311,-1.29324 -0.71493,-3.57959 -0.961377,-5.08077 -0.246447,-1.50119 -0.40289,-2.77463 -0.347651,-2.82987 0.05524,-0.0552 0.547069,2.30579 1.092954,5.24674 0.878817,4.73461 0.953717,5.45284 0.653811,6.26945 -0.20558,0.55978 -0.33871,2.17756 -0.33871,4.11598 0,3.0326 0.04034,3.2726 0.799751,4.7575 0.706569,1.38158 0.99442,1.66456 2.470513,2.42869 0.918919,0.47569 1.9686,0.8649 2.332623,0.8649 0.661861,0 0.661861,0 -0.02312,-0.81405 -0.376738,-0.44773 -0.684978,-0.92398 -0.684978,-1.05834 0,-0.13435 0.208359,-0.23488 0.463021,-0.22339 0.31282,0.0141 0.348248,0.0667 0.109215,0.16203 -0.251427,0.1003 -0.102426,0.4005 0.514923,1.03744 0.477801,0.49297 1.023967,0.89631 1.213702,0.89631 0.189735,0 0.344972,0.11906 0.344972,0.26458 0,0.14552 -0.208359,0.24837 -0.463021,0.22855 -0.254661,-0.0198 -0.760677,-0.086 -1.124479,-0.14704 z m 3.261446,-0.96522 c -0.411347,-0.34052 -0.986029,-0.75362 -1.277071,-0.918 -0.291041,-0.16438 -0.398202,-0.30249 -0.238135,-0.30691 0.160067,-0.004 0.789922,0.35335 1.399678,0.79505 1.004703,0.72781 1.174037,0.77122 1.806098,0.46302 0.383598,-0.18704 0.745037,-0.48622 0.803197,-0.66485 0.05816,-0.17862 -0.217204,-0.62406 -0.611919,-0.98987 -0.394716,-0.36581 -1.647439,-1.20141 -2.783829,-1.85688 -1.136391,-0.65547 -2.384229,-1.60876 -2.772975,-2.11843 -0.388745,-0.50968 -0.866231,-1.37341 -1.061078,-1.9194 -0.194848,-0.546 -0.359495,-1.66764 -0.365882,-2.49252 -0.0092,-1.18449 0.182731,-1.90533 0.912817,-3.42876 0.508437,-1.06093 0.997227,-2.317 1.086199,-2.79126 0.118356,-0.63089 -0.01864,-1.22433 -0.51051,-2.21138 -0.369752,-0.74199 -0.879268,-2.53172 -1.132257,-3.97717 -0.252989,-1.44545 -0.555897,-2.62809 -0.673127,-2.62809 -0.117231,0 -0.463339,0.49041 -0.769128,1.08981 -0.414544,0.81257 -0.63233,1.01347 -0.856103,0.78969 -0.165067,-0.16506 -0.363779,-1.41142 -0.441584,-2.76968 -0.0778,-1.35825 -0.260524,-2.64196 -0.406045,-2.85268 -0.145521,-0.21072 -0.05622,-0.15596 0.198437,0.12168 0.352229,0.38401 0.467471,0.98844 0.481617,2.52601 0.01023,1.11167 0.105513,2.2422 0.211745,2.5123 0.160837,0.40893 0.275101,0.30934 0.683045,-0.59532 0.281989,-0.62534 0.672331,-1.0864 0.919768,-1.0864 0.336217,0 0.521871,0.54081 0.852164,2.48232 0.232262,1.36527 0.735113,3.16559 1.117447,4.00071 0.382333,0.83513 0.695152,1.82053 0.695152,2.18977 0,0.36925 -0.491264,1.73783 -1.091698,3.0413 -1.013132,2.19938 -1.082649,2.49642 -0.965951,4.12742 0.06916,0.96662 0.318824,2.13086 0.554807,2.5872 0.235982,0.45634 0.789946,1.1906 1.231031,1.63168 0.441084,0.44108 1.468737,1.13833 2.283672,1.54943 0.814935,0.4111 1.945805,1.14369 2.513045,1.62797 0.567239,0.48429 1.031344,1.04119 1.031344,1.23757 0,0.19638 -0.313713,0.60382 -0.69714,0.90543 -0.383427,0.3016 -0.850541,0.54837 -1.038033,0.54837 -0.187491,0 -0.67745,-0.27861 -1.088798,-0.61913 z m 18.57673,-19.46647 c -0.111938,-0.64234 -0.197086,-1.63435 -0.189218,-2.20446 0.01209,-0.87586 -0.105598,-1.10501 -0.759017,-1.47794 -0.425327,-0.24276 -0.833375,-0.59644 -0.906772,-0.78597 -0.0734,-0.18952 0.05749,-0.63601 0.290871,-0.99218 0.233376,-0.35618 0.534327,-0.6476 0.668781,-0.6476 0.134453,0 0.0017,0.26058 -0.295013,0.57906 -0.296711,0.31848 -0.539474,0.67968 -0.539474,0.80267 0,0.12299 0.416719,0.46949 0.926042,0.77 0.895374,0.52828 0.926041,0.59915 0.926041,2.14014 0,1.46373 0.03652,1.56413 0.447665,1.23063 0.353885,-0.28705 0.403356,-0.2895 0.236157,-0.0117 -0.116328,0.1933 -0.299489,0.66955 -0.407023,1.05834 -0.181,0.65439 -0.210627,0.62016 -0.39904,-0.46102 z m 1.43935,-2.1394 c 0.287844,-0.65484 0.525968,-1.38293 0.529164,-1.61796 0.0032,-0.23504 -0.24795,-0.74995 -0.558102,-1.14424 -0.310152,-0.3943 -0.862446,-0.8304 -1.227319,-0.96913 -0.364874,-0.13872 -0.598428,-0.3172 -0.519009,-0.39662 0.07942,-0.0794 0.510635,0.045 0.958258,0.27646 0.447622,0.23148 1.007522,0.79537 1.244222,1.2531 0.347835,0.67263 0.375534,1.01523 0.144445,1.78653 -0.157254,0.52487 -0.467964,1.19015 -0.690465,1.4784 -0.269168,0.3487 -0.22941,0.12565 0.118806,-0.66654 z m -30.898863,-2.51355 c 0.0054,-0.43656 0.06469,-0.58312 0.131774,-0.32569 0.06708,0.25743 0.06267,0.61461 -0.0098,0.79375 -0.07247,0.17913 -0.127362,-0.0315 -0.12197,-0.46806 z m -0.236877,-2.51354 c 0,-0.80037 0.0496,-1.12779 0.110223,-0.72761 0.06062,0.40019 0.06062,1.05503 0,1.45521 -0.06062,0.40018 -0.110223,0.0728 -0.110223,-0.7276 z m 0.193343,-1.86531 c -0.0044,-0.22556 0.134829,-0.55298 0.309454,-0.72761 0.174625,-0.17462 0.442516,-0.31567 0.595313,-0.31345 0.185814,0.003 0.182707,0.0684 -0.0094,0.19844 -0.157958,0.10691 -0.422228,0.43251 -0.587267,0.72355 -0.222506,0.39239 -0.302151,0.42316 -0.308117,0.11907 z m 1.794428,-0.96127 c 0.190996,-0.0764 0.4192,-0.067 0.507118,0.0209 0.08792,0.0879 -0.06835,0.15046 -0.347265,0.13897 -0.308225,-0.0127 -0.370919,-0.0754 -0.159853,-0.15985 z m 32.574552,28.32811 c 1.396672,-1.85341 2.204756,-2.62363 4.108861,-3.91632 1.387594,-0.94204 2.582054,-1.97455 2.881134,-2.49048 0.30825,-0.53178 0.56141,-1.58773 0.63831,-2.66253 0.0769,-1.07421 -0.0568,-2.87729 -0.33663,-4.54265 -0.32967,-1.96161 -0.41819,-3.45114 -0.30564,-5.14268 0.0872,-1.30968 0.46017,-3.83219 0.82895,-5.60556 0.36877,-1.77337 0.67049,-3.89294 0.67049,-4.71015 0,-1.48585 0,-1.48585 -2.20503,-1.30693 -1.585522,0.12864 -2.38304,0.0836 -2.838652,-0.1602 -0.605075,-0.32382 -0.754158,-0.21074 -3.308154,2.50926 -2.674524,2.84836 -2.674524,2.84836 -2.188427,3.80181 0.267353,0.5244 0.486097,1.37775 0.486097,1.89633 0,0.51859 -0.362242,2.42632 -0.804982,4.23941 -0.44274,1.81308 -0.821567,4.07228 -0.841837,5.02044 -0.02027,0.94816 -0.0054,2.93463 0.03307,4.41439 0.03846,1.47975 -0.07515,3.84303 -0.252465,5.25173 -0.258206,2.05136 -0.255047,2.84198 0.01586,3.97127 0.186039,0.7755 0.265369,1.85913 0.176289,2.40806 -0.161963,0.99807 -0.161963,0.99807 0.671094,0.16501 0.458182,-0.45818 1.615428,-1.87127 2.571659,-3.14021 z m 3.361366,-4.57777 c 0.455958,-0.27803 1.021505,-0.78033 1.25677,-1.11622 0.241835,-0.34527 0.427115,-1.13136 0.426281,-1.80861 -8.12e-4,-0.65884 -0.133129,-1.67415 -0.294038,-2.25623 -0.160909,-0.58208 -0.416938,-1.13637 -0.568953,-1.23174 -0.174798,-0.10967 0.08646,-0.93632 0.710779,-2.24896 0.97574,-2.05151 0.99143,-2.06789 1.3548,-1.41409 0.2022,0.3638 0.36648,0.84005 0.36508,1.05833 -0.001,0.21828 -0.14784,0.0568 -0.3254,-0.35887 -0.32284,-0.75575 -0.32284,-0.75575 -1.05825,0.79375 -0.721242,1.51964 -0.727592,1.57499 -0.32955,2.87241 0.22322,0.72761 0.40715,1.93886 0.40873,2.69168 0.002,1.0891 -0.13709,1.53509 -0.682118,2.18282 -0.376738,0.44772 -0.577607,0.81405 -0.446376,0.81405 0.131231,0 0.544941,-0.32743 0.919356,-0.72761 0.374418,-0.40018 0.902708,-1.14432 1.173978,-1.65364 0.38481,-0.72249 0.49323,-1.49666 0.49323,-3.52196 0,-1.42775 0.0774,-2.32071 0.17206,-1.98437 0.0946,0.33634 0.18384,1.38544 0.19823,2.33133 0.0212,1.39003 -0.12346,2.03607 -0.75419,3.3693 -0.52532,1.11044 -1.06568,1.82348 -1.653433,2.18183 -0.480197,0.29277 -1.170741,0.5323 -1.534543,0.5323 -0.64709,0 -0.64345,-0.011 0.167557,-0.5055 z m 29.994949,7.11978 c 0.65484,-0.1341 4.7625,-0.54982 9.12812,-0.92382 4.36563,-0.37399 8.41176,-0.80694 8.99141,-0.96209 0.57964,-0.15516 1.60969,-0.56375 2.289,-0.90798 0.6793,-0.34423 1.48756,-0.94682 1.79612,-1.33909 0.30856,-0.39227 0.61688,-0.96176 0.68517,-1.26554 0.0683,-0.30377 0.19566,-5.49341 0.28306,-11.53253 0.0874,-6.03911 0.17778,-12.68729 0.20083,-14.77373 0.0419,-3.79352 0.0419,-3.79352 -0.73987,-4.46568 -0.73294,-0.63016 -0.91481,-0.66372 -2.91042,-0.53715 -1.32048,0.0838 -2.93223,0.41138 -4.2453,0.86295 -1.52519,0.52453 -2.67117,0.73427 -4.10104,0.75059 -1.09141,0.0125 -5.25859,-0.0782 -9.26042,-0.20144 -7.27604,-0.22408 -7.27604,-0.22408 -8.06979,0.47048 -0.79375,0.69456 -0.79375,0.69456 -0.83627,6.71459 -0.0234,3.31101 -0.053,10.60392 -0.0658,16.20648 -0.0128,5.60255 0.0743,10.54364 0.19373,10.9802 0.16022,0.58593 0.41993,0.83751 0.99189,0.96089 0.42616,0.0919 1.60827,0.17603 2.62692,0.18691 1.01865,0.0109 2.38786,-0.0899 3.04271,-0.22404 z m -1.05834,-0.98458 c -0.3638,-0.0666 -1.58408,-0.47569 -2.71174,-0.90915 -1.66317,-0.6393 -2.08206,-0.91471 -2.21859,-1.45868 -0.0926,-0.36882 -0.0245,-1.31314 0.15125,-2.09849 0.20027,-0.89492 0.50592,-1.52765 0.81886,-1.69512 0.27461,-0.14698 1.06965,-0.32187 1.76674,-0.38865 1.26744,-0.12142 1.26744,-0.12142 -0.1556,0.20204 -0.90276,0.2052 -1.55871,0.52784 -1.7941,0.88246 -0.20409,0.30746 -0.44045,1.14486 -0.52525,1.86089 -0.11358,0.95898 -0.0537,1.3853 0.22746,1.61861 0.2099,0.17421 1.2057,0.62695 2.21287,1.00609 1.00718,0.37914 2.32519,0.70849 2.92892,0.73189 0.63405,0.0246 1.31006,-0.1247 1.60047,-0.35342 0.27653,-0.21779 0.22241,-0.12809 -0.12026,0.19933 -0.34267,0.32743 -0.82475,0.5791 -1.0713,0.55928 -0.24655,-0.0198 -0.74592,-0.0905 -1.10973,-0.15708 z m 3.175,-1.26209 c 0,-0.0728 0.0595,-0.13229 0.1323,-0.13229 0.0728,0 0.13229,0.0595 0.13229,0.13229 0,0.0728 -0.0595,0.13229 -0.13229,0.13229 -0.0728,0 -0.1323,-0.0595 -0.1323,-0.13229 z m 1.14653,-0.30868 c 0.097,-0.097 0.25577,-0.097 0.35278,0 0.097,0.097 0.0176,0.17639 -0.17639,0.17639 -0.19403,0 -0.2734,-0.0794 -0.17639,-0.17639 z m 3.29411,-0.019 c 0.76887,-0.0536 1.95949,-0.0531 2.64584,0.001 0.68634,0.0543 0.0573,0.0982 -1.39793,0.0975 -1.45521,-6.9e-4 -2.01677,-0.0451 -1.24791,-0.0987 z m 7.03629,-0.0167 c 0.10117,-0.1637 -0.12619,-0.49552 -0.51336,-0.7492 -0.38222,-0.25044 -1.96359,-0.72118 -3.51416,-1.04607 -1.55056,-0.3249 -3.26568,-0.78166 -3.81138,-1.01503 -0.73642,-0.31493 -0.98787,-0.57686 -0.97542,-1.01607 0.0166,-0.58765 0.0183,-0.58788 0.24244,-0.0333 0.12412,0.30718 0.444,0.647 0.71083,0.75516 0.26684,0.10815 0.84235,0.30758 1.27892,0.44316 0.43656,0.13559 1.73983,0.42986 2.89615,0.65394 1.15633,0.22409 2.41516,0.56915 2.7974,0.76682 0.38224,0.19766 0.84092,0.53524 1.01929,0.75016 0.25201,0.30364 0.25334,0.43462 0.006,0.58749 -0.19731,0.12194 -0.24928,0.085 -0.13671,-0.0971 z m 0.89235,-1.11663 c -0.25467,-0.1568 -0.46303,-0.49348 -0.46303,-0.74819 0,-0.25471 0.14288,-0.60598 0.3175,-0.7806 0.17463,-0.17463 0.44252,-0.31388 0.59532,-0.30946 0.15279,0.004 0.0694,0.12941 -0.18521,0.27773 -0.25466,0.14833 -0.46302,0.48801 -0.46302,0.75485 0,0.27947 0.25239,0.5528 0.59531,0.6447 0.32742,0.0877 0.9525,0.15838 1.38906,0.15697 0.43657,-10e-4 1.38142,-0.32721 2.09968,-0.724 0.93036,-0.51394 1.48203,-1.05678 1.91823,-1.88751 0.38519,-0.73357 0.6108,-1.61682 0.60825,-2.38125 -0.002,-0.66834 -0.10798,-1.37924 -0.235,-1.57979 -0.12702,-0.20054 -0.36333,-0.28281 -0.52512,-0.18282 -0.16179,0.1 -0.29461,0.44267 -0.29515,0.7615 -5.4e-4,0.31884 -0.23473,0.96305 -0.52041,1.4316 -0.28568,0.46854 -1.01748,1.21268 -1.62621,1.65364 -0.60873,0.44096 -1.29728,0.79904 -1.53011,0.79573 -0.23283,-0.003 -0.0547,-0.18792 0.39592,-0.41024 0.45058,-0.22231 1.27192,-0.86778 1.82518,-1.43438 0.66832,-0.68441 1.06057,-1.36815 1.1687,-2.03716 0.12236,-0.75708 0.30105,-1.02685 0.72001,-1.08702 0.39461,-0.0567 0.60489,0.0978 0.72043,0.52917 0.0897,0.33506 0.1648,1.08998 0.16678,1.67761 0.002,0.58901 -0.2635,1.59732 -0.5917,2.24714 -0.36727,0.72721 -1.04354,1.47658 -1.76547,1.95631 -0.81552,0.54193 -1.57729,0.80532 -2.51354,0.86908 -0.73886,0.0503 -1.55174,-0.0368 -1.8064,-0.19361 z m -2.51355,-2.81527 c -0.1819,-0.0734 -0.33073,-0.28755 -0.33073,-0.47588 0,-0.18834 0.20836,-0.50584 0.46303,-0.70556 0.42204,-0.33099 0.43006,-0.32116 0.0906,0.11111 -0.22135,0.28186 -0.27502,0.56792 -0.13229,0.7052 0.13208,0.12703 0.5378,0.28436 0.9016,0.34963 0.66146,0.11866 0.66146,0.11866 0,0.13381 -0.3638,0.008 -0.81029,-0.0449 -0.99219,-0.11831 z m 2.38629,-0.008 c 0.25743,-0.0671 0.61462,-0.0627 0.79375,0.01 0.17913,0.0725 -0.0315,0.12736 -0.46806,0.12197 -0.43656,-0.005 -0.58312,-0.0647 -0.32569,-0.13178 z m 1.55346,-0.14737 c 0.22157,-0.1819 0.8228,-0.92604 1.33607,-1.65365 0.51326,-0.7276 1.01537,-1.66439 1.11579,-2.08174 0.10042,-0.41735 0.23429,-0.70712 0.29748,-0.64393 0.0632,0.0632 0.0136,0.46797 -0.11014,0.89951 -0.12377,0.43155 -0.73419,1.46546 -1.35649,2.29758 -0.6223,0.83213 -1.25613,1.51296 -1.40851,1.51296 -0.15239,0 -0.0958,-0.14883 0.1258,-0.33073 z m -11.7058,-1.07543 c -0.29769,-0.39058 -0.84905,-0.60742 -1.85209,-0.72837 -1.42821,-0.17222 -1.42821,-0.17222 -0.18619,-0.20947 0.96615,-0.029 1.4069,0.10466 1.98437,0.6017 0.4083,0.35142 0.68283,0.69595 0.61007,0.76562 -0.0728,0.0697 -0.32303,-0.1236 -0.55616,-0.42948 z m -5.00009,-0.32732 c 0.65484,-0.20634 1.30969,-0.36791 1.45521,-0.35905 0.14552,0.009 -0.15214,0.1766 -0.66146,0.37273 -0.50933,0.19614 -1.16417,0.35771 -1.45521,0.35905 -0.29104,0.001 0.007,-0.16639 0.66146,-0.37273 z m 14.50022,-0.86049 c 0.63171,-0.63172 1.22324,-1.57859 1.49238,-2.38889 0.30172,-0.90838 0.63278,-1.40591 1.02403,-1.53892 0.31799,-0.1081 0.75675,-0.16246 0.97503,-0.1208 0.21829,0.0417 0.60524,0.26205 0.8599,0.48975 0.25466,0.22771 0.46127,0.60391 0.45912,0.83602 -0.002,0.26289 -0.12945,0.1726 -0.33686,-0.23944 -0.21165,-0.42046 -0.60165,-0.69253 -1.07043,-0.74673 -0.40561,-0.0469 -0.90572,0.0544 -1.11135,0.22503 -0.20563,0.17066 -0.44712,0.70073 -0.53665,1.17794 -0.0895,0.47721 -0.51872,1.29949 -0.95378,1.82729 -0.43505,0.5278 -1.02881,1.0869 -1.31946,1.24245 -0.29065,0.15555 -0.0575,-0.18811 0.51807,-0.7637 z m -19.2021,-15.2654 c 0.0136,-1.71889 0.063,-2.05522 0.17755,-1.20913 0.1587,1.17212 0.1587,1.17212 0.90756,0.0874 0.41187,-0.5966 1.18578,-1.37288 1.71979,-1.72506 0.53402,-0.35219 1.28773,-0.83379 1.67493,-1.07022 0.38719,-0.23643 0.84749,-0.86469 1.02289,-1.39614 0.17539,-0.53144 0.25291,-1.45821 0.17226,-2.05948 -0.0979,-0.72976 -0.37689,-1.29127 -0.8392,-1.68894 -0.38092,-0.32765 -1.02536,-0.59572 -1.43209,-0.59572 -0.40673,0 -1.14424,0.1347 -1.63889,0.29933 -0.49466,0.16464 -1.07659,0.46516 -1.29319,0.66784 -0.34542,0.32322 -0.28852,0.46691 0.46302,1.16929 0.47126,0.44042 0.85683,0.96118 0.85683,1.15723 0,0.19605 -0.30568,0.87463 -0.67928,1.50794 -0.41339,0.70074 -0.60828,0.89256 -0.49788,0.49003 0.0998,-0.3638 0.34593,-0.84943 0.547,-1.07916 0.20107,-0.22974 0.36558,-0.58126 0.36558,-0.78116 0,-0.19989 -0.37294,-0.74822 -0.82875,-1.2185 -0.4708,-0.48574 -0.76536,-1.02023 -0.68199,-1.2375 0.0807,-0.21034 0.71299,-0.57538 1.40505,-0.81119 0.69206,-0.2358 1.59239,-0.42874 2.00073,-0.42874 0.43823,0 1.08004,0.30165 1.56638,0.73619 0.62319,0.55682 0.85662,1.02613 0.95807,1.92621 0.0845,0.75014 -0.0143,1.54537 -0.26754,2.15135 -0.27344,0.65444 -0.85245,1.24986 -1.81379,1.86521 -0.77666,0.49714 -1.79735,1.34305 -2.26819,1.87982 -0.47084,0.53676 -0.92774,1.30116 -1.01533,1.69868 -0.0876,0.39751 -0.25851,1.02041 -0.37981,1.38421 -0.14828,0.44469 -0.21438,-0.1189 -0.20171,-1.71979 z m 0.24574,-3.04271 c 0,-0.3638 0.0601,-0.51263 0.13345,-0.33073 0.0734,0.1819 0.0734,0.47956 0,0.66146 -0.0734,0.1819 -0.13345,0.0331 -0.13345,-0.33073 z m -2.20952,19.04999 c -0.11499,-4.29286 -0.15742,-8.04333 -0.0943,-8.33437 0.0631,-0.29104 0.13983,-4.44547 0.17043,-9.23207 0.0556,-8.7029 0.0556,-8.7029 -1.37377,-9.15155 -0.78618,-0.24676 -2.06974,-0.72722 -2.85236,-1.06769 -1.42294,-0.61904 -1.42294,-0.61904 -5.38024,0.68489 -3.95732,1.30392 -3.95732,1.30392 -3.78281,6.33101 0.096,2.76489 0.28377,5.97958 0.4173,7.14375 0.13354,1.16416 0.2437,3.03185 0.2448,4.15042 10e-4,1.12642 -0.23324,3.01507 -0.5253,4.23333 -0.29002,1.20977 -0.52815,2.81801 -0.52917,3.57388 -10e-4,1.05774 0.13528,1.52418 0.59346,2.02492 0.35106,0.38367 1.58534,0.99659 3.00829,1.49386 1.32714,0.46378 2.99401,1.19471 3.70417,1.62429 0.71015,0.42957 2.47775,1.60359 3.92799,2.60892 1.45024,1.00533 2.64665,1.80397 2.65869,1.77475 0.012,-0.0292 -0.0722,-3.56547 -0.18719,-7.85834 z m -9.75886,-5.80048 c -0.7673,-0.76729 -0.77342,-0.79809 -0.7757,-3.9026 -0.001,-1.72107 -0.0559,-3.78405 -0.12133,-4.58441 -0.11861,-1.45023 -0.11822,-1.45114 0.11498,-0.26459 0.12871,0.65485 0.24284,2.68218 0.25362,4.50519 0.0149,2.52117 0.11643,3.4528 0.42409,3.89204 0.22247,0.31761 0.80332,0.6523 1.29078,0.74375 0.59622,0.11185 1.17293,0.018 1.76209,-0.28663 0.8758,-0.45289 0.8758,-0.45289 0.17597,-0.81957 -0.47789,-0.25039 -0.75551,-0.6635 -0.87541,-1.30265 -0.0966,-0.51478 -0.11762,-0.99394 -0.0468,-1.06479 0.0708,-0.0709 0.20615,0.35479 0.30066,0.94586 0.14875,0.93023 0.27934,1.09617 0.97161,1.23463 0.43987,0.088 0.759,0.28223 0.70918,0.43169 -0.0498,0.14946 -0.49909,0.49084 -0.99839,0.75861 -0.4993,0.26778 -1.24625,0.48687 -1.6599,0.48687 -0.47847,0 -1.03345,-0.28136 -1.52548,-0.7734 z m 1.89332,-3.68017 c -0.0115,-0.19389 -0.37807,-1.16635 -0.81464,-2.16101 -0.57256,-1.30453 -0.79375,-2.22191 -0.79375,-3.2921 0,-0.84037 0.23851,-2.14036 0.55012,-2.99836 0.30256,-0.83311 0.64489,-2.11006 0.76074,-2.83766 0.18589,-1.16757 0.2145,-1.21185 0.24364,-0.37707 0.0182,0.52021 -0.26465,1.82099 -0.62845,2.89061 -0.36381,1.06962 -0.66146,2.51023 -0.66146,3.20135 0,0.78484 0.30401,2.01582 0.80979,3.27895 0.44539,1.1123 0.75245,2.1631 0.68235,2.33509 -0.0877,0.2153 -0.13396,0.2029 -0.14834,-0.0398 z m -2.88294,-8.6433 c -0.01,-0.43656 0.0806,-1.27 0.20104,-1.85208 0.13703,-0.66247 0.22296,-0.81092 0.22973,-0.39688 0.006,0.3638 -0.0845,1.19724 -0.20104,1.85208 -0.15887,0.89284 -0.21633,0.9921 -0.22973,0.39688 z m 0.2678,-3.96875 c 0.005,-0.43656 0.0647,-0.58312 0.13177,-0.32569 0.0671,0.25743 0.0627,0.61462 -0.01,0.79375 -0.0725,0.17913 -0.12736,-0.0315 -0.12197,-0.46806 z m -0.42463,-2.0273 c -0.0969,-0.60569 -0.0823,-1.19341 0.0323,-1.30603 0.11464,-0.11263 0.23716,0.38294 0.27228,1.10125 0.0351,0.71832 0.0206,1.30604 -0.0323,1.30604 -0.0529,0 -0.17543,-0.49557 -0.27228,-1.10126 z m 2.79664,-0.0966 c -0.0233,-0.44056 -0.22768,-1.06564 -0.45422,-1.38906 -0.22653,-0.32342 -0.29025,-0.58804 -0.1416,-0.58804 0.14865,0 0.40066,0.24363 0.56002,0.54139 0.15936,0.29777 0.24214,0.92284 0.18395,1.38906 -0.1058,0.84767 -0.1058,0.84767 -0.14815,0.0466 z m -2.15901,-1.58023 c 0,-0.0728 0.0595,-0.13229 0.1323,-0.13229 0.0728,0 0.13229,0.0595 0.13229,0.13229 0,0.0728 -0.0595,0.1323 -0.13229,0.1323 -0.0728,0 -0.1323,-0.0595 -0.1323,-0.1323 z m 0.61736,-0.30868 c 0.097,-0.097 0.25577,-0.097 0.35278,0 0.097,0.097 0.0176,0.17639 -0.17639,0.17639 -0.19402,0 -0.2734,-0.0794 -0.17639,-0.17639 z m -4.49293,17.47068 c 1.01923,0.12511 1.01923,0.12511 0.89436,-1.90386 -0.0687,-1.11594 -0.27013,-4.82694 -0.44768,-8.24668 -0.17755,-3.41974 -0.36393,-6.35617 -0.41419,-6.5254 -0.069,-0.23239 -0.40313,-0.22841 -1.3653,0.0163 -1.27391,0.32395 -1.27391,0.32395 -1.43158,2.42436 -0.0867,1.15523 -0.43759,3.46963 -0.77973,5.14312 -0.42278,2.06797 -0.62557,3.97506 -0.633,5.95313 -0.006,1.60072 0.0675,3.10379 0.16334,3.34014 0.1575,0.38838 0.30999,0.39336 1.58442,0.0518 0.77557,-0.20787 1.86879,-0.32165 2.42936,-0.25284 z M 94.468006,212.9114 c 2.575556,-2.76968 2.575556,-2.76968 0.116644,-4.03148 -1.352401,-0.69399 -3.411411,-1.70708 -4.575578,-2.25131 -1.164167,-0.54423 -2.371367,-0.99225 -2.682668,-0.9956 -0.3113,-0.003 -0.840362,-0.22825 -1.175693,-0.49979 -0.502905,-0.40722 -0.772832,-0.44865 -1.541134,-0.23651 -0.512294,0.14145 -1.531044,0.19621 -2.263891,0.12169 -0.732846,-0.0745 -2.344479,-0.32512 -3.581406,-0.55688 -1.236927,-0.23176 -3.216255,-0.42154 -4.398506,-0.42174 -1.23645,-2e-4 -2.62794,0.16843 -3.275745,0.39699 -0.619409,0.21854 -1.582603,0.80968 -2.140432,1.31364 -0.557829,0.50397 -1.58605,1.20606 -2.284936,1.56022 -0.698886,0.35415 -1.744958,0.7727 -2.324604,0.93011 -0.579646,0.15741 -1.645128,0.6755 -2.367737,1.1513 -0.722608,0.4758 -1.586712,1.27099 -1.92023,1.76708 -0.333518,0.4961 -0.573172,0.93522 -0.532565,0.97583 0.04061,0.0406 0.641204,-0.11296 1.334659,-0.34125 1.039956,-0.34237 1.521224,-0.36279 2.747284,-0.11656 0.817551,0.16419 2.09309,0.59722 2.83453,0.96231 0.74144,0.36508 1.941471,0.99044 2.666735,1.38969 1.318662,0.72591 1.318662,0.72591 10.847917,0.72591 8.326705,0 9.662812,0.0561 10.587588,0.44437 0.582084,0.24441 1.124906,0.45277 1.206272,0.46303 0.08137,0.0102 1.306939,-1.22772 2.723496,-2.75105 z m -4.423253,0.10465 c -0.383427,-0.3016 -0.69714,-0.69605 -0.69714,-0.87654 0,-0.18049 0.357188,-0.67038 0.79375,-1.08863 0.436563,-0.41825 0.793751,-0.85306 0.793751,-0.96623 0,-0.11318 -0.252613,-0.34097 -0.561361,-0.50621 -0.308748,-0.16523 -1.11242,-0.39354 -1.785937,-0.50735 -1.127533,-0.19053 -1.151192,-0.20936 -0.298536,-0.23764 0.509323,-0.0169 1.33567,0.17747 1.836327,0.4319 0.500657,0.25444 0.953332,0.60025 1.005945,0.76847 0.05261,0.16822 -0.292695,0.74816 -0.76735,1.28876 -0.863008,0.98292 -0.863008,0.98292 -0.249029,1.48009 0.337689,0.27344 0.80915,0.49538 1.04769,0.4932 0.23854,-0.002 1.118318,-0.63939 1.955063,-1.416 0.836745,-0.77661 1.521354,-1.53027 1.521354,-1.67481 0,-0.14453 -0.208359,-0.44472 -0.463021,-0.66708 -0.254661,-0.22236 -1.529495,-0.96218 -2.832965,-1.64404 -1.303469,-0.68186 -2.79175,-1.33986 -3.307291,-1.46222 -0.785252,-0.18638 -0.825877,-0.22679 -0.250366,-0.24905 0.37784,-0.0146 2.022161,0.63849 3.654046,1.45135 2.127096,1.05953 3.054464,1.66975 3.275789,2.15551 0.290503,0.63758 0.209341,0.76898 -1.375068,2.22623 -0.926086,0.85177 -1.889605,1.54866 -2.141152,1.54866 -0.251548,0 -0.771072,-0.24676 -1.154499,-0.54837 z m -9.626827,-2.29194 c 0.691224,-0.0545 1.256771,-0.21164 1.256771,-0.34918 0,-0.13755 0.238125,-0.48822 0.529166,-0.77926 0.291042,-0.29104 0.737526,-0.52162 0.992188,-0.51239 0.362933,0.0131 0.337671,0.0673 -0.116867,0.25035 -0.318939,0.12847 -0.779117,0.53764 -1.022618,0.90927 -0.379201,0.57873 -0.618699,0.66885 -1.66907,0.628 -1.226341,-0.0477 -1.226341,-0.0477 0.03043,-0.14679 z m -2.905382,-0.25346 c 0.257431,-0.0671 0.614619,-0.0627 0.79375,0.01 0.179132,0.0725 -0.03149,0.12736 -0.468056,0.12197 -0.436562,-0.005 -0.583125,-0.0647 -0.325694,-0.13177 z m -1.305903,-0.25762 c 0.09701,-0.097 0.255764,-0.097 0.352778,0 0.09701,0.097 0.01764,0.17639 -0.176389,0.17639 -0.194028,0 -0.273403,-0.0794 -0.176389,-0.17639 z m -3.130903,-0.35277 c -0.708027,-0.18017 -0.722314,-0.20198 -0.132292,-0.20198 0.363802,0 1.018646,0.0909 1.455209,0.20198 0.708027,0.18016 0.722314,0.20197 0.132291,0.20197 -0.363802,0 -1.018645,-0.0909 -1.455208,-0.20197 z M 70.03303,209.1988 c -0.654844,-0.18971 -0.9525,-0.34747 -0.661459,-0.35057 0.291042,-0.003 1.005417,0.15132 1.5875,0.34316 0.582084,0.19184 0.87974,0.34959 0.661459,0.35056 -0.218282,9.8e-4 -0.932657,-0.15344 -1.5875,-0.34315 z m 14.419792,-0.39688 c 0.436562,-0.11108 1.27,-0.20116 1.852083,-0.20016 1.058333,0.002 1.058333,0.002 -0.132292,0.21367 -0.654843,0.11652 -1.488281,0.20659 -1.852083,0.20016 -0.599437,-0.0106 -0.587032,-0.0306 0.132292,-0.21367 z m -16.321485,-0.18074 c 0.190996,-0.0764 0.419199,-0.067 0.507118,0.0209 0.08792,0.0879 -0.06835,0.15045 -0.347266,0.13897 -0.308224,-0.0127 -0.370919,-0.0754 -0.159852,-0.15986 z m -1.008724,-0.32791 c 0,-0.13423 0.625078,-0.79204 1.389062,-1.46179 0.763985,-0.66976 1.918624,-1.47492 2.565866,-1.78925 1.137339,-0.55234 1.29705,-0.56108 4.7625,-0.26063 1.972133,0.17099 4.478666,0.45043 5.570072,0.62099 1.091407,0.17056 1.846703,0.35655 1.678438,0.4133 -0.168266,0.0567 -1.597016,-0.076 -3.175,-0.29496 -1.577985,-0.21899 -3.955206,-0.47925 -5.282713,-0.57837 -2.203541,-0.16453 -2.521484,-0.12636 -3.652401,0.43844 -0.681313,0.34027 -1.772832,1.18964 -2.425598,1.8875 -0.652766,0.69786 -1.241608,1.26884 -1.308537,1.26884 -0.06693,0 -0.121689,-0.10983 -0.121689,-0.24407 z m 16.870273,-2.32431 c 0.329118,-0.0633 0.805368,-0.0609 1.058333,0.005 0.252965,0.0662 -0.01631,0.118 -0.598397,0.11507 -0.582084,-0.003 -0.789055,-0.0571 -0.459936,-0.12041 z m 1.848998,0.0119 c 0.181901,-0.0734 0.479558,-0.0734 0.661459,0 0.181901,0.0734 0.03307,0.13345 -0.33073,0.13345 -0.363802,0 -0.51263,-0.06 -0.330729,-0.13345 z m 14.301056,3.68096 c -0.37441,-0.40019 -0.877477,-1.11743 -1.117922,-1.59388 -0.240445,-0.47645 -0.788705,-2.68505 -1.218355,-4.908 -0.42965,-2.22295 -1.01916,-5.58359 -1.310022,-7.4681 -0.290871,-1.88457 -0.5301,-4.76137 -0.531642,-6.39314 -0.0022,-2.30342 0.110433,-3.25405 0.503629,-4.2516 0.278538,-0.70665 0.630816,-1.99098 0.782841,-2.85406 0.152025,-0.86308 0.328585,-2.77098 0.392354,-4.23976 0.115944,-2.67052 0.115944,-2.67052 -1.147245,-2.54915 -0.694753,0.0668 -2.251829,-0.079 -3.460168,-0.32379 -1.208339,-0.24484 -3.157717,-0.842 -4.331951,-1.32702 -1.174234,-0.48502 -2.744127,-1.14878 -3.488652,-1.47502 -0.894691,-0.39205 -1.588822,-0.53415 -2.047174,-0.41911 -0.381421,0.0957 -0.861582,0.44005 -1.067024,0.76516 -0.295851,0.46819 -0.39234,2.32435 -0.463973,8.92549 -0.04974,4.58391 0.01331,9.88219 0.14012,11.77396 0.230561,3.43958 0.230561,3.43958 1.661337,5.60088 0.786927,1.18872 1.677208,2.89103 1.978403,3.78292 0.31668,0.93774 0.786646,1.77272 1.114393,1.97991 0.311721,0.19707 0.979936,0.44474 1.484922,0.55038 0.504986,0.10565 3.164734,1.30796 5.910552,2.67181 3.514018,1.74541 5.274299,2.47972 5.944366,2.47972 0.951971,0 0.951971,0 0.271211,-0.7276 z m -17.237346,-25.5889 c -0.09491,-0.24733 -0.148329,-1.66035 -0.118709,-3.14003 0.05385,-2.69034 0.05385,-2.69034 0.143857,-0.45399 0.09,2.23635 0.09,2.23635 0.728803,0.85756 0.409957,-0.88485 0.873973,-1.46819 1.295264,-1.62837 0.361055,-0.13727 0.788377,-0.49607 0.949606,-0.79733 0.161228,-0.30126 0.257764,-1.28311 0.214524,-2.1819 -0.07227,-1.50221 -0.142715,-1.67088 -0.872367,-2.08881 -0.436563,-0.25005 -1.091407,-0.49429 -1.455209,-0.54274 -0.60207,-0.0802 -0.675707,0.0188 -0.820157,1.10253 -0.153411,1.15095 -0.160023,1.15829 -0.198437,0.22008 -0.02186,-0.5338 0.0322,-1.15803 0.120138,-1.38718 0.114958,-0.29958 0.356553,-0.36956 0.859896,-0.24909 0.38501,0.0922 1.057206,0.34603 1.493769,0.5642 0.436562,0.21816 0.881223,0.52887 0.988136,0.69047 0.106912,0.1616 0.196209,0.97282 0.198437,1.80272 0.0022,0.82989 -0.133079,1.80987 -0.300684,2.17772 -0.167605,0.36786 -0.50909,0.73368 -0.758856,0.81296 -0.249766,0.0793 -0.671304,0.38412 -0.936752,0.67743 -0.265448,0.29332 -0.679747,1.31634 -0.920664,2.27339 -0.288666,1.14673 -0.496873,1.58674 -0.610595,1.29038 z m 21.884596,25.65385 c 1.25549,-0.21894 5.01709,-1.358 8.35911,-2.53125 5.33382,-1.87248 6.21946,-2.11171 7.24712,-1.9576 0.89923,0.13485 1.4691,0.0443 2.45732,-0.39063 0.73715,-0.3244 2.05789,-1.32398 3.09273,-2.34067 0.99338,-0.97597 2.04723,-2.23987 2.3419,-2.80867 0.43982,-0.84897 0.51224,-1.37017 0.4044,-2.91041 -0.0722,-1.03193 -0.33264,-2.88827 -0.57866,-4.1252 -0.37228,-1.87176 -0.42027,-3.18219 -0.28617,-7.8132 0.15374,-5.3088 0.13156,-5.68084 -0.4831,-8.10388 -0.35432,-1.3968 -0.85049,-2.94102 -1.10258,-3.43159 -0.25209,-0.49058 -0.99455,-1.57656 -1.6499,-2.41331 -0.65536,-0.83674 -1.39708,-1.52135 -1.64828,-1.52135 -0.2512,0 -1.54484,0.48298 -2.87476,1.0733 -1.32992,0.59031 -3.38767,1.36352 -4.57278,1.71824 -1.18511,0.35472 -3.41601,0.89368 -4.95756,1.19769 -1.54156,0.30402 -4.35064,0.61227 -6.24241,0.68502 -1.89177,0.0728 -3.81214,0.2459 -4.26748,0.3848 -0.45535,0.13889 -1.039541,0.48639 -1.298206,0.77221 -0.373985,0.41325 -0.509081,1.21657 -0.659662,3.92257 -0.14753,2.65116 -0.351212,3.88889 -0.92201,5.60284 -0.700747,2.10415 -0.725756,2.3563 -0.574363,5.79091 0.08706,1.97502 0.45065,5.25783 0.807985,7.29512 0.357335,2.0373 0.911439,5.01386 1.231342,6.61459 0.319904,1.60073 0.735734,3.20807 0.924068,3.57187 0.188334,0.3638 0.621626,0.9142 0.962876,1.2231 0.34125,0.3089 0.79905,0.62692 1.01733,0.70671 0.21828,0.0798 0.5301,0.15448 0.69294,0.16597 0.16284,0.0115 1.3233,-0.15824 2.5788,-0.37718 z m 13.84173,-5.34535 c -0.0836,-0.13523 0.24673,-0.39005 0.73401,-0.56625 0.48729,-0.17621 1.0465,-0.51778 1.24269,-0.75906 0.31506,-0.38747 0.29493,-0.41422 -0.17246,-0.22915 -0.29104,0.11524 -1.60073,0.24814 -2.91042,0.29533 -2.38125,0.0858 -2.38125,0.0858 -0.13229,-0.12772 1.23693,-0.11743 2.59289,-0.35043 3.01326,-0.51778 0.42036,-0.16734 0.81012,-0.25843 0.86612,-0.20243 0.056,0.056 0.0358,0.27399 -0.045,0.48442 -0.0808,0.21043 -0.53004,0.61376 -0.99842,0.89629 -0.77708,0.46873 -0.8013,0.52097 -0.27678,0.59702 0.31616,0.0458 1.09006,-0.0542 1.7198,-0.22225 0.78795,-0.21031 1.4956,-0.68042 2.26945,-1.50766 0.61846,-0.66113 1.12448,-1.31221 1.12448,-1.44683 0,-0.13463 -0.38342,-0.2074 -0.85204,-0.16171 -0.68132,0.0664 -0.86972,-0.0229 -0.94027,-0.44609 -0.0704,-0.4226 -0.0354,-0.4515 0.174,-0.14351 0.14422,0.21211 0.59711,0.3907 1.00641,0.39687 0.52257,0.008 0.73467,0.14056 0.71223,0.44554 -0.0176,0.23887 -0.37477,0.86433 -0.79375,1.38989 -0.41899,0.52557 -1.17851,1.15604 -1.68783,1.40105 -0.50933,0.24501 -1.59546,0.49597 -2.41364,0.5577 -0.81818,0.0617 -1.55598,0.002 -1.63956,-0.13367 z m -5.20455,-1.37186 c -0.36234,-0.10085 -0.54093,-0.25442 -0.39688,-0.34126 0.14406,-0.0868 1.49992,-0.46871 3.01303,-0.8486 1.51312,-0.37988 3.23952,-0.67285 3.83646,-0.65105 0.84558,0.0309 0.91,0.0609 0.2916,0.13604 -0.43657,0.053 -1.92485,0.34653 -3.3073,0.65223 -1.38244,0.3057 -2.6247,0.62221 -2.76056,0.70334 -0.13586,0.0811 -0.0168,0.23768 0.26458,0.34787 0.31501,0.12336 0.3591,0.19736 0.11473,0.19257 -0.21828,-0.004 -0.69333,-0.0903 -1.05566,-0.19114 z m 8.10835,-2.14416 c 0.32918,-0.13278 0.64407,-0.56551 0.74461,-1.02328 0.0958,-0.43627 0.34516,-0.93508 0.55409,-1.10848 0.31554,-0.26188 0.37672,-0.18657 0.36127,0.44474 -0.0156,0.63561 -0.0518,0.67497 -0.22172,0.24048 -0.17987,-0.46005 -0.22561,-0.42994 -0.39955,0.2631 -0.10804,0.43045 -0.3205,0.93212 -0.47214,1.11484 -0.15164,0.18271 -0.46949,0.32466 -0.70633,0.31543 -0.30386,-0.0118 -0.26272,-0.0845 0.13977,-0.24683 z m 2.6922,-3.44975 c -0.24287,-0.14173 -0.64795,-0.79807 -0.90019,-1.45855 -0.40889,-1.07066 -0.42109,-1.39972 -0.11252,-3.0351 0.3461,-1.83425 0.3461,-1.83425 -0.75345,-4.07396 -1.03272,-2.10357 -1.10013,-2.38139 -1.10893,-4.57052 -0.006,-1.51996 -0.14092,-2.56091 -0.3875,-2.99226 -0.20797,-0.36381 -0.38235,-1.20716 -0.3875,-1.87413 -0.005,-0.66698 0.0718,-1.29385 0.171,-1.39306 0.0992,-0.0992 0.43086,0.31713 0.73701,0.92519 0.30615,0.60806 0.76773,1.23493 1.02574,1.39305 0.37235,0.22819 0.55228,0.17834 0.87233,-0.24168 0.31193,-0.40935 0.38104,-1.07168 0.30525,-2.92523 -0.0793,-1.93956 -0.23461,-2.67536 -0.81518,-3.86199 -0.39446,-0.80626 -0.98528,-1.5952 -1.31293,-1.75321 -0.58953,-0.28431 -0.58837,-0.28748 0.11158,-0.3052 0.39151,-0.01 1.06155,0.28017 1.50074,0.64972 0.43639,0.3672 1.03385,1.17087 1.32769,1.78594 0.29385,0.61507 0.60851,1.47549 0.69927,1.91206 0.0907,0.43656 -0.1202,0.1261 -0.46879,-0.68992 -0.34859,-0.81601 -0.90021,-1.85781 -1.22583,-2.3151 -0.32562,-0.45729 -0.70542,-0.83144 -0.84399,-0.83144 -0.13857,0 -0.0238,0.44715 0.25499,0.99367 0.27882,0.54652 0.64743,1.51542 0.81914,2.15309 0.17171,0.63768 0.31657,1.91742 0.32191,2.84386 0.007,1.12748 -0.13335,1.9028 -0.42298,2.34483 -0.23798,0.36321 -0.6078,0.66038 -0.82181,0.66038 -0.21401,0 -0.74705,-0.49411 -1.18453,-1.09803 -0.79541,-1.09803 -0.79541,-1.09803 -0.78603,-0.0661 0.005,0.56754 0.17953,1.32954 0.3875,1.69334 0.24511,0.42878 0.38142,1.4669 0.3875,2.95116 0.009,2.13177 0.0851,2.44753 1.10748,4.5782 1.0981,2.28851 1.0981,2.28851 0.75928,4.08419 -0.2625,1.39121 -0.26921,2.00658 -0.0298,2.73199 0.16996,0.51497 0.53822,1.14374 0.81836,1.39727 0.28015,0.25352 0.69238,0.39072 0.91608,0.30488 0.22371,-0.0858 0.42055,-0.42771 0.43743,-0.7597 0.0238,-0.46787 0.0585,-0.49663 0.15414,-0.12788 0.0679,0.26165 -0.02,0.6486 -0.19538,0.85989 -0.17536,0.21129 -0.45308,0.38055 -0.61717,0.37612 -0.16408,-0.004 -0.49704,-0.124 -0.7399,-0.26573 z m 1.17871,-2.76894 c 0.002,-0.7276 0.0534,-0.99385 0.11418,-0.59167 0.0608,0.40218 0.0592,0.9975 -0.004,1.32292 -0.0628,0.32542 -0.11256,-0.004 -0.11057,-0.73125 z m 0.25029,-2.51354 c 0,-0.50932 0.0545,-0.71768 0.121,-0.46302 0.0666,0.25466 0.0666,0.67138 0,0.92604 -0.0665,0.25467 -0.121,0.0463 -0.121,-0.46302 z m 0.21787,-1.32291 c -0.009,-0.21828 0.24225,-1.26934 0.55831,-2.33568 0.57051,-1.92482 0.57125,-1.95685 0.10256,-4.4453 -0.25965,-1.37858 -0.41872,-2.55987 -0.3535,-2.6251 0.0652,-0.0652 0.33455,1.05838 0.59849,2.49691 0.4799,2.6155 0.4799,2.6155 -0.2048,4.96077 -0.37659,1.2899 -0.69206,2.16668 -0.70106,1.9484 z m 0.0467,-10.58334 c 0,-0.50932 0.0545,-0.71768 0.121,-0.46302 0.0665,0.25466 0.0665,0.67138 0,0.92604 -0.0666,0.25467 -0.121,0.0463 -0.121,-0.46302 z m -0.27439,-1.71979 c 0.005,-0.43656 0.0647,-0.58312 0.13178,-0.32569 0.0671,0.25743 0.0627,0.61462 -0.01,0.79375 -0.0725,0.17913 -0.12736,-0.0315 -0.12197,-0.46806 z m -0.27438,-1.45521 c 0,-0.3638 0.06,-0.51263 0.13345,-0.33073 0.0734,0.18191 0.0734,0.47956 0,0.66146 -0.0734,0.1819 -0.13345,0.0331 -0.13345,-0.33073 z m -3.392,31.3696 c 0.0803,-0.20922 0.56249,-0.4954 1.07157,-0.63597 0.58184,-0.16065 3.16667,-0.17224 6.95993,-0.0312 3.31889,0.1234 7.04638,0.30391 8.2833,0.40114 1.90605,0.14982 2.50148,0.091 3.90511,-0.3858 0.91089,-0.30941 2.39917,-0.73776 3.30729,-0.95188 0.90813,-0.21412 2.30599,-0.39535 3.10635,-0.40273 1.45521,-0.0134 1.45521,-0.0134 0.66146,-0.66733 -0.43656,-0.35965 -1.44859,-0.90292 -2.24896,-1.20729 -0.80036,-0.30436 -2.74904,-0.78394 -4.33041,-1.06574 -1.58136,-0.2818 -3.30341,-0.69128 -3.82677,-0.90996 -0.52337,-0.21867 -1.17687,-0.60141 -1.45223,-0.85052 -0.37332,-0.33774 -0.94775,-0.44733 -2.25864,-0.4309 -0.96689,0.0121 -3.06185,0.11451 -4.65545,0.22753 -2.89746,0.20549 -2.89746,0.20549 -4.51181,1.75566 -0.88789,0.8526 -2.1773,1.7992 -2.86535,2.10356 -0.89001,0.39369 -1.68765,0.5339 -2.76423,0.48587 -0.92694,-0.0413 -2.05805,0.11667 -2.91943,0.40786 -0.77342,0.26145 -1.34452,0.53705 -1.26912,0.61245 0.0754,0.0754 1.18444,0.53557 2.46454,1.0226 1.28009,0.48703 2.52307,0.88946 2.76216,0.89429 0.23909,0.005 0.5004,-0.16241 0.58069,-0.37163 z M 99.259287,174.16371 c 0.845553,-0.4448 1.526603,-0.55137 3.523753,-0.55137 1.36159,0 3.80696,-0.19237 5.43416,-0.42749 1.6272,-0.23512 4.05401,-0.70302 5.39292,-1.03979 1.3389,-0.33676 3.77645,-1.17879 5.41677,-1.87116 2.9824,-1.25886 2.9824,-1.25886 2.06354,-1.64197 -0.50537,-0.21071 -1.75229,-0.60106 -2.77094,-0.86746 -1.01864,-0.26639 -2.86411,-0.55643 -4.10104,-0.64454 -1.23693,-0.0881 -3.05664,-0.3944 -4.0438,-0.68066 -1.15073,-0.3337 -2.14771,-0.46292 -2.77813,-0.36008 -0.5408,0.0882 -2.05484,0.38664 -3.36453,0.66315 -1.30969,0.27651 -3.09563,0.62494 -3.96875,0.7743 -0.873126,0.14937 -3.399684,0.45273 -5.614574,0.67415 -2.214889,0.22143 -4.998903,0.58694 -6.186698,0.81226 -1.187794,0.22532 -2.793777,0.64694 -3.568851,0.93694 -0.775074,0.28999 -1.681998,0.75844 -2.015386,1.04099 -0.606159,0.51374 -0.606159,0.51374 0.452174,0.36082 0.829317,-0.11983 1.441729,0.0196 2.830088,0.6445 0.974466,0.43859 2.641341,1.11363 3.704167,1.50009 1.062827,0.38646 2.706318,0.86638 3.652204,1.06649 0.945885,0.2001 2.434166,0.31846 3.307291,0.26301 0.920441,-0.0584 2.02792,-0.3325 2.635632,-0.65218 z m -10.705424,75.51633 c 0,-0.0728 0.05953,-0.13229 0.132292,-0.13229 0.07276,0 0.132292,0.0595 0.132292,0.13229 0,0.0728 -0.05953,0.13229 -0.132292,0.13229 -0.07276,0 -0.132292,-0.0595 -0.132292,-0.13229 z m 2.469445,-0.83785 c 0.09701,-0.097 0.255764,-0.097 0.352778,0 0.09701,0.097 0.01764,0.17639 -0.176389,0.17639 -0.194028,0 -0.273403,-0.0794 -0.176389,-0.17639 z m 26.370142,0.0441 c 0,-0.0728 0.0595,-0.13229 0.13229,-0.13229 0.0728,0 0.13229,0.0595 0.13229,0.13229 0,0.0728 -0.0595,0.13229 -0.13229,0.13229 -0.0728,0 -0.13229,-0.0595 -0.13229,-0.13229 z m 40.91575,-0.19317 c 0.0692,-0.11204 -0.0895,-0.22184 -0.35274,-0.244 -0.26325,-0.0222 -0.65723,-0.0519 -0.87551,-0.0661 -0.26128,-0.017 -0.42485,-0.36355 -0.47877,-1.01431 -0.0638,-0.77016 0.065,-1.13537 0.58329,-1.65365 0.42233,-0.42233 0.96246,-0.66518 1.47945,-0.66518 0.44785,0 1.22294,0.17075 1.7224,0.37944 0.61519,0.25704 0.96697,0.61386 1.09052,1.10615 0.11428,0.4553 0.0403,0.98058 -0.19799,1.40649 -0.31027,0.5545 -0.63071,0.70515 -1.73847,0.81736 -0.74694,0.0757 -1.30142,0.0459 -1.23218,-0.0662 z m 2.21563,-0.94773 c 0.41457,-0.33569 0.54083,-0.64098 0.42111,-1.01818 -0.094,-0.29631 -0.47196,-0.67587 -0.83982,-0.84348 -0.36785,-0.1676 -0.93438,-0.30473 -1.25895,-0.30473 -0.32458,0 -0.85476,0.18534 -1.17818,0.41188 -0.3316,0.23226 -0.58804,0.69049 -0.58804,1.05077 0,0.49348 0.19571,0.69539 0.8599,0.88717 0.47294,0.13656 1.11459,0.25903 1.42589,0.27215 0.3113,0.0131 0.83245,-0.19189 1.15809,-0.45558 z m -68.707772,0.83222 c 0.09701,-0.097 0.255764,-0.097 0.352778,0 0.09701,0.097 0.01764,0.17639 -0.176389,0.17639 -0.194028,0 -0.273403,-0.0794 -0.176389,-0.17639 z m 59.972222,0.0441 c 0,-0.0728 0.0595,-0.13229 0.1323,-0.13229 0.0728,0 0.13229,0.0595 0.13229,0.13229 0,0.0728 -0.0595,0.13229 -0.13229,0.13229 -0.0728,0 -0.1323,-0.0595 -0.1323,-0.13229 z"
       id="path1" /></g></svg>
