<?xml version="1.0" encoding="UTF-8" standalone="no"?>
<!-- Uploaded to: SVG Repo, www.svgrepo.com, Generator: SVG Repo Mixer Tools -->

<svg
   fill="#000000"
   version="1.1"
   id="Capa_1"
   width="800.00049"
   height="638.68433"
   viewBox="0 0 553.21634 441.66299"
   xml:space="preserve"
   sodipodi:docname="solar_panel.svg"
   inkscape:version="1.4 (e7c3feb100, 2024-10-09)"
   xmlns:inkscape="http://www.inkscape.org/namespaces/inkscape"
   xmlns:sodipodi="http://sodipodi.sourceforge.net/DTD/sodipodi-0.dtd"
   xmlns="http://www.w3.org/2000/svg"
   xmlns:svg="http://www.w3.org/2000/svg"><defs
   id="defs1" /><sodipodi:namedview
   id="namedview1"
   pagecolor="#ffffff"
   bordercolor="#000000"
   borderopacity="0.25"
   inkscape:showpageshadow="2"
   inkscape:pageopacity="0.0"
   inkscape:pagecheckerboard="0"
   inkscape:deskcolor="#d1d1d1"
   inkscape:zoom="1.2875"
   inkscape:cx="399.61165"
   inkscape:cy="318.83495"
   inkscape:window-width="3800"
   inkscape:window-height="2090"
   inkscape:window-x="0"
   inkscape:window-y="0"
   inkscape:window-maximized="0"
   inkscape:current-layer="Capa_1" />
<g
   id="g1"
   style="fill:#ffffff;fill-opacity:1"
   transform="translate(8.9877592e-4,-55.777)">
	<path
   d="m 539.291,423.518 -90,-210.151 c -1.064,-2.471 -3.5,-4.072 -6.198,-4.072 L 130.704,175.363 c -0.035,0 -0.062,0.004 -0.091,0.004 -0.497,0.009 -1.008,0.072 -1.5,0.196 -0.13,0.028 -0.264,0.091 -0.387,0.128 -0.359,0.112 -0.698,0.241 -1.048,0.411 -0.161,0.082 -0.311,0.178 -0.474,0.269 -0.138,0.086 -0.29,0.149 -0.434,0.245 l -11.546,8.247 c -2.613,1.869 -3.54,5.321 -2.235,8.249 l 35.01,83.623 -136.205,-14.789 c -0.019,0 -0.042,0 -0.056,0 -0.327,0.004 -0.656,0.046 -0.976,0.128 -0.077,0.019 -0.159,0.056 -0.238,0.082 -0.241,0.068 -0.46,0.156 -0.684,0.268 -0.1,0.047 -0.2,0.11 -0.301,0.166 -0.096,0.058 -0.191,0.1 -0.287,0.159 l -7.437,5.318 c -1.678,1.204 -2.28,3.428 -1.438,5.316 l 63.867,152.535 c 0.693,1.562 2.257,2.571 3.967,2.571 h 87.319 l 4.25,14.355 -31.925,21.282 c -1.127,0.756 -1.591,2.184 -1.099,3.449 0.434,1.134 1.515,1.861 2.705,1.861 0.124,0 0.273,0 0.406,-0.027 l 63.647,-9.092 47.425,-9.744 c 1.438,-0.299 2.413,-1.615 2.303,-3.071 -0.114,-1.452 -1.295,-2.6 -2.749,-2.67 l -44.664,-2.118 v -14.235 h 15.703 l 0.583,1.4 c 1.085,2.432 3.498,3.995 6.161,3.995 h 18.255 2.744 114.537 l 6.595,22.28 -49.56,33.043 c -1.745,1.167 -2.464,3.389 -1.708,5.349 0.672,1.764 2.361,2.894 4.2,2.894 0.215,0 0.43,-0.009 0.644,-0.042 l 98.793,-14.113 73.609,-15.131 c 2.222,-0.462 3.752,-2.496 3.575,-4.76 -0.168,-2.264 -1.998,-4.037 -4.271,-4.145 l -69.325,-3.291 v -22.084 h 117.13 c 0.037,0.005 0.075,0.005 0.094,0 3.733,0 6.748,-3.024 6.748,-6.754 0.01,-1.32 -0.373,-2.561 -1.045,-3.602 z m -32.166,-40.781 -55.127,-2.002 -10.025,-6.963 -9.987,-23.639 5.335,-6.772 54.109,2.726 z M 185.4,366.062 l -26.759,-1.345 -7.11,-4.946 -7.218,-17.077 3.484,-4.41 26.701,1.727 z m 14.204,-39.176 -18.3,-43.413 56.808,3.678 10.438,6.81 12.718,30.032 -5.334,5.731 z m 54.346,-31.708 5.258,-6.669 60.88,3.943 10.967,7.159 11.957,28.311 -5.493,5.908 -62.392,-3.146 -8.702,-6.044 z m 82.453,5.535 5.404,-6.86 55.674,3.612 10.16,6.632 11.729,27.745 -5.437,5.834 -55.282,-2.781 -11.047,-7.673 z m 58.082,-7.958 -55.842,-3.607 -10.1,-7.015 -11.583,-27.419 4.634,-5.873 57.625,4.506 9.655,6.296 11.374,26.938 z m -70.711,-10.351 -5.078,5.456 -62.048,-4.027 -10.639,-7.388 -11.924,-28.168 4.674,-5.916 64.247,5.026 8.242,5.376 z m -82.464,-5.53 -5.25,5.629 -56.709,-3.673 -17.933,-42.53 56.414,4.411 11.282,7.372 z m -68.068,60.149 -27.484,-1.773 -6.506,-4.522 -7.465,-17.665 2.978,-3.785 27.771,2.176 z m -37.065,-6.123 -3.27,3.515 -39.978,-2.591 -6.849,-4.76 -7.685,-18.15 3.011,-3.813 41.392,3.239 5.304,3.468 z m -41.594,3.939 39.208,2.538 7.068,4.611 7.708,18.234 -3.547,3.809 -40.186,-2.025 -5.612,-3.893 -8.027,-18.981 z m 12.924,30.21 39.488,1.983 6.151,4.018 7.498,17.727 -3.029,3.252 -40.188,-1.465 -6.322,-4.387 -7.078,-16.723 z m 49.209,6.987 3.412,-4.341 26.519,1.34 10.223,24.423 -27.23,-0.989 -6.07,-4.219 z m 44.832,-40.548 55.4,2.791 11.99,7.827 11.302,26.687 -5.132,5.512 -56.383,-2.059 z m 72.328,10.753 5.402,-6.842 61.283,3.09 9.554,6.235 11.64,27.512 -4.699,5.046 -62.385,-2.269 -9.811,-6.814 z m 81.779,4.005 5.307,-6.73 54.796,2.759 11.075,7.229 10.296,24.381 -5.676,6.1 -55.743,-2.025 -9.428,-6.544 z m 133.81,-4.766 -55.575,-2.805 -9.54,-6.627 -11.48,-27.177 4.816,-6.1 55.024,3.565 z m -18.747,-43.786 -54.731,-3.542 -10.837,-7.523 -10.827,-25.644 4.798,-6.083 55.122,4.314 z m -32.064,-74.898 13.596,31.75 -54.134,-4.237 -11.752,-8.163 -11.047,-26.122 z m -68.447,-7.317 11.486,27.188 -5.526,5.927 -54.334,-4.25 -13.105,-9.105 -11.653,-27.578 z m -78.262,-8.369 12.367,29.253 -5.74,6.16 -61.797,-4.837 -10.169,-7.064 -13.525,-31.944 z m -83.982,-8.984 13.509,31.89 -5.615,6.032 -56.404,-4.417 -17.079,-40.522 z m -55.965,88.147 9.278,22.174 -26.357,-2.067 -8.44,-5.867 -7.507,-17.763 z m -36.324,-3.878 7.967,18.841 -3.694,3.977 -39.815,-3.117 -6.548,-4.556 -8.718,-20.577 z m -96.361,-10.303 42.255,4.521 8.7,20.544 -3.615,3.884 -36.34,-2.838 z m 12.272,29.116 36.34,2.842 7.269,4.746 7.861,18.547 -3.388,3.627 -36.536,-2.361 z m 12.809,30.378 36.592,2.37 6.725,4.388 8.191,19.345 -3.435,3.696 -36.289,-1.829 z m 13.046,30.938 35.685,1.802 7.724,5.04 7.283,17.194 -3.302,3.547 -36.335,-1.316 z m 24.129,57.266 -11.829,-28.059 36.235,1.315 6.768,4.411 9.453,22.327 H 81.569 Z m 43.778,0 -9.066,-21.432 3.78,-4.798 38.107,1.387 7.021,4.582 8.573,20.261 z m 16.348,42.078 21.739,-14.496 19.212,8.652 z m 48.33,-8.872 -11.766,-5.312 11.766,0.565 z m 0,-10.553 -24.659,-1.166 -3.785,-12.788 h 28.443 v 13.954 z m 27.17,7.094 -21.366,4.396 v -5.404 z m -40.291,-29.747 -8.116,-19.201 4.035,-5.11 25.282,0.92 9.796,23.392 h -30.997 z m 62.102,0.592 -18.351,-43.554 56.255,2.049 10.494,6.847 14.678,34.662 h -63.076 z m 67.958,0 -14.085,-33.268 5.875,-7.443 59.155,2.146 10.897,7.117 13.302,31.451 h -75.145 v -0.003 z m 25.379,65.306 33.743,-22.49 29.805,13.418 z m 75.028,-13.768 -18.271,-8.232 18.271,0.863 z m 0,-16.381 -38.298,-1.811 -5.876,-19.849 h 44.164 v 21.659 h 0.01 z m 42.162,11.014 -33.159,6.818 v -8.387 z m -62.539,-46.171 -12.601,-29.809 6.263,-7.935 53.616,1.951 10.202,6.655 12.307,29.132 h -69.787 z m 74.674,0 -11.91,-28.194 5.395,-6.833 53.934,1.961 14.15,33.066 z M 479.17,85.923 c -26.463,0 -48.001,21.534 -48.001,48 0,26.472 21.538,48.001 48.001,48.001 26.462,0 47.996,-21.534 47.996,-48.001 0,-26.466 -21.534,-48 -47.996,-48 z m 0,87.003 c -21.511,0 -38.998,-17.497 -38.998,-39.003 0,-21.506 17.487,-39.002 38.998,-39.002 21.496,0 38.998,17.497 38.998,39.002 0,21.511 -17.502,39.003 -38.998,39.003 z m -74.039,-62.41 c -0.028,-0.296 0.01,-0.592 0.098,-0.889 0.379,-1.186 1.657,-1.832 2.833,-1.449 l 12.303,3.995 c 1.181,0.387 1.829,1.659 1.442,2.835 -0.304,0.955 -1.186,1.557 -2.133,1.557 0,0 0,0 -0.01,0 v 0 c -0.224,0 -0.467,-0.033 -0.695,-0.11 l -12.298,-3.995 c -0.887,-0.283 -1.466,-1.076 -1.54,-1.944 z m 27.723,-36.651 c -0.729,-1.003 -0.509,-2.415 0.499,-3.146 v 0 0 c 1.004,-0.73 2.423,-0.511 3.146,0.497 l 7.604,10.461 c 0.732,1.003 0.504,2.413 -0.495,3.146 -0.401,0.292 -0.868,0.429 -1.321,0.429 -0.695,0 -1.376,-0.32 -1.815,-0.926 v 0 l -0.009,-0.005 z m 81.58,10.749 c -0.998,-0.733 -1.223,-2.143 -0.494,-3.146 l 7.593,-10.461 c 0.733,-1.013 2.147,-1.228 3.15,-0.497 0.999,0.726 1.219,2.135 0.495,3.141 l -7.598,10.466 c -0.439,0.602 -1.121,0.926 -1.82,0.926 -0.467,0 -0.925,-0.14 -1.326,-0.429 z m 21.982,30.06 c -0.388,-1.186 0.262,-2.453 1.442,-2.835 l 12.288,-4 c 1.194,-0.388 2.459,0.268 2.847,1.442 0.378,1.186 -0.271,2.453 -1.456,2.835 l -12.293,4.004 c -0.229,0.077 -0.467,0.11 -0.7,0.11 -0.942,10e-4 -1.82,-0.606 -2.128,-1.556 z m 16.689,42.62 c -0.309,0.95 -1.195,1.557 -2.143,1.557 -0.229,0 -0.471,-0.033 -0.695,-0.11 l -12.303,-3.995 c -1.185,-0.383 -1.829,-1.654 -1.451,-2.833 0.388,-1.181 1.676,-1.832 2.843,-1.444 l 12.293,3.995 c 1.195,0.377 1.839,1.649 1.456,2.83 z m -27.633,35.766 c 0.724,0.999 0.509,2.413 -0.499,3.139 -0.393,0.292 -0.864,0.432 -1.316,0.432 -0.7,0 -1.382,-0.32 -1.82,-0.929 l -7.607,-10.457 c -0.729,-1.003 -0.504,-2.413 0.499,-3.139 0.999,-0.726 2.418,-0.516 3.142,0.497 z m -48.379,15.833 v -12.928 c 0,-1.246 1.003,-2.252 2.249,-2.252 0.304,0 0.607,0.063 0.883,0.178 0.812,0.345 1.372,1.143 1.372,2.074 v 12.928 c 0,1.242 -0.999,2.25 -2.255,2.25 -1.237,0 -2.249,-1.008 -2.249,-2.25 z m -44.342,-13.945 c -0.042,-0.282 -0.038,-0.579 0.037,-0.866 0.065,-0.287 0.182,-0.564 0.368,-0.812 l 7.594,-10.461 c 0.737,-1.008 2.143,-1.228 3.146,-0.497 0.495,0.361 0.808,0.898 0.896,1.472 0.093,0.567 -0.028,1.176 -0.401,1.671 l -7.599,10.463 c -0.438,0.607 -1.12,0.927 -1.819,0.927 -0.463,0 -0.915,-0.133 -1.326,-0.427 -0.5,-0.371 -0.812,-0.901 -0.896,-1.47 z m -10.828,-42.697 c 0.374,1.185 -0.271,2.452 -1.456,2.833 v 0 0.007 l -12.293,3.995 c -0.233,0.075 -0.467,0.11 -0.695,0.11 -0.947,0 -1.839,-0.602 -2.143,-1.554 -0.103,-0.301 -0.121,-0.597 -0.103,-0.894 0.075,-0.871 0.658,-1.664 1.55,-1.951 l 12.293,-3.995 c 1.195,-0.387 2.469,0.268 2.847,1.449 z m 54.81,-81.293 v -12.93 c 0,-1.244 1.003,-2.251 2.249,-2.251 v 0 0 c 1.251,0 2.25,1.003 2.25,2.251 v 12.939 c 0,1.244 -0.999,2.252 -2.25,2.252 -1.236,0 -2.249,-1.003 -2.249,-2.252 z"
   id="path1"
   style="fill:#ffffff;fill-opacity:1" />
</g>
</svg>
