<?xml version="1.0" encoding="UTF-8"?>
<svg xmlns="http://www.w3.org/2000/svg" xmlns:xlink="http://www.w3.org/1999/xlink" width="1280" height="720" viewBox="0 0 1280 720">
<defs>
<g>
<g id="glyph-0-0">
<path d="M 4.882812 -35.695312 L 14.992188 -35.695312 C 19.449219 -35.695312 22.804688 -35.027344 25.046875 -33.691406 C 27.292969 -32.355469 28.417969 -30.085938 28.417969 -26.878906 C 28.417969 -25.496094 28.152344 -24.253906 27.625 -23.15625 C 27.09375 -22.058594 26.328125 -21.152344 25.316406 -20.433594 C 24.308594 -19.71875 23.0625 -19.222656 21.582031 -18.945312 L 21.582031 -18.703125 C 23.144531 -18.457031 24.527344 -18.007812 25.734375 -17.359375 C 26.9375 -16.707031 27.882812 -15.796875 28.5625 -14.625 C 29.246094 -13.453125 29.589844 -11.960938 29.589844 -10.15625 C 29.589844 -7.960938 29.082031 -6.101562 28.0625 -4.589844 C 27.046875 -3.078125 25.609375 -1.933594 23.753906 -1.160156 C 21.898438 -0.386719 19.703125 0 17.164062 0 L 4.882812 0 Z M 9.03125 -20.386719 L 15.867188 -20.386719 C 18.976562 -20.386719 21.128906 -20.898438 22.328125 -21.921875 C 23.523438 -22.949219 24.121094 -24.445312 24.121094 -26.414062 C 24.121094 -28.449219 23.410156 -29.914062 21.984375 -30.8125 C 20.5625 -31.707031 18.292969 -32.152344 15.1875 -32.152344 L 9.03125 -32.152344 Z M 9.03125 -16.894531 L 9.03125 -3.539062 L 16.453125 -3.539062 C 19.628906 -3.539062 21.875 -4.164062 23.195312 -5.40625 C 24.511719 -6.652344 25.171875 -8.332031 25.171875 -10.449219 C 25.171875 -11.800781 24.875 -12.957031 24.28125 -13.914062 C 23.6875 -14.875 22.726562 -15.613281 21.398438 -16.125 C 20.070312 -16.636719 18.300781 -16.894531 16.089844 -16.894531 Z "/>
</g>
<g id="glyph-0-1">
<path d="M 8.324219 -37.988281 L 8.324219 -26.636719 C 8.324219 -25.984375 8.308594 -25.328125 8.277344 -24.671875 C 8.242188 -24.011719 8.1875 -23.40625 8.105469 -22.851562 L 8.375 -22.851562 C 8.929688 -23.796875 9.632812 -24.589844 10.484375 -25.230469 C 11.339844 -25.875 12.3125 -26.363281 13.402344 -26.695312 C 14.492188 -27.03125 15.648438 -27.195312 16.871094 -27.195312 C 19.019531 -27.195312 20.8125 -26.855469 22.253906 -26.171875 C 23.695312 -25.488281 24.777344 -24.429688 25.5 -23 C 26.226562 -21.566406 26.585938 -19.710938 26.585938 -17.429688 L 26.585938 0 L 22.582031 0 L 22.582031 -17.164062 C 22.582031 -19.394531 22.074219 -21.0625 21.058594 -22.167969 C 20.039062 -23.273438 18.480469 -23.828125 16.382812 -23.828125 C 14.398438 -23.828125 12.8125 -23.449219 11.632812 -22.691406 C 10.453125 -21.9375 9.605469 -20.824219 9.09375 -19.359375 C 8.582031 -17.894531 8.324219 -16.105469 8.324219 -13.988281 L 8.324219 0 L 4.273438 0 L 4.273438 -37.988281 Z "/>
</g>
</g>
</defs>
<g fill="rgb(100%, 100%, 100%)" fill-opacity="1">
<use xlink:href="#glyph-0-0" x="30" y="73.442383"/>
<use xlink:href="#glyph-0-1" x="62" y="73.442383"/>
</g>
</svg>
