<?xml version="1.0" encoding="UTF-8"?>
<svg xmlns="http://www.w3.org/2000/svg" xmlns:xlink="http://www.w3.org/1999/xlink" width="1280" height="720" viewBox="0 0 1280 720">
<defs>
<g>
<g id="glyph-0-0">
<path d="M 19.503906 0 L 15.109375 0 L 15.109375 -28.101562 C 15.109375 -29.167969 15.113281 -30.089844 15.125 -30.855469 C 15.132812 -31.625 15.148438 -32.332031 15.175781 -32.972656 C 15.203125 -33.613281 15.246094 -34.269531 15.300781 -34.9375 C 14.738281 -34.359375 14.214844 -33.867188 13.726562 -33.460938 C 13.238281 -33.054688 12.632812 -32.550781 11.910156 -31.957031 L 7.378906 -28.320312 L 5.019531 -31.386719 L 15.761719 -39.660156 L 19.503906 -39.660156 Z "/>
</g>
<g id="glyph-0-1">
<rect x="0" y="0" width="0" height="0" mask="url(#mask-0)"/>
</g>
<g id="glyph-0-2">
<path d="M 13.046875 13.347656 C 9.140625 13.347656 6.128906 12.617188 4.015625 11.164062 C 1.898438 9.707031 0.839844 7.667969 0.839844 5.046875 C 0.839844 3.183594 1.433594 1.589844 2.617188 0.269531 C 3.800781 -1.050781 5.445312 -1.925781 7.542969 -2.359375 C 6.765625 -2.722656 6.097656 -3.265625 5.546875 -3.988281 C 4.996094 -4.710938 4.71875 -5.542969 4.71875 -6.484375 C 4.71875 -7.570312 5.023438 -8.523438 5.628906 -9.34375 C 6.234375 -10.167969 7.160156 -10.960938 8.410156 -11.71875 C 6.855469 -12.351562 5.59375 -13.421875 4.625 -14.933594 C 3.65625 -16.445312 3.175781 -18.203125 3.175781 -20.210938 C 3.175781 -22.34375 3.617188 -24.164062 4.503906 -25.675781 C 5.390625 -27.1875 6.671875 -28.339844 8.355469 -29.132812 C 10.035156 -29.929688 12.070312 -30.328125 14.457031 -30.328125 C 14.984375 -30.328125 15.511719 -30.304688 16.046875 -30.261719 C 16.578125 -30.214844 17.089844 -30.152344 17.578125 -30.070312 C 18.066406 -29.988281 18.492188 -29.894531 18.851562 -29.785156 L 29.054688 -29.785156 L 29.054688 -26.882812 L 23.574219 -26.203125 C 24.117188 -25.5 24.566406 -24.648438 24.929688 -23.65625 C 25.292969 -22.660156 25.472656 -21.558594 25.472656 -20.34375 C 25.472656 -17.378906 24.46875 -15.023438 22.460938 -13.277344 C 20.453125 -11.53125 17.695312 -10.660156 14.1875 -10.660156 C 13.355469 -10.660156 12.503906 -10.734375 11.636719 -10.878906 C 10.75 -10.390625 10.078125 -9.847656 9.617188 -9.25 C 9.15625 -8.652344 8.925781 -7.964844 8.925781 -7.1875 C 8.925781 -6.609375 9.101562 -6.148438 9.453125 -5.804688 C 9.804688 -5.460938 10.316406 -5.210938 10.988281 -5.058594 C 11.65625 -4.90625 12.460938 -4.828125 13.402344 -4.828125 L 18.636719 -4.828125 C 21.875 -4.828125 24.355469 -4.152344 26.082031 -2.792969 C 27.808594 -1.4375 28.671875 0.542969 28.671875 3.148438 C 28.671875 6.4375 27.335938 8.960938 24.660156 10.714844 C 21.980469 12.46875 18.113281 13.347656 13.046875 13.347656 Z M 13.183594 9.820312 C 15.644531 9.820312 17.683594 9.570312 19.300781 9.074219 C 20.917969 8.578125 22.132812 7.863281 22.9375 6.929688 C 23.742188 6 24.144531 4.890625 24.144531 3.609375 C 24.144531 2.414062 23.871094 1.515625 23.328125 0.910156 C 22.785156 0.304688 21.992188 -0.105469 20.941406 -0.3125 C 19.894531 -0.519531 18.609375 -0.625 17.089844 -0.625 L 11.9375 -0.625 C 10.597656 -0.625 9.429688 -0.414062 8.4375 0 C 7.441406 0.414062 6.675781 1.03125 6.144531 1.84375 C 5.609375 2.65625 5.34375 3.671875 5.34375 4.882812 C 5.34375 6.492188 6.023438 7.71875 7.378906 8.558594 C 8.734375 9.398438 10.667969 9.820312 13.183594 9.820312 Z M 14.351562 -13.941406 C 16.503906 -13.941406 18.121094 -14.484375 19.207031 -15.570312 C 20.292969 -16.65625 20.832031 -18.238281 20.832031 -20.316406 C 20.832031 -22.542969 20.28125 -24.210938 19.179688 -25.324219 C 18.074219 -26.433594 16.449219 -26.992188 14.296875 -26.992188 C 12.234375 -26.992188 10.648438 -26.417969 9.535156 -25.269531 C 8.421875 -24.121094 7.867188 -22.441406 7.867188 -20.238281 C 7.867188 -18.210938 8.425781 -16.65625 9.546875 -15.570312 C 10.667969 -14.484375 12.269531 -13.941406 14.351562 -13.941406 Z "/>
</g>
</g>
<image id="source-41" x="0" y="0" width="0" height="0"/>
<mask id="mask-0">
<use xlink:href="#source-41"/>
</mask>
</defs>
<g fill="rgb(100%, 100%, 100%)" fill-opacity="1">
<use xlink:href="#glyph-0-0" x="30" y="79.380859"/>
<use xlink:href="#glyph-0-1" x="62" y="79.380859"/>
<use xlink:href="#glyph-0-2" x="76" y="79.380859"/>
</g>
</svg>
