<?xml version="1.0" encoding="UTF-8"?>
<svg xmlns="http://www.w3.org/2000/svg" xmlns:xlink="http://www.w3.org/1999/xlink" width="1280" height="720" viewBox="0 0 1280 720">
<defs>
<g>
<g id="glyph-0-0">
<path d="M 49.777344 -24.855469 C 49.777344 -20.785156 49.222656 -17.101562 48.117188 -13.800781 C 47.007812 -10.5 45.363281 -7.707031 43.183594 -5.425781 C 41 -3.140625 38.28125 -1.480469 35.027344 -0.441406 L 46.691406 11.800781 L 38.453125 11.800781 L 28.855469 0.609375 C 28.5625 0.609375 28.261719 0.621094 27.957031 0.644531 C 27.652344 0.667969 27.351562 0.679688 27.058594 0.679688 C 23.214844 0.679688 19.863281 0.0664062 17.003906 -1.152344 C 14.144531 -2.375 11.773438 -4.113281 9.882812 -6.375 C 7.996094 -8.636719 6.582031 -11.335938 5.644531 -14.480469 C 4.707031 -17.621094 4.238281 -21.101562 4.238281 -24.921875 C 4.238281 -29.984375 5.074219 -34.429688 6.746094 -38.25 C 8.421875 -42.070312 10.957031 -45.042969 14.359375 -47.167969 C 17.761719 -49.292969 22.027344 -50.355469 27.160156 -50.355469 C 32.066406 -50.355469 36.195312 -49.304688 39.554688 -47.199219 C 42.910156 -45.097656 45.453125 -42.140625 47.183594 -38.332031 C 48.914062 -34.523438 49.777344 -30.03125 49.777344 -24.855469 Z M 10.308594 -24.855469 C 10.308594 -20.652344 10.90625 -17.011719 12.105469 -13.9375 C 13.304688 -10.863281 15.140625 -8.488281 17.617188 -6.816406 C 20.089844 -5.144531 23.238281 -4.304688 27.058594 -4.304688 C 30.902344 -4.304688 34.050781 -5.144531 36.503906 -6.816406 C 38.957031 -8.488281 40.769531 -10.863281 41.945312 -13.9375 C 43.121094 -17.011719 43.707031 -20.648438 43.707031 -24.855469 C 43.707031 -31.253906 42.367188 -36.253906 39.691406 -39.859375 C 37.011719 -43.464844 32.835938 -45.269531 27.160156 -45.269531 C 23.316406 -45.269531 20.152344 -44.441406 17.667969 -42.792969 C 15.179688 -41.140625 13.332031 -38.796875 12.121094 -35.757812 C 10.914062 -32.714844 10.308594 -29.082031 10.308594 -24.855469 Z "/>
</g>
<g id="glyph-0-1">
<path d="M 28.585938 0 L 11.9375 -43.878906 L 11.664062 -43.878906 C 11.753906 -42.949219 11.835938 -41.820312 11.902344 -40.488281 C 11.96875 -39.152344 12.027344 -37.699219 12.070312 -36.128906 C 12.117188 -34.558594 12.140625 -32.957031 12.140625 -31.332031 L 12.140625 0 L 6.78125 0 L 6.78125 -49.574219 L 15.328125 -49.574219 L 31.027344 -8.339844 L 31.261719 -8.339844 L 47.199219 -49.574219 L 55.675781 -49.574219 L 55.675781 0 L 49.980469 0 L 49.980469 -31.738281 C 49.980469 -33.207031 50.003906 -34.683594 50.046875 -36.164062 C 50.09375 -37.644531 50.152344 -39.046875 50.21875 -40.367188 C 50.285156 -41.691406 50.355469 -42.835938 50.421875 -43.808594 L 50.152344 -43.808594 L 33.296875 0 Z "/>
</g>
<g id="glyph-0-2">
<rect x="0" y="0" width="0" height="0" mask="url(#mask-0)"/>
</g>
<g id="glyph-0-3">
<path d="M 11.5625 -37.164062 L 11.5625 0 L 5.933594 0 L 5.933594 -37.164062 Z M 8.816406 -51.066406 C 9.742188 -51.066406 10.539062 -50.765625 11.207031 -50.167969 C 11.875 -49.570312 12.207031 -48.636719 12.207031 -47.371094 C 12.207031 -46.128906 11.875 -45.199219 11.207031 -44.589844 C 10.539062 -43.980469 9.742188 -43.675781 8.816406 -43.675781 C 7.84375 -43.675781 7.035156 -43.980469 6.390625 -44.589844 C 5.746094 -45.199219 5.425781 -46.125 5.425781 -47.371094 C 5.425781 -48.636719 5.746094 -49.570312 6.390625 -50.167969 C 7.035156 -50.765625 7.84375 -51.066406 8.816406 -51.066406 Z "/>
</g>
<g id="glyph-0-4">
<path d="M 29.976562 -10.171875 C 29.976562 -7.796875 29.382812 -5.804688 28.195312 -4.1875 C 27.007812 -2.570312 25.3125 -1.355469 23.109375 -0.542969 C 20.90625 0.269531 18.277344 0.679688 15.226562 0.679688 C 12.625 0.679688 10.375 0.476562 8.476562 0.0664062 C 6.578125 -0.339844 4.917969 -0.914062 3.492188 -1.660156 L 3.492188 -6.847656 C 5.007812 -6.101562 6.816406 -5.425781 8.917969 -4.816406 C 11.019531 -4.207031 13.167969 -3.898438 15.359375 -3.898438 C 18.570312 -3.898438 20.898438 -4.417969 22.34375 -5.460938 C 23.792969 -6.5 24.515625 -7.910156 24.515625 -9.699219 C 24.515625 -10.714844 24.226562 -11.613281 23.652344 -12.394531 C 23.074219 -13.171875 22.109375 -13.929688 20.75 -14.664062 C 19.394531 -15.398438 17.519531 -16.207031 15.125 -17.089844 C 12.75 -17.992188 10.699219 -18.894531 8.96875 -19.785156 C 7.238281 -20.679688 5.90625 -21.769531 4.96875 -23.058594 C 4.03125 -24.347656 3.558594 -26.019531 3.558594 -28.074219 C 3.558594 -31.21875 4.832031 -33.632812 7.375 -35.316406 C 9.917969 -37 13.257812 -37.839844 17.394531 -37.839844 C 19.632812 -37.839844 21.730469 -37.621094 23.683594 -37.179688 C 25.640625 -36.738281 27.464844 -36.144531 29.160156 -35.398438 L 27.261719 -30.890625 C 25.726562 -31.546875 24.085938 -32.101562 22.34375 -32.550781 C 20.605469 -33.003906 18.832031 -33.230469 17.023438 -33.230469 C 14.421875 -33.230469 12.425781 -32.800781 11.039062 -31.941406 C 9.648438 -31.082031 8.953125 -29.90625 8.953125 -28.414062 C 8.953125 -27.261719 9.273438 -26.3125 9.917969 -25.566406 C 10.5625 -24.820312 11.597656 -24.121094 13.019531 -23.464844 C 14.445312 -22.808594 16.320312 -22.039062 18.648438 -21.160156 C 20.976562 -20.300781 22.988281 -19.414062 24.683594 -18.496094 C 26.378906 -17.582031 27.6875 -16.472656 28.601562 -15.175781 C 29.515625 -13.875 29.976562 -12.207031 29.976562 -10.171875 Z "/>
</g>
<g id="glyph-0-5">
<path d="M 20.242188 -37.839844 C 23.40625 -37.839844 26.121094 -37.140625 28.382812 -35.738281 C 30.640625 -34.335938 32.371094 -32.375 33.570312 -29.855469 C 34.769531 -27.335938 35.367188 -24.390625 35.367188 -21.023438 L 35.367188 -17.53125 L 9.699219 -17.53125 C 9.765625 -13.167969 10.851562 -9.84375 12.953125 -7.5625 C 15.054688 -5.277344 18.015625 -4.136719 21.835938 -4.136719 C 24.1875 -4.136719 26.269531 -4.351562 28.074219 -4.78125 C 29.882812 -5.210938 31.761719 -5.84375 33.703125 -6.679688 L 33.703125 -1.730469 C 31.828125 -0.894531 29.96875 -0.28125 28.128906 0.101562 C 26.285156 0.484375 24.109375 0.679688 21.601562 0.679688 C 18.027344 0.679688 14.914062 -0.0507812 12.257812 -1.507812 C 9.601562 -2.964844 7.539062 -5.109375 6.070312 -7.933594 C 4.601562 -10.761719 3.867188 -14.21875 3.867188 -18.308594 C 3.867188 -22.3125 4.539062 -25.777344 5.882812 -28.703125 C 7.226562 -31.628906 9.128906 -33.886719 11.578125 -35.46875 C 14.03125 -37.050781 16.921875 -37.839844 20.242188 -37.839844 Z M 20.175781 -33.230469 C 17.167969 -33.230469 14.773438 -32.246094 12.988281 -30.28125 C 11.203125 -28.3125 10.136719 -25.566406 9.800781 -22.039062 L 29.464844 -22.039062 C 29.441406 -24.253906 29.097656 -26.207031 28.433594 -27.890625 C 27.765625 -29.574219 26.753906 -30.886719 25.398438 -31.824219 C 24.042969 -32.761719 22.300781 -33.230469 20.175781 -33.230469 Z "/>
</g>
<g id="glyph-0-6">
<path d="M 14.785156 -19.023438 L 1.933594 -37.164062 L 8.375 -37.164062 L 18.175781 -22.855469 L 27.941406 -37.164062 L 34.316406 -37.164062 L 21.464844 -19.023438 L 35.027344 0 L 28.585938 0 L 18.175781 -15.15625 L 7.695312 0 L 1.324219 0 Z "/>
</g>
<g id="glyph-0-7">
<path d="M 23.398438 -37.839844 C 28.03125 -37.839844 31.726562 -36.246094 34.484375 -33.0625 C 37.242188 -29.875 38.621094 -25.082031 38.621094 -18.683594 C 38.621094 -14.457031 37.988281 -10.90625 36.722656 -8.035156 C 35.457031 -5.164062 33.675781 -2.996094 31.382812 -1.527344 C 29.089844 -0.0585938 26.378906 0.679688 23.261719 0.679688 C 21.292969 0.679688 19.566406 0.417969 18.074219 -0.101562 C 16.582031 -0.621094 15.304688 -1.324219 14.242188 -2.203125 C 13.179688 -3.085938 12.296875 -4.046875 11.597656 -5.085938 L 11.191406 -5.085938 C 11.257812 -4.203125 11.34375 -3.140625 11.445312 -1.898438 C 11.546875 -0.65625 11.597656 0.429688 11.597656 1.355469 L 11.597656 16.613281 L 5.933594 16.613281 L 5.933594 -37.164062 L 10.578125 -37.164062 L 11.324219 -31.671875 L 11.597656 -31.671875 C 12.320312 -32.800781 13.203125 -33.835938 14.242188 -34.773438 C 15.28125 -35.710938 16.554688 -36.457031 18.054688 -37.011719 C 19.558594 -37.566406 21.339844 -37.839844 23.398438 -37.839844 Z M 22.414062 -33.09375 C 19.835938 -33.09375 17.761719 -32.597656 16.191406 -31.601562 C 14.621094 -30.609375 13.472656 -29.121094 12.75 -27.144531 C 12.027344 -25.164062 11.640625 -22.683594 11.597656 -19.699219 L 11.597656 -18.617188 C 11.597656 -15.472656 11.941406 -12.816406 12.632812 -10.648438 C 13.320312 -8.476562 14.460938 -6.828125 16.054688 -5.695312 C 17.648438 -4.566406 19.792969 -4 22.480469 -4 C 24.785156 -4 26.707031 -4.621094 28.246094 -5.867188 C 29.78125 -7.109375 30.929688 -8.84375 31.6875 -11.070312 C 32.445312 -13.296875 32.824219 -15.859375 32.824219 -18.75 C 32.824219 -23.136719 31.96875 -26.625 30.261719 -29.210938 C 28.554688 -31.800781 25.941406 -33.09375 22.414062 -33.09375 Z "/>
</g>
<g id="glyph-0-8">
<path d="M 23.53125 -37.839844 C 27.941406 -37.839844 31.273438 -36.761719 33.535156 -34.601562 C 35.796875 -32.445312 36.925781 -28.980469 36.925781 -24.210938 L 36.925781 0 L 31.367188 0 L 31.367188 -23.835938 C 31.367188 -26.933594 30.660156 -29.25 29.246094 -30.789062 C 27.832031 -32.324219 25.667969 -33.09375 22.753906 -33.09375 C 18.640625 -33.09375 15.746094 -31.929688 14.070312 -29.601562 C 12.398438 -27.273438 11.5625 -23.894531 11.5625 -19.464844 L 11.5625 0 L 5.933594 0 L 5.933594 -37.164062 L 10.476562 -37.164062 L 11.324219 -31.804688 L 11.628906 -31.804688 C 12.421875 -33.117188 13.425781 -34.21875 14.648438 -35.113281 C 15.867188 -36.003906 17.238281 -36.683594 18.75 -37.148438 C 20.265625 -37.609375 21.859375 -37.839844 23.53125 -37.839844 Z "/>
</g>
<g id="glyph-0-9">
<path d="M 14.105469 0 L 0 -37.164062 L 6.035156 -37.164062 L 14.207031 -14.683594 C 14.773438 -13.144531 15.347656 -11.449219 15.9375 -9.597656 C 16.523438 -7.742188 16.929688 -6.25 17.15625 -5.121094 L 17.394531 -5.121094 C 17.667969 -6.25 18.117188 -7.75 18.75 -9.613281 C 19.382812 -11.476562 19.960938 -13.167969 20.480469 -14.683594 L 28.652344 -37.164062 L 34.6875 -37.164062 L 20.546875 0 Z "/>
</g>
</g>
<image id="source-14" x="0" y="0" width="0" height="0"/>
<mask id="mask-0">
<use xlink:href="#source-14"/>
</mask>
</defs>
<g fill="rgb(0%, 0%, 0%)" fill-opacity="1">
<use xlink:href="#glyph-0-0" x="30" y="94.225586"/>
<use xlink:href="#glyph-0-1" x="84" y="94.225586"/>
<use xlink:href="#glyph-0-2" x="146" y="94.225586"/>
<use xlink:href="#glyph-0-3" x="164" y="94.225586"/>
<use xlink:href="#glyph-0-4" x="182" y="94.225586"/>
<use xlink:href="#glyph-0-2" x="215" y="94.225586"/>
<use xlink:href="#glyph-0-5" x="233" y="94.225586"/>
<use xlink:href="#glyph-0-6" x="272" y="94.225586"/>
<use xlink:href="#glyph-0-7" x="308" y="94.225586"/>
<use xlink:href="#glyph-0-5" x="350" y="94.225586"/>
<use xlink:href="#glyph-0-8" x="389" y="94.225586"/>
<use xlink:href="#glyph-0-4" x="432" y="94.225586"/>
<use xlink:href="#glyph-0-3" x="465" y="94.225586"/>
<use xlink:href="#glyph-0-9" x="483" y="94.225586"/>
<use xlink:href="#glyph-0-5" x="518" y="94.225586"/>
</g>
</svg>
