<?xml version="1.0" encoding="UTF-8"?>
<svg xmlns="http://www.w3.org/2000/svg" xmlns:xlink="http://www.w3.org/1999/xlink" width="1280" height="720" viewBox="0 0 1280 720">
<defs>
<g>
<g id="glyph-0-0">
<path d="M 14.210938 -35.695312 C 18.816406 -35.695312 22.179688 -34.792969 24.304688 -32.996094 C 26.429688 -31.195312 27.492188 -28.621094 27.492188 -25.269531 C 27.492188 -23.753906 27.242188 -22.320312 26.746094 -20.960938 C 26.25 -19.601562 25.449219 -18.402344 24.339844 -17.371094 C 23.234375 -16.335938 21.78125 -15.523438 19.984375 -14.929688 C 18.183594 -14.335938 15.984375 -14.039062 13.378906 -14.039062 L 9.03125 -14.039062 L 9.03125 0 L 4.882812 0 L 4.882812 -35.695312 Z M 13.820312 -32.152344 L 9.03125 -32.152344 L 9.03125 -17.601562 L 12.914062 -17.601562 C 15.195312 -17.601562 17.09375 -17.847656 18.617188 -18.335938 C 20.136719 -18.824219 21.28125 -19.617188 22.046875 -20.714844 C 22.8125 -21.8125 23.195312 -23.273438 23.195312 -25.097656 C 23.195312 -27.472656 22.4375 -29.242188 20.921875 -30.40625 C 19.410156 -31.570312 17.039062 -32.152344 13.820312 -32.152344 Z "/>
</g>
<g id="glyph-0-1">
<path d="M 8.324219 -37.988281 L 8.324219 -28.492188 C 8.324219 -27.402344 8.296875 -26.34375 8.238281 -25.316406 C 8.183594 -24.292969 8.136719 -23.496094 8.105469 -22.925781 L 8.324219 -22.925781 C 9.058594 -24.128906 10.117188 -25.148438 11.5 -25.976562 C 12.882812 -26.804688 14.648438 -27.222656 16.796875 -27.222656 C 20.148438 -27.222656 22.824219 -26.0625 24.816406 -23.742188 C 26.8125 -21.421875 27.808594 -17.976562 27.808594 -13.402344 C 27.808594 -10.390625 27.351562 -7.851562 26.441406 -5.785156 C 25.53125 -3.71875 24.242188 -2.15625 22.582031 -1.097656 C 20.921875 -0.0390625 18.960938 0.488281 16.699219 0.488281 C 14.582031 0.488281 12.847656 0.09375 11.488281 -0.695312 C 10.128906 -1.484375 9.082031 -2.449219 8.351562 -3.589844 L 8.03125 -3.589844 L 7.203125 0 L 4.273438 0 L 4.273438 -37.988281 Z M 16.136719 -23.828125 C 14.199219 -23.828125 12.664062 -23.449219 11.523438 -22.691406 C 10.382812 -21.9375 9.566406 -20.796875 9.070312 -19.273438 C 8.574219 -17.753906 8.324219 -15.828125 8.324219 -13.5 L 8.324219 -13.28125 C 8.324219 -9.914062 8.886719 -7.335938 10.007812 -5.554688 C 11.132812 -3.773438 13.175781 -2.882812 16.136719 -2.882812 C 18.628906 -2.882812 20.496094 -3.792969 21.742188 -5.617188 C 22.984375 -7.4375 23.609375 -10.042969 23.609375 -13.429688 C 23.609375 -16.878906 22.992188 -19.472656 21.765625 -21.214844 C 20.535156 -22.957031 18.660156 -23.828125 16.136719 -23.828125 Z "/>
</g>
</g>
</defs>
<g fill="rgb(100%, 100%, 100%)" fill-opacity="1">
<use xlink:href="#glyph-0-0" x="30" y="73.442383"/>
<use xlink:href="#glyph-0-1" x="60" y="73.442383"/>
</g>
</svg>
