<?xml version="1.0" encoding="UTF-8"?>
<svg xmlns="http://www.w3.org/2000/svg" xmlns:xlink="http://www.w3.org/1999/xlink" width="1280" height="720" viewBox="0 0 1280 720">
<defs>
<g>
<g id="glyph-0-0">
<path d="M 0.519531 -0.621094 C 0.648438 -0.621094 0.816406 -0.546875 1.027344 -0.402344 C 1.234375 -0.257812 1.394531 -0.183594 1.507812 -0.183594 C 1.769531 -0.183594 1.996094 -0.296875 2.191406 -0.527344 C 2.386719 -0.757812 2.480469 -1.039062 2.480469 -1.375 C 2.480469 -1.960938 2.171875 -2.378906 1.546875 -2.636719 C 1.199219 -2.78125 0.878906 -2.851562 0.578125 -2.851562 C 0.53125 -2.851562 0.5 -2.851562 0.488281 -2.855469 C 0.476562 -2.859375 0.457031 -2.871094 0.441406 -2.890625 C 0.445312 -2.910156 0.449219 -2.925781 0.453125 -2.9375 C 0.457031 -2.949219 0.460938 -2.960938 0.464844 -2.972656 L 1.203125 -4.59375 L 2.660156 -4.59375 C 2.730469 -4.59375 2.785156 -4.605469 2.828125 -4.632812 C 2.867188 -4.65625 2.917969 -4.703125 2.980469 -4.769531 L 3.035156 -4.722656 L 2.769531 -4.097656 C 2.761719 -4.078125 2.738281 -4.0625 2.695312 -4.058594 C 2.65625 -4.050781 2.609375 -4.046875 2.5625 -4.046875 L 1.25 -4.046875 L 0.964844 -3.457031 C 1.335938 -3.390625 1.605469 -3.332031 1.777344 -3.277344 C 2.058594 -3.179688 2.296875 -3.039062 2.484375 -2.855469 C 2.648438 -2.695312 2.769531 -2.515625 2.855469 -2.3125 C 2.9375 -2.113281 2.980469 -1.902344 2.980469 -1.679688 C 2.980469 -1.179688 2.800781 -0.761719 2.445312 -0.425781 C 2.089844 -0.09375 1.640625 0.0742188 1.09375 0.0742188 C 0.875 0.0742188 0.695312 0.0546875 0.558594 0.0117188 C 0.332031 -0.0585938 0.21875 -0.183594 0.21875 -0.367188 C 0.21875 -0.433594 0.246094 -0.492188 0.292969 -0.542969 C 0.339844 -0.59375 0.417969 -0.621094 0.519531 -0.621094 Z "/>
</g>
</g>
</defs>
<g fill="rgb(100%, 100%, 100%)" fill-opacity="1">
<use xlink:href="#glyph-0-0" x="30" y="25.208008"/>
</g>
</svg>
