<?xml version="1.0" encoding="UTF-8"?>
<svg xmlns="http://www.w3.org/2000/svg" xmlns:xlink="http://www.w3.org/1999/xlink" width="1280" height="720" viewBox="0 0 1280 720">
<defs>
<g>
<g id="glyph-0-0">
<path d="M 24.292969 -45.410156 C 28.089844 -45.410156 31.34375 -44.570312 34.058594 -42.886719 C 36.769531 -41.207031 38.84375 -38.851562 40.28125 -35.828125 C 41.71875 -32.804688 42.441406 -29.269531 42.441406 -25.226562 L 42.441406 -21.035156 L 11.636719 -21.035156 C 11.71875 -15.800781 13.019531 -11.8125 15.542969 -9.074219 C 18.066406 -6.335938 21.621094 -4.964844 26.203125 -4.964844 C 29.023438 -4.964844 31.519531 -5.222656 33.691406 -5.738281 C 35.863281 -6.253906 38.113281 -7.011719 40.445312 -8.015625 L 40.445312 -2.074219 C 38.195312 -1.070312 35.964844 -0.339844 33.753906 0.121094 C 31.542969 0.582031 28.929688 0.8125 25.917969 0.8125 C 21.632812 0.8125 17.898438 -0.0625 14.710938 -1.8125 C 11.523438 -3.5625 9.046875 -6.128906 7.285156 -9.519531 C 5.519531 -12.910156 4.636719 -17.0625 4.636719 -21.972656 C 4.636719 -26.773438 5.445312 -30.929688 7.058594 -34.445312 C 8.671875 -37.957031 10.953125 -40.664062 13.894531 -42.5625 C 16.839844 -44.460938 20.304688 -45.410156 24.292969 -45.410156 Z M 24.210938 -39.875 C 20.601562 -39.875 17.726562 -38.695312 15.585938 -36.335938 C 13.441406 -33.976562 12.167969 -30.679688 11.757812 -26.449219 L 35.359375 -26.449219 C 35.332031 -29.105469 34.917969 -31.445312 34.117188 -33.46875 C 33.316406 -35.488281 32.105469 -37.0625 30.476562 -38.1875 C 28.847656 -39.3125 26.761719 -39.875 24.210938 -39.875 Z "/>
</g>
<g id="glyph-0-1">
<path d="M 16.925781 0 L 0 -44.597656 L 7.242188 -44.597656 L 17.050781 -17.617188 C 17.726562 -15.773438 18.417969 -13.738281 19.125 -11.515625 C 19.828125 -9.289062 20.316406 -7.5 20.589844 -6.144531 L 20.875 -6.144531 C 21.199219 -7.5 21.742188 -9.296875 22.5 -11.535156 C 23.261719 -13.773438 23.953125 -15.800781 24.578125 -17.617188 L 34.382812 -44.597656 L 41.625 -44.597656 L 24.65625 0 Z "/>
</g>
<g id="glyph-0-2">
<path d="M 23.804688 -45.328125 C 29.121094 -45.328125 33.066406 -44.136719 35.644531 -41.746094 C 38.222656 -39.359375 39.511719 -35.550781 39.511719 -30.3125 L 39.511719 0 L 34.585938 0 L 33.285156 -6.589844 L 32.957031 -6.589844 C 31.710938 -4.964844 30.410156 -3.601562 29.050781 -2.503906 C 27.695312 -1.402344 26.128906 -0.578125 24.351562 -0.0195312 C 22.574219 0.535156 20.398438 0.8125 17.820312 0.8125 C 15.109375 0.8125 12.703125 0.339844 10.601562 -0.609375 C 8.496094 -1.558594 6.84375 -2.996094 5.636719 -4.921875 C 4.429688 -6.847656 3.824219 -9.289062 3.824219 -12.246094 C 3.824219 -16.695312 5.589844 -20.113281 9.113281 -22.5 C 12.640625 -24.886719 18.011719 -26.191406 25.226562 -26.40625 L 32.917969 -26.734375 L 32.917969 -29.460938 C 32.917969 -33.3125 32.089844 -36.011719 30.4375 -37.558594 C 28.78125 -39.105469 26.449219 -39.875 23.4375 -39.875 C 21.105469 -39.875 18.878906 -39.535156 16.765625 -38.859375 C 14.648438 -38.179688 12.640625 -37.378906 10.742188 -36.457031 L 8.667969 -41.585938 C 10.675781 -42.617188 12.980469 -43.496094 15.585938 -44.230469 C 18.1875 -44.960938 20.929688 -45.328125 23.804688 -45.328125 Z M 32.835938 -21.972656 L 26.042969 -21.6875 C 20.480469 -21.46875 16.5625 -20.5625 14.28125 -18.960938 C 12.003906 -17.359375 10.863281 -15.097656 10.863281 -12.167969 C 10.863281 -9.617188 11.636719 -7.730469 13.183594 -6.511719 C 14.730469 -5.289062 16.777344 -4.679688 19.328125 -4.679688 C 23.289062 -4.679688 26.53125 -5.777344 29.050781 -7.976562 C 31.574219 -10.171875 32.835938 -13.46875 32.835938 -17.863281 Z "/>
</g>
<g id="glyph-0-3">
<path d="M 13.914062 0 L 7.121094 0 L 7.121094 -63.3125 L 13.914062 -63.3125 Z "/>
</g>
<g id="glyph-0-4">
<path d="M 43.945312 -44.597656 L 43.945312 0 L 38.410156 0 L 37.433594 -6.265625 L 37.070312 -6.265625 C 36.148438 -4.71875 34.953125 -3.417969 33.488281 -2.359375 C 32.023438 -1.300781 30.375 -0.507812 28.542969 0.0195312 C 26.710938 0.550781 24.765625 0.8125 22.703125 0.8125 C 19.179688 0.8125 16.222656 0.242188 13.835938 -0.894531 C 11.449219 -2.035156 9.648438 -3.796875 8.441406 -6.183594 C 7.234375 -8.570312 6.632812 -11.636719 6.632812 -15.378906 L 6.632812 -44.597656 L 13.46875 -44.597656 L 13.46875 -15.867188 C 13.46875 -12.152344 14.308594 -9.378906 15.992188 -7.546875 C 17.671875 -5.714844 20.238281 -4.800781 23.679688 -4.800781 C 26.992188 -4.800781 29.628906 -5.425781 31.597656 -6.671875 C 33.5625 -7.921875 34.980469 -9.757812 35.847656 -12.1875 C 36.714844 -14.613281 37.148438 -17.589844 37.148438 -21.117188 L 37.148438 -44.597656 Z "/>
</g>
<g id="glyph-0-5">
<path d="M 21.523438 -4.71875 C 22.636719 -4.71875 23.777344 -4.816406 24.941406 -5.003906 C 26.109375 -5.195312 27.058594 -5.425781 27.792969 -5.695312 L 27.792969 -0.449219 C 27.003906 -0.09375 25.914062 0.203125 24.515625 0.449219 C 23.117188 0.691406 21.753906 0.8125 20.425781 0.8125 C 18.066406 0.8125 15.921875 0.398438 13.996094 -0.425781 C 12.070312 -1.253906 10.53125 -2.660156 9.378906 -4.636719 C 8.226562 -6.617188 7.648438 -9.359375 7.648438 -12.859375 L 7.648438 -39.304688 L 1.300781 -39.304688 L 1.300781 -42.601562 L 7.691406 -45.246094 L 10.375 -54.929688 L 14.445312 -54.929688 L 14.445312 -44.597656 L 27.507812 -44.597656 L 27.507812 -39.304688 L 14.445312 -39.304688 L 14.445312 -13.0625 C 14.445312 -10.269531 15.089844 -8.179688 16.378906 -6.796875 C 17.667969 -5.414062 19.382812 -4.71875 21.523438 -4.71875 Z "/>
</g>
<g id="glyph-0-6">
<path d="M 13.875 -44.597656 L 13.875 0 L 7.121094 0 L 7.121094 -44.597656 Z M 10.578125 -61.277344 C 11.691406 -61.277344 12.648438 -60.917969 13.449219 -60.199219 C 14.25 -59.480469 14.648438 -58.363281 14.648438 -56.84375 C 14.648438 -55.351562 14.25 -54.238281 13.449219 -53.507812 C 12.648438 -52.773438 11.691406 -52.410156 10.578125 -52.410156 C 9.414062 -52.410156 8.441406 -52.773438 7.671875 -53.507812 C 6.898438 -54.238281 6.511719 -55.351562 6.511719 -56.84375 C 6.511719 -58.363281 6.898438 -59.480469 7.671875 -60.199219 C 8.445312 -60.917969 9.414062 -61.277344 10.578125 -61.277344 Z "/>
</g>
<g id="glyph-0-7">
<path d="M 45.574219 -22.378906 C 45.574219 -18.71875 45.097656 -15.449219 44.148438 -12.574219 C 43.199219 -9.699219 41.828125 -7.269531 40.039062 -5.289062 C 38.25 -3.308594 36.085938 -1.796875 33.550781 -0.753906 C 31.011719 0.292969 28.144531 0.8125 24.941406 0.8125 C 21.957031 0.8125 19.226562 0.292969 16.742188 -0.753906 C 14.261719 -1.796875 12.117188 -3.308594 10.316406 -5.289062 C 8.511719 -7.269531 7.113281 -9.699219 6.125 -12.574219 C 5.132812 -15.449219 4.636719 -18.71875 4.636719 -22.378906 C 4.636719 -27.261719 5.464844 -31.417969 7.121094 -34.851562 C 8.777344 -38.28125 11.140625 -40.898438 14.222656 -42.703125 C 17.300781 -44.507812 20.96875 -45.410156 25.226562 -45.410156 C 29.296875 -45.410156 32.855469 -44.5 35.910156 -42.683594 C 38.960938 -40.867188 41.335938 -38.242188 43.03125 -34.808594 C 44.726562 -31.378906 45.574219 -27.234375 45.574219 -22.378906 Z M 11.636719 -22.378906 C 11.636719 -18.796875 12.113281 -15.691406 13.0625 -13.0625 C 14.011719 -10.429688 15.476562 -8.394531 17.457031 -6.957031 C 19.4375 -5.519531 21.984375 -4.800781 25.105469 -4.800781 C 28.199219 -4.800781 30.742188 -5.519531 32.734375 -6.957031 C 34.730469 -8.394531 36.199219 -10.429688 37.148438 -13.0625 C 38.097656 -15.691406 38.574219 -18.796875 38.574219 -22.378906 C 38.574219 -25.933594 38.097656 -29.003906 37.148438 -31.597656 C 36.199219 -34.1875 34.734375 -36.1875 32.753906 -37.597656 C 30.773438 -39.007812 28.210938 -39.714844 25.066406 -39.714844 C 20.425781 -39.714844 17.027344 -38.179688 14.871094 -35.117188 C 12.714844 -32.050781 11.636719 -27.804688 11.636719 -22.378906 Z "/>
</g>
<g id="glyph-0-8">
<path d="M 28.238281 -45.410156 C 33.527344 -45.410156 37.53125 -44.113281 40.242188 -41.523438 C 42.953125 -38.933594 44.3125 -34.777344 44.3125 -29.050781 L 44.3125 0 L 37.636719 0 L 37.636719 -28.605469 C 37.636719 -32.320312 36.789062 -35.101562 35.09375 -36.945312 C 33.398438 -38.789062 30.800781 -39.714844 27.304688 -39.714844 C 22.367188 -39.714844 18.894531 -38.316406 16.886719 -35.523438 C 14.878906 -32.730469 13.875 -28.671875 13.875 -23.355469 L 13.875 0 L 7.121094 0 L 7.121094 -44.597656 L 12.574219 -44.597656 L 13.589844 -38.167969 L 13.957031 -38.167969 C 14.90625 -39.742188 16.113281 -41.0625 17.578125 -42.132812 C 19.042969 -43.207031 20.683594 -44.019531 22.5 -44.574219 C 24.320312 -45.132812 26.230469 -45.410156 28.238281 -45.410156 Z "/>
</g>
<g id="glyph-0-9">
<rect x="0" y="0" width="0" height="0" mask="url(#mask-0)"/>
</g>
<g id="glyph-0-10">
<path d="M 55.542969 -45.410156 C 60.453125 -45.410156 64.15625 -44.128906 66.648438 -41.566406 C 69.144531 -39 70.394531 -34.886719 70.394531 -29.214844 L 70.394531 0 L 63.71875 0 L 63.71875 -28.890625 C 63.71875 -32.496094 62.941406 -35.203125 61.378906 -37.007812 C 59.820312 -38.8125 57.507812 -39.714844 54.441406 -39.714844 C 50.128906 -39.714844 46.996094 -38.464844 45.042969 -35.96875 C 43.089844 -33.472656 42.113281 -29.796875 42.113281 -24.941406 L 42.113281 0 L 35.398438 0 L 35.398438 -28.890625 C 35.398438 -31.304688 35.054688 -33.3125 34.363281 -34.910156 C 33.671875 -36.511719 32.640625 -37.710938 31.269531 -38.511719 C 29.898438 -39.3125 28.171875 -39.714844 26.082031 -39.714844 C 23.125 -39.714844 20.75 -39.101562 18.960938 -37.882812 C 17.171875 -36.660156 15.875 -34.851562 15.074219 -32.449219 C 14.273438 -30.050781 13.875 -27.097656 13.875 -23.601562 L 13.875 0 L 7.121094 0 L 7.121094 -44.597656 L 12.574219 -44.597656 L 13.589844 -38.289062 L 13.957031 -38.289062 C 14.851562 -39.835938 15.976562 -41.136719 17.332031 -42.195312 C 18.691406 -43.253906 20.210938 -44.054688 21.890625 -44.597656 C 23.574219 -45.140625 25.363281 -45.410156 27.261719 -45.410156 C 30.652344 -45.410156 33.496094 -44.777344 35.785156 -43.519531 C 38.078125 -42.257812 39.742188 -40.335938 40.769531 -37.761719 L 41.136719 -37.761719 C 42.601562 -40.335938 44.609375 -42.257812 47.160156 -43.519531 C 49.710938 -44.78125 52.503906 -45.410156 55.542969 -45.410156 Z "/>
</g>
</g>
<image id="source-41" x="0" y="0" width="0" height="0"/>
<mask id="mask-0">
<use xlink:href="#source-41"/>
</mask>
</defs>
<g fill="rgb(100%, 100%, 100%)" fill-opacity="1">
<use xlink:href="#glyph-0-0" x="30" y="109.070312"/>
<use xlink:href="#glyph-0-1" x="77" y="109.070312"/>
<use xlink:href="#glyph-0-2" x="119" y="109.070312"/>
<use xlink:href="#glyph-0-3" x="165" y="109.070312"/>
<use xlink:href="#glyph-0-4" x="186" y="109.070312"/>
<use xlink:href="#glyph-0-2" x="237" y="109.070312"/>
<use xlink:href="#glyph-0-5" x="283" y="109.070312"/>
<use xlink:href="#glyph-0-6" x="313" y="109.070312"/>
<use xlink:href="#glyph-0-7" x="334" y="109.070312"/>
<use xlink:href="#glyph-0-8" x="384" y="109.070312"/>
<use xlink:href="#glyph-0-9" x="435" y="109.070312"/>
<use xlink:href="#glyph-0-5" x="457" y="109.070312"/>
<use xlink:href="#glyph-0-6" x="487" y="109.070312"/>
<use xlink:href="#glyph-0-10" x="508" y="109.070312"/>
<use xlink:href="#glyph-0-0" x="585" y="109.070312"/>
</g>
</svg>
