<?xml version="1.0" encoding="UTF-8"?>
<svg xmlns="http://www.w3.org/2000/svg" xmlns:xlink="http://www.w3.org/1999/xlink" width="1280" height="720" viewBox="0 0 1280 720">
<defs>
<g>
<g id="glyph-0-0">
<path d="M 35.839844 -17.894531 C 35.839844 -15.144531 35.488281 -12.640625 34.789062 -10.386719 C 34.089844 -8.132812 33.050781 -6.195312 31.675781 -4.578125 C 30.300781 -2.957031 28.597656 -1.710938 26.5625 -0.828125 C 24.527344 0.0507812 22.167969 0.488281 19.484375 0.488281 C 16.714844 0.488281 14.300781 0.046875 12.242188 -0.828125 C 10.183594 -1.707031 8.476562 -2.960938 7.117188 -4.589844 C 5.757812 -6.21875 4.742188 -8.164062 4.066406 -10.425781 C 3.390625 -12.6875 3.050781 -15.195312 3.050781 -17.945312 C 3.050781 -21.589844 3.652344 -24.789062 4.859375 -27.539062 C 6.0625 -30.289062 7.890625 -32.429688 10.339844 -33.960938 C 12.789062 -35.492188 15.859375 -36.253906 19.554688 -36.253906 C 23.085938 -36.253906 26.0625 -35.5 28.480469 -33.984375 C 30.898438 -32.46875 32.726562 -30.34375 33.972656 -27.601562 C 35.21875 -24.859375 35.839844 -21.621094 35.839844 -17.894531 Z M 7.421875 -17.894531 C 7.421875 -14.867188 7.851562 -12.246094 8.714844 -10.035156 C 9.578125 -7.820312 10.902344 -6.113281 12.683594 -4.90625 C 14.464844 -3.703125 16.730469 -3.101562 19.484375 -3.101562 C 22.25 -3.101562 24.515625 -3.703125 26.28125 -4.90625 C 28.046875 -6.109375 29.355469 -7.820312 30.199219 -10.035156 C 31.046875 -12.25 31.46875 -14.867188 31.46875 -17.894531 C 31.46875 -22.5 30.503906 -26.101562 28.578125 -28.699219 C 26.648438 -31.296875 23.640625 -32.59375 19.554688 -32.59375 C 16.789062 -32.59375 14.511719 -32 12.71875 -30.8125 C 10.929688 -29.625 9.597656 -27.933594 8.726562 -25.746094 C 7.855469 -23.554688 7.421875 -20.9375 7.421875 -17.894531 Z "/>
</g>
</g>
</defs>
<g fill="rgb(100%, 100%, 100%)" fill-opacity="1">
<use xlink:href="#glyph-0-0" x="30" y="73.442383"/>
</g>
</svg>
