<?xml version="1.0" encoding="UTF-8"?>
<svg xmlns="http://www.w3.org/2000/svg" xmlns:xlink="http://www.w3.org/1999/xlink" width="1280" height="720" viewBox="0 0 1280 720">
<defs>
<g>
<g id="glyph-0-0">
<path d="M 24.984375 0.8125 C 20.480469 0.8125 16.640625 -0.0078125 13.46875 -1.648438 C 10.292969 -3.289062 7.878906 -5.832031 6.226562 -9.277344 C 4.570312 -12.722656 3.742188 -17.128906 3.742188 -22.5 C 3.742188 -28.0625 4.6875 -32.597656 6.570312 -36.113281 C 8.457031 -39.625 11.074219 -42.210938 14.425781 -43.863281 C 17.773438 -45.519531 21.660156 -46.347656 26.082031 -46.347656 C 29.230469 -46.347656 31.949219 -46.039062 34.242188 -45.429688 C 36.535156 -44.820312 38.535156 -44.09375 40.242188 -43.253906 L 36.582031 -33.652344 C 34.628906 -34.4375 32.808594 -35.082031 31.128906 -35.582031 C 29.445312 -36.085938 27.765625 -36.335938 26.082031 -36.335938 C 23.910156 -36.335938 22.109375 -35.828125 20.671875 -34.808594 C 19.234375 -33.792969 18.160156 -32.265625 17.457031 -30.234375 C 16.75 -28.199219 16.398438 -25.648438 16.398438 -22.582031 C 16.398438 -19.570312 16.777344 -17.078125 17.539062 -15.097656 C 18.296875 -13.117188 19.394531 -11.644531 20.832031 -10.679688 C 22.269531 -9.71875 24.019531 -9.238281 26.082031 -9.238281 C 28.660156 -9.238281 30.953125 -9.582031 32.957031 -10.273438 C 34.964844 -10.964844 36.917969 -11.9375 38.816406 -13.183594 L 38.816406 -2.5625 C 36.917969 -1.371094 34.933594 -0.507812 32.855469 0.0195312 C 30.78125 0.550781 28.15625 0.8125 24.984375 0.8125 Z "/>
</g>
<g id="glyph-0-1">
<path d="M 47.851562 -22.828125 C 47.851562 -19.03125 47.34375 -15.664062 46.324219 -12.734375 C 45.308594 -9.804688 43.828125 -7.332031 41.890625 -5.308594 C 39.949219 -3.289062 37.617188 -1.761719 34.890625 -0.730469 C 32.164062 0.300781 29.09375 0.8125 25.675781 0.8125 C 22.472656 0.8125 19.539062 0.296875 16.867188 -0.730469 C 14.195312 -1.761719 11.875 -3.289062 9.90625 -5.308594 C 7.941406 -7.332031 6.421875 -9.804688 5.351562 -12.734375 C 4.28125 -15.664062 3.742188 -19.03125 3.742188 -22.828125 C 3.742188 -27.871094 4.636719 -32.144531 6.429688 -35.644531 C 8.21875 -39.144531 10.769531 -41.800781 14.078125 -43.621094 C 17.386719 -45.4375 21.335938 -46.347656 25.917969 -46.347656 C 30.179688 -46.347656 33.957031 -45.4375 37.25 -43.621094 C 40.546875 -41.800781 43.136719 -39.144531 45.023438 -35.644531 C 46.910156 -32.144531 47.851562 -27.871094 47.851562 -22.828125 Z M 16.398438 -22.828125 C 16.398438 -19.84375 16.722656 -17.332031 17.375 -15.300781 C 18.027344 -13.265625 19.042969 -11.730469 20.425781 -10.703125 C 21.808594 -9.671875 23.613281 -9.15625 25.839844 -9.15625 C 28.035156 -9.15625 29.820312 -9.671875 31.1875 -10.703125 C 32.558594 -11.734375 33.5625 -13.265625 34.199219 -15.300781 C 34.835938 -17.335938 35.15625 -19.84375 35.15625 -22.828125 C 35.15625 -25.839844 34.835938 -28.339844 34.199219 -30.335938 C 33.5625 -32.328125 32.550781 -33.828125 31.167969 -34.832031 C 29.785156 -35.835938 27.980469 -36.335938 25.757812 -36.335938 C 22.476562 -36.335938 20.09375 -35.210938 18.617188 -32.957031 C 17.136719 -30.707031 16.398438 -27.332031 16.398438 -22.828125 Z "/>
</g>
<g id="glyph-0-2">
<path d="M 59.9375 -46.347656 C 65.089844 -46.347656 68.988281 -45.023438 71.632812 -42.378906 C 74.277344 -39.734375 75.601562 -35.496094 75.601562 -29.664062 L 75.601562 0 L 63.152344 0 L 63.152344 -26.570312 C 63.152344 -29.824219 62.59375 -32.28125 61.484375 -33.933594 C 60.371094 -35.589844 58.648438 -36.417969 56.316406 -36.417969 C 53.03125 -36.417969 50.699219 -35.246094 49.316406 -32.898438 C 47.933594 -30.550781 47.242188 -27.195312 47.242188 -22.828125 L 47.242188 0 L 34.832031 0 L 34.832031 -26.570312 C 34.832031 -28.742188 34.585938 -30.558594 34.097656 -32.023438 C 33.609375 -33.488281 32.863281 -34.585938 31.859375 -35.320312 C 30.855469 -36.050781 29.566406 -36.417969 27.996094 -36.417969 C 25.6875 -36.417969 23.878906 -35.839844 22.5625 -34.6875 C 21.246094 -33.535156 20.3125 -31.839844 19.753906 -29.601562 C 19.199219 -27.363281 18.921875 -24.632812 18.921875 -21.402344 L 18.921875 0 L 6.511719 0 L 6.511719 -45.492188 L 15.992188 -45.492188 L 17.660156 -39.671875 L 18.351562 -39.671875 C 19.273438 -41.246094 20.433594 -42.519531 21.832031 -43.496094 C 23.226562 -44.472656 24.765625 -45.191406 26.449219 -45.652344 C 28.128906 -46.113281 29.839844 -46.347656 31.574219 -46.347656 C 34.910156 -46.347656 37.738281 -45.804688 40.058594 -44.71875 C 42.378906 -43.632812 44.164062 -41.953125 45.410156 -39.671875 L 46.507812 -39.671875 C 47.863281 -42.003906 49.785156 -43.699219 52.265625 -44.757812 C 54.75 -45.816406 57.304688 -46.347656 59.9375 -46.347656 Z "/>
</g>
<g id="glyph-0-3">
<path d="M 31.820312 -46.347656 C 36.945312 -46.347656 41.089844 -44.351562 44.25 -40.363281 C 47.410156 -36.375 48.992188 -30.53125 48.992188 -22.828125 C 48.992188 -17.671875 48.246094 -13.339844 46.753906 -9.828125 C 45.261719 -6.3125 43.199219 -3.660156 40.566406 -1.871094 C 37.9375 -0.0820312 34.910156 0.8125 31.492188 0.8125 C 29.296875 0.8125 27.410156 0.535156 25.839844 -0.0195312 C 24.265625 -0.574219 22.921875 -1.296875 21.808594 -2.175781 C 20.695312 -3.058594 19.734375 -4 18.921875 -5.003906 L 18.269531 -5.003906 C 18.488281 -3.917969 18.648438 -2.808594 18.757812 -1.667969 C 18.867188 -0.527344 18.921875 0.582031 18.921875 1.667969 L 18.921875 20.019531 L 6.511719 20.019531 L 6.511719 -45.492188 L 16.601562 -45.492188 L 18.351562 -39.589844 L 18.921875 -39.589844 C 19.734375 -40.8125 20.726562 -41.9375 21.890625 -42.96875 C 23.058594 -44 24.460938 -44.820312 26.101562 -45.429688 C 27.742188 -46.039062 29.648438 -46.347656 31.820312 -46.347656 Z M 27.832031 -36.417969 C 25.660156 -36.417969 23.9375 -35.96875 22.664062 -35.074219 C 21.390625 -34.179688 20.460938 -32.835938 19.878906 -31.046875 C 19.292969 -29.257812 18.976562 -26.992188 18.921875 -24.25 L 18.921875 -22.910156 C 18.921875 -19.980469 19.199219 -17.496094 19.753906 -15.460938 C 20.3125 -13.425781 21.246094 -11.882812 22.5625 -10.824219 C 23.878906 -9.765625 25.6875 -9.238281 27.996094 -9.238281 C 29.894531 -9.238281 31.453125 -9.765625 32.675781 -10.824219 C 33.894531 -11.882812 34.808594 -13.433594 35.421875 -15.484375 C 36.03125 -17.53125 36.335938 -20.03125 36.335938 -22.988281 C 36.335938 -27.4375 35.644531 -30.789062 34.261719 -33.039062 C 32.878906 -35.292969 30.734375 -36.417969 27.832031 -36.417969 Z "/>
</g>
<g id="glyph-0-4">
<path d="M 48.257812 -45.492188 L 48.257812 0 L 38.738281 0 L 37.070312 -5.820312 L 36.417969 -5.820312 C 35.441406 -4.273438 34.21875 -3.011719 32.753906 -2.035156 C 31.289062 -1.058594 29.675781 -0.339844 27.914062 0.121094 C 26.148438 0.582031 24.320312 0.8125 22.421875 0.8125 C 19.164062 0.8125 16.332031 0.238281 13.914062 -0.914062 C 11.5 -2.066406 9.625 -3.867188 8.28125 -6.308594 C 6.9375 -8.75 6.265625 -11.921875 6.265625 -15.828125 L 6.265625 -45.492188 L 18.675781 -45.492188 L 18.675781 -18.921875 C 18.675781 -15.664062 19.261719 -13.210938 20.425781 -11.554688 C 21.59375 -9.902344 23.449219 -9.074219 26 -9.074219 C 28.523438 -9.074219 30.503906 -9.648438 31.941406 -10.804688 C 33.378906 -11.957031 34.390625 -13.652344 34.972656 -15.890625 C 35.554688 -18.128906 35.847656 -20.859375 35.847656 -24.089844 L 35.847656 -45.492188 Z "/>
</g>
<g id="glyph-0-5">
<path d="M 25.675781 -9.074219 C 27.03125 -9.074219 28.355469 -9.210938 29.644531 -9.480469 C 30.933594 -9.75 32.210938 -10.089844 33.488281 -10.496094 L 33.488281 -1.261719 C 32.160156 -0.664062 30.511719 -0.167969 28.542969 0.222656 C 26.578125 0.617188 24.425781 0.8125 22.09375 0.8125 C 19.382812 0.8125 16.949219 0.371094 14.789062 -0.507812 C 12.632812 -1.390625 10.9375 -2.921875 9.703125 -5.105469 C 8.46875 -7.289062 7.851562 -10.335938 7.851562 -14.242188 L 7.851562 -36.171875 L 1.914062 -36.171875 L 1.914062 -41.421875 L 8.75 -45.574219 L 12.328125 -55.175781 L 20.261719 -55.175781 L 20.261719 -45.492188 L 33 -45.492188 L 33 -36.171875 L 20.261719 -36.171875 L 20.261719 -14.242188 C 20.261719 -12.503906 20.757812 -11.210938 21.75 -10.355469 C 22.738281 -9.5 24.046875 -9.074219 25.675781 -9.074219 Z "/>
</g>
<g id="glyph-0-6">
<path d="M 25.144531 -46.425781 C 31.25 -46.425781 35.929688 -45.097656 39.183594 -42.441406 C 42.4375 -39.78125 44.066406 -35.738281 44.066406 -30.3125 L 44.066406 0 L 35.398438 0 L 33 -6.183594 L 32.675781 -6.183594 C 31.371094 -4.558594 30.042969 -3.226562 28.6875 -2.195312 C 27.332031 -1.164062 25.769531 -0.40625 24.007812 0.0820312 C 22.242188 0.570312 20.101562 0.8125 17.578125 0.8125 C 14.890625 0.8125 12.484375 0.296875 10.355469 -0.730469 C 8.226562 -1.761719 6.550781 -3.34375 5.332031 -5.472656 C 4.109375 -7.601562 3.5 -10.308594 3.5 -13.589844 C 3.5 -18.417969 5.195312 -21.980469 8.585938 -24.273438 C 11.976562 -26.5625 17.0625 -27.832031 23.84375 -28.074219 L 31.738281 -28.320312 L 31.738281 -30.3125 C 31.738281 -32.699219 31.113281 -34.449219 29.867188 -35.5625 C 28.617188 -36.675781 26.882812 -37.230469 24.65625 -37.230469 C 22.460938 -37.230469 20.304688 -36.917969 18.1875 -36.296875 C 16.070312 -35.671875 13.957031 -34.886719 11.839844 -33.933594 L 7.730469 -42.316406 C 10.144531 -43.59375 12.851562 -44.597656 15.847656 -45.328125 C 18.847656 -46.0625 21.945312 -46.425781 25.144531 -46.425781 Z M 31.738281 -21.078125 L 26.9375 -20.914062 C 22.921875 -20.804688 20.132812 -20.085938 18.574219 -18.757812 C 17.015625 -17.429688 16.234375 -15.679688 16.234375 -13.507812 C 16.234375 -11.609375 16.792969 -10.261719 17.902344 -9.460938 C 19.015625 -8.660156 20.46875 -8.261719 22.257812 -8.261719 C 24.914062 -8.261719 27.160156 -9.046875 28.992188 -10.621094 C 30.824219 -12.195312 31.738281 -14.429688 31.738281 -17.332031 Z "/>
</g>
<g id="glyph-0-7">
<path d="M 18.921875 -45.492188 L 18.921875 0 L 6.511719 0 L 6.511719 -45.492188 Z M 12.734375 -63.3125 C 14.578125 -63.3125 16.167969 -62.886719 17.496094 -62.03125 C 18.824219 -61.175781 19.492188 -59.582031 19.492188 -57.25 C 19.492188 -54.945312 18.824219 -53.351562 17.496094 -52.46875 C 16.167969 -51.585938 14.582031 -51.148438 12.734375 -51.148438 C 10.863281 -51.148438 9.269531 -51.589844 7.953125 -52.46875 C 6.636719 -53.351562 5.980469 -54.945312 5.980469 -57.25 C 5.980469 -59.582031 6.640625 -61.175781 7.953125 -62.03125 C 9.269531 -62.886719 10.863281 -63.3125 12.734375 -63.3125 Z "/>
</g>
<g id="glyph-0-8">
<path d="M 32.347656 -46.347656 C 37.203125 -46.347656 41.109375 -45.023438 44.066406 -42.378906 C 47.023438 -39.734375 48.503906 -35.496094 48.503906 -29.664062 L 48.503906 0 L 36.09375 0 L 36.09375 -26.570312 C 36.09375 -29.824219 35.503906 -32.28125 34.320312 -33.933594 C 33.140625 -35.589844 31.289062 -36.417969 28.769531 -36.417969 C 24.96875 -36.417969 22.378906 -35.128906 20.996094 -32.550781 C 19.613281 -29.972656 18.921875 -26.257812 18.921875 -21.402344 L 18.921875 0 L 6.511719 0 L 6.511719 -45.492188 L 15.992188 -45.492188 L 17.660156 -39.671875 L 18.351562 -39.671875 C 19.328125 -41.246094 20.542969 -42.519531 21.992188 -43.496094 C 23.445312 -44.472656 25.058594 -45.191406 26.835938 -45.652344 C 28.613281 -46.113281 30.449219 -46.347656 32.347656 -46.347656 Z "/>
</g>
<g id="glyph-0-9">
<path d="M 18.921875 0 L 6.511719 0 L 6.511719 -63.3125 L 18.921875 -63.3125 Z "/>
</g>
<g id="glyph-0-10">
<rect x="0" y="0" width="0" height="0" mask="url(#mask-0)"/>
</g>
<g id="glyph-0-11">
<path d="M 38.25 -13.507812 C 38.25 -10.417969 37.523438 -7.804688 36.070312 -5.675781 C 34.621094 -3.546875 32.457031 -1.933594 29.582031 -0.835938 C 26.707031 0.265625 23.125 0.8125 18.839844 0.8125 C 15.664062 0.8125 12.945312 0.609375 10.679688 0.203125 C 8.414062 -0.203125 6.128906 -0.882812 3.824219 -1.832031 L 3.824219 -12.085938 C 6.292969 -10.972656 8.945312 -10.058594 11.78125 -9.339844 C 14.613281 -8.621094 17.101562 -8.261719 19.246094 -8.261719 C 21.660156 -8.261719 23.390625 -8.621094 24.433594 -9.339844 C 25.476562 -10.058594 26 -11 26 -12.167969 C 26 -12.925781 25.789062 -13.609375 25.371094 -14.222656 C 24.949219 -14.832031 24.046875 -15.523438 22.664062 -16.296875 C 21.28125 -17.070312 19.109375 -18.078125 16.152344 -19.328125 C 13.304688 -20.519531 10.964844 -21.726562 9.136719 -22.949219 C 7.304688 -24.167969 5.949219 -25.613281 5.066406 -27.28125 C 4.183594 -28.949219 3.742188 -31.074219 3.742188 -33.652344 C 3.742188 -37.855469 5.378906 -41.023438 8.648438 -43.152344 C 11.914062 -45.28125 16.289062 -46.347656 21.769531 -46.347656 C 24.589844 -46.347656 27.28125 -46.0625 29.847656 -45.492188 C 32.410156 -44.921875 35.046875 -44.011719 37.761719 -42.765625 L 34.015625 -33.8125 C 31.765625 -34.789062 29.644531 -35.589844 27.648438 -36.214844 C 25.65625 -36.839844 23.628906 -37.148438 21.566406 -37.148438 C 19.75 -37.148438 18.378906 -36.90625 17.457031 -36.417969 C 16.535156 -35.929688 16.074219 -35.183594 16.074219 -34.179688 C 16.074219 -33.445312 16.308594 -32.796875 16.785156 -32.226562 C 17.257812 -31.65625 18.179688 -31.027344 19.550781 -30.335938 C 20.921875 -29.644531 22.9375 -28.753906 25.59375 -27.667969 C 28.171875 -26.609375 30.410156 -25.503906 32.308594 -24.351562 C 34.207031 -23.199219 35.671875 -21.777344 36.703125 -20.082031 C 37.734375 -18.386719 38.25 -16.195312 38.25 -13.507812 Z "/>
</g>
<g id="glyph-0-12">
<path d="M 11.230469 -19.734375 L 11.230469 -22.746094 C 11.230469 -24.589844 11.488281 -26.226562 12.003906 -27.648438 C 12.519531 -29.074219 13.347656 -30.429688 14.484375 -31.71875 C 15.625 -33.007812 17.128906 -34.328125 19.003906 -35.683594 C 20.683594 -36.878906 22.035156 -37.949219 23.050781 -38.898438 C 24.066406 -39.847656 24.8125 -40.792969 25.289062 -41.726562 C 25.761719 -42.664062 26 -43.726562 26 -44.921875 C 26 -46.683594 25.351562 -48.027344 24.046875 -48.949219 C 22.746094 -49.871094 20.929688 -50.332031 18.59375 -50.332031 C 16.261719 -50.332031 13.949219 -49.96875 11.65625 -49.234375 C 9.363281 -48.503906 7.039062 -47.539062 4.679688 -46.347656 L 0.242188 -55.257812 C 2.957031 -56.777344 5.898438 -58.003906 9.074219 -58.9375 C 12.246094 -59.875 15.71875 -60.34375 19.492188 -60.34375 C 25.296875 -60.34375 29.792969 -58.953125 32.980469 -56.171875 C 36.167969 -53.390625 37.761719 -49.859375 37.761719 -45.574219 C 37.761719 -43.292969 37.402344 -41.320312 36.683594 -39.652344 C 35.964844 -37.984375 34.878906 -36.4375 33.425781 -35.015625 C 31.976562 -33.589844 30.164062 -32.089844 27.996094 -30.515625 C 26.367188 -29.324219 25.121094 -28.320312 24.25 -27.507812 C 23.382812 -26.691406 22.792969 -25.886719 22.480469 -25.085938 C 22.167969 -24.285156 22.011719 -23.316406 22.011719 -22.175781 L 22.011719 -19.734375 Z M 9.929688 -5.820312 C 9.929688 -8.367188 10.625 -10.160156 12.023438 -11.191406 C 13.421875 -12.222656 15.109375 -12.734375 17.089844 -12.734375 C 19.015625 -12.734375 20.675781 -12.21875 22.074219 -11.191406 C 23.472656 -10.160156 24.167969 -8.367188 24.167969 -5.820312 C 24.167969 -3.378906 23.472656 -1.613281 22.074219 -0.527344 C 20.675781 0.554688 19.015625 1.097656 17.089844 1.097656 C 15.109375 1.097656 13.421875 0.554688 12.023438 -0.527344 C 10.625 -1.613281 9.929688 -3.378906 9.929688 -5.820312 Z "/>
</g>
</g>
<image id="source-45" x="0" y="0" width="0" height="0"/>
<mask id="mask-0">
<use xlink:href="#source-45"/>
</mask>
</defs>
<g fill="rgb(100%, 100%, 100%)" fill-opacity="1">
<use xlink:href="#glyph-0-0" x="30" y="109.070312"/>
<use xlink:href="#glyph-0-1" x="70" y="109.070312"/>
<use xlink:href="#glyph-0-2" x="120" y="109.070312"/>
<use xlink:href="#glyph-0-3" x="197" y="109.070312"/>
<use xlink:href="#glyph-0-4" x="248" y="109.070312"/>
<use xlink:href="#glyph-0-5" x="299" y="109.070312"/>
<use xlink:href="#glyph-0-6" x="329" y="109.070312"/>
<use xlink:href="#glyph-0-5" x="375" y="109.070312"/>
<use xlink:href="#glyph-0-7" x="405" y="109.070312"/>
<use xlink:href="#glyph-0-1" x="426" y="109.070312"/>
<use xlink:href="#glyph-0-8" x="476" y="109.070312"/>
<use xlink:href="#glyph-0-6" x="527" y="109.070312"/>
<use xlink:href="#glyph-0-9" x="573" y="109.070312"/>
<use xlink:href="#glyph-0-10" x="594" y="109.070312"/>
<use xlink:href="#glyph-0-0" x="616" y="109.070312"/>
<use xlink:href="#glyph-0-1" x="656" y="109.070312"/>
<use xlink:href="#glyph-0-11" x="706" y="109.070312"/>
<use xlink:href="#glyph-0-5" x="746" y="109.070312"/>
<use xlink:href="#glyph-0-12" x="776" y="109.070312"/>
</g>
</svg>
