<?xml version="1.0" encoding="UTF-8"?>
<svg xmlns="http://www.w3.org/2000/svg" xmlns:xlink="http://www.w3.org/1999/xlink" width="1280" height="720" viewBox="0 0 1280 720">
<defs>
<g>
<g id="glyph-0-0">
<path d="M 16.308594 16.683594 C 11.425781 16.683594 7.664062 15.773438 5.019531 13.953125 C 2.375 12.132812 1.050781 9.585938 1.050781 6.308594 C 1.050781 3.980469 1.792969 1.988281 3.273438 0.339844 C 4.753906 -1.3125 6.804688 -2.40625 9.425781 -2.949219 C 8.453125 -3.402344 7.625 -4.082031 6.933594 -4.984375 C 6.246094 -5.890625 5.898438 -6.929688 5.898438 -8.105469 C 5.898438 -9.460938 6.277344 -10.652344 7.035156 -11.679688 C 7.792969 -12.710938 8.953125 -13.699219 10.511719 -14.648438 C 8.566406 -15.441406 6.992188 -16.777344 5.78125 -18.667969 C 4.570312 -20.554688 3.96875 -22.753906 3.96875 -25.261719 C 3.96875 -27.929688 4.519531 -30.207031 5.628906 -32.09375 C 6.738281 -33.980469 8.339844 -35.421875 10.445312 -36.417969 C 12.546875 -37.414062 15.089844 -37.910156 18.074219 -37.910156 C 18.730469 -37.910156 19.390625 -37.882812 20.058594 -37.824219 C 20.722656 -37.769531 21.363281 -37.6875 21.972656 -37.585938 C 22.582031 -37.484375 23.113281 -37.367188 23.566406 -37.230469 L 36.316406 -37.230469 L 36.316406 -33.601562 L 29.464844 -32.753906 C 30.144531 -31.875 30.710938 -30.8125 31.160156 -29.566406 C 31.613281 -28.324219 31.839844 -26.945312 31.839844 -25.429688 C 31.839844 -21.722656 30.585938 -18.78125 28.074219 -16.597656 C 25.566406 -14.417969 22.121094 -13.324219 17.734375 -13.324219 C 16.695312 -13.324219 15.632812 -13.417969 14.546875 -13.597656 C 13.4375 -12.988281 12.597656 -12.308594 12.019531 -11.5625 C 11.445312 -10.816406 11.15625 -9.957031 11.15625 -8.984375 C 11.15625 -8.261719 11.375 -7.6875 11.816406 -7.257812 C 12.257812 -6.828125 12.894531 -6.515625 13.734375 -6.324219 C 14.570312 -6.132812 15.574219 -6.035156 16.75 -6.035156 L 23.296875 -6.035156 C 27.34375 -6.035156 30.445312 -5.1875 32.601562 -3.492188 C 34.761719 -1.796875 35.839844 0.679688 35.839844 3.933594 C 35.839844 8.046875 34.167969 11.199219 30.824219 13.394531 C 27.476562 15.585938 22.640625 16.683594 16.308594 16.683594 Z M 16.480469 12.273438 C 19.554688 12.273438 22.101562 11.964844 24.125 11.34375 C 26.148438 10.722656 27.664062 9.828125 28.667969 8.664062 C 29.675781 7.5 30.179688 6.113281 30.179688 4.511719 C 30.179688 3.019531 29.839844 1.894531 29.160156 1.136719 C 28.484375 0.378906 27.488281 -0.128906 26.175781 -0.390625 C 24.867188 -0.648438 23.261719 -0.78125 21.363281 -0.78125 L 14.917969 -0.78125 C 13.246094 -0.78125 11.789062 -0.519531 10.546875 0 C 9.300781 0.519531 8.347656 1.289062 7.679688 2.304688 C 7.011719 3.324219 6.679688 4.589844 6.679688 6.101562 C 6.679688 8.113281 7.527344 9.648438 9.222656 10.699219 C 10.917969 11.75 13.335938 12.273438 16.480469 12.273438 Z M 17.9375 -17.429688 C 20.628906 -17.429688 22.652344 -18.105469 24.007812 -19.464844 C 25.363281 -20.820312 26.042969 -22.796875 26.042969 -25.398438 C 26.042969 -28.179688 25.351562 -30.261719 23.972656 -31.652344 C 22.59375 -33.042969 20.558594 -33.738281 17.871094 -33.738281 C 15.292969 -33.738281 13.308594 -33.019531 11.917969 -31.585938 C 10.527344 -30.148438 9.832031 -28.054688 9.832031 -25.296875 C 9.832031 -22.765625 10.535156 -20.820312 11.9375 -19.464844 C 13.335938 -18.109375 15.335938 -17.429688 17.9375 -17.429688 Z "/>
</g>
<g id="glyph-0-1">
<path d="M 20.242188 -37.839844 C 23.40625 -37.839844 26.121094 -37.140625 28.382812 -35.738281 C 30.640625 -34.335938 32.371094 -32.375 33.570312 -29.855469 C 34.769531 -27.335938 35.367188 -24.390625 35.367188 -21.023438 L 35.367188 -17.53125 L 9.699219 -17.53125 C 9.765625 -13.167969 10.851562 -9.84375 12.953125 -7.5625 C 15.054688 -5.277344 18.015625 -4.136719 21.835938 -4.136719 C 24.1875 -4.136719 26.269531 -4.351562 28.074219 -4.78125 C 29.882812 -5.210938 31.761719 -5.84375 33.703125 -6.679688 L 33.703125 -1.730469 C 31.828125 -0.894531 29.96875 -0.28125 28.128906 0.101562 C 26.285156 0.484375 24.109375 0.679688 21.601562 0.679688 C 18.027344 0.679688 14.914062 -0.0507812 12.257812 -1.507812 C 9.601562 -2.964844 7.539062 -5.109375 6.070312 -7.933594 C 4.601562 -10.761719 3.867188 -14.21875 3.867188 -18.308594 C 3.867188 -22.3125 4.539062 -25.777344 5.882812 -28.703125 C 7.226562 -31.628906 9.128906 -33.886719 11.578125 -35.46875 C 14.03125 -37.050781 16.921875 -37.839844 20.242188 -37.839844 Z M 20.175781 -33.230469 C 17.167969 -33.230469 14.773438 -32.246094 12.988281 -30.28125 C 11.203125 -28.3125 10.136719 -25.566406 9.800781 -22.039062 L 29.464844 -22.039062 C 29.441406 -24.253906 29.097656 -26.207031 28.433594 -27.890625 C 27.765625 -29.574219 26.753906 -30.886719 25.398438 -31.824219 C 24.042969 -32.761719 22.300781 -33.230469 20.175781 -33.230469 Z "/>
</g>
<g id="glyph-0-2">
<path d="M 37.976562 -18.648438 C 37.976562 -15.597656 37.582031 -12.875 36.789062 -10.476562 C 36 -8.082031 34.859375 -6.058594 33.367188 -4.40625 C 31.875 -2.757812 30.070312 -1.496094 27.957031 -0.628906 C 25.84375 0.242188 23.453125 0.679688 20.785156 0.679688 C 18.300781 0.679688 16.023438 0.242188 13.953125 -0.628906 C 11.886719 -1.5 10.097656 -2.757812 8.597656 -4.40625 C 7.09375 -6.058594 5.929688 -8.082031 5.101562 -10.476562 C 4.277344 -12.875 3.867188 -15.597656 3.867188 -18.648438 C 3.867188 -22.71875 4.554688 -26.183594 5.933594 -29.042969 C 7.3125 -31.902344 9.285156 -34.082031 11.851562 -35.585938 C 14.417969 -37.089844 17.472656 -37.839844 21.023438 -37.839844 C 24.414062 -37.839844 27.382812 -37.085938 29.925781 -35.570312 C 32.46875 -34.054688 34.445312 -31.867188 35.859375 -29.007812 C 37.269531 -26.148438 37.976562 -22.695312 37.976562 -18.648438 Z M 9.699219 -18.648438 C 9.699219 -15.664062 10.09375 -13.078125 10.882812 -10.882812 C 11.675781 -8.691406 12.894531 -6.996094 14.546875 -5.796875 C 16.195312 -4.601562 18.320312 -4 20.921875 -4 C 23.5 -4 25.617188 -4.601562 27.277344 -5.796875 C 28.941406 -6.996094 30.167969 -8.691406 30.957031 -10.882812 C 31.75 -13.078125 32.144531 -15.664062 32.144531 -18.648438 C 32.144531 -21.609375 31.75 -24.171875 30.957031 -26.328125 C 30.167969 -28.488281 28.945312 -30.15625 27.296875 -31.332031 C 25.644531 -32.507812 23.511719 -33.09375 20.886719 -33.09375 C 17.023438 -33.09375 14.191406 -31.816406 12.394531 -29.261719 C 10.597656 -26.707031 9.699219 -23.171875 9.699219 -18.648438 Z "/>
</g>
<g id="glyph-0-3">
<path d="M 46.285156 -37.839844 C 50.375 -37.839844 53.460938 -36.773438 55.542969 -34.636719 C 57.621094 -32.5 58.660156 -29.070312 58.660156 -24.347656 L 58.660156 0 L 53.101562 0 L 53.101562 -24.074219 C 53.101562 -27.082031 52.449219 -29.335938 51.152344 -30.839844 C 49.851562 -32.34375 47.921875 -33.09375 45.371094 -33.09375 C 41.777344 -33.09375 39.164062 -32.054688 37.535156 -29.976562 C 35.910156 -27.894531 35.09375 -24.832031 35.09375 -20.785156 L 35.09375 0 L 29.5 0 L 29.5 -24.074219 C 29.5 -26.085938 29.210938 -27.757812 28.636719 -29.09375 C 28.058594 -30.425781 27.199219 -31.425781 26.058594 -32.09375 C 24.917969 -32.761719 23.476562 -33.09375 21.734375 -33.09375 C 19.269531 -33.09375 17.292969 -32.585938 15.800781 -31.570312 C 14.308594 -30.550781 13.230469 -29.042969 12.5625 -27.042969 C 11.894531 -25.042969 11.5625 -22.582031 11.5625 -19.667969 L 11.5625 0 L 5.933594 0 L 5.933594 -37.164062 L 10.476562 -37.164062 L 11.324219 -31.90625 L 11.628906 -31.90625 C 12.375 -33.195312 13.316406 -34.28125 14.445312 -35.164062 C 15.574219 -36.046875 16.839844 -36.710938 18.242188 -37.164062 C 19.644531 -37.617188 21.136719 -37.839844 22.71875 -37.839844 C 25.542969 -37.839844 27.914062 -37.316406 29.824219 -36.265625 C 31.734375 -35.214844 33.117188 -33.613281 33.976562 -31.46875 L 34.28125 -31.46875 C 35.503906 -33.613281 37.175781 -35.214844 39.300781 -36.265625 C 41.425781 -37.316406 43.753906 -37.839844 46.285156 -37.839844 Z "/>
</g>
<g id="glyph-0-4">
<path d="M 17.9375 -3.933594 C 18.863281 -3.933594 19.8125 -4.011719 20.785156 -4.171875 C 21.757812 -4.328125 22.550781 -4.519531 23.160156 -4.746094 L 23.160156 -0.371094 C 22.503906 -0.078125 21.59375 0.167969 20.429688 0.371094 C 19.265625 0.574219 18.128906 0.679688 17.023438 0.679688 C 15.054688 0.679688 13.269531 0.332031 11.664062 -0.355469 C 10.058594 -1.046875 8.777344 -2.214844 7.816406 -3.867188 C 6.855469 -5.515625 6.375 -7.800781 6.375 -10.714844 L 6.375 -32.753906 L 1.085938 -32.753906 L 1.085938 -35.503906 L 6.410156 -37.707031 L 8.648438 -45.777344 L 12.039062 -45.777344 L 12.039062 -37.164062 L 22.921875 -37.164062 L 22.921875 -32.753906 L 12.039062 -32.753906 L 12.039062 -10.882812 C 12.039062 -8.554688 12.574219 -6.816406 13.648438 -5.664062 C 14.722656 -4.511719 16.152344 -3.933594 17.9375 -3.933594 Z "/>
</g>
<g id="glyph-0-5">
<path d="M 22.820312 -37.839844 C 23.566406 -37.839844 24.347656 -37.800781 25.160156 -37.722656 C 25.972656 -37.644531 26.695312 -37.535156 27.332031 -37.402344 L 26.617188 -32.179688 C 26.007812 -32.335938 25.328125 -32.460938 24.582031 -32.550781 C 23.835938 -32.640625 23.136719 -32.6875 22.480469 -32.6875 C 20.988281 -32.6875 19.582031 -32.386719 18.257812 -31.789062 C 16.9375 -31.191406 15.777344 -30.332031 14.785156 -29.210938 C 13.789062 -28.09375 13.007812 -26.75 12.445312 -25.175781 C 11.878906 -23.605469 11.597656 -21.859375 11.597656 -19.9375 L 11.597656 0 L 5.933594 0 L 5.933594 -37.164062 L 10.613281 -37.164062 L 11.222656 -30.3125 L 11.460938 -30.3125 C 12.230469 -31.691406 13.15625 -32.953125 14.242188 -34.09375 C 15.328125 -35.234375 16.585938 -36.144531 18.023438 -36.824219 C 19.457031 -37.503906 21.058594 -37.839844 22.820312 -37.839844 Z "/>
</g>
<g id="glyph-0-6">
<path d="M 11.5625 -37.164062 L 11.5625 0 L 5.933594 0 L 5.933594 -37.164062 Z M 8.816406 -51.066406 C 9.742188 -51.066406 10.539062 -50.765625 11.207031 -50.167969 C 11.875 -49.570312 12.207031 -48.636719 12.207031 -47.371094 C 12.207031 -46.128906 11.875 -45.199219 11.207031 -44.589844 C 10.539062 -43.980469 9.742188 -43.675781 8.816406 -43.675781 C 7.84375 -43.675781 7.035156 -43.980469 6.390625 -44.589844 C 5.746094 -45.199219 5.425781 -46.125 5.425781 -47.371094 C 5.425781 -48.636719 5.746094 -49.570312 6.390625 -50.167969 C 7.035156 -50.765625 7.84375 -51.066406 8.816406 -51.066406 Z "/>
</g>
<g id="glyph-0-7">
<path d="M 20.820312 0.679688 C 17.472656 0.679688 14.523438 -0.0117188 11.96875 -1.390625 C 9.414062 -2.769531 7.425781 -4.871094 6 -7.695312 C 4.578125 -10.523438 3.867188 -14.082031 3.867188 -18.378906 C 3.867188 -22.878906 4.617188 -26.554688 6.121094 -29.414062 C 7.625 -32.273438 9.699219 -34.394531 12.34375 -35.773438 C 14.988281 -37.152344 17.992188 -37.839844 21.363281 -37.839844 C 23.214844 -37.839844 25.007812 -37.65625 26.738281 -37.28125 C 28.464844 -36.910156 29.882812 -36.441406 30.992188 -35.875 L 29.296875 -31.160156 C 28.167969 -31.613281 26.859375 -32.019531 25.378906 -32.382812 C 23.898438 -32.746094 22.515625 -32.925781 21.226562 -32.925781 C 18.648438 -32.925781 16.507812 -32.371094 14.800781 -31.261719 C 13.09375 -30.15625 11.816406 -28.527344 10.96875 -26.378906 C 10.121094 -24.234375 9.699219 -21.589844 9.699219 -18.445312 C 9.699219 -15.4375 10.109375 -12.875 10.933594 -10.75 C 11.761719 -8.625 12.992188 -7.003906 14.632812 -5.882812 C 16.269531 -4.765625 18.320312 -4.203125 20.785156 -4.203125 C 22.753906 -4.203125 24.527344 -4.414062 26.109375 -4.832031 C 27.691406 -5.25 29.128906 -5.742188 30.414062 -6.308594 L 30.414062 -1.289062 C 29.171875 -0.65625 27.789062 -0.167969 26.261719 0.167969 C 24.734375 0.507812 22.921875 0.679688 20.820312 0.679688 Z "/>
</g>
<g id="glyph-0-8">
<rect x="0" y="0" width="0" height="0" mask="url(#mask-0)"/>
</g>
<g id="glyph-0-9">
<path d="M 19.835938 -37.773438 C 24.265625 -37.773438 27.554688 -36.777344 29.703125 -34.789062 C 31.851562 -32.800781 32.925781 -29.625 32.925781 -25.261719 L 32.925781 0 L 28.820312 0 L 27.738281 -5.492188 L 27.464844 -5.492188 C 26.425781 -4.136719 25.339844 -3 24.210938 -2.085938 C 23.082031 -1.171875 21.773438 -0.480469 20.292969 -0.015625 C 18.8125 0.445312 17 0.679688 14.851562 0.679688 C 12.589844 0.679688 10.585938 0.28125 8.832031 -0.507812 C 7.082031 -1.300781 5.703125 -2.496094 4.695312 -4.101562 C 3.691406 -5.707031 3.1875 -7.742188 3.1875 -10.207031 C 3.1875 -13.914062 4.65625 -16.761719 7.59375 -18.75 C 10.535156 -20.738281 15.011719 -21.824219 21.023438 -22.007812 L 27.433594 -22.277344 L 27.433594 -24.550781 C 27.433594 -27.761719 26.742188 -30.007812 25.363281 -31.296875 C 23.984375 -32.585938 22.039062 -33.230469 19.53125 -33.230469 C 17.585938 -33.230469 15.734375 -32.949219 13.96875 -32.382812 C 12.207031 -31.816406 10.535156 -31.152344 8.953125 -30.382812 L 7.222656 -34.65625 C 8.894531 -35.515625 10.816406 -36.246094 12.988281 -36.859375 C 15.15625 -37.46875 17.441406 -37.773438 19.835938 -37.773438 Z M 27.363281 -18.308594 L 21.703125 -18.074219 C 17.066406 -17.894531 13.800781 -17.136719 11.902344 -15.800781 C 10.003906 -14.46875 9.054688 -12.578125 9.054688 -10.136719 C 9.054688 -8.011719 9.699219 -6.441406 10.984375 -5.425781 C 12.273438 -4.410156 13.980469 -3.898438 16.105469 -3.898438 C 19.40625 -3.898438 22.109375 -4.816406 24.210938 -6.644531 C 26.3125 -8.476562 27.363281 -11.222656 27.363281 -14.886719 Z "/>
</g>
<g id="glyph-0-10">
<path d="M 23.398438 -37.839844 C 28.03125 -37.839844 31.726562 -36.246094 34.484375 -33.0625 C 37.242188 -29.875 38.621094 -25.082031 38.621094 -18.683594 C 38.621094 -14.457031 37.988281 -10.90625 36.722656 -8.035156 C 35.457031 -5.164062 33.675781 -2.996094 31.382812 -1.527344 C 29.089844 -0.0585938 26.378906 0.679688 23.261719 0.679688 C 21.292969 0.679688 19.566406 0.417969 18.074219 -0.101562 C 16.582031 -0.621094 15.304688 -1.324219 14.242188 -2.203125 C 13.179688 -3.085938 12.296875 -4.046875 11.597656 -5.085938 L 11.191406 -5.085938 C 11.257812 -4.203125 11.34375 -3.140625 11.445312 -1.898438 C 11.546875 -0.65625 11.597656 0.429688 11.597656 1.355469 L 11.597656 16.613281 L 5.933594 16.613281 L 5.933594 -37.164062 L 10.578125 -37.164062 L 11.324219 -31.671875 L 11.597656 -31.671875 C 12.320312 -32.800781 13.203125 -33.835938 14.242188 -34.773438 C 15.28125 -35.710938 16.554688 -36.457031 18.054688 -37.011719 C 19.558594 -37.566406 21.339844 -37.839844 23.398438 -37.839844 Z M 22.414062 -33.09375 C 19.835938 -33.09375 17.761719 -32.597656 16.191406 -31.601562 C 14.621094 -30.609375 13.472656 -29.121094 12.75 -27.144531 C 12.027344 -25.164062 11.640625 -22.683594 11.597656 -19.699219 L 11.597656 -18.617188 C 11.597656 -15.472656 11.941406 -12.816406 12.632812 -10.648438 C 13.320312 -8.476562 14.460938 -6.828125 16.054688 -5.695312 C 17.648438 -4.566406 19.792969 -4 22.480469 -4 C 24.785156 -4 26.707031 -4.621094 28.246094 -5.867188 C 29.78125 -7.109375 30.929688 -8.84375 31.6875 -11.070312 C 32.445312 -13.296875 32.824219 -15.859375 32.824219 -18.75 C 32.824219 -23.136719 31.96875 -26.625 30.261719 -29.210938 C 28.554688 -31.800781 25.941406 -33.09375 22.414062 -33.09375 Z "/>
</g>
<g id="glyph-0-11">
<path d="M 11.5625 -52.761719 L 11.5625 -36.992188 C 11.5625 -36.089844 11.539062 -35.179688 11.496094 -34.265625 C 11.449219 -33.347656 11.371094 -32.507812 11.257812 -31.738281 L 11.628906 -31.738281 C 12.398438 -33.050781 13.375 -34.152344 14.5625 -35.042969 C 15.75 -35.9375 17.101562 -36.617188 18.617188 -37.078125 C 20.128906 -37.542969 21.734375 -37.773438 23.429688 -37.773438 C 26.414062 -37.773438 28.90625 -37.300781 30.90625 -36.351562 C 32.90625 -35.402344 34.410156 -33.929688 35.417969 -31.941406 C 36.421875 -29.953125 36.925781 -27.375 36.925781 -24.210938 L 36.925781 0 L 31.367188 0 L 31.367188 -23.835938 C 31.367188 -26.933594 30.660156 -29.25 29.246094 -30.789062 C 27.832031 -32.324219 25.667969 -33.09375 22.753906 -33.09375 C 19.996094 -33.09375 17.796875 -32.570312 16.15625 -31.519531 C 14.519531 -30.46875 13.34375 -28.925781 12.632812 -26.890625 C 11.917969 -24.855469 11.5625 -22.367188 11.5625 -19.429688 L 11.5625 0 L 5.933594 0 L 5.933594 -52.761719 Z "/>
</g>
<g id="glyph-0-12">
<path d="M 23.53125 -37.839844 C 27.941406 -37.839844 31.273438 -36.761719 33.535156 -34.601562 C 35.796875 -32.445312 36.925781 -28.980469 36.925781 -24.210938 L 36.925781 0 L 31.367188 0 L 31.367188 -23.835938 C 31.367188 -26.933594 30.660156 -29.25 29.246094 -30.789062 C 27.832031 -32.324219 25.667969 -33.09375 22.753906 -33.09375 C 18.640625 -33.09375 15.746094 -31.929688 14.070312 -29.601562 C 12.398438 -27.273438 11.5625 -23.894531 11.5625 -19.464844 L 11.5625 0 L 5.933594 0 L 5.933594 -37.164062 L 10.476562 -37.164062 L 11.324219 -31.804688 L 11.628906 -31.804688 C 12.421875 -33.117188 13.425781 -34.21875 14.648438 -35.113281 C 15.867188 -36.003906 17.238281 -36.683594 18.75 -37.148438 C 20.265625 -37.609375 21.859375 -37.839844 23.53125 -37.839844 Z "/>
</g>
<g id="glyph-0-13">
<path d="M 36.621094 -37.164062 L 36.621094 0 L 32.007812 0 L 31.195312 -5.222656 L 30.890625 -5.222656 C 30.121094 -3.933594 29.128906 -2.847656 27.90625 -1.964844 C 26.6875 -1.085938 25.3125 -0.425781 23.785156 0.015625 C 22.261719 0.457031 20.640625 0.679688 18.921875 0.679688 C 15.984375 0.679688 13.519531 0.203125 11.527344 -0.746094 C 9.539062 -1.695312 8.042969 -3.164062 7.035156 -5.152344 C 6.03125 -7.144531 5.527344 -9.699219 5.527344 -12.816406 L 5.527344 -37.164062 L 11.222656 -37.164062 L 11.222656 -13.222656 C 11.222656 -10.125 11.925781 -7.816406 13.324219 -6.289062 C 14.726562 -4.765625 16.863281 -4 19.734375 -4 C 22.492188 -4 24.691406 -4.519531 26.328125 -5.5625 C 27.96875 -6.601562 29.148438 -8.132812 29.875 -10.15625 C 30.597656 -12.179688 30.957031 -14.660156 30.957031 -17.597656 L 30.957031 -37.164062 Z "/>
</g>
<g id="glyph-0-14">
<path d="M 11.597656 0 L 5.933594 0 L 5.933594 -52.761719 L 11.597656 -52.761719 Z "/>
</g>
<g id="glyph-0-15">
<path d="M 36.179688 -0.0664062 L 29.566406 -21.703125 C 29.273438 -22.628906 28.996094 -23.539062 28.738281 -24.429688 C 28.476562 -25.324219 28.238281 -26.183594 28.023438 -27.007812 C 27.808594 -27.832031 27.617188 -28.601562 27.449219 -29.3125 C 27.28125 -30.027344 27.136719 -30.640625 27.023438 -31.160156 L 26.789062 -31.160156 C 26.699219 -30.640625 26.574219 -30.027344 26.414062 -29.3125 C 26.257812 -28.601562 26.070312 -27.828125 25.855469 -26.992188 C 25.640625 -26.15625 25.410156 -25.277344 25.160156 -24.363281 C 24.910156 -23.449219 24.628906 -22.527344 24.3125 -21.601562 L 17.394531 -0.0664062 L 11.054688 -0.0664062 L 0.8125 -37.230469 L 6.644531 -37.230469 L 12.003906 -16.71875 C 12.367188 -15.359375 12.710938 -14.019531 13.039062 -12.699219 C 13.367188 -11.375 13.648438 -10.132812 13.886719 -8.96875 C 14.125 -7.804688 14.296875 -6.792969 14.410156 -5.933594 L 14.683594 -5.933594 C 14.820312 -6.5 14.96875 -7.175781 15.140625 -7.96875 C 15.308594 -8.757812 15.5 -9.601562 15.714844 -10.496094 C 15.929688 -11.386719 16.164062 -12.28125 16.410156 -13.171875 C 16.660156 -14.066406 16.910156 -14.910156 17.15625 -15.699219 L 24.007812 -37.230469 L 30.078125 -37.230469 L 36.6875 -15.734375 C 37.027344 -14.648438 37.363281 -13.519531 37.6875 -12.34375 C 38.015625 -11.167969 38.316406 -10.03125 38.585938 -8.933594 C 38.859375 -7.839844 39.050781 -6.859375 39.164062 -6 L 39.433594 -6 C 39.523438 -6.769531 39.695312 -7.71875 39.945312 -8.851562 C 40.191406 -9.980469 40.480469 -11.222656 40.808594 -12.578125 C 41.136719 -13.9375 41.480469 -15.316406 41.84375 -16.71875 L 47.269531 -37.230469 L 53 -37.230469 L 42.722656 -0.0664062 Z "/>
</g>
<g id="glyph-0-16">
<path d="M 11.527344 -52.761719 L 11.527344 -25.363281 C 11.527344 -24.460938 11.496094 -23.355469 11.425781 -22.058594 C 11.359375 -20.757812 11.304688 -19.609375 11.257812 -18.617188 L 11.496094 -18.617188 C 11.96875 -19.203125 12.664062 -20.074219 13.582031 -21.226562 C 14.496094 -22.378906 15.269531 -23.304688 15.902344 -24.007812 L 28.246094 -37.164062 L 34.859375 -37.164062 L 19.902344 -21.292969 L 35.941406 0 L 29.160156 0 L 16.039062 -17.597656 L 11.527344 -13.460938 L 11.527344 0 L 5.933594 0 L 5.933594 -52.761719 Z "/>
</g>
<g id="glyph-0-17">
<path d="M 29.976562 -10.171875 C 29.976562 -7.796875 29.382812 -5.804688 28.195312 -4.1875 C 27.007812 -2.570312 25.3125 -1.355469 23.109375 -0.542969 C 20.90625 0.269531 18.277344 0.679688 15.226562 0.679688 C 12.625 0.679688 10.375 0.476562 8.476562 0.0664062 C 6.578125 -0.339844 4.917969 -0.914062 3.492188 -1.660156 L 3.492188 -6.847656 C 5.007812 -6.101562 6.816406 -5.425781 8.917969 -4.816406 C 11.019531 -4.207031 13.167969 -3.898438 15.359375 -3.898438 C 18.570312 -3.898438 20.898438 -4.417969 22.34375 -5.460938 C 23.792969 -6.5 24.515625 -7.910156 24.515625 -9.699219 C 24.515625 -10.714844 24.226562 -11.613281 23.652344 -12.394531 C 23.074219 -13.171875 22.109375 -13.929688 20.75 -14.664062 C 19.394531 -15.398438 17.519531 -16.207031 15.125 -17.089844 C 12.75 -17.992188 10.699219 -18.894531 8.96875 -19.785156 C 7.238281 -20.679688 5.90625 -21.769531 4.96875 -23.058594 C 4.03125 -24.347656 3.558594 -26.019531 3.558594 -28.074219 C 3.558594 -31.21875 4.832031 -33.632812 7.375 -35.316406 C 9.917969 -37 13.257812 -37.839844 17.394531 -37.839844 C 19.632812 -37.839844 21.730469 -37.621094 23.683594 -37.179688 C 25.640625 -36.738281 27.464844 -36.144531 29.160156 -35.398438 L 27.261719 -30.890625 C 25.726562 -31.546875 24.085938 -32.101562 22.34375 -32.550781 C 20.605469 -33.003906 18.832031 -33.230469 17.023438 -33.230469 C 14.421875 -33.230469 12.425781 -32.800781 11.039062 -31.941406 C 9.648438 -31.082031 8.953125 -29.90625 8.953125 -28.414062 C 8.953125 -27.261719 9.273438 -26.3125 9.917969 -25.566406 C 10.5625 -24.820312 11.597656 -24.121094 13.019531 -23.464844 C 14.445312 -22.808594 16.320312 -22.039062 18.648438 -21.160156 C 20.976562 -20.300781 22.988281 -19.414062 24.683594 -18.496094 C 26.378906 -17.582031 27.6875 -16.472656 28.601562 -15.175781 C 29.515625 -13.875 29.976562 -12.207031 29.976562 -10.171875 Z "/>
</g>
</g>
<image id="source-20" x="0" y="0" width="0" height="0"/>
<mask id="mask-0">
<use xlink:href="#source-20"/>
</mask>
</defs>
<g fill="rgb(100%, 100%, 100%)" fill-opacity="1">
<use xlink:href="#glyph-0-0" x="30" y="94.225586"/>
<use xlink:href="#glyph-0-1" x="68" y="94.225586"/>
<use xlink:href="#glyph-0-2" x="107" y="94.225586"/>
<use xlink:href="#glyph-0-3" x="149" y="94.225586"/>
<use xlink:href="#glyph-0-1" x="213" y="94.225586"/>
<use xlink:href="#glyph-0-4" x="252" y="94.225586"/>
<use xlink:href="#glyph-0-5" x="277" y="94.225586"/>
<use xlink:href="#glyph-0-6" x="305" y="94.225586"/>
<use xlink:href="#glyph-0-7" x="323" y="94.225586"/>
<use xlink:href="#glyph-0-8" x="356" y="94.225586"/>
<use xlink:href="#glyph-0-0" x="374" y="94.225586"/>
<use xlink:href="#glyph-0-5" x="412" y="94.225586"/>
<use xlink:href="#glyph-0-9" x="440" y="94.225586"/>
<use xlink:href="#glyph-0-10" x="479" y="94.225586"/>
<use xlink:href="#glyph-0-11" x="521" y="94.225586"/>
<use xlink:href="#glyph-0-8" x="564" y="94.225586"/>
<use xlink:href="#glyph-0-12" x="582" y="94.225586"/>
<use xlink:href="#glyph-0-1" x="625" y="94.225586"/>
<use xlink:href="#glyph-0-13" x="664" y="94.225586"/>
<use xlink:href="#glyph-0-5" x="707" y="94.225586"/>
<use xlink:href="#glyph-0-9" x="735" y="94.225586"/>
<use xlink:href="#glyph-0-14" x="774" y="94.225586"/>
<use xlink:href="#glyph-0-8" x="792" y="94.225586"/>
<use xlink:href="#glyph-0-12" x="810" y="94.225586"/>
<use xlink:href="#glyph-0-1" x="853" y="94.225586"/>
<use xlink:href="#glyph-0-4" x="892" y="94.225586"/>
<use xlink:href="#glyph-0-15" x="917" y="94.225586"/>
<use xlink:href="#glyph-0-2" x="971" y="94.225586"/>
<use xlink:href="#glyph-0-5" x="1013" y="94.225586"/>
<use xlink:href="#glyph-0-16" x="1041" y="94.225586"/>
<use xlink:href="#glyph-0-17" x="1077" y="94.225586"/>
</g>
</svg>
