<?xml version="1.0" encoding="UTF-8"?>
<svg xmlns="http://www.w3.org/2000/svg" xmlns:xlink="http://www.w3.org/1999/xlink" width="1280" height="720" viewBox="0 0 1280 720">
<defs>
<g>
<g id="glyph-0-0">
<path d="M 20.140625 -18.703125 L 32.617188 -18.703125 L 32.617188 -1.390625 C 30.746094 -0.757812 28.820312 -0.285156 26.84375 0.0234375 C 24.867188 0.332031 22.65625 0.488281 20.214844 0.488281 C 16.503906 0.488281 13.375 -0.253906 10.828125 -1.734375 C 8.28125 -3.214844 6.347656 -5.328125 5.03125 -8.070312 C 3.710938 -10.8125 3.050781 -14.070312 3.050781 -17.847656 C 3.050781 -21.542969 3.78125 -24.765625 5.238281 -27.515625 C 6.695312 -30.265625 8.800781 -32.402344 11.558594 -33.921875 C 14.320312 -35.445312 17.636719 -36.207031 21.507812 -36.207031 C 23.492188 -36.207031 25.378906 -36.023438 27.160156 -35.65625 C 28.941406 -35.289062 30.597656 -34.773438 32.128906 -34.105469 L 30.542969 -30.492188 C 29.222656 -31.0625 27.769531 -31.550781 26.183594 -31.957031 C 24.597656 -32.363281 22.957031 -32.570312 21.265625 -32.570312 C 18.351562 -32.570312 15.855469 -31.964844 13.78125 -30.761719 C 11.707031 -29.558594 10.121094 -27.855469 9.019531 -25.660156 C 7.921875 -23.460938 7.375 -20.859375 7.375 -17.847656 C 7.375 -14.867188 7.851562 -12.277344 8.8125 -10.070312 C 9.773438 -7.867188 11.269531 -6.152344 13.304688 -4.929688 C 15.339844 -3.710938 17.960938 -3.101562 21.167969 -3.101562 C 22.777344 -3.101562 24.160156 -3.195312 25.316406 -3.382812 C 26.472656 -3.570312 27.523438 -3.792969 28.46875 -4.054688 L 28.46875 -14.992188 L 20.140625 -14.992188 Z "/>
</g>
<g id="glyph-0-1">
<path d="M 14.28125 -27.195312 C 17.472656 -27.195312 19.839844 -26.480469 21.386719 -25.046875 C 22.933594 -23.617188 23.707031 -21.328125 23.707031 -18.1875 L 23.707031 0 L 20.75 0 L 19.96875 -3.953125 L 19.773438 -3.953125 C 19.027344 -2.976562 18.246094 -2.160156 17.429688 -1.5 C 16.617188 -0.84375 15.679688 -0.347656 14.613281 -0.0117188 C 13.546875 0.320312 12.238281 0.488281 10.695312 0.488281 C 9.066406 0.488281 7.621094 0.203125 6.359375 -0.367188 C 5.097656 -0.9375 4.105469 -1.796875 3.382812 -2.953125 C 2.65625 -4.109375 2.296875 -5.574219 2.296875 -7.347656 C 2.296875 -10.015625 3.351562 -12.070312 5.46875 -13.5 C 7.585938 -14.933594 10.808594 -15.714844 15.136719 -15.84375 L 19.75 -16.039062 L 19.75 -17.675781 C 19.75 -19.988281 19.253906 -21.605469 18.261719 -22.535156 C 17.269531 -23.460938 15.867188 -23.925781 14.0625 -23.925781 C 12.664062 -23.925781 11.328125 -23.722656 10.058594 -23.316406 C 8.789062 -22.910156 7.585938 -22.429688 6.445312 -21.875 L 5.199219 -24.953125 C 6.40625 -25.570312 7.789062 -26.097656 9.351562 -26.539062 C 10.914062 -26.976562 12.558594 -27.195312 14.28125 -27.195312 Z M 19.703125 -13.183594 L 15.625 -13.011719 C 12.289062 -12.882812 9.9375 -12.335938 8.570312 -11.375 C 7.203125 -10.414062 6.519531 -9.058594 6.519531 -7.300781 C 6.519531 -5.769531 6.984375 -4.640625 7.910156 -3.90625 C 8.835938 -3.171875 10.066406 -2.808594 11.597656 -2.808594 C 13.972656 -2.808594 15.917969 -3.46875 17.429688 -4.785156 C 18.945312 -6.101562 19.703125 -8.082031 19.703125 -10.71875 Z "/>
</g>
</g>
</defs>
<g fill="rgb(100%, 100%, 100%)" fill-opacity="1">
<use xlink:href="#glyph-0-0" x="30" y="73.442383"/>
<use xlink:href="#glyph-0-1" x="66" y="73.442383"/>
</g>
</svg>
