<?xml version="1.0" encoding="UTF-8"?>
<svg xmlns="http://www.w3.org/2000/svg" xmlns:xlink="http://www.w3.org/1999/xlink" width="1280" height="720" viewBox="0 0 1280 720">
<defs>
<g>
<g id="glyph-0-0">
<path d="M 20.140625 -32.542969 C 18.171875 -32.542969 16.402344 -32.207031 14.832031 -31.53125 C 13.261719 -30.855469 11.925781 -29.878906 10.828125 -28.601562 C 9.730469 -27.324219 8.886719 -25.78125 8.300781 -23.976562 C 7.714844 -22.167969 7.421875 -20.132812 7.421875 -17.871094 C 7.421875 -14.875 7.890625 -12.277344 8.824219 -10.070312 C 9.761719 -7.867188 11.160156 -6.160156 13.023438 -4.957031 C 14.886719 -3.75 17.21875 -3.148438 20.019531 -3.148438 C 21.613281 -3.148438 23.117188 -3.285156 24.523438 -3.550781 C 25.929688 -3.820312 27.304688 -4.160156 28.636719 -4.566406 L 28.636719 -0.953125 C 27.335938 -0.464844 25.96875 -0.101562 24.535156 0.132812 C 23.101562 0.371094 21.402344 0.488281 19.433594 0.488281 C 15.804688 0.488281 12.773438 -0.265625 10.339844 -1.769531 C 7.90625 -3.273438 6.082031 -5.402344 4.871094 -8.15625 C 3.65625 -10.90625 3.050781 -14.152344 3.050781 -17.894531 C 3.050781 -20.597656 3.429688 -23.066406 4.1875 -25.304688 C 4.945312 -27.542969 6.050781 -29.476562 7.507812 -31.101562 C 8.964844 -32.730469 10.753906 -33.988281 12.878906 -34.875 C 15.003906 -35.761719 17.441406 -36.207031 20.191406 -36.207031 C 21.996094 -36.207031 23.738281 -36.027344 25.414062 -35.667969 C 27.089844 -35.3125 28.605469 -34.796875 29.957031 -34.132812 L 28.296875 -30.617188 C 27.15625 -31.136719 25.90625 -31.585938 24.546875 -31.96875 C 23.1875 -32.351562 21.71875 -32.542969 20.140625 -32.542969 Z "/>
</g>
<g id="glyph-0-1">
<path d="M 14.28125 -27.195312 C 17.472656 -27.195312 19.839844 -26.480469 21.386719 -25.046875 C 22.933594 -23.617188 23.707031 -21.328125 23.707031 -18.1875 L 23.707031 0 L 20.75 0 L 19.96875 -3.953125 L 19.773438 -3.953125 C 19.027344 -2.976562 18.246094 -2.160156 17.429688 -1.5 C 16.617188 -0.84375 15.679688 -0.347656 14.613281 -0.0117188 C 13.546875 0.320312 12.238281 0.488281 10.695312 0.488281 C 9.066406 0.488281 7.621094 0.203125 6.359375 -0.367188 C 5.097656 -0.9375 4.105469 -1.796875 3.382812 -2.953125 C 2.65625 -4.109375 2.296875 -5.574219 2.296875 -7.347656 C 2.296875 -10.015625 3.351562 -12.070312 5.46875 -13.5 C 7.585938 -14.933594 10.808594 -15.714844 15.136719 -15.84375 L 19.75 -16.039062 L 19.75 -17.675781 C 19.75 -19.988281 19.253906 -21.605469 18.261719 -22.535156 C 17.269531 -23.460938 15.867188 -23.925781 14.0625 -23.925781 C 12.664062 -23.925781 11.328125 -23.722656 10.058594 -23.316406 C 8.789062 -22.910156 7.585938 -22.429688 6.445312 -21.875 L 5.199219 -24.953125 C 6.40625 -25.570312 7.789062 -26.097656 9.351562 -26.539062 C 10.914062 -26.976562 12.558594 -27.195312 14.28125 -27.195312 Z M 19.703125 -13.183594 L 15.625 -13.011719 C 12.289062 -12.882812 9.9375 -12.335938 8.570312 -11.375 C 7.203125 -10.414062 6.519531 -9.058594 6.519531 -7.300781 C 6.519531 -5.769531 6.984375 -4.640625 7.910156 -3.90625 C 8.835938 -3.171875 10.066406 -2.808594 11.597656 -2.808594 C 13.972656 -2.808594 15.917969 -3.46875 17.429688 -4.785156 C 18.945312 -6.101562 19.703125 -8.082031 19.703125 -10.71875 Z "/>
</g>
</g>
</defs>
<g fill="rgb(100%, 100%, 100%)" fill-opacity="1">
<use xlink:href="#glyph-0-0" x="30" y="73.442383"/>
<use xlink:href="#glyph-0-1" x="61" y="73.442383"/>
</g>
</svg>
