<?xml version="1.0" encoding="UTF-8"?>
<svg xmlns="http://www.w3.org/2000/svg" xmlns:xlink="http://www.w3.org/1999/xlink" width="1280" height="720" viewBox="0 0 1280 720">
<defs>
<g>
<g id="glyph-0-0">
<path d="M 0.207031 -0.078125 C 1.035156 -0.9375 1.597656 -1.566406 1.890625 -1.96875 C 2.1875 -2.371094 2.335938 -2.765625 2.335938 -3.148438 C 2.335938 -3.480469 2.246094 -3.734375 2.066406 -3.910156 C 1.882812 -4.085938 1.667969 -4.175781 1.417969 -4.175781 C 1.109375 -4.175781 0.855469 -4.0625 0.664062 -3.835938 C 0.558594 -3.710938 0.457031 -3.519531 0.359375 -3.261719 L 0.214844 -3.292969 C 0.328125 -3.8125 0.519531 -4.171875 0.789062 -4.375 C 1.058594 -4.578125 1.347656 -4.679688 1.65625 -4.679688 C 2.039062 -4.679688 2.347656 -4.558594 2.585938 -4.316406 C 2.820312 -4.078125 2.941406 -3.78125 2.941406 -3.433594 C 2.941406 -3.0625 2.8125 -2.707031 2.558594 -2.363281 C 2.300781 -2.019531 1.746094 -1.410156 0.890625 -0.527344 L 2.449219 -0.527344 C 2.664062 -0.527344 2.816406 -0.554688 2.90625 -0.605469 C 2.996094 -0.660156 3.09375 -0.785156 3.203125 -0.988281 L 3.292969 -0.945312 L 2.917969 0 L 0.207031 0 Z "/>
</g>
<g id="glyph-0-1">
<path d="M 1.734375 -1.941406 C 1.886719 -1.941406 2.046875 -1.984375 2.210938 -2.070312 C 2.375 -2.15625 2.464844 -2.230469 2.488281 -2.289062 C 2.496094 -2.3125 2.503906 -2.394531 2.511719 -2.542969 C 2.519531 -2.6875 2.523438 -2.804688 2.523438 -2.894531 C 2.523438 -3.367188 2.445312 -3.746094 2.285156 -4.042969 C 2.128906 -4.335938 1.894531 -4.484375 1.589844 -4.484375 C 1.367188 -4.484375 1.191406 -4.382812 1.054688 -4.179688 C 0.917969 -3.980469 0.847656 -3.679688 0.847656 -3.277344 C 0.847656 -2.949219 0.910156 -2.644531 1.039062 -2.363281 C 1.167969 -2.082031 1.398438 -1.941406 1.734375 -1.941406 Z M 1.636719 -4.675781 C 2.132812 -4.675781 2.519531 -4.476562 2.789062 -4.082031 C 3.0625 -3.683594 3.199219 -3.242188 3.199219 -2.753906 C 3.199219 -2.410156 3.132812 -2.058594 3.003906 -1.707031 C 2.875 -1.351562 2.6875 -1.035156 2.441406 -0.757812 C 2.152344 -0.4375 1.789062 -0.195312 1.347656 -0.0390625 C 1.101562 0.046875 0.792969 0.117188 0.417969 0.164062 L 0.382812 0.0273438 C 0.617188 -0.0273438 0.8125 -0.0859375 0.96875 -0.144531 C 1.25 -0.257812 1.476562 -0.390625 1.644531 -0.550781 C 1.882812 -0.78125 2.074219 -1.035156 2.21875 -1.316406 C 2.363281 -1.597656 2.453125 -1.835938 2.488281 -2.023438 L 2.371094 -1.9375 C 2.203125 -1.808594 2.007812 -1.722656 1.78125 -1.675781 C 1.664062 -1.648438 1.554688 -1.632812 1.457031 -1.632812 C 1.074219 -1.632812 0.769531 -1.769531 0.542969 -2.042969 C 0.320312 -2.316406 0.207031 -2.640625 0.207031 -3.019531 C 0.207031 -3.5 0.339844 -3.894531 0.609375 -4.207031 C 0.875 -4.519531 1.21875 -4.675781 1.636719 -4.675781 Z "/>
</g>
</g>
</defs>
<g fill="rgb(0%, 0%, 0%)" fill-opacity="1">
<use xlink:href="#glyph-0-0" x="30" y="25.208008"/>
<use xlink:href="#glyph-0-1" x="33" y="25.208008"/>
</g>
</svg>
