<?xml version="1.0" encoding="UTF-8"?>
<svg xmlns="http://www.w3.org/2000/svg" xmlns:xlink="http://www.w3.org/1999/xlink" width="1280" height="720" viewBox="0 0 1280 720">
<defs>
<g>
<g id="glyph-0-0">
<path d="M 29.257812 0 L 22.664062 0 L 22.664062 -42.15625 C 22.664062 -43.753906 22.671875 -45.132812 22.683594 -46.285156 C 22.699219 -47.4375 22.726562 -48.496094 22.765625 -49.457031 C 22.804688 -50.421875 22.867188 -51.40625 22.949219 -52.410156 C 22.109375 -51.542969 21.320312 -50.800781 20.589844 -50.191406 C 19.855469 -49.582031 18.949219 -48.828125 17.863281 -47.933594 L 11.066406 -42.480469 L 7.527344 -47.078125 L 23.640625 -59.488281 L 29.257812 -59.488281 Z "/>
</g>
<g id="glyph-0-1">
<rect x="0" y="0" width="0" height="0" mask="url(#mask-0)"/>
</g>
<g id="glyph-0-2">
<path d="M 55.542969 -45.410156 C 60.453125 -45.410156 64.15625 -44.128906 66.648438 -41.566406 C 69.144531 -39 70.394531 -34.886719 70.394531 -29.214844 L 70.394531 0 L 63.71875 0 L 63.71875 -28.890625 C 63.71875 -32.496094 62.941406 -35.203125 61.378906 -37.007812 C 59.820312 -38.8125 57.507812 -39.714844 54.441406 -39.714844 C 50.128906 -39.714844 46.996094 -38.464844 45.042969 -35.96875 C 43.089844 -33.472656 42.113281 -29.796875 42.113281 -24.941406 L 42.113281 0 L 35.398438 0 L 35.398438 -28.890625 C 35.398438 -31.304688 35.054688 -33.3125 34.363281 -34.910156 C 33.671875 -36.511719 32.640625 -37.710938 31.269531 -38.511719 C 29.898438 -39.3125 28.171875 -39.714844 26.082031 -39.714844 C 23.125 -39.714844 20.75 -39.101562 18.960938 -37.882812 C 17.171875 -36.660156 15.875 -34.851562 15.074219 -32.449219 C 14.273438 -30.050781 13.875 -27.097656 13.875 -23.601562 L 13.875 0 L 7.121094 0 L 7.121094 -44.597656 L 12.574219 -44.597656 L 13.589844 -38.289062 L 13.957031 -38.289062 C 14.851562 -39.835938 15.976562 -41.136719 17.332031 -42.195312 C 18.691406 -43.253906 20.210938 -44.054688 21.890625 -44.597656 C 23.574219 -45.140625 25.363281 -45.410156 27.261719 -45.410156 C 30.652344 -45.410156 33.496094 -44.777344 35.785156 -43.519531 C 38.078125 -42.257812 39.742188 -40.335938 40.769531 -37.761719 L 41.136719 -37.761719 C 42.601562 -40.335938 44.609375 -42.257812 47.160156 -43.519531 C 49.710938 -44.78125 52.503906 -45.410156 55.542969 -45.410156 Z "/>
</g>
<g id="glyph-0-3">
<path d="M 13.875 -44.597656 L 13.875 0 L 7.121094 0 L 7.121094 -44.597656 Z M 10.578125 -61.277344 C 11.691406 -61.277344 12.648438 -60.917969 13.449219 -60.199219 C 14.25 -59.480469 14.648438 -58.363281 14.648438 -56.84375 C 14.648438 -55.351562 14.25 -54.238281 13.449219 -53.507812 C 12.648438 -52.773438 11.691406 -52.410156 10.578125 -52.410156 C 9.414062 -52.410156 8.441406 -52.773438 7.671875 -53.507812 C 6.898438 -54.238281 6.511719 -55.351562 6.511719 -56.84375 C 6.511719 -58.363281 6.898438 -59.480469 7.671875 -60.199219 C 8.445312 -60.917969 9.414062 -61.277344 10.578125 -61.277344 Z "/>
</g>
<g id="glyph-0-4">
<path d="M 13.914062 0 L 7.121094 0 L 7.121094 -63.3125 L 13.914062 -63.3125 Z "/>
</g>
<g id="glyph-0-5">
<path d="M 35.96875 -12.207031 C 35.96875 -9.359375 35.257812 -6.964844 33.832031 -5.023438 C 32.410156 -3.085938 30.375 -1.628906 27.730469 -0.652344 C 25.085938 0.324219 21.933594 0.8125 18.269531 0.8125 C 15.148438 0.8125 12.449219 0.570312 10.171875 0.0820312 C 7.894531 -0.40625 5.898438 -1.097656 4.191406 -1.992188 L 4.191406 -8.21875 C 6.007812 -7.324219 8.179688 -6.511719 10.703125 -5.777344 C 13.226562 -5.046875 15.800781 -4.679688 18.433594 -4.679688 C 22.285156 -4.679688 25.078125 -5.304688 26.816406 -6.550781 C 28.550781 -7.796875 29.417969 -9.496094 29.417969 -11.636719 C 29.417969 -12.859375 29.074219 -13.9375 28.382812 -14.871094 C 27.691406 -15.808594 26.53125 -16.714844 24.902344 -17.597656 C 23.273438 -18.480469 21.023438 -19.449219 18.148438 -20.507812 C 15.300781 -21.59375 12.835938 -22.671875 10.761719 -23.742188 C 8.6875 -24.8125 7.085938 -26.121094 5.960938 -27.667969 C 4.835938 -29.214844 4.273438 -31.222656 4.273438 -33.691406 C 4.273438 -37.460938 5.796875 -40.359375 8.851562 -42.378906 C 11.902344 -44.398438 15.910156 -45.410156 20.875 -45.410156 C 23.558594 -45.410156 26.074219 -45.144531 28.421875 -44.617188 C 30.769531 -44.085938 32.957031 -43.375 34.992188 -42.480469 L 32.714844 -37.070312 C 30.871094 -37.855469 28.902344 -38.519531 26.816406 -39.0625 C 24.726562 -39.605469 22.597656 -39.875 20.425781 -39.875 C 17.304688 -39.875 14.914062 -39.359375 13.246094 -38.328125 C 11.578125 -37.296875 10.742188 -35.886719 10.742188 -34.097656 C 10.742188 -32.714844 11.128906 -31.574219 11.902344 -30.679688 C 12.675781 -29.785156 13.914062 -28.945312 15.625 -28.15625 C 17.332031 -27.371094 19.585938 -26.449219 22.378906 -25.390625 C 25.171875 -24.359375 27.585938 -23.296875 29.621094 -22.195312 C 31.65625 -21.097656 33.222656 -19.769531 34.320312 -18.207031 C 35.421875 -16.648438 35.96875 -14.648438 35.96875 -12.207031 Z "/>
</g>
<g id="glyph-0-6">
<path d="M 24.292969 -45.410156 C 28.089844 -45.410156 31.34375 -44.570312 34.058594 -42.886719 C 36.769531 -41.207031 38.84375 -38.851562 40.28125 -35.828125 C 41.71875 -32.804688 42.441406 -29.269531 42.441406 -25.226562 L 42.441406 -21.035156 L 11.636719 -21.035156 C 11.71875 -15.800781 13.019531 -11.8125 15.542969 -9.074219 C 18.066406 -6.335938 21.621094 -4.964844 26.203125 -4.964844 C 29.023438 -4.964844 31.519531 -5.222656 33.691406 -5.738281 C 35.863281 -6.253906 38.113281 -7.011719 40.445312 -8.015625 L 40.445312 -2.074219 C 38.195312 -1.070312 35.964844 -0.339844 33.753906 0.121094 C 31.542969 0.582031 28.929688 0.8125 25.917969 0.8125 C 21.632812 0.8125 17.898438 -0.0625 14.710938 -1.8125 C 11.523438 -3.5625 9.046875 -6.128906 7.285156 -9.519531 C 5.519531 -12.910156 4.636719 -17.0625 4.636719 -21.972656 C 4.636719 -26.773438 5.445312 -30.929688 7.058594 -34.445312 C 8.671875 -37.957031 10.953125 -40.664062 13.894531 -42.5625 C 16.839844 -44.460938 20.304688 -45.410156 24.292969 -45.410156 Z M 24.210938 -39.875 C 20.601562 -39.875 17.726562 -38.695312 15.585938 -36.335938 C 13.441406 -33.976562 12.167969 -30.679688 11.757812 -26.449219 L 35.359375 -26.449219 C 35.332031 -29.105469 34.917969 -31.445312 34.117188 -33.46875 C 33.316406 -35.488281 32.105469 -37.0625 30.476562 -38.1875 C 28.847656 -39.3125 26.761719 -39.875 24.210938 -39.875 Z "/>
</g>
<g id="glyph-0-7">
<path d="M 24.984375 0.8125 C 20.96875 0.8125 17.429688 -0.0117188 14.363281 -1.667969 C 11.296875 -3.324219 8.910156 -5.847656 7.203125 -9.238281 C 5.492188 -12.628906 4.636719 -16.898438 4.636719 -22.054688 C 4.636719 -27.453125 5.539062 -31.867188 7.34375 -35.296875 C 9.148438 -38.730469 11.636719 -41.273438 14.8125 -42.929688 C 17.984375 -44.582031 21.59375 -45.410156 25.632812 -45.410156 C 27.859375 -45.410156 30.007812 -45.1875 32.085938 -44.738281 C 34.160156 -44.289062 35.863281 -43.726562 37.191406 -43.050781 L 35.15625 -37.394531 C 33.800781 -37.9375 32.234375 -38.425781 30.457031 -38.859375 C 28.679688 -39.292969 27.019531 -39.511719 25.472656 -39.511719 C 22.378906 -39.511719 19.808594 -38.84375 17.761719 -37.515625 C 15.714844 -36.1875 14.179688 -34.234375 13.164062 -31.65625 C 12.144531 -29.078125 11.636719 -25.90625 11.636719 -22.136719 C 11.636719 -18.527344 12.132812 -15.449219 13.121094 -12.898438 C 14.113281 -10.347656 15.589844 -8.402344 17.558594 -7.058594 C 19.523438 -5.714844 21.984375 -5.046875 24.941406 -5.046875 C 27.300781 -5.046875 29.433594 -5.296875 31.332031 -5.796875 C 33.230469 -6.300781 34.953125 -6.890625 36.5 -7.566406 L 36.5 -1.546875 C 35.007812 -0.785156 33.34375 -0.203125 31.515625 0.203125 C 29.683594 0.609375 27.507812 0.8125 24.984375 0.8125 Z "/>
</g>
<g id="glyph-0-8">
<path d="M 45.574219 -22.378906 C 45.574219 -18.71875 45.097656 -15.449219 44.148438 -12.574219 C 43.199219 -9.699219 41.828125 -7.269531 40.039062 -5.289062 C 38.25 -3.308594 36.085938 -1.796875 33.550781 -0.753906 C 31.011719 0.292969 28.144531 0.8125 24.941406 0.8125 C 21.957031 0.8125 19.226562 0.292969 16.742188 -0.753906 C 14.261719 -1.796875 12.117188 -3.308594 10.316406 -5.289062 C 8.511719 -7.269531 7.113281 -9.699219 6.125 -12.574219 C 5.132812 -15.449219 4.636719 -18.71875 4.636719 -22.378906 C 4.636719 -27.261719 5.464844 -31.417969 7.121094 -34.851562 C 8.777344 -38.28125 11.140625 -40.898438 14.222656 -42.703125 C 17.300781 -44.507812 20.96875 -45.410156 25.226562 -45.410156 C 29.296875 -45.410156 32.855469 -44.5 35.910156 -42.683594 C 38.960938 -40.867188 41.335938 -38.242188 43.03125 -34.808594 C 44.726562 -31.378906 45.574219 -27.234375 45.574219 -22.378906 Z M 11.636719 -22.378906 C 11.636719 -18.796875 12.113281 -15.691406 13.0625 -13.0625 C 14.011719 -10.429688 15.476562 -8.394531 17.457031 -6.957031 C 19.4375 -5.519531 21.984375 -4.800781 25.105469 -4.800781 C 28.199219 -4.800781 30.742188 -5.519531 32.734375 -6.957031 C 34.730469 -8.394531 36.199219 -10.429688 37.148438 -13.0625 C 38.097656 -15.691406 38.574219 -18.796875 38.574219 -22.378906 C 38.574219 -25.933594 38.097656 -29.003906 37.148438 -31.597656 C 36.199219 -34.1875 34.734375 -36.1875 32.753906 -37.597656 C 30.773438 -39.007812 28.210938 -39.714844 25.066406 -39.714844 C 20.425781 -39.714844 17.027344 -38.179688 14.871094 -35.117188 C 12.714844 -32.050781 11.636719 -27.804688 11.636719 -22.378906 Z "/>
</g>
<g id="glyph-0-9">
<path d="M 28.238281 -45.410156 C 33.527344 -45.410156 37.53125 -44.113281 40.242188 -41.523438 C 42.953125 -38.933594 44.3125 -34.777344 44.3125 -29.050781 L 44.3125 0 L 37.636719 0 L 37.636719 -28.605469 C 37.636719 -32.320312 36.789062 -35.101562 35.09375 -36.945312 C 33.398438 -38.789062 30.800781 -39.714844 27.304688 -39.714844 C 22.367188 -39.714844 18.894531 -38.316406 16.886719 -35.523438 C 14.878906 -32.730469 13.875 -28.671875 13.875 -23.355469 L 13.875 0 L 7.121094 0 L 7.121094 -44.597656 L 12.574219 -44.597656 L 13.589844 -38.167969 L 13.957031 -38.167969 C 14.90625 -39.742188 16.113281 -41.0625 17.578125 -42.132812 C 19.042969 -43.207031 20.683594 -44.019531 22.5 -44.574219 C 24.320312 -45.132812 26.230469 -45.410156 28.238281 -45.410156 Z "/>
</g>
<g id="glyph-0-10">
<path d="M 22.988281 0.8125 C 17.347656 0.8125 12.878906 -1.113281 9.582031 -4.964844 C 6.285156 -8.816406 4.636719 -14.539062 4.636719 -22.136719 C 4.636719 -29.8125 6.320312 -35.609375 9.683594 -39.53125 C 13.046875 -43.449219 17.523438 -45.410156 23.113281 -45.410156 C 25.472656 -45.410156 27.535156 -45.097656 29.296875 -44.472656 C 31.058594 -43.851562 32.578125 -43.015625 33.855469 -41.972656 C 35.128906 -40.925781 36.199219 -39.742188 37.070312 -38.410156 L 37.558594 -38.410156 C 37.449219 -39.25 37.339844 -40.40625 37.230469 -41.871094 C 37.121094 -43.335938 37.070312 -44.527344 37.070312 -45.449219 L 37.070312 -63.3125 L 43.824219 -63.3125 L 43.824219 0 L 38.371094 0 L 37.351562 -6.347656 L 37.070312 -6.347656 C 36.226562 -5.019531 35.164062 -3.8125 33.875 -2.726562 C 32.585938 -1.640625 31.054688 -0.78125 29.277344 -0.140625 C 27.5 0.496094 25.402344 0.8125 22.988281 0.8125 Z M 24.046875 -4.800781 C 28.820312 -4.800781 32.199219 -6.15625 34.179688 -8.871094 C 36.160156 -11.582031 37.148438 -15.613281 37.148438 -20.957031 L 37.148438 -22.175781 C 37.148438 -27.84375 36.207031 -32.199219 34.320312 -35.238281 C 32.4375 -38.277344 29.011719 -39.792969 24.046875 -39.792969 C 19.898438 -39.792969 16.792969 -38.199219 14.730469 -35.015625 C 12.667969 -31.828125 11.636719 -27.480469 11.636719 -21.972656 C 11.636719 -16.492188 12.660156 -12.261719 14.710938 -9.277344 C 16.757812 -6.292969 19.871094 -4.800781 24.046875 -4.800781 Z "/>
</g>
</g>
<image id="source-49" x="0" y="0" width="0" height="0"/>
<mask id="mask-0">
<use xlink:href="#source-49"/>
</mask>
</defs>
<g fill="rgb(100%, 100%, 100%)" fill-opacity="1">
<use xlink:href="#glyph-0-0" x="30" y="109.070312"/>
<use xlink:href="#glyph-0-1" x="78" y="109.070312"/>
<use xlink:href="#glyph-0-2" x="100" y="109.070312"/>
<use xlink:href="#glyph-0-3" x="177" y="109.070312"/>
<use xlink:href="#glyph-0-4" x="198" y="109.070312"/>
<use xlink:href="#glyph-0-4" x="219" y="109.070312"/>
<use xlink:href="#glyph-0-3" x="240" y="109.070312"/>
<use xlink:href="#glyph-0-5" x="261" y="109.070312"/>
<use xlink:href="#glyph-0-6" x="301" y="109.070312"/>
<use xlink:href="#glyph-0-7" x="348" y="109.070312"/>
<use xlink:href="#glyph-0-8" x="388" y="109.070312"/>
<use xlink:href="#glyph-0-9" x="438" y="109.070312"/>
<use xlink:href="#glyph-0-10" x="489" y="109.070312"/>
</g>
</svg>
