<?xml version="1.0" encoding="UTF-8"?>
<svg xmlns="http://www.w3.org/2000/svg" xmlns:xlink="http://www.w3.org/1999/xlink" width="1280" height="720" viewBox="0 0 1280 720">
<defs>
<g>
<g id="glyph-0-0">
<path d="M 3.335938 -22.828125 C 3.335938 -27.410156 3.777344 -31.875 4.660156 -36.214844 C 5.539062 -40.554688 6.890625 -44.691406 8.707031 -48.625 C 10.523438 -52.558594 12.816406 -56.179688 15.585938 -59.488281 L 22.054688 -59.488281 C 18.121094 -54.335938 15.164062 -48.609375 13.183594 -42.316406 C 11.203125 -36.023438 10.214844 -29.554688 10.214844 -22.910156 C 10.214844 -18.570312 10.652344 -14.289062 11.535156 -10.070312 C 12.417969 -5.851562 13.734375 -1.789062 15.484375 2.117188 C 17.234375 6.023438 19.394531 9.710938 21.972656 13.183594 L 15.585938 13.183594 C 12.816406 9.929688 10.523438 6.382812 8.707031 2.542969 C 6.890625 -1.296875 5.539062 -5.359375 4.660156 -9.644531 C 3.777344 -13.929688 3.335938 -18.324219 3.335938 -22.828125 Z "/>
</g>
<g id="glyph-0-1">
<path d="M 39.875 -36.582031 L 37.230469 -22.746094 L 48.746094 -22.746094 L 48.746094 -17.578125 L 36.214844 -17.578125 L 32.753906 0 L 27.261719 0 L 30.722656 -17.578125 L 18.308594 -17.578125 L 14.972656 0 L 9.5625 0 L 12.777344 -17.578125 L 2.117188 -17.578125 L 2.117188 -22.746094 L 13.792969 -22.746094 L 16.519531 -36.582031 L 5.207031 -36.582031 L 5.207031 -41.667969 L 17.457031 -41.667969 L 20.832031 -59.488281 L 26.40625 -59.488281 L 23.03125 -41.667969 L 35.523438 -41.667969 L 38.898438 -59.488281 L 44.269531 -59.488281 L 40.894531 -41.667969 L 51.675781 -41.667969 L 51.675781 -36.582031 Z M 19.285156 -22.746094 L 31.699219 -22.746094 L 34.382812 -36.582031 L 21.972656 -36.582031 Z "/>
</g>
<g id="glyph-0-2">
<rect x="0" y="0" width="0" height="0" mask="url(#mask-0)"/>
</g>
<g id="glyph-0-3">
<path d="M 35.96875 -12.207031 C 35.96875 -9.359375 35.257812 -6.964844 33.832031 -5.023438 C 32.410156 -3.085938 30.375 -1.628906 27.730469 -0.652344 C 25.085938 0.324219 21.933594 0.8125 18.269531 0.8125 C 15.148438 0.8125 12.449219 0.570312 10.171875 0.0820312 C 7.894531 -0.40625 5.898438 -1.097656 4.191406 -1.992188 L 4.191406 -8.21875 C 6.007812 -7.324219 8.179688 -6.511719 10.703125 -5.777344 C 13.226562 -5.046875 15.800781 -4.679688 18.433594 -4.679688 C 22.285156 -4.679688 25.078125 -5.304688 26.816406 -6.550781 C 28.550781 -7.796875 29.417969 -9.496094 29.417969 -11.636719 C 29.417969 -12.859375 29.074219 -13.9375 28.382812 -14.871094 C 27.691406 -15.808594 26.53125 -16.714844 24.902344 -17.597656 C 23.273438 -18.480469 21.023438 -19.449219 18.148438 -20.507812 C 15.300781 -21.59375 12.835938 -22.671875 10.761719 -23.742188 C 8.6875 -24.8125 7.085938 -26.121094 5.960938 -27.667969 C 4.835938 -29.214844 4.273438 -31.222656 4.273438 -33.691406 C 4.273438 -37.460938 5.796875 -40.359375 8.851562 -42.378906 C 11.902344 -44.398438 15.910156 -45.410156 20.875 -45.410156 C 23.558594 -45.410156 26.074219 -45.144531 28.421875 -44.617188 C 30.769531 -44.085938 32.957031 -43.375 34.992188 -42.480469 L 32.714844 -37.070312 C 30.871094 -37.855469 28.902344 -38.519531 26.816406 -39.0625 C 24.726562 -39.605469 22.597656 -39.875 20.425781 -39.875 C 17.304688 -39.875 14.914062 -39.359375 13.246094 -38.328125 C 11.578125 -37.296875 10.742188 -35.886719 10.742188 -34.097656 C 10.742188 -32.714844 11.128906 -31.574219 11.902344 -30.679688 C 12.675781 -29.785156 13.914062 -28.945312 15.625 -28.15625 C 17.332031 -27.371094 19.585938 -26.449219 22.378906 -25.390625 C 25.171875 -24.359375 27.585938 -23.296875 29.621094 -22.195312 C 31.65625 -21.097656 33.222656 -19.769531 34.320312 -18.207031 C 35.421875 -16.648438 35.96875 -14.648438 35.96875 -12.207031 Z "/>
</g>
<g id="glyph-0-4">
<path d="M 21.523438 -4.71875 C 22.636719 -4.71875 23.777344 -4.816406 24.941406 -5.003906 C 26.109375 -5.195312 27.058594 -5.425781 27.792969 -5.695312 L 27.792969 -0.449219 C 27.003906 -0.09375 25.914062 0.203125 24.515625 0.449219 C 23.117188 0.691406 21.753906 0.8125 20.425781 0.8125 C 18.066406 0.8125 15.921875 0.398438 13.996094 -0.425781 C 12.070312 -1.253906 10.53125 -2.660156 9.378906 -4.636719 C 8.226562 -6.617188 7.648438 -9.359375 7.648438 -12.859375 L 7.648438 -39.304688 L 1.300781 -39.304688 L 1.300781 -42.601562 L 7.691406 -45.246094 L 10.375 -54.929688 L 14.445312 -54.929688 L 14.445312 -44.597656 L 27.507812 -44.597656 L 27.507812 -39.304688 L 14.445312 -39.304688 L 14.445312 -13.0625 C 14.445312 -10.269531 15.089844 -8.179688 16.378906 -6.796875 C 17.667969 -5.414062 19.382812 -4.71875 21.523438 -4.71875 Z "/>
</g>
<g id="glyph-0-5">
<path d="M 24.292969 -45.410156 C 28.089844 -45.410156 31.34375 -44.570312 34.058594 -42.886719 C 36.769531 -41.207031 38.84375 -38.851562 40.28125 -35.828125 C 41.71875 -32.804688 42.441406 -29.269531 42.441406 -25.226562 L 42.441406 -21.035156 L 11.636719 -21.035156 C 11.71875 -15.800781 13.019531 -11.8125 15.542969 -9.074219 C 18.066406 -6.335938 21.621094 -4.964844 26.203125 -4.964844 C 29.023438 -4.964844 31.519531 -5.222656 33.691406 -5.738281 C 35.863281 -6.253906 38.113281 -7.011719 40.445312 -8.015625 L 40.445312 -2.074219 C 38.195312 -1.070312 35.964844 -0.339844 33.753906 0.121094 C 31.542969 0.582031 28.929688 0.8125 25.917969 0.8125 C 21.632812 0.8125 17.898438 -0.0625 14.710938 -1.8125 C 11.523438 -3.5625 9.046875 -6.128906 7.285156 -9.519531 C 5.519531 -12.910156 4.636719 -17.0625 4.636719 -21.972656 C 4.636719 -26.773438 5.445312 -30.929688 7.058594 -34.445312 C 8.671875 -37.957031 10.953125 -40.664062 13.894531 -42.5625 C 16.839844 -44.460938 20.304688 -45.410156 24.292969 -45.410156 Z M 24.210938 -39.875 C 20.601562 -39.875 17.726562 -38.695312 15.585938 -36.335938 C 13.441406 -33.976562 12.167969 -30.679688 11.757812 -26.449219 L 35.359375 -26.449219 C 35.332031 -29.105469 34.917969 -31.445312 34.117188 -33.46875 C 33.316406 -35.488281 32.105469 -37.0625 30.476562 -38.1875 C 28.847656 -39.3125 26.761719 -39.875 24.210938 -39.875 Z "/>
</g>
<g id="glyph-0-6">
<path d="M 28.074219 -45.410156 C 33.636719 -45.410156 38.070312 -43.496094 41.382812 -39.671875 C 44.691406 -35.847656 46.347656 -30.097656 46.347656 -22.421875 C 46.347656 -17.347656 45.585938 -13.089844 44.066406 -9.644531 C 42.546875 -6.199219 40.410156 -3.59375 37.660156 -1.832031 C 34.90625 -0.0664062 31.65625 0.8125 27.914062 0.8125 C 25.554688 0.8125 23.476562 0.5 21.6875 -0.121094 C 19.898438 -0.746094 18.363281 -1.585938 17.089844 -2.644531 C 15.816406 -3.703125 14.757812 -4.855469 13.914062 -6.101562 L 13.425781 -6.101562 C 13.507812 -5.042969 13.609375 -3.769531 13.734375 -2.277344 C 13.855469 -0.785156 13.914062 0.515625 13.914062 1.628906 L 13.914062 19.9375 L 7.121094 19.9375 L 7.121094 -44.597656 L 12.695312 -44.597656 L 13.589844 -38.003906 L 13.914062 -38.003906 C 14.785156 -39.359375 15.84375 -40.601562 17.089844 -41.726562 C 18.335938 -42.851562 19.863281 -43.75 21.667969 -44.414062 C 23.472656 -45.078125 25.609375 -45.410156 28.074219 -45.410156 Z M 26.894531 -39.714844 C 23.804688 -39.714844 21.316406 -39.117188 19.429688 -37.921875 C 17.542969 -36.730469 16.167969 -34.945312 15.300781 -32.574219 C 14.433594 -30.199219 13.96875 -27.222656 13.914062 -23.640625 L 13.914062 -22.339844 C 13.914062 -18.570312 14.328125 -15.378906 15.15625 -12.777344 C 15.984375 -10.171875 17.355469 -8.191406 19.265625 -6.835938 C 21.179688 -5.480469 23.75 -4.800781 26.976562 -4.800781 C 29.742188 -4.800781 32.050781 -5.546875 33.894531 -7.039062 C 35.738281 -8.53125 37.117188 -10.613281 38.023438 -13.285156 C 38.933594 -15.957031 39.386719 -19.03125 39.386719 -22.5 C 39.386719 -27.761719 38.363281 -31.949219 36.316406 -35.054688 C 34.269531 -38.160156 31.128906 -39.714844 26.894531 -39.714844 Z "/>
</g>
<g id="glyph-0-7">
<path d="M 21.238281 -22.910156 C 21.238281 -18.378906 20.800781 -13.964844 19.917969 -9.664062 C 19.035156 -5.363281 17.691406 -1.289062 15.890625 2.5625 C 14.085938 6.414062 11.785156 9.957031 8.992188 13.183594 L 2.605469 13.183594 C 5.207031 9.738281 7.386719 6.050781 9.136719 2.117188 C 10.886719 -1.816406 12.199219 -5.894531 13.082031 -10.113281 C 13.964844 -14.332031 14.402344 -18.609375 14.402344 -22.949219 C 14.402344 -27.371094 13.957031 -31.722656 13.0625 -36.011719 C 12.167969 -40.296875 10.84375 -44.417969 9.09375 -48.378906 C 7.34375 -52.339844 5.152344 -56.042969 2.523438 -59.488281 L 8.992188 -59.488281 C 11.785156 -56.152344 14.085938 -52.523438 15.890625 -48.605469 C 17.695312 -44.683594 19.035156 -40.5625 19.917969 -36.234375 C 20.800781 -31.90625 21.238281 -27.464844 21.238281 -22.910156 Z "/>
</g>
<g id="glyph-0-8">
<path d="M 17.742188 -22.828125 L 2.320312 -44.597656 L 10.050781 -44.597656 L 21.808594 -27.425781 L 33.527344 -44.597656 L 41.179688 -44.597656 L 25.757812 -22.828125 L 42.03125 0 L 34.300781 0 L 21.808594 -18.1875 L 9.238281 0 L 1.585938 0 Z "/>
</g>
<g id="glyph-0-9">
<path d="M 24.984375 0.8125 C 20.96875 0.8125 17.429688 -0.0117188 14.363281 -1.667969 C 11.296875 -3.324219 8.910156 -5.847656 7.203125 -9.238281 C 5.492188 -12.628906 4.636719 -16.898438 4.636719 -22.054688 C 4.636719 -27.453125 5.539062 -31.867188 7.34375 -35.296875 C 9.148438 -38.730469 11.636719 -41.273438 14.8125 -42.929688 C 17.984375 -44.582031 21.59375 -45.410156 25.632812 -45.410156 C 27.859375 -45.410156 30.007812 -45.1875 32.085938 -44.738281 C 34.160156 -44.289062 35.863281 -43.726562 37.191406 -43.050781 L 35.15625 -37.394531 C 33.800781 -37.9375 32.234375 -38.425781 30.457031 -38.859375 C 28.679688 -39.292969 27.019531 -39.511719 25.472656 -39.511719 C 22.378906 -39.511719 19.808594 -38.84375 17.761719 -37.515625 C 15.714844 -36.1875 14.179688 -34.234375 13.164062 -31.65625 C 12.144531 -29.078125 11.636719 -25.90625 11.636719 -22.136719 C 11.636719 -18.527344 12.132812 -15.449219 13.121094 -12.898438 C 14.113281 -10.347656 15.589844 -8.402344 17.558594 -7.058594 C 19.523438 -5.714844 21.984375 -5.046875 24.941406 -5.046875 C 27.300781 -5.046875 29.433594 -5.296875 31.332031 -5.796875 C 33.230469 -6.300781 34.953125 -6.890625 36.5 -7.566406 L 36.5 -1.546875 C 35.007812 -0.785156 33.34375 -0.203125 31.515625 0.203125 C 29.683594 0.609375 27.507812 0.8125 24.984375 0.8125 Z "/>
</g>
<g id="glyph-0-10">
<path d="M 45.574219 -22.378906 C 45.574219 -18.71875 45.097656 -15.449219 44.148438 -12.574219 C 43.199219 -9.699219 41.828125 -7.269531 40.039062 -5.289062 C 38.25 -3.308594 36.085938 -1.796875 33.550781 -0.753906 C 31.011719 0.292969 28.144531 0.8125 24.941406 0.8125 C 21.957031 0.8125 19.226562 0.292969 16.742188 -0.753906 C 14.261719 -1.796875 12.117188 -3.308594 10.316406 -5.289062 C 8.511719 -7.269531 7.113281 -9.699219 6.125 -12.574219 C 5.132812 -15.449219 4.636719 -18.71875 4.636719 -22.378906 C 4.636719 -27.261719 5.464844 -31.417969 7.121094 -34.851562 C 8.777344 -38.28125 11.140625 -40.898438 14.222656 -42.703125 C 17.300781 -44.507812 20.96875 -45.410156 25.226562 -45.410156 C 29.296875 -45.410156 32.855469 -44.5 35.910156 -42.683594 C 38.960938 -40.867188 41.335938 -38.242188 43.03125 -34.808594 C 44.726562 -31.378906 45.574219 -27.234375 45.574219 -22.378906 Z M 11.636719 -22.378906 C 11.636719 -18.796875 12.113281 -15.691406 13.0625 -13.0625 C 14.011719 -10.429688 15.476562 -8.394531 17.457031 -6.957031 C 19.4375 -5.519531 21.984375 -4.800781 25.105469 -4.800781 C 28.199219 -4.800781 30.742188 -5.519531 32.734375 -6.957031 C 34.730469 -8.394531 36.199219 -10.429688 37.148438 -13.0625 C 38.097656 -15.691406 38.574219 -18.796875 38.574219 -22.378906 C 38.574219 -25.933594 38.097656 -29.003906 37.148438 -31.597656 C 36.199219 -34.1875 34.734375 -36.1875 32.753906 -37.597656 C 30.773438 -39.007812 28.210938 -39.714844 25.066406 -39.714844 C 20.425781 -39.714844 17.027344 -38.179688 14.871094 -35.117188 C 12.714844 -32.050781 11.636719 -27.804688 11.636719 -22.378906 Z "/>
</g>
<g id="glyph-0-11">
<path d="M 29.664062 -59.488281 L 7.527344 0 L 0.855469 0 L 23.03125 -59.488281 Z "/>
</g>
</g>
<image id="source-76" x="0" y="0" width="0" height="0"/>
<mask id="mask-0">
<use xlink:href="#source-76"/>
</mask>
</defs>
<g fill="rgb(100%, 100%, 100%)" fill-opacity="1">
<use xlink:href="#glyph-0-0" x="30" y="109.070312"/>
<use xlink:href="#glyph-0-1" x="55" y="109.070312"/>
<use xlink:href="#glyph-0-2" x="109" y="109.070312"/>
<use xlink:href="#glyph-0-3" x="131" y="109.070312"/>
<use xlink:href="#glyph-0-4" x="171" y="109.070312"/>
<use xlink:href="#glyph-0-5" x="201" y="109.070312"/>
<use xlink:href="#glyph-0-6" x="248" y="109.070312"/>
<use xlink:href="#glyph-0-3" x="299" y="109.070312"/>
<use xlink:href="#glyph-0-7" x="339" y="109.070312"/>
<use xlink:href="#glyph-0-2" x="364" y="109.070312"/>
<use xlink:href="#glyph-0-2" x="386" y="109.070312"/>
<use xlink:href="#glyph-0-8" x="408" y="109.070312"/>
<use xlink:href="#glyph-0-2" x="452" y="109.070312"/>
<use xlink:href="#glyph-0-2" x="474" y="109.070312"/>
<use xlink:href="#glyph-0-0" x="496" y="109.070312"/>
<use xlink:href="#glyph-0-9" x="521" y="109.070312"/>
<use xlink:href="#glyph-0-10" x="561" y="109.070312"/>
<use xlink:href="#glyph-0-3" x="611" y="109.070312"/>
<use xlink:href="#glyph-0-4" x="651" y="109.070312"/>
<use xlink:href="#glyph-0-11" x="681" y="109.070312"/>
<use xlink:href="#glyph-0-3" x="712" y="109.070312"/>
<use xlink:href="#glyph-0-4" x="752" y="109.070312"/>
<use xlink:href="#glyph-0-5" x="782" y="109.070312"/>
<use xlink:href="#glyph-0-6" x="829" y="109.070312"/>
<use xlink:href="#glyph-0-7" x="880" y="109.070312"/>
</g>
</svg>
